<?xml version="1.0" encoding="UTF-8" standalone="no"?>
<!DOCTYPE svg PUBLIC "-//W3C//DTD SVG 1.1//EN"
 "http://www.w3.org/Graphics/SVG/1.1/DTD/svg11.dtd">
<!-- Generated by graphviz version 2.43.0 (0)
 -->
<!-- Title: Affichage.cpp Pages: 1 -->
<svg width="1251pt" height="412pt"
 viewBox="0.00 0.00 1250.50 412.00" xmlns="http://www.w3.org/2000/svg" xmlns:xlink="http://www.w3.org/1999/xlink">
<g id="graph0" class="graph" transform="scale(1 1) rotate(0) translate(4 408)">
<title>Affichage.cpp</title>
<!-- Node1 -->
<g id="Node000001" class="node">
<title>Node1</title>
<g id="a_Node000001"><a xlink:title=" ">
<polygon fill="#999999" stroke="#666666" points="1011,-404 928,-404 928,-385 1011,-385 1011,-404"/>
<text text-anchor="middle" x="969.5" y="-392" font-family="Helvetica,sans-Serif" font-size="10.00">Affichage.cpp</text>
</a>
</g>
</g>
<!-- Node2 -->
<g id="Node000002" class="node">
<title>Node2</title>
<g id="a_Node000002"><a xlink:href="Affichage_8h.html" target="_top" xlink:title=" ">
<polygon fill="white" stroke="#666666" points="561,-349 490,-349 490,-330 561,-330 561,-349"/>
<text text-anchor="middle" x="525.5" y="-337" font-family="Helvetica,sans-Serif" font-size="10.00">Affichage.h</text>
</a>
</g>
</g>
<!-- Node1&#45;&gt;Node2 -->
<g id="edge1_Node000001_Node000002" class="edge">
<title>Node1&#45;&gt;Node2</title>
<g id="a_edge1_Node000001_Node000002"><a xlink:title=" ">
<path fill="none" stroke="#63b8ff" d="M927.73,-388.51C844.34,-378.56 657.81,-356.29 571.25,-345.96"/>
<polygon fill="#63b8ff" stroke="#63b8ff" points="571.55,-342.47 561.2,-344.76 570.72,-349.42 571.55,-342.47"/>
</a>
</g>
</g>
<!-- Node12 -->
<g id="Node000012" class="node">
<title>Node12</title>
<g id="a_Node000012"><a xlink:title=" ">
<polygon fill="#e0e0e0" stroke="#999999" points="208.5,-19 164.5,-19 164.5,0 208.5,0 208.5,-19"/>
<text text-anchor="middle" x="186.5" y="-7" font-family="Helvetica,sans-Serif" font-size="10.00">string</text>
</a>
</g>
</g>
<!-- Node1&#45;&gt;Node12 -->
<g id="edge37_Node000001_Node000012" class="edge">
<title>Node1&#45;&gt;Node12</title>
<g id="a_edge37_Node000001_Node000012"><a xlink:title=" ">
<path fill="none" stroke="#63b8ff" d="M963.8,-384.96C952.53,-367.23 928.5,-324.81 928.5,-285.5 928.5,-285.5 928.5,-285.5 928.5,-118.5 928.5,-45.71 362.06,-17.67 219.01,-11.75"/>
<polygon fill="#63b8ff" stroke="#63b8ff" points="218.84,-8.24 208.71,-11.33 218.56,-15.23 218.84,-8.24"/>
</a>
</g>
</g>
<!-- Node15 -->
<g id="Node000015" class="node">
<title>Node15</title>
<g id="a_Node000015"><a xlink:title=" ">
<polygon fill="#e0e0e0" stroke="#999999" points="727.5,-129 689.5,-129 689.5,-110 727.5,-110 727.5,-129"/>
<text text-anchor="middle" x="708.5" y="-117" font-family="Helvetica,sans-Serif" font-size="10.00">map</text>
</a>
</g>
</g>
<!-- Node1&#45;&gt;Node15 -->
<g id="edge36_Node000001_Node000015" class="edge">
<title>Node1&#45;&gt;Node15</title>
<g id="a_edge36_Node000001_Node000015"><a xlink:title=" ">
<path fill="none" stroke="#63b8ff" d="M955.06,-384.93C942.78,-376.98 925.44,-364.13 914.5,-349 896.82,-324.55 890.5,-315.67 890.5,-285.5 890.5,-285.5 890.5,-285.5 890.5,-228.5 890.5,-158.35 789.27,-132.77 737.81,-124.29"/>
<polygon fill="#63b8ff" stroke="#63b8ff" points="738.05,-120.79 727.63,-122.73 736.99,-127.71 738.05,-120.79"/>
</a>
</g>
</g>
<!-- Node21 -->
<g id="Node000021" class="node">
<title>Node21</title>
<g id="a_Node000021"><a xlink:title=" ">
<polygon fill="#e0e0e0" stroke="#999999" points="1066.5,-349 956.5,-349 956.5,-330 1066.5,-330 1066.5,-349"/>
<text text-anchor="middle" x="1011.5" y="-337" font-family="Helvetica,sans-Serif" font-size="10.00">QGraphicsTextItem</text>
</a>
</g>
</g>
<!-- Node1&#45;&gt;Node21 -->
<g id="edge33_Node000001_Node000021" class="edge">
<title>Node1&#45;&gt;Node21</title>
<g id="a_edge33_Node000001_Node000021"><a xlink:title=" ">
<path fill="none" stroke="#63b8ff" d="M976.44,-384.75C982.37,-377.26 991.07,-366.28 998.32,-357.13"/>
<polygon fill="#63b8ff" stroke="#63b8ff" points="1001.23,-359.1 1004.69,-349.09 995.74,-354.75 1001.23,-359.1"/>
</a>
</g>
</g>
<!-- Node22 -->
<g id="Node000022" class="node">
<title>Node22</title>
<g id="a_Node000022"><a xlink:title=" ">
<polygon fill="#e0e0e0" stroke="#999999" points="1168.5,-349 1084.5,-349 1084.5,-330 1168.5,-330 1168.5,-349"/>
<text text-anchor="middle" x="1126.5" y="-337" font-family="Helvetica,sans-Serif" font-size="10.00">QMouseEvent</text>
</a>
</g>
</g>
<!-- Node1&#45;&gt;Node22 -->
<g id="edge34_Node000001_Node000022" class="edge">
<title>Node1&#45;&gt;Node22</title>
<g id="a_edge34_Node000001_Node000022"><a xlink:title=" ">
<path fill="none" stroke="#63b8ff" d="M994.72,-384.98C1020.86,-376.16 1061.9,-362.31 1091.23,-352.41"/>
<polygon fill="#63b8ff" stroke="#63b8ff" points="1092.72,-355.6 1101.08,-349.08 1090.48,-348.96 1092.72,-355.6"/>
</a>
</g>
</g>
<!-- Node23 -->
<g id="Node000023" class="node">
<title>Node23</title>
<g id="a_Node000023"><a xlink:title=" ">
<polygon fill="#e0e0e0" stroke="#999999" points="1242.5,-349 1186.5,-349 1186.5,-330 1242.5,-330 1242.5,-349"/>
<text text-anchor="middle" x="1214.5" y="-337" font-family="Helvetica,sans-Serif" font-size="10.00">QDebug</text>
</a>
</g>
</g>
<!-- Node1&#45;&gt;Node23 -->
<g id="edge35_Node000001_Node000023" class="edge">
<title>Node1&#45;&gt;Node23</title>
<g id="a_edge35_Node000001_Node000023"><a xlink:title=" ">
<path fill="none" stroke="#63b8ff" d="M1010.19,-384.98C1050.1,-376.59 1112.94,-363.26 1176.45,-349.21"/>
<polygon fill="#63b8ff" stroke="#63b8ff" points="1177.22,-352.62 1186.23,-347.04 1175.71,-345.79 1177.22,-352.62"/>
</a>
</g>
</g>
<!-- Node3 -->
<g id="Node000003" class="node">
<title>Node3</title>
<g id="a_Node000003"><a xlink:title=" ">
<polygon fill="#e0e0e0" stroke="#999999" points="347,-294 260,-294 260,-275 347,-275 347,-294"/>
<text text-anchor="middle" x="303.5" y="-282" font-family="Helvetica,sans-Serif" font-size="10.00">QMainWindow</text>
</a>
</g>
</g>
<!-- Node2&#45;&gt;Node3 -->
<g id="edge2_Node000002_Node000003" class="edge">
<title>Node2&#45;&gt;Node3</title>
<g id="a_edge2_Node000002_Node000003"><a xlink:title=" ">
<path fill="none" stroke="#63b8ff" d="M489.83,-329.98C451.67,-320.87 391.03,-306.4 349.35,-296.45"/>
<polygon fill="#63b8ff" stroke="#63b8ff" points="349.99,-293 339.45,-294.08 348.36,-299.81 349.99,-293"/>
</a>
</g>
</g>
<!-- Node4 -->
<g id="Node000004" class="node">
<title>Node4</title>
<g id="a_Node000004"><a xlink:title=" ">
<polygon fill="#e0e0e0" stroke="#999999" points="461.5,-294 365.5,-294 365.5,-275 461.5,-275 461.5,-294"/>
<text text-anchor="middle" x="413.5" y="-282" font-family="Helvetica,sans-Serif" font-size="10.00">QGraphicsScene</text>
</a>
</g>
</g>
<!-- Node2&#45;&gt;Node4 -->
<g id="edge3_Node000002_Node000004" class="edge">
<title>Node2&#45;&gt;Node4</title>
<g id="a_edge3_Node000002_Node000004"><a xlink:title=" ">
<path fill="none" stroke="#63b8ff" d="M507.51,-329.98C489.57,-321.5 461.78,-308.35 441.07,-298.54"/>
<polygon fill="#63b8ff" stroke="#63b8ff" points="442.36,-295.28 431.82,-294.17 439.36,-301.61 442.36,-295.28"/>
</a>
</g>
</g>
<!-- Node5 -->
<g id="Node000005" class="node">
<title>Node5</title>
<g id="a_Node000005"><a xlink:title=" ">
<polygon fill="#e0e0e0" stroke="#999999" points="571,-294 480,-294 480,-275 571,-275 571,-294"/>
<text text-anchor="middle" x="525.5" y="-282" font-family="Helvetica,sans-Serif" font-size="10.00">QGraphicsView</text>
</a>
</g>
</g>
<!-- Node2&#45;&gt;Node5 -->
<g id="edge4_Node000002_Node000005" class="edge">
<title>Node2&#45;&gt;Node5</title>
<g id="a_edge4_Node000002_Node000005"><a xlink:title=" ">
<path fill="none" stroke="#63b8ff" d="M525.5,-329.75C525.5,-322.8 525.5,-312.85 525.5,-304.13"/>
<polygon fill="#63b8ff" stroke="#63b8ff" points="529,-304.09 525.5,-294.09 522,-304.09 529,-304.09"/>
</a>
</g>
</g>
<!-- Node6 -->
<g id="Node000006" class="node">
<title>Node6</title>
<g id="a_Node000006"><a xlink:title=" ">
<polygon fill="#e0e0e0" stroke="#999999" points="700,-294 589,-294 589,-275 700,-275 700,-294"/>
<text text-anchor="middle" x="644.5" y="-282" font-family="Helvetica,sans-Serif" font-size="10.00">QGraphicsRectItem</text>
</a>
</g>
</g>
<!-- Node2&#45;&gt;Node6 -->
<g id="edge5_Node000002_Node000006" class="edge">
<title>Node2&#45;&gt;Node6</title>
<g id="a_edge5_Node000002_Node000006"><a xlink:title=" ">
<path fill="none" stroke="#63b8ff" d="M544.62,-329.98C563.85,-321.42 593.73,-308.11 615.81,-298.28"/>
<polygon fill="#63b8ff" stroke="#63b8ff" points="617.32,-301.44 625.03,-294.17 614.47,-295.04 617.32,-301.44"/>
</a>
</g>
</g>
<!-- Node7 -->
<g id="Node000007" class="node">
<title>Node7</title>
<g id="a_Node000007"><a xlink:title=" ">
<polygon fill="#e0e0e0" stroke="#999999" points="791,-294 718,-294 718,-275 791,-275 791,-294"/>
<text text-anchor="middle" x="754.5" y="-282" font-family="Helvetica,sans-Serif" font-size="10.00">QTransform</text>
</a>
</g>
</g>
<!-- Node2&#45;&gt;Node7 -->
<g id="edge6_Node000002_Node000007" class="edge">
<title>Node2&#45;&gt;Node7</title>
<g id="a_edge6_Node000002_Node000007"><a xlink:title=" ">
<path fill="none" stroke="#63b8ff" d="M561.28,-330.22C600.84,-321.06 664.71,-306.28 708.09,-296.24"/>
<polygon fill="#63b8ff" stroke="#63b8ff" points="708.88,-299.65 717.83,-293.99 707.3,-292.83 708.88,-299.65"/>
</a>
</g>
</g>
<!-- Node8 -->
<g id="Node000008" class="node">
<title>Node8</title>
<g id="a_Node000008"><a xlink:title=" ">
<polygon fill="#e0e0e0" stroke="#999999" points="862,-294 809,-294 809,-275 862,-275 862,-294"/>
<text text-anchor="middle" x="835.5" y="-282" font-family="Helvetica,sans-Serif" font-size="10.00">QtMath</text>
</a>
</g>
</g>
<!-- Node2&#45;&gt;Node8 -->
<g id="edge7_Node000002_Node000008" class="edge">
<title>Node2&#45;&gt;Node8</title>
<g id="a_edge7_Node000002_Node000008"><a xlink:title=" ">
<path fill="none" stroke="#63b8ff" d="M561.26,-333.62C612.03,-326.5 708.11,-312.28 798.89,-294.2"/>
<polygon fill="#63b8ff" stroke="#63b8ff" points="799.68,-297.62 808.79,-292.21 798.3,-290.75 799.68,-297.62"/>
</a>
</g>
</g>
<!-- Node9 -->
<g id="Node000009" class="node">
<title>Node9</title>
<g id="a_Node000009"><a xlink:href="Plateau_8h.html" target="_top" xlink:title="Déclaration de la classe Plateau.">
<polygon fill="white" stroke="#666666" points="178.5,-294 116.5,-294 116.5,-275 178.5,-275 178.5,-294"/>
<text text-anchor="middle" x="147.5" y="-282" font-family="Helvetica,sans-Serif" font-size="10.00">Plateau.h</text>
</a>
</g>
</g>
<!-- Node2&#45;&gt;Node9 -->
<g id="edge8_Node000002_Node000009" class="edge">
<title>Node2&#45;&gt;Node9</title>
<g id="a_edge8_Node000002_Node000009"><a xlink:title=" ">
<path fill="none" stroke="#63b8ff" d="M489.94,-333.51C419.64,-323.66 263.25,-301.73 188.64,-291.27"/>
<polygon fill="#63b8ff" stroke="#63b8ff" points="189.06,-287.79 178.68,-289.87 188.09,-294.73 189.06,-287.79"/>
</a>
</g>
</g>
<!-- Node14 -->
<g id="Node000014" class="node">
<title>Node14</title>
<g id="a_Node000014"><a xlink:href="Joueur_8h.html" target="_top" xlink:title="Déclaration de la classe Joueur.">
<polygon fill="white" stroke="#666666" points="401.5,-184 345.5,-184 345.5,-165 401.5,-165 401.5,-184"/>
<text text-anchor="middle" x="373.5" y="-172" font-family="Helvetica,sans-Serif" font-size="10.00">Joueur.h</text>
</a>
</g>
</g>
<!-- Node2&#45;&gt;Node14 -->
<g id="edge32_Node000002_Node000014" class="edge">
<title>Node2&#45;&gt;Node14</title>
<g id="a_edge32_Node000002_Node000014"><a xlink:title=" ">
<path fill="none" stroke="#63b8ff" d="M489.75,-338.21C422.42,-336.82 280.83,-329.63 250.5,-294 214.9,-252.17 295.22,-208.83 342.34,-188.07"/>
<polygon fill="#63b8ff" stroke="#63b8ff" points="343.75,-191.27 351.56,-184.11 340.99,-184.84 343.75,-191.27"/>
</a>
</g>
</g>
<!-- Node10 -->
<g id="Node000010" class="node">
<title>Node10</title>
<g id="a_Node000010"><a xlink:title=" ">
<polygon fill="#e0e0e0" stroke="#999999" points="210,-129 163,-129 163,-110 210,-110 210,-129"/>
<text text-anchor="middle" x="186.5" y="-117" font-family="Helvetica,sans-Serif" font-size="10.00">vector</text>
</a>
</g>
</g>
<!-- Node9&#45;&gt;Node10 -->
<g id="edge9_Node000009_Node000010" class="edge">
<title>Node9&#45;&gt;Node10</title>
<g id="a_edge9_Node000009_Node000010"><a xlink:title=" ">
<path fill="none" stroke="#63b8ff" d="M145.7,-274.68C143.97,-265.74 141.48,-251.48 140.5,-239 137.91,-205.91 136.66,-195.17 150.5,-165 155.3,-154.54 163.12,-144.44 170.25,-136.51"/>
<polygon fill="#63b8ff" stroke="#63b8ff" points="172.92,-138.78 177.27,-129.12 167.85,-133.96 172.92,-138.78"/>
</a>
</g>
</g>
<!-- Node11 -->
<g id="Node000011" class="node">
<title>Node11</title>
<g id="a_Node000011"><a xlink:href="Ville_8h.html" target="_top" xlink:title="Déclaration de la classe Ville.">
<polygon fill="white" stroke="#666666" points="47,-74 0,-74 0,-55 47,-55 47,-74"/>
<text text-anchor="middle" x="23.5" y="-62" font-family="Helvetica,sans-Serif" font-size="10.00">Ville.h</text>
</a>
</g>
</g>
<!-- Node9&#45;&gt;Node11 -->
<g id="edge10_Node000009_Node000011" class="edge">
<title>Node9&#45;&gt;Node11</title>
<g id="a_edge10_Node000009_Node000011"><a xlink:title=" ">
<path fill="none" stroke="#63b8ff" d="M136.97,-274.78C111.84,-253.22 48.76,-194.37 25.5,-129 20.35,-114.53 20.21,-97.02 21.16,-84.05"/>
<polygon fill="#63b8ff" stroke="#63b8ff" points="24.65,-84.32 22.16,-74.02 17.68,-83.62 24.65,-84.32"/>
</a>
</g>
</g>
<!-- Node13 -->
<g id="Node000013" class="node">
<title>Node13</title>
<g id="a_Node000013"><a xlink:href="Route_8h.html" target="_top" xlink:title="Déclaration de la classe Route.">
<polygon fill="white" stroke="#666666" points="203.5,-239 149.5,-239 149.5,-220 203.5,-220 203.5,-239"/>
<text text-anchor="middle" x="176.5" y="-227" font-family="Helvetica,sans-Serif" font-size="10.00">Route.h</text>
</a>
</g>
</g>
<!-- Node9&#45;&gt;Node13 -->
<g id="edge12_Node000009_Node000013" class="edge">
<title>Node9&#45;&gt;Node13</title>
<g id="a_edge12_Node000009_Node000013"><a xlink:title=" ">
<path fill="none" stroke="#63b8ff" d="M152.29,-274.75C156.26,-267.49 162.03,-256.95 166.93,-247.98"/>
<polygon fill="#63b8ff" stroke="#63b8ff" points="170.07,-249.54 171.8,-239.09 163.93,-246.18 170.07,-249.54"/>
</a>
</g>
</g>
<!-- Node17 -->
<g id="Node000017" class="node">
<title>Node17</title>
<g id="a_Node000017"><a xlink:href="Ticket_8h.html" target="_top" xlink:title="Déclaration de la classe Ticket.">
<polygon fill="white" stroke="#666666" points="102,-129 47,-129 47,-110 102,-110 102,-129"/>
<text text-anchor="middle" x="74.5" y="-117" font-family="Helvetica,sans-Serif" font-size="10.00">Ticket.h</text>
</a>
</g>
</g>
<!-- Node9&#45;&gt;Node17 -->
<g id="edge31_Node000009_Node000017" class="edge">
<title>Node9&#45;&gt;Node17</title>
<g id="a_edge31_Node000009_Node000017"><a xlink:title=" ">
<path fill="none" stroke="#63b8ff" d="M143.58,-274.74C132.09,-249.09 98.36,-173.78 82.69,-138.78"/>
<polygon fill="#63b8ff" stroke="#63b8ff" points="85.73,-137 78.44,-129.31 79.34,-139.86 85.73,-137"/>
</a>
</g>
</g>
<!-- Node18 -->
<g id="Node000018" class="node">
<title>Node18</title>
<g id="a_Node000018"><a xlink:href="CarteTrain_8h.html" target="_top" xlink:title="Description de la classe CarteTrain.">
<polygon fill="white" stroke="#666666" points="497,-129 422,-129 422,-110 497,-110 497,-129"/>
<text text-anchor="middle" x="459.5" y="-117" font-family="Helvetica,sans-Serif" font-size="10.00">CarteTrain.h</text>
</a>
</g>
</g>
<!-- Node9&#45;&gt;Node18 -->
<g id="edge30_Node000009_Node000018" class="edge">
<title>Node9&#45;&gt;Node18</title>
<g id="a_edge30_Node000009_Node000018"><a xlink:title=" ">
<path fill="none" stroke="#63b8ff" d="M178.53,-277.56C230.63,-266.39 337.15,-238.34 410.5,-184 427.23,-171.61 441.13,-152.03 449.8,-137.89"/>
<polygon fill="#63b8ff" stroke="#63b8ff" points="452.9,-139.52 454.94,-129.12 446.86,-135.98 452.9,-139.52"/>
</a>
</g>
</g>
<!-- Node11&#45;&gt;Node12 -->
<g id="edge11_Node000011_Node000012" class="edge">
<title>Node11&#45;&gt;Node12</title>
<g id="a_edge11_Node000011_Node000012"><a xlink:title=" ">
<path fill="none" stroke="#63b8ff" d="M47.2,-55.79C75.57,-46.57 123.17,-31.09 154.71,-20.84"/>
<polygon fill="#63b8ff" stroke="#63b8ff" points="155.91,-24.13 164.34,-17.71 153.75,-17.47 155.91,-24.13"/>
</a>
</g>
</g>
<!-- Node13&#45;&gt;Node11 -->
<g id="edge26_Node000013_Node000011" class="edge">
<title>Node13&#45;&gt;Node11</title>
<g id="a_edge26_Node000013_Node000011"><a xlink:title=" ">
<path fill="none" stroke="#63b8ff" d="M156.33,-219.9C125.59,-205.7 67.41,-174.33 37.5,-129 28.66,-115.6 25.32,-97.5 24.1,-84.05"/>
<polygon fill="#63b8ff" stroke="#63b8ff" points="27.59,-83.82 23.5,-74.05 20.6,-84.24 27.59,-83.82"/>
</a>
</g>
</g>
<!-- Node13&#45;&gt;Node12 -->
<g id="edge13_Node000013_Node000012" class="edge">
<title>Node13&#45;&gt;Node12</title>
<g id="a_edge13_Node000013_Node000012"><a xlink:title=" ">
<path fill="none" stroke="#63b8ff" d="M169.61,-219.93C163.23,-211.4 154.19,-197.65 150.5,-184 135.33,-127.98 162.08,-60.29 177.19,-28.56"/>
<polygon fill="#63b8ff" stroke="#63b8ff" points="180.5,-29.77 181.8,-19.25 174.23,-26.67 180.5,-29.77"/>
</a>
</g>
</g>
<!-- Node13&#45;&gt;Node14 -->
<g id="edge14_Node000013_Node000014" class="edge">
<title>Node13&#45;&gt;Node14</title>
<g id="a_edge14_Node000013_Node000014"><a xlink:title=" ">
<path fill="none" stroke="#63b8ff" d="M203.04,-219.98C237.22,-210.21 296.53,-194.25 335.48,-184.34"/>
<polygon fill="#63b8ff" stroke="#63b8ff" points="336.56,-187.67 345.4,-181.83 334.84,-180.88 336.56,-187.67"/>
</a>
</g>
</g>
<!-- Node16 -->
<g id="Node000016" class="node">
<title>Node16</title>
<g id="a_Node000016"><a xlink:href="CouleurWagon_8h.html" target="_top" xlink:title="Définition des couleurs de wagons des joueurs.">
<polygon fill="white" stroke="#666666" points="365.5,-129 269.5,-129 269.5,-110 365.5,-110 365.5,-129"/>
<text text-anchor="middle" x="317.5" y="-117" font-family="Helvetica,sans-Serif" font-size="10.00">CouleurWagon.h</text>
</a>
</g>
</g>
<!-- Node13&#45;&gt;Node16 -->
<g id="edge29_Node000013_Node000016" class="edge">
<title>Node13&#45;&gt;Node16</title>
<g id="a_edge29_Node000013_Node000016"><a xlink:title=" ">
<path fill="none" stroke="#63b8ff" d="M203.63,-221C233.97,-212.14 280.57,-196.96 293.5,-184 305.59,-171.89 311.68,-153.09 314.7,-139.09"/>
<polygon fill="#63b8ff" stroke="#63b8ff" points="318.17,-139.57 316.51,-129.1 311.28,-138.32 318.17,-139.57"/>
</a>
</g>
</g>
<!-- Node19 -->
<g id="Node000019" class="node">
<title>Node19</title>
<g id="a_Node000019"><a xlink:href="CouleurCarte_8h.html" target="_top" xlink:title="Définition des couleurs de cartes train et utilitaire de conversion.">
<polygon fill="white" stroke="#666666" points="286,-74 197,-74 197,-55 286,-55 286,-74"/>
<text text-anchor="middle" x="241.5" y="-62" font-family="Helvetica,sans-Serif" font-size="10.00">CouleurCarte.h</text>
</a>
</g>
</g>
<!-- Node13&#45;&gt;Node19 -->
<g id="edge27_Node000013_Node000019" class="edge">
<title>Node13&#45;&gt;Node19</title>
<g id="a_edge27_Node000013_Node000019"><a xlink:title=" ">
<path fill="none" stroke="#63b8ff" d="M203.63,-222.09C223.2,-215.9 248.24,-204.36 260.5,-184 270.46,-167.46 256.04,-112.76 247.32,-83.83"/>
<polygon fill="#63b8ff" stroke="#63b8ff" points="250.62,-82.65 244.32,-74.13 243.93,-84.72 250.62,-82.65"/>
</a>
</g>
</g>
<!-- Node20 -->
<g id="Node000020" class="node">
<title>Node20</title>
<g id="a_Node000020"><a xlink:href="CouleurRoute_8h.html" target="_top" xlink:title="Définition des couleurs de routes du plateau.">
<polygon fill="white" stroke="#666666" points="251.5,-184 159.5,-184 159.5,-165 251.5,-165 251.5,-184"/>
<text text-anchor="middle" x="205.5" y="-172" font-family="Helvetica,sans-Serif" font-size="10.00">CouleurRoute.h</text>
</a>
</g>
</g>
<!-- Node13&#45;&gt;Node20 -->
<g id="edge28_Node000013_Node000020" class="edge">
<title>Node13&#45;&gt;Node20</title>
<g id="a_edge28_Node000013_Node000020"><a xlink:title=" ">
<path fill="none" stroke="#63b8ff" d="M181.29,-219.75C185.26,-212.49 191.03,-201.95 195.93,-192.98"/>
<polygon fill="#63b8ff" stroke="#63b8ff" points="199.07,-194.54 200.8,-184.09 192.93,-191.18 199.07,-194.54"/>
</a>
</g>
</g>
<!-- Node14&#45;&gt;Node10 -->
<g id="edge16_Node000014_Node000010" class="edge">
<title>Node14&#45;&gt;Node10</title>
<g id="a_edge16_Node000014_Node000010"><a xlink:title=" ">
<path fill="none" stroke="#63b8ff" d="M345.1,-165.45C311.53,-155.94 255.73,-140.12 220.06,-130.01"/>
<polygon fill="#63b8ff" stroke="#63b8ff" points="220.7,-126.55 210.12,-127.2 218.79,-133.29 220.7,-126.55"/>
</a>
</g>
</g>
<!-- Node14&#45;&gt;Node12 -->
<g id="edge15_Node000014_Node000012" class="edge">
<title>Node14&#45;&gt;Node12</title>
<g id="a_edge15_Node000014_Node000012"><a xlink:title=" ">
<path fill="none" stroke="#63b8ff" d="M376.16,-164.68C379.49,-151.82 383.74,-127.56 374.5,-110 343.64,-51.33 263.61,-26.02 218.55,-16.13"/>
<polygon fill="#63b8ff" stroke="#63b8ff" points="219.2,-12.69 208.7,-14.09 217.78,-19.54 219.2,-12.69"/>
</a>
</g>
</g>
<!-- Node14&#45;&gt;Node13 -->
<g id="edge25_Node000014_Node000013" class="edge">
<title>Node14&#45;&gt;Node13</title>
<g id="a_edge25_Node000014_Node000013"><a xlink:title=" ">
<path fill="none" stroke="#63b8ff" d="M346.88,-184.04C312.38,-193.91 252.37,-210.05 213.48,-219.93"/>
<polygon fill="#63b8ff" stroke="#63b8ff" points="212.43,-216.58 203.59,-222.42 214.14,-223.37 212.43,-216.58"/>
</a>
</g>
</g>
<!-- Node14&#45;&gt;Node15 -->
<g id="edge17_Node000014_Node000015" class="edge">
<title>Node14&#45;&gt;Node15</title>
<g id="a_edge17_Node000014_Node000015"><a xlink:title=" ">
<path fill="none" stroke="#63b8ff" d="M401.77,-169.03C464.55,-159.09 615.06,-135.28 678.98,-125.17"/>
<polygon fill="#63b8ff" stroke="#63b8ff" points="679.84,-128.58 689.17,-123.56 678.75,-121.66 679.84,-128.58"/>
</a>
</g>
</g>
<!-- Node14&#45;&gt;Node16 -->
<g id="edge18_Node000014_Node000016" class="edge">
<title>Node14&#45;&gt;Node16</title>
<g id="a_edge18_Node000014_Node000016"><a xlink:title=" ">
<path fill="none" stroke="#63b8ff" d="M364.5,-164.98C356.31,-157.23 343.99,-145.58 334.03,-136.14"/>
<polygon fill="#63b8ff" stroke="#63b8ff" points="336.33,-133.5 326.66,-129.17 331.52,-138.59 336.33,-133.5"/>
</a>
</g>
</g>
<!-- Node14&#45;&gt;Node17 -->
<g id="edge19_Node000014_Node000017" class="edge">
<title>Node14&#45;&gt;Node17</title>
<g id="a_edge19_Node000014_Node000017"><a xlink:title=" ">
<path fill="none" stroke="#63b8ff" d="M345.37,-168.51C291.36,-158.94 173.12,-137.98 112.29,-127.2"/>
<polygon fill="#63b8ff" stroke="#63b8ff" points="112.79,-123.73 102.34,-125.43 111.57,-130.63 112.79,-123.73"/>
</a>
</g>
</g>
<!-- Node14&#45;&gt;Node18 -->
<g id="edge22_Node000014_Node000018" class="edge">
<title>Node14&#45;&gt;Node18</title>
<g id="a_edge22_Node000014_Node000018"><a xlink:title=" ">
<path fill="none" stroke="#63b8ff" d="M387.32,-164.98C400.65,-156.77 421.08,-144.18 436.81,-134.49"/>
<polygon fill="#63b8ff" stroke="#63b8ff" points="438.75,-137.4 445.43,-129.17 435.08,-131.44 438.75,-137.4"/>
</a>
</g>
</g>
<!-- Node17&#45;&gt;Node11 -->
<g id="edge20_Node000017_Node000011" class="edge">
<title>Node17&#45;&gt;Node11</title>
<g id="a_edge20_Node000017_Node000011"><a xlink:title=" ">
<path fill="none" stroke="#63b8ff" d="M66.08,-109.75C58.73,-102.11 47.87,-90.82 38.96,-81.56"/>
<polygon fill="#63b8ff" stroke="#63b8ff" points="41.22,-78.87 31.76,-74.09 36.18,-83.72 41.22,-78.87"/>
</a>
</g>
</g>
<!-- Node17&#45;&gt;Node12 -->
<g id="edge21_Node000017_Node000012" class="edge">
<title>Node17&#45;&gt;Node12</title>
<g id="a_edge21_Node000017_Node000012"><a xlink:title=" ">
<path fill="none" stroke="#63b8ff" d="M78.86,-109.9C85.75,-96.89 100.17,-71.94 117.5,-55 130.09,-42.69 146.59,-31.9 160.3,-24.03"/>
<polygon fill="#63b8ff" stroke="#63b8ff" points="162.21,-26.97 169.26,-19.07 158.82,-20.85 162.21,-26.97"/>
</a>
</g>
</g>
<!-- Node18&#45;&gt;Node19 -->
<g id="edge23_Node000018_Node000019" class="edge">
<title>Node18&#45;&gt;Node19</title>
<g id="a_edge23_Node000018_Node000019"><a xlink:title=" ">
<path fill="none" stroke="#63b8ff" d="M424.47,-109.98C387,-100.87 327.45,-86.4 286.52,-76.45"/>
<polygon fill="#63b8ff" stroke="#63b8ff" points="287.34,-73.04 276.8,-74.08 285.69,-79.85 287.34,-73.04"/>
</a>
</g>
</g>
<!-- Node19&#45;&gt;Node12 -->
<g id="edge24_Node000019_Node000012" class="edge">
<title>Node19&#45;&gt;Node12</title>
<g id="a_edge24_Node000019_Node000012"><a xlink:title=" ">
<path fill="none" stroke="#63b8ff" d="M232.42,-54.75C224.41,-47.03 212.54,-35.6 202.88,-26.28"/>
<polygon fill="#63b8ff" stroke="#63b8ff" points="205.04,-23.51 195.41,-19.09 200.19,-28.55 205.04,-23.51"/>
</a>
</g>
</g>
</g>
</svg>
