<?xml version="1.0" encoding="UTF-8" standalone="no"?>
<!DOCTYPE svg PUBLIC "-//W3C//DTD SVG 1.1//EN"
 "http://www.w3.org/Graphics/SVG/1.1/DTD/svg11.dtd">
<!-- Generated by graphviz version 2.43.0 (0)
 -->
<!-- Title: CarteTrain.h Pages: 1 -->
<svg width="559pt" height="302pt"
 viewBox="0.00 0.00 559.00 302.00" xmlns="http://www.w3.org/2000/svg" xmlns:xlink="http://www.w3.org/1999/xlink">
<g id="graph0" class="graph" transform="scale(1 1) rotate(0) translate(4 298)">
<title>CarteTrain.h</title>
<!-- Node1 -->
<g id="Node000001" class="node">
<title>Node1</title>
<g id="a_Node000001"><a xlink:title="Description de la classe CarteTrain.">
<polygon fill="#999999" stroke="#666666" points="342.5,-294 267.5,-294 267.5,-275 342.5,-275 342.5,-294"/>
<text text-anchor="middle" x="305" y="-282" font-family="Helvetica,sans-Serif" font-size="10.00">CarteTrain.h</text>
</a>
</g>
</g>
<!-- Node2 -->
<g id="Node000002" class="node">
<title>Node2</title>
<g id="a_Node000002"><a xlink:href="CarteTrain_8cpp.html" target="_top" xlink:title=" ">
<polygon fill="white" stroke="#666666" points="86,-239 0,-239 0,-220 86,-220 86,-239"/>
<text text-anchor="middle" x="43" y="-227" font-family="Helvetica,sans-Serif" font-size="10.00">CarteTrain.cpp</text>
</a>
</g>
</g>
<!-- Node1&#45;&gt;Node2 -->
<g id="edge1_Node000001_Node000002" class="edge">
<title>Node1&#45;&gt;Node2</title>
<g id="a_edge1_Node000001_Node000002"><a xlink:title=" ">
<path fill="none" stroke="#63b8ff" d="M257.4,-273.87C208.26,-263.93 132.32,-248.57 85.24,-239.05"/>
<polygon fill="#63b8ff" stroke="#63b8ff" points="256.97,-277.35 267.46,-275.91 258.35,-270.49 256.97,-277.35"/>
</a>
</g>
</g>
<!-- Node3 -->
<g id="Node000003" class="node">
<title>Node3</title>
<g id="a_Node000003"><a xlink:href="Joueur_8h.html" target="_top" xlink:title="Déclaration de la classe Joueur.">
<polygon fill="white" stroke="#666666" points="333,-239 277,-239 277,-220 333,-220 333,-239"/>
<text text-anchor="middle" x="305" y="-227" font-family="Helvetica,sans-Serif" font-size="10.00">Joueur.h</text>
</a>
</g>
</g>
<!-- Node1&#45;&gt;Node3 -->
<g id="edge2_Node000001_Node000003" class="edge">
<title>Node1&#45;&gt;Node3</title>
<g id="a_edge2_Node000001_Node000003"><a xlink:title=" ">
<path fill="none" stroke="#63b8ff" d="M305,-264.66C305,-255.93 305,-245.99 305,-239.09"/>
<polygon fill="#63b8ff" stroke="#63b8ff" points="301.5,-264.75 305,-274.75 308.5,-264.75 301.5,-264.75"/>
</a>
</g>
</g>
<!-- Node6 -->
<g id="Node000006" class="node">
<title>Node6</title>
<g id="a_Node000006"><a xlink:href="main_8cpp.html" target="_top" xlink:title="Point d&#39;entrée du jeu Les Aventuriers du Rail.">
<polygon fill="white" stroke="#666666" points="273,-19 211,-19 211,0 273,0 273,-19"/>
<text text-anchor="middle" x="242" y="-7" font-family="Helvetica,sans-Serif" font-size="10.00">main.cpp</text>
</a>
</g>
</g>
<!-- Node1&#45;&gt;Node6 -->
<g id="edge22_Node000001_Node000006" class="edge">
<title>Node1&#45;&gt;Node6</title>
<g id="a_edge22_Node000001_Node000006"><a xlink:title=" ">
<path fill="none" stroke="#63b8ff" d="M257.08,-277.46C200.5,-267.34 114,-241.13 114,-175.5 114,-175.5 114,-175.5 114,-118.5 114,-65.58 178.7,-33.32 216.1,-19.09"/>
<polygon fill="#63b8ff" stroke="#63b8ff" points="256.82,-280.97 267.26,-279.17 257.98,-274.06 256.82,-280.97"/>
</a>
</g>
</g>
<!-- Node8 -->
<g id="Node000008" class="node">
<title>Node8</title>
<g id="a_Node000008"><a xlink:href="Plateau_8cpp.html" target="_top" xlink:title=" ">
<polygon fill="white" stroke="#666666" points="551,-74 477,-74 477,-55 551,-55 551,-74"/>
<text text-anchor="middle" x="514" y="-62" font-family="Helvetica,sans-Serif" font-size="10.00">Plateau.cpp</text>
</a>
</g>
</g>
<!-- Node1&#45;&gt;Node8 -->
<g id="edge20_Node000001_Node000008" class="edge">
<title>Node1&#45;&gt;Node8</title>
<g id="a_edge20_Node000001_Node000008"><a xlink:title=" ">
<path fill="none" stroke="#63b8ff" d="M324.71,-268.38C335.2,-260.06 348.14,-249.34 359,-239 420.71,-180.22 485.99,-100.47 507.04,-74.25"/>
<polygon fill="#63b8ff" stroke="#63b8ff" points="322.29,-265.83 316.57,-274.75 326.6,-271.34 322.29,-265.83"/>
</a>
</g>
</g>
<!-- Node11 -->
<g id="Node000011" class="node">
<title>Node11</title>
<g id="a_Node000011"><a xlink:href="Plateau_8h.html" target="_top" xlink:title="Déclaration de la classe Plateau.">
<polygon fill="white" stroke="#666666" points="357,-129 295,-129 295,-110 357,-110 357,-129"/>
<text text-anchor="middle" x="326" y="-117" font-family="Helvetica,sans-Serif" font-size="10.00">Plateau.h</text>
</a>
</g>
</g>
<!-- Node1&#45;&gt;Node11 -->
<g id="edge21_Node000001_Node000011" class="edge">
<title>Node1&#45;&gt;Node11</title>
<g id="a_edge21_Node000001_Node000011"><a xlink:title=" ">
<path fill="none" stroke="#63b8ff" d="M322.64,-267.86C330.14,-260.04 338.06,-249.91 342,-239 356.18,-199.76 338.23,-149.09 329.86,-129.12"/>
<polygon fill="#63b8ff" stroke="#63b8ff" points="320.16,-265.39 315.44,-274.87 325.05,-270.4 320.16,-265.39"/>
</a>
</g>
</g>
<!-- Node4 -->
<g id="Node000004" class="node">
<title>Node4</title>
<g id="a_Node000004"><a xlink:href="Affichage_8h.html" target="_top" xlink:title=" ">
<polygon fill="white" stroke="#666666" points="458.5,-74 387.5,-74 387.5,-55 458.5,-55 458.5,-74"/>
<text text-anchor="middle" x="423" y="-62" font-family="Helvetica,sans-Serif" font-size="10.00">Affichage.h</text>
</a>
</g>
</g>
<!-- Node3&#45;&gt;Node4 -->
<g id="edge3_Node000003_Node000004" class="edge">
<title>Node3&#45;&gt;Node4</title>
<g id="a_edge3_Node000003_Node000004"><a xlink:title=" ">
<path fill="none" stroke="#63b8ff" d="M318.85,-211.99C325.67,-203.7 333.93,-193.45 341,-184 370.99,-143.95 404.17,-94.15 417.25,-74.28"/>
<polygon fill="#63b8ff" stroke="#63b8ff" points="316.07,-209.86 312.37,-219.79 321.45,-214.33 316.07,-209.86"/>
</a>
</g>
</g>
<!-- Node3&#45;&gt;Node6 -->
<g id="edge19_Node000003_Node000006" class="edge">
<title>Node3&#45;&gt;Node6</title>
<g id="a_edge19_Node000003_Node000006"><a xlink:title=" ">
<path fill="none" stroke="#63b8ff" d="M283.46,-214.03C272.23,-205.93 258.64,-195.21 248,-184 206.92,-140.72 188.94,-130.92 171,-74 168.46,-65.95 166.91,-62.39 171,-55 180.65,-37.56 200.31,-26.04 216.49,-19.1"/>
<polygon fill="#63b8ff" stroke="#63b8ff" points="281.68,-217.06 291.87,-219.94 285.7,-211.33 281.68,-217.06"/>
</a>
</g>
</g>
<!-- Node7 -->
<g id="Node000007" class="node">
<title>Node7</title>
<g id="a_Node000007"><a xlink:href="Joueur_8cpp.html" target="_top" xlink:title=" ">
<polygon fill="white" stroke="#666666" points="330.5,-74 263.5,-74 263.5,-55 330.5,-55 330.5,-74"/>
<text text-anchor="middle" x="297" y="-62" font-family="Helvetica,sans-Serif" font-size="10.00">Joueur.cpp</text>
</a>
</g>
</g>
<!-- Node3&#45;&gt;Node7 -->
<g id="edge6_Node000003_Node000007" class="edge">
<title>Node3&#45;&gt;Node7</title>
<g id="a_edge6_Node000003_Node000007"><a xlink:title=" ">
<path fill="none" stroke="#63b8ff" d="M287.37,-212.29C280.21,-204.51 272.75,-194.59 269,-184 254.83,-143.94 280.17,-93.74 291.72,-74.01"/>
<polygon fill="#63b8ff" stroke="#63b8ff" points="285.31,-215.18 294.84,-219.81 290.28,-210.24 285.31,-215.18"/>
</a>
</g>
</g>
<!-- Node3&#45;&gt;Node8 -->
<g id="edge7_Node000003_Node000008" class="edge">
<title>Node3&#45;&gt;Node8</title>
<g id="a_edge7_Node000003_Node000008"><a xlink:title=" ">
<path fill="none" stroke="#63b8ff" d="M323.85,-213.8C366.43,-180.59 469.01,-100.59 502.91,-74.15"/>
<polygon fill="#63b8ff" stroke="#63b8ff" points="321.68,-211.06 315.94,-219.97 325.98,-216.58 321.68,-211.06"/>
</a>
</g>
</g>
<!-- Node9 -->
<g id="Node000009" class="node">
<title>Node9</title>
<g id="a_Node000009"><a xlink:href="Route_8cpp.html" target="_top" xlink:title=" ">
<polygon fill="white" stroke="#666666" points="245.5,-74 180.5,-74 180.5,-55 245.5,-55 245.5,-74"/>
<text text-anchor="middle" x="213" y="-62" font-family="Helvetica,sans-Serif" font-size="10.00">Route.cpp</text>
</a>
</g>
</g>
<!-- Node3&#45;&gt;Node9 -->
<g id="edge8_Node000003_Node000009" class="edge">
<title>Node3&#45;&gt;Node9</title>
<g id="a_edge8_Node000003_Node000009"><a xlink:title=" ">
<path fill="none" stroke="#63b8ff" d="M287.09,-212.94C278.66,-204.92 268.96,-194.62 262,-184 237.35,-146.39 221.09,-94.35 215.33,-74.07"/>
<polygon fill="#63b8ff" stroke="#63b8ff" points="284.91,-215.68 294.65,-219.85 289.63,-210.52 284.91,-215.68"/>
</a>
</g>
</g>
<!-- Node10 -->
<g id="Node000010" class="node">
<title>Node10</title>
<g id="a_Node000010"><a xlink:href="Route_8h.html" target="_top" xlink:title="Déclaration de la classe Route.">
<polygon fill="white" stroke="#666666" points="332,-184 278,-184 278,-165 332,-165 332,-184"/>
<text text-anchor="middle" x="305" y="-172" font-family="Helvetica,sans-Serif" font-size="10.00">Route.h</text>
</a>
</g>
</g>
<!-- Node3&#45;&gt;Node10 -->
<g id="edge9_Node000003_Node000010" class="edge">
<title>Node3&#45;&gt;Node10</title>
<g id="a_edge9_Node000003_Node000010"><a xlink:title=" ">
<path fill="none" stroke="#63b8ff" d="M298.51,-209.66C297.91,-200.93 298.36,-190.99 299.87,-184.09"/>
<polygon fill="#63b8ff" stroke="#63b8ff" points="295.06,-210.29 299.83,-219.75 302,-209.38 295.06,-210.29"/>
</a>
</g>
</g>
<!-- Node5 -->
<g id="Node000005" class="node">
<title>Node5</title>
<g id="a_Node000005"><a xlink:href="Affichage_8cpp.html" target="_top" xlink:title=" ">
<polygon fill="white" stroke="#666666" points="464.5,-19 381.5,-19 381.5,0 464.5,0 464.5,-19"/>
<text text-anchor="middle" x="423" y="-7" font-family="Helvetica,sans-Serif" font-size="10.00">Affichage.cpp</text>
</a>
</g>
</g>
<!-- Node4&#45;&gt;Node5 -->
<g id="edge4_Node000004_Node000005" class="edge">
<title>Node4&#45;&gt;Node5</title>
<g id="a_edge4_Node000004_Node000005"><a xlink:title=" ">
<path fill="none" stroke="#63b8ff" d="M423,-44.66C423,-35.93 423,-25.99 423,-19.09"/>
<polygon fill="#63b8ff" stroke="#63b8ff" points="419.5,-44.75 423,-54.75 426.5,-44.75 419.5,-44.75"/>
</a>
</g>
</g>
<!-- Node4&#45;&gt;Node6 -->
<g id="edge5_Node000004_Node000006" class="edge">
<title>Node4&#45;&gt;Node6</title>
<g id="a_edge5_Node000004_Node000006"><a xlink:title=" ">
<path fill="none" stroke="#63b8ff" d="M383.92,-52.06C350.09,-42.15 301.92,-28.04 271.31,-19.08"/>
<polygon fill="#63b8ff" stroke="#63b8ff" points="383.34,-55.53 393.92,-54.98 385.31,-48.82 383.34,-55.53"/>
</a>
</g>
</g>
<!-- Node10&#45;&gt;Node3 -->
<g id="edge10_Node000010_Node000003" class="edge">
<title>Node10&#45;&gt;Node3</title>
<g id="a_edge10_Node000010_Node000003"><a xlink:title=" ">
<path fill="none" stroke="#63b8ff" d="M311.48,-194.13C312.1,-202.85 311.66,-212.8 310.17,-219.75"/>
<polygon fill="#63b8ff" stroke="#63b8ff" points="314.93,-193.53 310.13,-184.09 307.99,-194.47 314.93,-193.53"/>
</a>
</g>
</g>
<!-- Node10&#45;&gt;Node8 -->
<g id="edge11_Node000010_Node000008" class="edge">
<title>Node10&#45;&gt;Node8</title>
<g id="a_edge11_Node000010_Node000008"><a xlink:title=" ">
<path fill="none" stroke="#63b8ff" d="M330.85,-160.14C374.4,-137.64 461.18,-92.79 497.46,-74.05"/>
<polygon fill="#63b8ff" stroke="#63b8ff" points="329.03,-157.14 321.75,-164.84 332.24,-163.36 329.03,-157.14"/>
</a>
</g>
</g>
<!-- Node10&#45;&gt;Node9 -->
<g id="edge18_Node000010_Node000009" class="edge">
<title>Node10&#45;&gt;Node9</title>
<g id="a_edge18_Node000010_Node000009"><a xlink:title=" ">
<path fill="none" stroke="#63b8ff" d="M290.94,-157C271.13,-133.73 235.68,-92.13 220.38,-74.16"/>
<polygon fill="#63b8ff" stroke="#63b8ff" points="288.32,-159.32 297.47,-164.66 293.65,-154.78 288.32,-159.32"/>
</a>
</g>
</g>
<!-- Node10&#45;&gt;Node11 -->
<g id="edge12_Node000010_Node000011" class="edge">
<title>Node10&#45;&gt;Node11</title>
<g id="a_edge12_Node000010_Node000011"><a xlink:title=" ">
<path fill="none" stroke="#63b8ff" d="M312.24,-155.24C315.75,-146.37 319.8,-136.14 322.6,-129.09"/>
<polygon fill="#63b8ff" stroke="#63b8ff" points="308.9,-154.16 308.47,-164.75 315.41,-156.74 308.9,-154.16"/>
</a>
</g>
</g>
<!-- Node11&#45;&gt;Node4 -->
<g id="edge13_Node000011_Node000004" class="edge">
<title>Node11&#45;&gt;Node4</title>
<g id="a_edge13_Node000011_Node000004"><a xlink:title=" ">
<path fill="none" stroke="#63b8ff" d="M350.77,-104.97C368.5,-95.28 391.85,-82.52 407.13,-74.17"/>
<polygon fill="#63b8ff" stroke="#63b8ff" points="348.68,-102.12 341.58,-109.98 352.04,-108.26 348.68,-102.12"/>
</a>
</g>
</g>
<!-- Node11&#45;&gt;Node6 -->
<g id="edge17_Node000011_Node000006" class="edge">
<title>Node11&#45;&gt;Node6</title>
<g id="a_edge17_Node000011_Node000006"><a xlink:title=" ">
<path fill="none" stroke="#63b8ff" d="M336.18,-100.79C342.47,-87.29 347.81,-68.74 339,-55 324.59,-32.54 295.7,-21.27 273.18,-15.7"/>
<polygon fill="#63b8ff" stroke="#63b8ff" points="332.91,-99.48 331.4,-109.97 339.12,-102.72 332.91,-99.48"/>
</a>
</g>
</g>
<!-- Node11&#45;&gt;Node7 -->
<g id="edge14_Node000011_Node000007" class="edge">
<title>Node11&#45;&gt;Node7</title>
<g id="a_edge14_Node000011_Node000007"><a xlink:title=" ">
<path fill="none" stroke="#63b8ff" d="M316.32,-100.82C311.4,-91.82 305.64,-81.29 301.7,-74.09"/>
<polygon fill="#63b8ff" stroke="#63b8ff" points="313.34,-102.66 321.21,-109.75 319.48,-99.3 313.34,-102.66"/>
</a>
</g>
</g>
<!-- Node11&#45;&gt;Node8 -->
<g id="edge15_Node000011_Node000008" class="edge">
<title>Node11&#45;&gt;Node8</title>
<g id="a_edge15_Node000011_Node000008"><a xlink:title=" ">
<path fill="none" stroke="#63b8ff" d="M366.14,-107.18C401.3,-97.27 451.63,-83.08 483.56,-74.08"/>
<polygon fill="#63b8ff" stroke="#63b8ff" points="364.88,-103.9 356.21,-109.98 366.78,-110.64 364.88,-103.9"/>
</a>
</g>
</g>
<!-- Node11&#45;&gt;Node9 -->
<g id="edge16_Node000011_Node000009" class="edge">
<title>Node11&#45;&gt;Node9</title>
<g id="a_edge16_Node000011_Node000009"><a xlink:title=" ">
<path fill="none" stroke="#63b8ff" d="M298.57,-105.63C277.75,-95.87 249.7,-82.71 231.49,-74.17"/>
<polygon fill="#63b8ff" stroke="#63b8ff" points="297.3,-108.91 307.84,-109.98 300.28,-102.57 297.3,-108.91"/>
</a>
</g>
</g>
</g>
</svg>
