<?xml version="1.0" encoding="UTF-8" standalone="no"?>
<!DOCTYPE svg PUBLIC "-//W3C//DTD SVG 1.1//EN"
 "http://www.w3.org/Graphics/SVG/1.1/DTD/svg11.dtd">
<!-- Generated by graphviz version 2.43.0 (0)
 -->
<!-- Title: Joueur::piocherCarte Pages: 1 -->
<svg width="308pt" height="64pt"
 viewBox="0.00 0.00 308.00 64.00" xmlns="http://www.w3.org/2000/svg" xmlns:xlink="http://www.w3.org/1999/xlink">
<g id="graph0" class="graph" transform="scale(1 1) rotate(0) translate(4 60)">
<title>Joueur::piocherCarte</title>
<!-- Node1 -->
<g id="Node000001" class="node">
<title>Node1</title>
<g id="a_Node000001"><a xlink:title="Pioche la carte du dessus de la pioche et l&#39;ajoute à la main.">
<polygon fill="#999999" stroke="#666666" points="116,-37 0,-37 0,-18 116,-18 116,-37"/>
<text text-anchor="middle" x="58" y="-25" font-family="Helvetica,sans-Serif" font-size="10.00">Joueur::piocherCarte</text>
</a>
</g>
</g>
<!-- Node2 -->
<g id="Node000002" class="node">
<title>Node2</title>
<g id="a_Node000002"><a xlink:href="classPlateau.html#a6afd8b5a1b762cdfbbcfbc4f7b6a9e55" target="_top" xlink:title="Retourne la pioche de cartes train.">
<polygon fill="white" stroke="#666666" points="279.5,-56 172.5,-56 172.5,-37 279.5,-37 279.5,-56"/>
<text text-anchor="middle" x="226" y="-44" font-family="Helvetica,sans-Serif" font-size="10.00">Plateau::getPioche</text>
</a>
</g>
</g>
<!-- Node1&#45;&gt;Node2 -->
<g id="edge1_Node000001_Node000002" class="edge">
<title>Node1&#45;&gt;Node2</title>
<g id="a_edge1_Node000001_Node000002"><a xlink:title=" ">
<path fill="none" stroke="#63b8ff" d="M116.13,-34.04C130.91,-35.73 146.91,-37.56 161.98,-39.29"/>
<polygon fill="#63b8ff" stroke="#63b8ff" points="161.9,-42.8 172.23,-40.46 162.69,-35.85 161.9,-42.8"/>
</a>
</g>
</g>
<!-- Node3 -->
<g id="Node000003" class="node">
<title>Node3</title>
<g id="a_Node000003"><a xlink:href="classPlateau.html#abcefb7901e1d2e7aa98bd4c1dbd01c37" target="_top" xlink:title="Retire la carte du dessus de la pioche.">
<polygon fill="white" stroke="#666666" points="300,-19 152,-19 152,0 300,0 300,-19"/>
<text text-anchor="middle" x="226" y="-7" font-family="Helvetica,sans-Serif" font-size="10.00">Plateau::retirerCartePioche</text>
</a>
</g>
</g>
<!-- Node1&#45;&gt;Node3 -->
<g id="edge2_Node000001_Node000003" class="edge">
<title>Node1&#45;&gt;Node3</title>
<g id="a_edge2_Node000001_Node000003"><a xlink:title=" ">
<path fill="none" stroke="#63b8ff" d="M116.13,-21.31C124.42,-20.41 133.09,-19.47 141.77,-18.52"/>
<polygon fill="#63b8ff" stroke="#63b8ff" points="142.37,-21.98 151.94,-17.42 141.62,-15.02 142.37,-21.98"/>
</a>
</g>
</g>
</g>
</svg>
