<?xml version="1.0" encoding="UTF-8" standalone="no"?>
<!DOCTYPE svg PUBLIC "-//W3C//DTD SVG 1.1//EN"
 "http://www.w3.org/Graphics/SVG/1.1/DTD/svg11.dtd">
<!-- Generated by graphviz version 2.43.0 (0)
 -->
<!-- Title: Affichage::dessinerRoute Pages: 1 -->
<svg width="568pt" height="64pt"
 viewBox="0.00 0.00 568.00 64.00" xmlns="http://www.w3.org/2000/svg" xmlns:xlink="http://www.w3.org/1999/xlink">
<g id="graph0" class="graph" transform="scale(1 1) rotate(0) translate(4 60)">
<title>Affichage::dessinerRoute</title>
<!-- Node1 -->
<g id="Node000001" class="node">
<title>Node1</title>
<g id="a_Node000001"><a xlink:title="Dessine une route entre deux points, avec support des routes doubles.">
<polygon fill="#999999" stroke="#666666" points="560,-37 422,-37 422,-18 560,-18 560,-37"/>
<text text-anchor="middle" x="491" y="-25" font-family="Helvetica,sans-Serif" font-size="10.00">Affichage::dessinerRoute</text>
</a>
</g>
</g>
<!-- Node2 -->
<g id="Node000002" class="node">
<title>Node2</title>
<g id="a_Node000002"><a xlink:href="classAffichage.html#a099d5b63d7b73ef42081aa015959b7d5" target="_top" xlink:title="Dessine l&#39;intégralité du plateau (villes + routes).">
<polygon fill="white" stroke="#666666" points="386,-37 240,-37 240,-18 386,-18 386,-37"/>
<text text-anchor="middle" x="313" y="-25" font-family="Helvetica,sans-Serif" font-size="10.00">Affichage::dessinerPlateau</text>
</a>
</g>
</g>
<!-- Node1&#45;&gt;Node2 -->
<g id="edge1_Node000001_Node000002" class="edge">
<title>Node1&#45;&gt;Node2</title>
<g id="a_edge1_Node000001_Node000002"><a xlink:title=" ">
<path fill="none" stroke="#63b8ff" d="M411.7,-27.5C403.23,-27.5 394.63,-27.5 386.24,-27.5"/>
<polygon fill="#63b8ff" stroke="#63b8ff" points="411.95,-31 421.95,-27.5 411.95,-24 411.95,-31"/>
</a>
</g>
</g>
<!-- Node3 -->
<g id="Node000003" class="node">
<title>Node3</title>
<g id="a_Node000003"><a xlink:href="classAffichage.html#a8c072a04eff871f55d94f642d1fa188e" target="_top" xlink:title="Construit la fenêtre principale et initialise la scène graphique.">
<polygon fill="white" stroke="#666666" points="197.5,-56 83.5,-56 83.5,-37 197.5,-37 197.5,-56"/>
<text text-anchor="middle" x="140.5" y="-44" font-family="Helvetica,sans-Serif" font-size="10.00">Affichage::Affichage</text>
</a>
</g>
</g>
<!-- Node2&#45;&gt;Node3 -->
<g id="edge2_Node000002_Node000003" class="edge">
<title>Node2&#45;&gt;Node3</title>
<g id="a_edge2_Node000002_Node000003"><a xlink:title=" ">
<path fill="none" stroke="#63b8ff" d="M229.74,-36.67C218.86,-37.88 207.92,-39.1 197.63,-40.25"/>
<polygon fill="#63b8ff" stroke="#63b8ff" points="230.14,-40.14 239.69,-35.56 229.37,-33.19 230.14,-40.14"/>
</a>
</g>
</g>
<!-- Node4 -->
<g id="Node000004" class="node">
<title>Node4</title>
<g id="a_Node000004"><a xlink:href="classAffichage.html#ae77eaf95ebb6e1323148959e062df5d9" target="_top" xlink:title="Redessine l&#39;intégralité de la scène pour refléter l&#39;état courant du jeu.">
<polygon fill="white" stroke="#666666" points="204,-19 77,-19 77,0 204,0 204,-19"/>
<text text-anchor="middle" x="140.5" y="-7" font-family="Helvetica,sans-Serif" font-size="10.00">Affichage::mettreAJour</text>
</a>
</g>
</g>
<!-- Node2&#45;&gt;Node4 -->
<g id="edge3_Node000002_Node000004" class="edge">
<title>Node2&#45;&gt;Node4</title>
<g id="a_edge3_Node000002_Node000004"><a xlink:title=" ">
<path fill="none" stroke="#63b8ff" d="M229.68,-18.81C221.11,-17.9 212.51,-17 204.21,-16.12"/>
<polygon fill="#63b8ff" stroke="#63b8ff" points="229.38,-22.3 239.69,-19.87 230.12,-15.34 229.38,-22.3"/>
</a>
</g>
</g>
<!-- Node5 -->
<g id="Node000005" class="node">
<title>Node5</title>
<g id="a_Node000005"><a xlink:href="main_8cpp.html#a0ddf1224851353fc92bfbff6f499fa97" target="_top" xlink:title="Point d&#39;entrée principal de l&#39;application.">
<polygon fill="white" stroke="#666666" points="41,-19 0,-19 0,0 41,0 41,-19"/>
<text text-anchor="middle" x="20.5" y="-7" font-family="Helvetica,sans-Serif" font-size="10.00">main</text>
</a>
</g>
</g>
<!-- Node4&#45;&gt;Node5 -->
<g id="edge4_Node000004_Node000005" class="edge">
<title>Node4&#45;&gt;Node5</title>
<g id="a_edge4_Node000004_Node000005"><a xlink:title=" ">
<path fill="none" stroke="#63b8ff" d="M66.45,-9.5C57.14,-9.5 48.32,-9.5 41,-9.5"/>
<polygon fill="#63b8ff" stroke="#63b8ff" points="66.7,-13 76.7,-9.5 66.7,-6 66.7,-13"/>
</a>
</g>
</g>
</g>
</svg>
