<?xml version="1.0" encoding="UTF-8" standalone="no"?>
<!DOCTYPE svg PUBLIC "-//W3C//DTD SVG 1.1//EN"
 "http://www.w3.org/Graphics/SVG/1.1/DTD/svg11.dtd">
<!-- Generated by graphviz version 2.43.0 (0)
 -->
<!-- Title: Plateau::getRoute Pages: 1 -->
<svg width="352pt" height="46pt"
 viewBox="0.00 0.00 352.00 46.00" xmlns="http://www.w3.org/2000/svg" xmlns:xlink="http://www.w3.org/1999/xlink">
<g id="graph0" class="graph" transform="scale(1 1) rotate(0) translate(4 42)">
<title>Plateau::getRoute</title>
<!-- Node1 -->
<g id="Node000001" class="node">
<title>Node1</title>
<g id="a_Node000001"><a xlink:title="Retourne la liste des routes du plateau.">
<polygon fill="#999999" stroke="#666666" points="344,-38 240,-38 240,-19 344,-19 344,-38"/>
<text text-anchor="middle" x="292" y="-26" font-family="Helvetica,sans-Serif" font-size="10.00">Plateau::getRoute</text>
</a>
</g>
</g>
<!-- Node2 -->
<g id="Node000002" class="node">
<title>Node2</title>
<g id="a_Node000002"><a xlink:href="main_8cpp.html#a0ddf1224851353fc92bfbff6f499fa97" target="_top" xlink:title="Point d&#39;entrée principal de l&#39;application.">
<polygon fill="white" stroke="#666666" points="41,-38 0,-38 0,-19 41,-19 41,-38"/>
<text text-anchor="middle" x="20.5" y="-26" font-family="Helvetica,sans-Serif" font-size="10.00">main</text>
</a>
</g>
</g>
<!-- Node1&#45;&gt;Node2 -->
<g id="edge1_Node000001_Node000002" class="edge">
<title>Node1&#45;&gt;Node2</title>
<g id="a_edge1_Node000001_Node000002"><a xlink:title=" ">
<path fill="none" stroke="#63b8ff" d="M229.79,-28.5C169.24,-28.5 80.14,-28.5 41.07,-28.5"/>
<polygon fill="#63b8ff" stroke="#63b8ff" points="229.99,-32 239.99,-28.5 229.99,-25 229.99,-32"/>
</a>
</g>
</g>
<!-- Node3 -->
<g id="Node000003" class="node">
<title>Node3</title>
<g id="a_Node000003"><a xlink:href="classAffichage.html#ae77eaf95ebb6e1323148959e062df5d9" target="_top" xlink:title="Redessine l&#39;intégralité de la scène pour refléter l&#39;état courant du jeu.">
<polygon fill="white" stroke="#666666" points="204,-19 77,-19 77,0 204,0 204,-19"/>
<text text-anchor="middle" x="140.5" y="-7" font-family="Helvetica,sans-Serif" font-size="10.00">Affichage::mettreAJour</text>
</a>
</g>
</g>
<!-- Node1&#45;&gt;Node3 -->
<g id="edge2_Node000001_Node000003" class="edge">
<title>Node1&#45;&gt;Node3</title>
<g id="a_edge2_Node000001_Node000003"><a xlink:title=" ">
<path fill="none" stroke="#63b8ff" d="M229.81,-20.72C221.37,-19.65 212.68,-18.55 204.2,-17.47"/>
<polygon fill="#63b8ff" stroke="#63b8ff" points="229.61,-24.23 239.97,-22.01 230.49,-17.28 229.61,-24.23"/>
</a>
</g>
</g>
<!-- Node3&#45;&gt;Node2 -->
<g id="edge3_Node000003_Node000002" class="edge">
<title>Node3&#45;&gt;Node2</title>
<g id="a_edge3_Node000003_Node000002"><a xlink:title=" ">
<path fill="none" stroke="#63b8ff" d="M70.27,-20.65C59.61,-22.36 49.41,-24.01 41.11,-25.34"/>
<polygon fill="#63b8ff" stroke="#63b8ff" points="70.84,-24.1 80.15,-19.06 69.73,-17.19 70.84,-24.1"/>
</a>
</g>
</g>
</g>
</svg>
