<?xml version="1.0" encoding="UTF-8" standalone="no"?>
<!DOCTYPE svg PUBLIC "-//W3C//DTD SVG 1.1//EN"
 "http://www.w3.org/Graphics/SVG/1.1/DTD/svg11.dtd">
<!-- Generated by graphviz version 2.43.0 (0)
 -->
<!-- Title: Plateau Pages: 1 -->
<svg width="543pt" height="1240pt"
 viewBox="0.00 0.00 543.38 1240.00" xmlns="http://www.w3.org/2000/svg" xmlns:xlink="http://www.w3.org/1999/xlink">
<g id="graph0" class="graph" transform="scale(1 1) rotate(0) translate(4 1236)">
<title>Plateau</title>
<!-- Node1 -->
<g id="Node000001" class="node">
<title>Node1</title>
<g id="a_Node000001"><a xlink:title="Déclaration anticipée pour éviter les inclusions circulaires.">
<polygon fill="#999999" stroke="transparent" points="420.88,-199 279.88,-199 279.88,0 420.88,0 420.88,-199"/>
<text text-anchor="start" x="332.38" y="-186.5" font-family="Helvetica,sans-Serif" font-size="10.00">Plateau</text>
<text text-anchor="start" x="348.88" y="-171.5" font-family="Helvetica,sans-Serif" font-size="10.00"> </text>
<text text-anchor="start" x="284.38" y="-156.5" font-family="Helvetica,sans-Serif" font-size="10.00">+</text>
<text text-anchor="start" x="297.38" y="-156.5" font-family="Helvetica,sans-Serif" font-size="10.00">afficher()</text>
<text text-anchor="start" x="284.38" y="-141.5" font-family="Helvetica,sans-Serif" font-size="10.00">+</text>
<text text-anchor="start" x="297.38" y="-141.5" font-family="Helvetica,sans-Serif" font-size="10.00">ajouterDefausseCartes()</text>
<text text-anchor="start" x="284.38" y="-126.5" font-family="Helvetica,sans-Serif" font-size="10.00">+</text>
<text text-anchor="start" x="297.38" y="-126.5" font-family="Helvetica,sans-Serif" font-size="10.00">ajouterDefausseTicket()</text>
<text text-anchor="start" x="284.38" y="-111.5" font-family="Helvetica,sans-Serif" font-size="10.00">+</text>
<text text-anchor="start" x="297.38" y="-111.5" font-family="Helvetica,sans-Serif" font-size="10.00">chargerMapCsv()</text>
<text text-anchor="start" x="284.38" y="-96.5" font-family="Helvetica,sans-Serif" font-size="10.00">+</text>
<text text-anchor="start" x="297.38" y="-96.5" font-family="Helvetica,sans-Serif" font-size="10.00">chargerTicketCsv()</text>
<text text-anchor="start" x="284.38" y="-81.5" font-family="Helvetica,sans-Serif" font-size="10.00">+</text>
<text text-anchor="start" x="297.38" y="-81.5" font-family="Helvetica,sans-Serif" font-size="10.00">getDefausseCartes()</text>
<text text-anchor="start" x="284.38" y="-66.5" font-family="Helvetica,sans-Serif" font-size="10.00">+</text>
<text text-anchor="start" x="297.38" y="-66.5" font-family="Helvetica,sans-Serif" font-size="10.00">getDefausseTicket()</text>
<text text-anchor="start" x="284.38" y="-51.5" font-family="Helvetica,sans-Serif" font-size="10.00">+</text>
<text text-anchor="start" x="297.38" y="-51.5" font-family="Helvetica,sans-Serif" font-size="10.00">getPioche()</text>
<text text-anchor="start" x="284.38" y="-36.5" font-family="Helvetica,sans-Serif" font-size="10.00">+</text>
<text text-anchor="start" x="297.38" y="-36.5" font-family="Helvetica,sans-Serif" font-size="10.00">getRoute()</text>
<text text-anchor="start" x="284.38" y="-21.5" font-family="Helvetica,sans-Serif" font-size="10.00">+</text>
<text text-anchor="start" x="297.38" y="-21.5" font-family="Helvetica,sans-Serif" font-size="10.00">getTickets()</text>
<text text-anchor="start" x="297.38" y="-6.5" font-family="Helvetica,sans-Serif" font-size="10.00">et 8 de plus...</text>
<polygon fill="#666666" stroke="#666666" points="280.38,-181.5 280.38,-181.5 421.38,-181.5 421.38,-181.5 280.38,-181.5"/>
<polygon fill="#666666" stroke="#666666" points="280.38,-166.5 280.38,-166.5 421.38,-166.5 421.38,-166.5 280.38,-166.5"/>
<polygon fill="none" stroke="#666666" points="279.88,0 279.88,-199 420.88,-199 420.88,0 279.88,0"/>
</a>
</g>
</g>
<!-- Node2 -->
<g id="Node000002" class="node">
<title>Node2</title>
<g id="a_Node000002"><a xlink:title=" ">
<polygon fill="white" stroke="transparent" points="428.88,-511 321.88,-511 321.88,-462 428.88,-462 428.88,-511"/>
<text text-anchor="start" x="327.38" y="-498.5" font-family="Helvetica,sans-Serif" font-size="10.00">std::vector&lt; Ville &gt;</text>
<text text-anchor="start" x="373.88" y="-483.5" font-family="Helvetica,sans-Serif" font-size="10.00"> </text>
<text text-anchor="start" x="373.88" y="-468.5" font-family="Helvetica,sans-Serif" font-size="10.00"> </text>
<polygon fill="#666666" stroke="#666666" points="322.38,-493.5 322.38,-493.5 429.38,-493.5 429.38,-493.5 322.38,-493.5"/>
<polygon fill="#666666" stroke="#666666" points="322.38,-478.5 322.38,-478.5 429.38,-478.5 429.38,-478.5 322.38,-478.5"/>
<polygon fill="none" stroke="#666666" points="321.88,-462 321.88,-511 428.88,-511 428.88,-462 321.88,-462"/>
</a>
</g>
</g>
<!-- Node2&#45;&gt;Node1 -->
<g id="edge1_Node000001_Node000002" class="edge">
<title>Node2&#45;&gt;Node1</title>
<g id="a_edge1_Node000001_Node000002"><a xlink:title=" ">
<path fill="none" stroke="#63b8ff" d="M373.85,-462C370.69,-413.27 363.24,-298.51 357.57,-211.26"/>
<polygon fill="none" stroke="#63b8ff" points="357.56,-211.12 353.18,-205.39 356.78,-199.14 361.16,-204.87 357.56,-211.12"/>
</a>
</g>
<text text-anchor="middle" x="376.38" y="-268" font-family="Helvetica,sans-Serif" font-size="10.00" fill="grey"> &#45;ville</text>
</g>
<!-- Node3 -->
<g id="Node000003" class="node">
<title>Node3</title>
<g id="a_Node000003"><a xlink:href="classVille.html" target="_top" xlink:title="Représente une ville sur le plateau de jeu.">
<polygon fill="white" stroke="transparent" points="256.88,-873 161.88,-873 161.88,-749 256.88,-749 256.88,-873"/>
<text text-anchor="start" x="198.88" y="-861" font-family="Helvetica,sans-Serif" font-size="10.00">Ville</text>
<text text-anchor="start" x="168.88" y="-846" font-family="Helvetica,sans-Serif" font-size="10.00">&#45;</text>
<text text-anchor="start" x="179.38" y="-846" font-family="Helvetica,sans-Serif" font-size="10.00">coteEst</text>
<text text-anchor="start" x="168.88" y="-831" font-family="Helvetica,sans-Serif" font-size="10.00">&#45;</text>
<text text-anchor="start" x="179.38" y="-831" font-family="Helvetica,sans-Serif" font-size="10.00">coteOuest</text>
<text text-anchor="start" x="166.38" y="-816" font-family="Helvetica,sans-Serif" font-size="10.00">+</text>
<text text-anchor="start" x="179.38" y="-816" font-family="Helvetica,sans-Serif" font-size="10.00">estCoteEst()</text>
<text text-anchor="start" x="166.38" y="-801" font-family="Helvetica,sans-Serif" font-size="10.00">+</text>
<text text-anchor="start" x="179.38" y="-801" font-family="Helvetica,sans-Serif" font-size="10.00">estCoteOuest()</text>
<text text-anchor="start" x="166.38" y="-786" font-family="Helvetica,sans-Serif" font-size="10.00">+</text>
<text text-anchor="start" x="179.38" y="-786" font-family="Helvetica,sans-Serif" font-size="10.00">getNom()</text>
<text text-anchor="start" x="166.38" y="-771" font-family="Helvetica,sans-Serif" font-size="10.00">+</text>
<text text-anchor="start" x="179.38" y="-771" font-family="Helvetica,sans-Serif" font-size="10.00">Ville()</text>
<text text-anchor="start" x="166.38" y="-756" font-family="Helvetica,sans-Serif" font-size="10.00">+</text>
<text text-anchor="start" x="179.38" y="-756" font-family="Helvetica,sans-Serif" font-size="10.00">Ville()</text>
<polygon fill="#666666" stroke="#666666" points="162.38,-856 162.38,-856 257.38,-856 257.38,-856 162.38,-856"/>
<polygon fill="#666666" stroke="#666666" points="162.38,-826 162.38,-826 177.38,-826 177.38,-826 162.38,-826"/>
<polygon fill="#666666" stroke="#666666" points="177.38,-826 177.38,-826 257.38,-826 257.38,-826 177.38,-826"/>
<polygon fill="none" stroke="#666666" points="161.88,-749 161.88,-873 256.88,-873 256.88,-749 161.88,-749"/>
</a>
</g>
</g>
<!-- Node3&#45;&gt;Node2 -->
<g id="edge2_Node000002_Node000003" class="edge">
<title>Node3&#45;&gt;Node2</title>
<g id="a_edge2_Node000002_Node000003"><a xlink:title=" ">
<path fill="none" stroke="#63b8ff" d="M240.72,-748.74C250.53,-729.6 261.39,-708.42 271.38,-689 301.59,-630.24 336.89,-561.93 357.62,-521.83"/>
<polygon fill="none" stroke="#63b8ff" points="357.67,-521.72 356.88,-514.56 363.19,-511.06 363.98,-518.23 357.67,-521.72"/>
</a>
</g>
<text text-anchor="middle" x="319.38" y="-657.5" font-family="Helvetica,sans-Serif" font-size="10.00" fill="grey"> +elements</text>
</g>
<!-- Node9 -->
<g id="Node000009" class="node">
<title>Node9</title>
<g id="a_Node000009"><a xlink:href="classRoute.html" target="_top" xlink:title="Déclaration anticipée pour éviter les inclusions circulaires.">
<polygon fill="white" stroke="transparent" points="259.38,-631 159.38,-631 159.38,-342 259.38,-342 259.38,-631"/>
<text text-anchor="start" x="194.88" y="-618.5" font-family="Helvetica,sans-Serif" font-size="10.00">Route</text>
<text text-anchor="start" x="165.88" y="-603.5" font-family="Helvetica,sans-Serif" font-size="10.00">&#45;</text>
<text text-anchor="start" x="176.38" y="-603.5" font-family="Helvetica,sans-Serif" font-size="10.00">couleurRoute</text>
<text text-anchor="start" x="165.88" y="-588.5" font-family="Helvetica,sans-Serif" font-size="10.00">&#45;</text>
<text text-anchor="start" x="176.38" y="-588.5" font-family="Helvetica,sans-Serif" font-size="10.00">couleurRoute2</text>
<text text-anchor="start" x="165.88" y="-573.5" font-family="Helvetica,sans-Serif" font-size="10.00">&#45;</text>
<text text-anchor="start" x="176.38" y="-573.5" font-family="Helvetica,sans-Serif" font-size="10.00">estRouteDouble</text>
<text text-anchor="start" x="165.88" y="-558.5" font-family="Helvetica,sans-Serif" font-size="10.00">&#45;</text>
<text text-anchor="start" x="176.38" y="-558.5" font-family="Helvetica,sans-Serif" font-size="10.00">longueur</text>
<text text-anchor="start" x="163.38" y="-543.5" font-family="Helvetica,sans-Serif" font-size="10.00">+</text>
<text text-anchor="start" x="176.38" y="-543.5" font-family="Helvetica,sans-Serif" font-size="10.00">estDispo()</text>
<text text-anchor="start" x="163.38" y="-528.5" font-family="Helvetica,sans-Serif" font-size="10.00">+</text>
<text text-anchor="start" x="176.38" y="-528.5" font-family="Helvetica,sans-Serif" font-size="10.00">getCouleur()</text>
<text text-anchor="start" x="163.38" y="-513.5" font-family="Helvetica,sans-Serif" font-size="10.00">+</text>
<text text-anchor="start" x="176.38" y="-513.5" font-family="Helvetica,sans-Serif" font-size="10.00">getCouleur2()</text>
<text text-anchor="start" x="163.38" y="-498.5" font-family="Helvetica,sans-Serif" font-size="10.00">+</text>
<text text-anchor="start" x="176.38" y="-498.5" font-family="Helvetica,sans-Serif" font-size="10.00">getEstDouble()</text>
<text text-anchor="start" x="163.38" y="-483.5" font-family="Helvetica,sans-Serif" font-size="10.00">+</text>
<text text-anchor="start" x="176.38" y="-483.5" font-family="Helvetica,sans-Serif" font-size="10.00">getLongueur()</text>
<text text-anchor="start" x="163.38" y="-468.5" font-family="Helvetica,sans-Serif" font-size="10.00">+</text>
<text text-anchor="start" x="176.38" y="-468.5" font-family="Helvetica,sans-Serif" font-size="10.00">getProprio()</text>
<text text-anchor="start" x="163.38" y="-453.5" font-family="Helvetica,sans-Serif" font-size="10.00">+</text>
<text text-anchor="start" x="176.38" y="-453.5" font-family="Helvetica,sans-Serif" font-size="10.00">getVilleA()</text>
<text text-anchor="start" x="163.38" y="-438.5" font-family="Helvetica,sans-Serif" font-size="10.00">+</text>
<text text-anchor="start" x="176.38" y="-438.5" font-family="Helvetica,sans-Serif" font-size="10.00">getVilleB()</text>
<text text-anchor="start" x="163.38" y="-423.5" font-family="Helvetica,sans-Serif" font-size="10.00">+</text>
<text text-anchor="start" x="176.38" y="-423.5" font-family="Helvetica,sans-Serif" font-size="10.00">Route()</text>
<text text-anchor="start" x="163.38" y="-408.5" font-family="Helvetica,sans-Serif" font-size="10.00">+</text>
<text text-anchor="start" x="176.38" y="-408.5" font-family="Helvetica,sans-Serif" font-size="10.00">Route()</text>
<text text-anchor="start" x="163.38" y="-393.5" font-family="Helvetica,sans-Serif" font-size="10.00">+</text>
<text text-anchor="start" x="176.38" y="-393.5" font-family="Helvetica,sans-Serif" font-size="10.00">setCouleur2()</text>
<text text-anchor="start" x="163.38" y="-378.5" font-family="Helvetica,sans-Serif" font-size="10.00">+</text>
<text text-anchor="start" x="176.38" y="-378.5" font-family="Helvetica,sans-Serif" font-size="10.00">setProprio()</text>
<text text-anchor="start" x="163.38" y="-363.5" font-family="Helvetica,sans-Serif" font-size="10.00">+</text>
<text text-anchor="start" x="176.38" y="-363.5" font-family="Helvetica,sans-Serif" font-size="10.00">setVilleA()</text>
<text text-anchor="start" x="163.38" y="-348.5" font-family="Helvetica,sans-Serif" font-size="10.00">+</text>
<text text-anchor="start" x="176.38" y="-348.5" font-family="Helvetica,sans-Serif" font-size="10.00">setVilleB()</text>
<polygon fill="#666666" stroke="#666666" points="159.38,-613.5 159.38,-613.5 259.38,-613.5 259.38,-613.5 159.38,-613.5"/>
<polygon fill="#666666" stroke="#666666" points="159.38,-553.5 159.38,-553.5 174.38,-553.5 174.38,-553.5 159.38,-553.5"/>
<polygon fill="#666666" stroke="#666666" points="174.38,-553.5 174.38,-553.5 259.38,-553.5 259.38,-553.5 174.38,-553.5"/>
<polygon fill="none" stroke="#666666" points="159.38,-342 159.38,-631 259.38,-631 259.38,-342 159.38,-342"/>
</a>
</g>
</g>
<!-- Node3&#45;&gt;Node9 -->
<g id="edge9_Node000009_Node000003" class="edge">
<title>Node3&#45;&gt;Node9</title>
<g id="a_edge9_Node000009_Node000003"><a xlink:title=" ">
<path fill="none" stroke="#63b8ff" d="M209.38,-748.96C209.38,-718.81 209.38,-680.91 209.38,-643.39"/>
<polygon fill="none" stroke="#63b8ff" points="209.38,-643.24 205.38,-637.24 209.38,-631.24 213.38,-637.24 209.38,-643.24"/>
</a>
</g>
<text text-anchor="middle" x="226.38" y="-663" font-family="Helvetica,sans-Serif" font-size="10.00" fill="grey"> &#45;villeA</text>
<text text-anchor="middle" x="226.38" y="-652" font-family="Helvetica,sans-Serif" font-size="10.00" fill="grey">&#45;villeB</text>
</g>
<!-- Node4 -->
<g id="Node000004" class="node">
<title>Node4</title>
<g id="a_Node000004"><a xlink:title=" ">
<polygon fill="white" stroke="transparent" points="213.88,-1029 154.88,-1029 154.88,-980 213.88,-980 213.88,-1029"/>
<text text-anchor="start" x="160.38" y="-1016.5" font-family="Helvetica,sans-Serif" font-size="10.00">std::string</text>
<text text-anchor="start" x="182.88" y="-1001.5" font-family="Helvetica,sans-Serif" font-size="10.00"> </text>
<text text-anchor="start" x="182.88" y="-986.5" font-family="Helvetica,sans-Serif" font-size="10.00"> </text>
<polygon fill="#666666" stroke="#666666" points="155.38,-1011.5 155.38,-1011.5 214.38,-1011.5 214.38,-1011.5 155.38,-1011.5"/>
<polygon fill="#666666" stroke="#666666" points="155.38,-996.5 155.38,-996.5 214.38,-996.5 214.38,-996.5 155.38,-996.5"/>
<polygon fill="none" stroke="#666666" points="154.88,-980 154.88,-1029 213.88,-1029 213.88,-980 154.88,-980"/>
</a>
</g>
</g>
<!-- Node4&#45;&gt;Node3 -->
<g id="edge3_Node000003_Node000004" class="edge">
<title>Node4&#45;&gt;Node3</title>
<g id="a_edge3_Node000003_Node000004"><a xlink:title=" ">
<path fill="none" stroke="#63b8ff" d="M187.49,-979.63C190.57,-956.06 195.44,-918.78 199.8,-885.36"/>
<polygon fill="none" stroke="#63b8ff" points="199.83,-885.16 196.64,-878.69 201.38,-873.26 204.57,-879.73 199.83,-885.16"/>
</a>
</g>
<text text-anchor="middle" x="205.88" y="-954" font-family="Helvetica,sans-Serif" font-size="10.00" fill="grey"> &#45;nom</text>
</g>
<!-- Node10 -->
<g id="Node000010" class="node">
<title>Node10</title>
<g id="a_Node000010"><a xlink:href="classJoueur.html" target="_top" xlink:title="Déclaration anticipée pour éviter les inclusions circulaires.">
<polygon fill="white" stroke="transparent" points="143.88,-933 28.88,-933 28.88,-689 143.88,-689 143.88,-933"/>
<text text-anchor="start" x="71.38" y="-921" font-family="Helvetica,sans-Serif" font-size="10.00">Joueur</text>
<text text-anchor="start" x="35.88" y="-906" font-family="Helvetica,sans-Serif" font-size="10.00">&#45;</text>
<text text-anchor="start" x="46.38" y="-906" font-family="Helvetica,sans-Serif" font-size="10.00">couleurWagon</text>
<text text-anchor="start" x="35.88" y="-891" font-family="Helvetica,sans-Serif" font-size="10.00">&#45;</text>
<text text-anchor="start" x="46.38" y="-891" font-family="Helvetica,sans-Serif" font-size="10.00">grdTraversee</text>
<text text-anchor="start" x="35.88" y="-876" font-family="Helvetica,sans-Serif" font-size="10.00">&#45;</text>
<text text-anchor="start" x="46.38" y="-876" font-family="Helvetica,sans-Serif" font-size="10.00">nbTicketValide</text>
<text text-anchor="start" x="35.88" y="-861" font-family="Helvetica,sans-Serif" font-size="10.00">&#45;</text>
<text text-anchor="start" x="46.38" y="-861" font-family="Helvetica,sans-Serif" font-size="10.00">nbWagon</text>
<text text-anchor="start" x="33.38" y="-846" font-family="Helvetica,sans-Serif" font-size="10.00">+</text>
<text text-anchor="start" x="46.38" y="-846" font-family="Helvetica,sans-Serif" font-size="10.00">afficherMain()</text>
<text text-anchor="start" x="33.38" y="-831" font-family="Helvetica,sans-Serif" font-size="10.00">+</text>
<text text-anchor="start" x="46.38" y="-831" font-family="Helvetica,sans-Serif" font-size="10.00">afficherMain()</text>
<text text-anchor="start" x="33.38" y="-816" font-family="Helvetica,sans-Serif" font-size="10.00">+</text>
<text text-anchor="start" x="46.38" y="-816" font-family="Helvetica,sans-Serif" font-size="10.00">defausserCarte()</text>
<text text-anchor="start" x="33.38" y="-801" font-family="Helvetica,sans-Serif" font-size="10.00">+</text>
<text text-anchor="start" x="46.38" y="-801" font-family="Helvetica,sans-Serif" font-size="10.00">defausserTicket()</text>
<text text-anchor="start" x="33.38" y="-786" font-family="Helvetica,sans-Serif" font-size="10.00">+</text>
<text text-anchor="start" x="46.38" y="-786" font-family="Helvetica,sans-Serif" font-size="10.00">getCouleurWagon()</text>
<text text-anchor="start" x="33.38" y="-771" font-family="Helvetica,sans-Serif" font-size="10.00">+</text>
<text text-anchor="start" x="46.38" y="-771" font-family="Helvetica,sans-Serif" font-size="10.00">getMain()</text>
<text text-anchor="start" x="33.38" y="-756" font-family="Helvetica,sans-Serif" font-size="10.00">+</text>
<text text-anchor="start" x="46.38" y="-756" font-family="Helvetica,sans-Serif" font-size="10.00">getNbWagon()</text>
<text text-anchor="start" x="33.38" y="-741" font-family="Helvetica,sans-Serif" font-size="10.00">+</text>
<text text-anchor="start" x="46.38" y="-741" font-family="Helvetica,sans-Serif" font-size="10.00">getPrenom()</text>
<text text-anchor="start" x="33.38" y="-726" font-family="Helvetica,sans-Serif" font-size="10.00">+</text>
<text text-anchor="start" x="46.38" y="-726" font-family="Helvetica,sans-Serif" font-size="10.00">getTicket()</text>
<text text-anchor="start" x="33.38" y="-711" font-family="Helvetica,sans-Serif" font-size="10.00">+</text>
<text text-anchor="start" x="46.38" y="-711" font-family="Helvetica,sans-Serif" font-size="10.00">getTicketValide()</text>
<text text-anchor="start" x="46.38" y="-696" font-family="Helvetica,sans-Serif" font-size="10.00">et 11 de plus...</text>
<polygon fill="#666666" stroke="#666666" points="29.38,-916 29.38,-916 144.38,-916 144.38,-916 29.38,-916"/>
<polygon fill="#666666" stroke="#666666" points="29.38,-856 29.38,-856 44.38,-856 44.38,-856 29.38,-856"/>
<polygon fill="#666666" stroke="#666666" points="44.38,-856 44.38,-856 144.38,-856 144.38,-856 44.38,-856"/>
<polygon fill="none" stroke="#666666" points="28.88,-689 28.88,-933 143.88,-933 143.88,-689 28.88,-689"/>
</a>
</g>
</g>
<!-- Node4&#45;&gt;Node10 -->
<g id="edge11_Node000010_Node000004" class="edge">
<title>Node4&#45;&gt;Node10</title>
<g id="a_edge11_Node000010_Node000004"><a xlink:title=" ">
<path fill="none" stroke="#63b8ff" d="M156.69,-979.6C151.46,-974.19 146.39,-968.2 142.38,-962 138.74,-956.38 135.3,-950.5 132.04,-944.45"/>
<polygon fill="none" stroke="#63b8ff" points="131.84,-944.06 125.55,-940.55 126.37,-933.39 132.66,-936.9 131.84,-944.06"/>
</a>
</g>
<text text-anchor="middle" x="164.88" y="-954" font-family="Helvetica,sans-Serif" font-size="10.00" fill="grey"> &#45;prenom</text>
</g>
<!-- Node5 -->
<g id="Node000005" class="node">
<title>Node5</title>
<g id="a_Node000005"><a xlink:title=" ">
<polygon fill="white" stroke="transparent" points="233.38,-1136 135.38,-1136 135.38,-1076 233.38,-1076 233.38,-1136"/>
<text text-anchor="start" x="140.38" y="-1124" font-family="Helvetica,sans-Serif" font-size="10.00">std::basic_string&lt;</text>
<text text-anchor="start" x="165.88" y="-1113" font-family="Helvetica,sans-Serif" font-size="10.00"> Char &gt;</text>
<text text-anchor="start" x="182.38" y="-1098" font-family="Helvetica,sans-Serif" font-size="10.00"> </text>
<text text-anchor="start" x="182.38" y="-1083" font-family="Helvetica,sans-Serif" font-size="10.00"> </text>
<polygon fill="#666666" stroke="#666666" points="135.38,-1108 135.38,-1108 233.38,-1108 233.38,-1108 135.38,-1108"/>
<polygon fill="#666666" stroke="#666666" points="135.38,-1093 135.38,-1093 233.38,-1093 233.38,-1093 135.38,-1093"/>
<polygon fill="none" stroke="#666666" points="135.38,-1076 135.38,-1136 233.38,-1136 233.38,-1076 135.38,-1076"/>
</a>
</g>
</g>
<!-- Node5&#45;&gt;Node4 -->
<g id="edge4_Node000004_Node000005" class="edge">
<title>Node5&#45;&gt;Node4</title>
<g id="a_edge4_Node000004_Node000005"><a xlink:title=" ">
<path fill="none" stroke="#63b8ff" d="M184.38,-1065.8C184.38,-1053.38 184.38,-1040.03 184.38,-1029.06"/>
<polygon fill="none" stroke="#63b8ff" points="180.88,-1065.95 184.38,-1075.95 187.88,-1065.95 180.88,-1065.95"/>
</a>
</g>
</g>
<!-- Node6 -->
<g id="Node000006" class="node">
<title>Node6</title>
<g id="a_Node000006"><a xlink:title=" ">
<polygon fill="white" stroke="transparent" points="372.88,-1130.5 281.88,-1130.5 281.88,-1081.5 372.88,-1081.5 372.88,-1130.5"/>
<text text-anchor="start" x="287.38" y="-1118" font-family="Helvetica,sans-Serif" font-size="10.00">std::vector&lt; T &gt;</text>
<text text-anchor="start" x="325.88" y="-1103" font-family="Helvetica,sans-Serif" font-size="10.00"> </text>
<text text-anchor="start" x="325.88" y="-1088" font-family="Helvetica,sans-Serif" font-size="10.00"> </text>
<polygon fill="#666666" stroke="#666666" points="282.38,-1113 282.38,-1113 373.38,-1113 373.38,-1113 282.38,-1113"/>
<polygon fill="#666666" stroke="#666666" points="282.38,-1098 282.38,-1098 373.38,-1098 373.38,-1098 282.38,-1098"/>
<polygon fill="none" stroke="#666666" points="281.88,-1081.5 281.88,-1130.5 372.88,-1130.5 372.88,-1081.5 281.88,-1081.5"/>
</a>
</g>
</g>
<!-- Node6&#45;&gt;Node2 -->
<g id="edge5_Node000002_Node000006" class="edge">
<title>Node6&#45;&gt;Node2</title>
<g id="a_edge5_Node000002_Node000006"><a xlink:title=" ">
<path fill="none" stroke="orange" d="M382.8,-1093.15C415.34,-1082.66 452.37,-1063.45 464.38,-1029 531.38,-836.69 424.45,-588.01 387.33,-511.17"/>
<polygon fill="orange" stroke="orange" points="381.45,-1089.9 372.88,-1096.13 383.47,-1096.6 381.45,-1089.9"/>
</a>
</g>
<text text-anchor="middle" x="505.38" y="-954" font-family="Helvetica,sans-Serif" font-size="10.00" fill="grey"> &lt; Ville &gt;</text>
</g>
<!-- Node8 -->
<g id="Node000008" class="node">
<title>Node8</title>
<g id="a_Node000008"><a xlink:title=" ">
<polygon fill="white" stroke="transparent" points="338.88,-295 225.88,-295 225.88,-246 338.88,-246 338.88,-295"/>
<text text-anchor="start" x="231.38" y="-282.5" font-family="Helvetica,sans-Serif" font-size="10.00">std::vector&lt; Route &gt;</text>
<text text-anchor="start" x="280.88" y="-267.5" font-family="Helvetica,sans-Serif" font-size="10.00"> </text>
<text text-anchor="start" x="280.88" y="-252.5" font-family="Helvetica,sans-Serif" font-size="10.00"> </text>
<polygon fill="#666666" stroke="#666666" points="226.38,-277.5 226.38,-277.5 339.38,-277.5 339.38,-277.5 226.38,-277.5"/>
<polygon fill="#666666" stroke="#666666" points="226.38,-262.5 226.38,-262.5 339.38,-262.5 339.38,-262.5 226.38,-262.5"/>
<polygon fill="none" stroke="#666666" points="225.88,-246 225.88,-295 338.88,-295 338.88,-246 225.88,-246"/>
</a>
</g>
</g>
<!-- Node6&#45;&gt;Node8 -->
<g id="edge16_Node000008_Node000006" class="edge">
<title>Node6&#45;&gt;Node8</title>
<g id="a_edge16_Node000008_Node000006"><a xlink:title=" ">
<path fill="none" stroke="orange" d="M310.1,-1072.15C301.69,-1053.2 293.38,-1028.61 293.38,-1005.5 293.38,-1005.5 293.38,-1005.5 293.38,-485.5 293.38,-416.3 287.57,-334.69 284.4,-295.23"/>
<polygon fill="orange" stroke="orange" points="306.94,-1073.65 314.33,-1081.24 313.28,-1070.7 306.94,-1073.65"/>
</a>
</g>
<text text-anchor="middle" x="320.88" y="-808.5" font-family="Helvetica,sans-Serif" font-size="10.00" fill="grey"> &lt; Route &gt;</text>
</g>
<!-- Node11 -->
<g id="Node000011" class="node">
<title>Node11</title>
<g id="a_Node000011"><a xlink:title=" ">
<polygon fill="#fff0f0" stroke="transparent" points="455.38,-1029 321.38,-1029 321.38,-980 455.38,-980 455.38,-1029"/>
<text text-anchor="start" x="326.38" y="-1016.5" font-family="Helvetica,sans-Serif" font-size="10.00">std::vector&lt; CarteTrain &gt;</text>
<text text-anchor="start" x="386.38" y="-1001.5" font-family="Helvetica,sans-Serif" font-size="10.00"> </text>
<text text-anchor="start" x="386.38" y="-986.5" font-family="Helvetica,sans-Serif" font-size="10.00"> </text>
<polygon fill="red" stroke="red" points="321.38,-1011.5 321.38,-1011.5 455.38,-1011.5 455.38,-1011.5 321.38,-1011.5"/>
<polygon fill="red" stroke="red" points="321.38,-996.5 321.38,-996.5 455.38,-996.5 455.38,-996.5 321.38,-996.5"/>
<polygon fill="none" stroke="red" points="321.38,-980 321.38,-1029 455.38,-1029 455.38,-980 321.38,-980"/>
</a>
</g>
</g>
<!-- Node6&#45;&gt;Node11 -->
<g id="edge13_Node000011_Node000006" class="edge">
<title>Node6&#45;&gt;Node11</title>
<g id="a_edge13_Node000011_Node000006"><a xlink:title=" ">
<path fill="none" stroke="orange" d="M347.29,-1072.51C355.94,-1058.41 365.88,-1042.2 373.81,-1029.26"/>
<polygon fill="orange" stroke="orange" points="344.08,-1071.07 341.83,-1081.42 350.04,-1074.72 344.08,-1071.07"/>
</a>
</g>
<text text-anchor="middle" x="399.38" y="-1050" font-family="Helvetica,sans-Serif" font-size="10.00" fill="grey"> &lt; CarteTrain &gt;</text>
</g>
<!-- Node13 -->
<g id="Node000013" class="node">
<title>Node13</title>
<g id="a_Node000013"><a xlink:title=" ">
<polygon fill="#fff0f0" stroke="transparent" points="126.38,-1029 12.38,-1029 12.38,-980 126.38,-980 126.38,-1029"/>
<text text-anchor="start" x="17.38" y="-1016.5" font-family="Helvetica,sans-Serif" font-size="10.00">std::vector&lt; Ticket &gt;</text>
<text text-anchor="start" x="67.38" y="-1001.5" font-family="Helvetica,sans-Serif" font-size="10.00"> </text>
<text text-anchor="start" x="67.38" y="-986.5" font-family="Helvetica,sans-Serif" font-size="10.00"> </text>
<polygon fill="red" stroke="red" points="12.38,-1011.5 12.38,-1011.5 126.38,-1011.5 126.38,-1011.5 12.38,-1011.5"/>
<polygon fill="red" stroke="red" points="12.38,-996.5 12.38,-996.5 126.38,-996.5 126.38,-996.5 12.38,-996.5"/>
<polygon fill="none" stroke="red" points="12.38,-980 12.38,-1029 126.38,-1029 126.38,-980 12.38,-980"/>
</a>
</g>
</g>
<!-- Node6&#45;&gt;Node13 -->
<g id="edge15_Node000013_Node000006" class="edge">
<title>Node6&#45;&gt;Node13</title>
<g id="a_edge15_Node000013_Node000006"><a xlink:title=" ">
<path fill="none" stroke="orange" d="M272.41,-1083.8C229.52,-1067.26 170.11,-1044.35 126.64,-1027.58"/>
<polygon fill="orange" stroke="orange" points="271.26,-1087.11 281.85,-1087.44 273.78,-1080.58 271.26,-1087.11"/>
</a>
</g>
<text text-anchor="middle" x="225.88" y="-1050" font-family="Helvetica,sans-Serif" font-size="10.00" fill="grey"> &lt; Ticket &gt;</text>
</g>
<!-- Node7 -->
<g id="Node000007" class="node">
<title>Node7</title>
<g id="a_Node000007"><a xlink:title=" ">
<polygon fill="white" stroke="transparent" points="335.88,-1232 318.88,-1232 318.88,-1183 335.88,-1183 335.88,-1232"/>
<text text-anchor="start" x="324.38" y="-1219.5" font-family="Helvetica,sans-Serif" font-size="10.00">T</text>
<text text-anchor="start" x="325.88" y="-1204.5" font-family="Helvetica,sans-Serif" font-size="10.00"> </text>
<text text-anchor="start" x="325.88" y="-1189.5" font-family="Helvetica,sans-Serif" font-size="10.00"> </text>
<polygon fill="#666666" stroke="#666666" points="319.38,-1214.5 319.38,-1214.5 336.38,-1214.5 336.38,-1214.5 319.38,-1214.5"/>
<polygon fill="#666666" stroke="#666666" points="319.38,-1199.5 319.38,-1199.5 336.38,-1199.5 336.38,-1199.5 319.38,-1199.5"/>
<polygon fill="none" stroke="#666666" points="318.88,-1183 318.88,-1232 335.88,-1232 335.88,-1183 318.88,-1183"/>
</a>
</g>
</g>
<!-- Node7&#45;&gt;Node6 -->
<g id="edge6_Node000006_Node000007" class="edge">
<title>Node7&#45;&gt;Node6</title>
<g id="a_edge6_Node000006_Node000007"><a xlink:title=" ">
<path fill="none" stroke="#63b8ff" d="M327.38,-1182.92C327.38,-1170.99 327.38,-1156.25 327.38,-1142.94"/>
<polygon fill="none" stroke="#63b8ff" points="327.38,-1142.76 323.38,-1136.76 327.38,-1130.76 331.38,-1136.76 327.38,-1142.76"/>
</a>
</g>
<text text-anchor="middle" x="356.38" y="-1157" font-family="Helvetica,sans-Serif" font-size="10.00" fill="grey"> +elements</text>
</g>
<!-- Node8&#45;&gt;Node1 -->
<g id="edge7_Node000001_Node000008" class="edge">
<title>Node8&#45;&gt;Node1</title>
<g id="a_edge7_Node000001_Node000008"><a xlink:title=" ">
<path fill="none" stroke="#63b8ff" d="M291.98,-245.64C295.95,-235.76 300.87,-223.55 306.15,-210.43"/>
<polygon fill="none" stroke="#63b8ff" points="306.18,-210.36 304.7,-203.3 310.65,-199.22 312.13,-206.28 306.18,-210.36"/>
</a>
</g>
<text text-anchor="middle" x="318.88" y="-220" font-family="Helvetica,sans-Serif" font-size="10.00" fill="grey"> &#45;route</text>
</g>
<!-- Node9&#45;&gt;Node8 -->
<g id="edge8_Node000008_Node000009" class="edge">
<title>Node9&#45;&gt;Node8</title>
<g id="a_edge8_Node000008_Node000009"><a xlink:title=" ">
<path fill="none" stroke="#63b8ff" d="M209.2,-341.72C212.23,-331.67 216.22,-321.98 221.38,-313 223.36,-309.56 225.75,-306.34 228.43,-303.34"/>
<polygon fill="none" stroke="#63b8ff" points="228.49,-303.28 230.09,-296.25 237.19,-295.01 235.6,-302.05 228.49,-303.28"/>
</a>
</g>
<text text-anchor="middle" x="250.38" y="-316" font-family="Helvetica,sans-Serif" font-size="10.00" fill="grey"> +elements</text>
</g>
<!-- Node10&#45;&gt;Node9 -->
<g id="edge10_Node000009_Node000010" class="edge">
<title>Node10&#45;&gt;Node9</title>
<g id="a_edge10_Node000009_Node000010"><a xlink:title=" ">
<path fill="none" stroke="#63b8ff" d="M132.53,-689C139.88,-669.71 147.55,-649.6 155.08,-629.87"/>
<polygon fill="none" stroke="#63b8ff" points="155.09,-629.85 153.49,-622.81 159.36,-618.63 160.96,-625.67 155.09,-629.85"/>
</a>
</g>
<text text-anchor="middle" x="165.38" y="-657.5" font-family="Helvetica,sans-Serif" font-size="10.00" fill="grey"> &#45;proprio</text>
</g>
<!-- Node11&#45;&gt;Node1 -->
<g id="edge17_Node000001_Node000011" class="edge">
<title>Node11&#45;&gt;Node1</title>
<g id="a_edge17_Node000001_Node000011"><a xlink:title=" ">
<path fill="none" stroke="#63b8ff" d="M394.38,-979.85C415.38,-893.69 481.92,-588.68 438.38,-342 430.56,-297.71 415.26,-250.87 399.58,-210.35"/>
<polygon fill="none" stroke="#63b8ff" points="399.55,-210.26 393.63,-206.14 395.16,-199.09 401.07,-203.21 399.55,-210.26"/>
</a>
</g>
<text text-anchor="middle" x="493.88" y="-489.5" font-family="Helvetica,sans-Serif" font-size="10.00" fill="grey"> &#45;defausseCartes</text>
<text text-anchor="middle" x="493.88" y="-478.5" font-family="Helvetica,sans-Serif" font-size="10.00" fill="grey">&#45;pioche</text>
</g>
<!-- Node11&#45;&gt;Node10 -->
<g id="edge12_Node000010_Node000011" class="edge">
<title>Node11&#45;&gt;Node10</title>
<g id="a_edge12_Node000010_Node000011"><a xlink:title=" ">
<path fill="none" stroke="#63b8ff" d="M321.25,-980.93C291.68,-971.26 256.44,-960.13 224.38,-951 195.88,-942.88 181.53,-951.11 153.85,-932.95"/>
<polygon fill="none" stroke="#63b8ff" points="153.62,-932.78 146.41,-932.48 143.91,-925.72 151.12,-926.01 153.62,-932.78"/>
</a>
</g>
<text text-anchor="middle" x="277.38" y="-954" font-family="Helvetica,sans-Serif" font-size="10.00" fill="grey"> &#45;main</text>
</g>
<!-- Node13&#45;&gt;Node1 -->
<g id="edge18_Node000001_Node000013" class="edge">
<title>Node13&#45;&gt;Node1</title>
<g id="a_edge18_Node000001_Node000013"><a xlink:title=" ">
<path fill="none" stroke="#63b8ff" d="M48.29,-979.71C37.95,-966.76 26.28,-949.96 19.38,-933 -1.13,-882.58 0.38,-866.44 0.38,-812 0.38,-812 0.38,-812 0.38,-269.5 0.38,-151.37 164.06,-115.77 267.55,-105.07"/>
<polygon fill="none" stroke="#63b8ff" points="267.61,-105.07 273.19,-100.51 279.55,-103.92 273.96,-108.47 267.61,-105.07"/>
</a>
</g>
<text text-anchor="middle" x="40.88" y="-489.5" font-family="Helvetica,sans-Serif" font-size="10.00" fill="grey"> &#45;defausseTicket</text>
<text text-anchor="middle" x="40.88" y="-478.5" font-family="Helvetica,sans-Serif" font-size="10.00" fill="grey">&#45;tickets</text>
</g>
<!-- Node13&#45;&gt;Node10 -->
<g id="edge14_Node000010_Node000013" class="edge">
<title>Node13&#45;&gt;Node10</title>
<g id="a_edge14_Node000010_Node000013"><a xlink:title=" ">
<path fill="none" stroke="#63b8ff" d="M69.35,-979.96C69.46,-970.9 69.74,-960.46 70.38,-951 70.51,-949.09 70.64,-947.17 70.78,-945.23"/>
<polygon fill="none" stroke="#63b8ff" points="70.79,-945.19 67.27,-938.9 71.73,-933.23 75.25,-939.53 70.79,-945.19"/>
</a>
</g>
<text text-anchor="middle" x="87.38" y="-954" font-family="Helvetica,sans-Serif" font-size="10.00" fill="grey"> &#45;ticket</text>
</g>
</g>
</svg>
