<?xml version="1.0" encoding="UTF-8" standalone="no"?>
<!DOCTYPE svg PUBLIC "-//W3C//DTD SVG 1.1//EN"
 "http://www.w3.org/Graphics/SVG/1.1/DTD/svg11.dtd">
<!-- Generated by graphviz version 2.43.0 (0)
 -->
<!-- Title: Affichage::dessinerPlateau Pages: 1 -->
<svg width="328pt" height="64pt"
 viewBox="0.00 0.00 328.00 64.00" xmlns="http://www.w3.org/2000/svg" xmlns:xlink="http://www.w3.org/1999/xlink">
<g id="graph0" class="graph" transform="scale(1 1) rotate(0) translate(4 60)">
<title>Affichage::dessinerPlateau</title>
<!-- Node1 -->
<g id="Node000001" class="node">
<title>Node1</title>
<g id="a_Node000001"><a xlink:title="Dessine l&#39;intégralité du plateau (villes + routes).">
<polygon fill="#999999" stroke="#666666" points="146,-37 0,-37 0,-18 146,-18 146,-37"/>
<text text-anchor="middle" x="73" y="-25" font-family="Helvetica,sans-Serif" font-size="10.00">Affichage::dessinerPlateau</text>
</a>
</g>
</g>
<!-- Node2 -->
<g id="Node000002" class="node">
<title>Node2</title>
<g id="a_Node000002"><a xlink:href="classAffichage.html#aef32b46ea8533260f1a6c9ca0b34d9a7" target="_top" xlink:title="Dessine une route entre deux points, avec support des routes doubles.">
<polygon fill="white" stroke="#666666" points="320,-56 182,-56 182,-37 320,-37 320,-56"/>
<text text-anchor="middle" x="251" y="-44" font-family="Helvetica,sans-Serif" font-size="10.00">Affichage::dessinerRoute</text>
</a>
</g>
</g>
<!-- Node1&#45;&gt;Node2 -->
<g id="edge1_Node000001_Node000002" class="edge">
<title>Node1&#45;&gt;Node2</title>
<g id="a_edge1_Node000001_Node000002"><a xlink:title=" ">
<path fill="none" stroke="#63b8ff" d="M146.09,-35.28C154.62,-36.2 163.36,-37.15 171.96,-38.08"/>
<polygon fill="#63b8ff" stroke="#63b8ff" points="171.67,-41.56 181.99,-39.16 172.42,-34.6 171.67,-41.56"/>
</a>
</g>
</g>
<!-- Node3 -->
<g id="Node000003" class="node">
<title>Node3</title>
<g id="a_Node000003"><a xlink:href="classAffichage.html#aefd220a7781092371db8958d5e384168" target="_top" xlink:title="Dessine une ville sous forme de cercle étiqueté.">
<polygon fill="white" stroke="#666666" points="316.5,-19 185.5,-19 185.5,0 316.5,0 316.5,-19"/>
<text text-anchor="middle" x="251" y="-7" font-family="Helvetica,sans-Serif" font-size="10.00">Affichage::dessinerVille</text>
</a>
</g>
</g>
<!-- Node1&#45;&gt;Node3 -->
<g id="edge2_Node000001_Node000003" class="edge">
<title>Node1&#45;&gt;Node3</title>
<g id="a_edge2_Node000001_Node000003"><a xlink:title=" ">
<path fill="none" stroke="#63b8ff" d="M146.09,-20.13C155.75,-19.14 165.66,-18.13 175.36,-17.13"/>
<polygon fill="#63b8ff" stroke="#63b8ff" points="175.77,-20.61 185.36,-16.11 175.06,-13.65 175.77,-20.61"/>
</a>
</g>
</g>
</g>
</svg>
