<?xml version="1.0" encoding="UTF-8" standalone="no"?>
<!DOCTYPE svg PUBLIC "-//W3C//DTD SVG 1.1//EN"
 "http://www.w3.org/Graphics/SVG/1.1/DTD/svg11.dtd">
<!-- Generated by graphviz version 2.43.0 (0)
 -->
<!-- Title: Route Pages: 1 -->
<svg width="456pt" height="1245pt"
 viewBox="0.00 0.00 456.00 1245.00" xmlns="http://www.w3.org/2000/svg" xmlns:xlink="http://www.w3.org/1999/xlink">
<g id="graph0" class="graph" transform="scale(1 1) rotate(0) translate(4 1241)">
<title>Route</title>
<!-- Node1 -->
<g id="Node000001" class="node">
<title>Node1</title>
<g id="a_Node000001"><a xlink:title="Déclaration anticipée pour éviter les inclusions circulaires.">
<polygon fill="#999999" stroke="transparent" points="100,-289 0,-289 0,0 100,0 100,-289"/>
<text text-anchor="start" x="35.5" y="-276.5" font-family="Helvetica,sans-Serif" font-size="10.00">Route</text>
<text text-anchor="start" x="6.5" y="-261.5" font-family="Helvetica,sans-Serif" font-size="10.00">&#45;</text>
<text text-anchor="start" x="17" y="-261.5" font-family="Helvetica,sans-Serif" font-size="10.00">couleurRoute</text>
<text text-anchor="start" x="6.5" y="-246.5" font-family="Helvetica,sans-Serif" font-size="10.00">&#45;</text>
<text text-anchor="start" x="17" y="-246.5" font-family="Helvetica,sans-Serif" font-size="10.00">couleurRoute2</text>
<text text-anchor="start" x="6.5" y="-231.5" font-family="Helvetica,sans-Serif" font-size="10.00">&#45;</text>
<text text-anchor="start" x="17" y="-231.5" font-family="Helvetica,sans-Serif" font-size="10.00">estRouteDouble</text>
<text text-anchor="start" x="6.5" y="-216.5" font-family="Helvetica,sans-Serif" font-size="10.00">&#45;</text>
<text text-anchor="start" x="17" y="-216.5" font-family="Helvetica,sans-Serif" font-size="10.00">longueur</text>
<text text-anchor="start" x="4" y="-201.5" font-family="Helvetica,sans-Serif" font-size="10.00">+</text>
<text text-anchor="start" x="17" y="-201.5" font-family="Helvetica,sans-Serif" font-size="10.00">estDispo()</text>
<text text-anchor="start" x="4" y="-186.5" font-family="Helvetica,sans-Serif" font-size="10.00">+</text>
<text text-anchor="start" x="17" y="-186.5" font-family="Helvetica,sans-Serif" font-size="10.00">getCouleur()</text>
<text text-anchor="start" x="4" y="-171.5" font-family="Helvetica,sans-Serif" font-size="10.00">+</text>
<text text-anchor="start" x="17" y="-171.5" font-family="Helvetica,sans-Serif" font-size="10.00">getCouleur2()</text>
<text text-anchor="start" x="4" y="-156.5" font-family="Helvetica,sans-Serif" font-size="10.00">+</text>
<text text-anchor="start" x="17" y="-156.5" font-family="Helvetica,sans-Serif" font-size="10.00">getEstDouble()</text>
<text text-anchor="start" x="4" y="-141.5" font-family="Helvetica,sans-Serif" font-size="10.00">+</text>
<text text-anchor="start" x="17" y="-141.5" font-family="Helvetica,sans-Serif" font-size="10.00">getLongueur()</text>
<text text-anchor="start" x="4" y="-126.5" font-family="Helvetica,sans-Serif" font-size="10.00">+</text>
<text text-anchor="start" x="17" y="-126.5" font-family="Helvetica,sans-Serif" font-size="10.00">getProprio()</text>
<text text-anchor="start" x="4" y="-111.5" font-family="Helvetica,sans-Serif" font-size="10.00">+</text>
<text text-anchor="start" x="17" y="-111.5" font-family="Helvetica,sans-Serif" font-size="10.00">getVilleA()</text>
<text text-anchor="start" x="4" y="-96.5" font-family="Helvetica,sans-Serif" font-size="10.00">+</text>
<text text-anchor="start" x="17" y="-96.5" font-family="Helvetica,sans-Serif" font-size="10.00">getVilleB()</text>
<text text-anchor="start" x="4" y="-81.5" font-family="Helvetica,sans-Serif" font-size="10.00">+</text>
<text text-anchor="start" x="17" y="-81.5" font-family="Helvetica,sans-Serif" font-size="10.00">Route()</text>
<text text-anchor="start" x="4" y="-66.5" font-family="Helvetica,sans-Serif" font-size="10.00">+</text>
<text text-anchor="start" x="17" y="-66.5" font-family="Helvetica,sans-Serif" font-size="10.00">Route()</text>
<text text-anchor="start" x="4" y="-51.5" font-family="Helvetica,sans-Serif" font-size="10.00">+</text>
<text text-anchor="start" x="17" y="-51.5" font-family="Helvetica,sans-Serif" font-size="10.00">setCouleur2()</text>
<text text-anchor="start" x="4" y="-36.5" font-family="Helvetica,sans-Serif" font-size="10.00">+</text>
<text text-anchor="start" x="17" y="-36.5" font-family="Helvetica,sans-Serif" font-size="10.00">setProprio()</text>
<text text-anchor="start" x="4" y="-21.5" font-family="Helvetica,sans-Serif" font-size="10.00">+</text>
<text text-anchor="start" x="17" y="-21.5" font-family="Helvetica,sans-Serif" font-size="10.00">setVilleA()</text>
<text text-anchor="start" x="4" y="-6.5" font-family="Helvetica,sans-Serif" font-size="10.00">+</text>
<text text-anchor="start" x="17" y="-6.5" font-family="Helvetica,sans-Serif" font-size="10.00">setVilleB()</text>
<polygon fill="#666666" stroke="#666666" points="0,-271.5 0,-271.5 100,-271.5 100,-271.5 0,-271.5"/>
<polygon fill="#666666" stroke="#666666" points="0,-211.5 0,-211.5 15,-211.5 15,-211.5 0,-211.5"/>
<polygon fill="#666666" stroke="#666666" points="15,-211.5 15,-211.5 100,-211.5 100,-211.5 15,-211.5"/>
<polygon fill="none" stroke="#666666" points="0,0 0,-289 100,-289 100,0 0,0"/>
</a>
</g>
</g>
<!-- Node2 -->
<g id="Node000002" class="node">
<title>Node2</title>
<g id="a_Node000002"><a xlink:href="classVille.html" target="_top" xlink:title="Représente une ville sur le plateau de jeu.">
<polygon fill="white" stroke="transparent" points="153.5,-1044 58.5,-1044 58.5,-920 153.5,-920 153.5,-1044"/>
<text text-anchor="start" x="95.5" y="-1032" font-family="Helvetica,sans-Serif" font-size="10.00">Ville</text>
<text text-anchor="start" x="65.5" y="-1017" font-family="Helvetica,sans-Serif" font-size="10.00">&#45;</text>
<text text-anchor="start" x="76" y="-1017" font-family="Helvetica,sans-Serif" font-size="10.00">coteEst</text>
<text text-anchor="start" x="65.5" y="-1002" font-family="Helvetica,sans-Serif" font-size="10.00">&#45;</text>
<text text-anchor="start" x="76" y="-1002" font-family="Helvetica,sans-Serif" font-size="10.00">coteOuest</text>
<text text-anchor="start" x="63" y="-987" font-family="Helvetica,sans-Serif" font-size="10.00">+</text>
<text text-anchor="start" x="76" y="-987" font-family="Helvetica,sans-Serif" font-size="10.00">estCoteEst()</text>
<text text-anchor="start" x="63" y="-972" font-family="Helvetica,sans-Serif" font-size="10.00">+</text>
<text text-anchor="start" x="76" y="-972" font-family="Helvetica,sans-Serif" font-size="10.00">estCoteOuest()</text>
<text text-anchor="start" x="63" y="-957" font-family="Helvetica,sans-Serif" font-size="10.00">+</text>
<text text-anchor="start" x="76" y="-957" font-family="Helvetica,sans-Serif" font-size="10.00">getNom()</text>
<text text-anchor="start" x="63" y="-942" font-family="Helvetica,sans-Serif" font-size="10.00">+</text>
<text text-anchor="start" x="76" y="-942" font-family="Helvetica,sans-Serif" font-size="10.00">Ville()</text>
<text text-anchor="start" x="63" y="-927" font-family="Helvetica,sans-Serif" font-size="10.00">+</text>
<text text-anchor="start" x="76" y="-927" font-family="Helvetica,sans-Serif" font-size="10.00">Ville()</text>
<polygon fill="#666666" stroke="#666666" points="59,-1027 59,-1027 154,-1027 154,-1027 59,-1027"/>
<polygon fill="#666666" stroke="#666666" points="59,-997 59,-997 74,-997 74,-997 59,-997"/>
<polygon fill="#666666" stroke="#666666" points="74,-997 74,-997 154,-997 154,-997 74,-997"/>
<polygon fill="none" stroke="#666666" points="58.5,-920 58.5,-1044 153.5,-1044 153.5,-920 58.5,-920"/>
</a>
</g>
</g>
<!-- Node2&#45;&gt;Node1 -->
<g id="edge1_Node000001_Node000002" class="edge">
<title>Node2&#45;&gt;Node1</title>
<g id="a_edge1_Node000001_Node000002"><a xlink:title=" ">
<path fill="none" stroke="#63b8ff" d="M69.58,-919.89C51.72,-884.28 34,-837.78 34,-793.5 34,-793.5 34,-793.5 34,-457 34,-406.35 36.14,-351.12 38.85,-301.43"/>
<polygon fill="none" stroke="#63b8ff" points="38.86,-301.24 35.2,-295.03 39.53,-289.26 43.19,-295.47 38.86,-301.24"/>
</a>
</g>
<text text-anchor="middle" x="51" y="-654.5" font-family="Helvetica,sans-Serif" font-size="10.00" fill="grey"> &#45;villeA</text>
<text text-anchor="middle" x="51" y="-643.5" font-family="Helvetica,sans-Serif" font-size="10.00" fill="grey">&#45;villeB</text>
</g>
<!-- Node11 -->
<g id="Node000011" class="node">
<title>Node11</title>
<g id="a_Node000011"><a xlink:href="classTicket.html" target="_top" xlink:title="Représente un ticket destination entre deux villes.">
<polygon fill="white" stroke="transparent" points="149.5,-862 62.5,-862 62.5,-723 149.5,-723 149.5,-862"/>
<text text-anchor="start" x="91.5" y="-849.5" font-family="Helvetica,sans-Serif" font-size="10.00">Ticket</text>
<text text-anchor="start" x="69.5" y="-834.5" font-family="Helvetica,sans-Serif" font-size="10.00">&#45;</text>
<text text-anchor="start" x="80" y="-834.5" font-family="Helvetica,sans-Serif" font-size="10.00">id</text>
<text text-anchor="start" x="69.5" y="-819.5" font-family="Helvetica,sans-Serif" font-size="10.00">&#45;</text>
<text text-anchor="start" x="80" y="-819.5" font-family="Helvetica,sans-Serif" font-size="10.00">valide</text>
<text text-anchor="start" x="67" y="-804.5" font-family="Helvetica,sans-Serif" font-size="10.00">+</text>
<text text-anchor="start" x="80" y="-804.5" font-family="Helvetica,sans-Serif" font-size="10.00">estValide()</text>
<text text-anchor="start" x="67" y="-789.5" font-family="Helvetica,sans-Serif" font-size="10.00">+</text>
<text text-anchor="start" x="80" y="-789.5" font-family="Helvetica,sans-Serif" font-size="10.00">getId()</text>
<text text-anchor="start" x="67" y="-774.5" font-family="Helvetica,sans-Serif" font-size="10.00">+</text>
<text text-anchor="start" x="80" y="-774.5" font-family="Helvetica,sans-Serif" font-size="10.00">getVilleA()</text>
<text text-anchor="start" x="67" y="-759.5" font-family="Helvetica,sans-Serif" font-size="10.00">+</text>
<text text-anchor="start" x="80" y="-759.5" font-family="Helvetica,sans-Serif" font-size="10.00">getVilleB()</text>
<text text-anchor="start" x="67" y="-744.5" font-family="Helvetica,sans-Serif" font-size="10.00">+</text>
<text text-anchor="start" x="80" y="-744.5" font-family="Helvetica,sans-Serif" font-size="10.00">operator==()</text>
<text text-anchor="start" x="67" y="-729.5" font-family="Helvetica,sans-Serif" font-size="10.00">+</text>
<text text-anchor="start" x="80" y="-729.5" font-family="Helvetica,sans-Serif" font-size="10.00">Ticket()</text>
<polygon fill="#666666" stroke="#666666" points="63,-844.5 63,-844.5 150,-844.5 150,-844.5 63,-844.5"/>
<polygon fill="#666666" stroke="#666666" points="63,-814.5 63,-814.5 78,-814.5 78,-814.5 63,-814.5"/>
<polygon fill="#666666" stroke="#666666" points="78,-814.5 78,-814.5 150,-814.5 150,-814.5 78,-814.5"/>
<polygon fill="none" stroke="#666666" points="62.5,-723 62.5,-862 149.5,-862 149.5,-723 62.5,-723"/>
</a>
</g>
</g>
<!-- Node2&#45;&gt;Node11 -->
<g id="edge12_Node000011_Node000002" class="edge">
<title>Node2&#45;&gt;Node11</title>
<g id="a_edge12_Node000011_Node000002"><a xlink:title=" ">
<path fill="none" stroke="#63b8ff" d="M106,-919.86C106,-905.28 106,-889.48 106,-874.17"/>
<polygon fill="none" stroke="#63b8ff" points="106,-874.02 102,-868.02 106,-862.02 110,-868.02 106,-874.02"/>
</a>
</g>
<text text-anchor="middle" x="123" y="-894" font-family="Helvetica,sans-Serif" font-size="10.00" fill="grey"> &#45;villeA</text>
<text text-anchor="middle" x="123" y="-883" font-family="Helvetica,sans-Serif" font-size="10.00" fill="grey">&#45;villeB</text>
</g>
<!-- Node3 -->
<g id="Node000003" class="node">
<title>Node3</title>
<g id="a_Node000003"><a xlink:title=" ">
<polygon fill="white" stroke="transparent" points="284.5,-1140 225.5,-1140 225.5,-1091 284.5,-1091 284.5,-1140"/>
<text text-anchor="start" x="231" y="-1127.5" font-family="Helvetica,sans-Serif" font-size="10.00">std::string</text>
<text text-anchor="start" x="253.5" y="-1112.5" font-family="Helvetica,sans-Serif" font-size="10.00"> </text>
<text text-anchor="start" x="253.5" y="-1097.5" font-family="Helvetica,sans-Serif" font-size="10.00"> </text>
<polygon fill="#666666" stroke="#666666" points="226,-1122.5 226,-1122.5 285,-1122.5 285,-1122.5 226,-1122.5"/>
<polygon fill="#666666" stroke="#666666" points="226,-1107.5 226,-1107.5 285,-1107.5 285,-1107.5 226,-1107.5"/>
<polygon fill="none" stroke="#666666" points="225.5,-1091 225.5,-1140 284.5,-1140 284.5,-1091 225.5,-1091"/>
</a>
</g>
</g>
<!-- Node3&#45;&gt;Node2 -->
<g id="edge2_Node000002_Node000003" class="edge">
<title>Node3&#45;&gt;Node2</title>
<g id="a_edge2_Node000002_Node000003"><a xlink:title=" ">
<path fill="none" stroke="#63b8ff" d="M228.36,-1090.99C210.19,-1074.95 185.43,-1053.1 162.94,-1033.25"/>
<polygon fill="none" stroke="#63b8ff" points="162.79,-1033.12 155.64,-1032.15 153.79,-1025.18 160.94,-1026.15 162.79,-1033.12"/>
</a>
</g>
<text text-anchor="middle" x="221.5" y="-1065" font-family="Helvetica,sans-Serif" font-size="10.00" fill="grey"> &#45;nom</text>
</g>
<!-- Node5 -->
<g id="Node000005" class="node">
<title>Node5</title>
<g id="a_Node000005"><a xlink:href="classJoueur.html" target="_top" xlink:title="Déclaration anticipée pour éviter les inclusions circulaires.">
<polygon fill="white" stroke="transparent" points="292.5,-580 177.5,-580 177.5,-336 292.5,-336 292.5,-580"/>
<text text-anchor="start" x="220" y="-568" font-family="Helvetica,sans-Serif" font-size="10.00">Joueur</text>
<text text-anchor="start" x="184.5" y="-553" font-family="Helvetica,sans-Serif" font-size="10.00">&#45;</text>
<text text-anchor="start" x="195" y="-553" font-family="Helvetica,sans-Serif" font-size="10.00">couleurWagon</text>
<text text-anchor="start" x="184.5" y="-538" font-family="Helvetica,sans-Serif" font-size="10.00">&#45;</text>
<text text-anchor="start" x="195" y="-538" font-family="Helvetica,sans-Serif" font-size="10.00">grdTraversee</text>
<text text-anchor="start" x="184.5" y="-523" font-family="Helvetica,sans-Serif" font-size="10.00">&#45;</text>
<text text-anchor="start" x="195" y="-523" font-family="Helvetica,sans-Serif" font-size="10.00">nbTicketValide</text>
<text text-anchor="start" x="184.5" y="-508" font-family="Helvetica,sans-Serif" font-size="10.00">&#45;</text>
<text text-anchor="start" x="195" y="-508" font-family="Helvetica,sans-Serif" font-size="10.00">nbWagon</text>
<text text-anchor="start" x="182" y="-493" font-family="Helvetica,sans-Serif" font-size="10.00">+</text>
<text text-anchor="start" x="195" y="-493" font-family="Helvetica,sans-Serif" font-size="10.00">afficherMain()</text>
<text text-anchor="start" x="182" y="-478" font-family="Helvetica,sans-Serif" font-size="10.00">+</text>
<text text-anchor="start" x="195" y="-478" font-family="Helvetica,sans-Serif" font-size="10.00">afficherMain()</text>
<text text-anchor="start" x="182" y="-463" font-family="Helvetica,sans-Serif" font-size="10.00">+</text>
<text text-anchor="start" x="195" y="-463" font-family="Helvetica,sans-Serif" font-size="10.00">defausserCarte()</text>
<text text-anchor="start" x="182" y="-448" font-family="Helvetica,sans-Serif" font-size="10.00">+</text>
<text text-anchor="start" x="195" y="-448" font-family="Helvetica,sans-Serif" font-size="10.00">defausserTicket()</text>
<text text-anchor="start" x="182" y="-433" font-family="Helvetica,sans-Serif" font-size="10.00">+</text>
<text text-anchor="start" x="195" y="-433" font-family="Helvetica,sans-Serif" font-size="10.00">getCouleurWagon()</text>
<text text-anchor="start" x="182" y="-418" font-family="Helvetica,sans-Serif" font-size="10.00">+</text>
<text text-anchor="start" x="195" y="-418" font-family="Helvetica,sans-Serif" font-size="10.00">getMain()</text>
<text text-anchor="start" x="182" y="-403" font-family="Helvetica,sans-Serif" font-size="10.00">+</text>
<text text-anchor="start" x="195" y="-403" font-family="Helvetica,sans-Serif" font-size="10.00">getNbWagon()</text>
<text text-anchor="start" x="182" y="-388" font-family="Helvetica,sans-Serif" font-size="10.00">+</text>
<text text-anchor="start" x="195" y="-388" font-family="Helvetica,sans-Serif" font-size="10.00">getPrenom()</text>
<text text-anchor="start" x="182" y="-373" font-family="Helvetica,sans-Serif" font-size="10.00">+</text>
<text text-anchor="start" x="195" y="-373" font-family="Helvetica,sans-Serif" font-size="10.00">getTicket()</text>
<text text-anchor="start" x="182" y="-358" font-family="Helvetica,sans-Serif" font-size="10.00">+</text>
<text text-anchor="start" x="195" y="-358" font-family="Helvetica,sans-Serif" font-size="10.00">getTicketValide()</text>
<text text-anchor="start" x="195" y="-343" font-family="Helvetica,sans-Serif" font-size="10.00">et 11 de plus...</text>
<polygon fill="#666666" stroke="#666666" points="178,-563 178,-563 293,-563 293,-563 178,-563"/>
<polygon fill="#666666" stroke="#666666" points="178,-503 178,-503 193,-503 193,-503 178,-503"/>
<polygon fill="#666666" stroke="#666666" points="193,-503 193,-503 293,-503 293,-503 193,-503"/>
<polygon fill="none" stroke="#666666" points="177.5,-336 177.5,-580 292.5,-580 292.5,-336 177.5,-336"/>
</a>
</g>
</g>
<!-- Node3&#45;&gt;Node5 -->
<g id="edge5_Node000005_Node000003" class="edge">
<title>Node3&#45;&gt;Node5</title>
<g id="a_edge5_Node000005_Node000003"><a xlink:title=" ">
<path fill="none" stroke="#63b8ff" d="M284.59,-1103.72C327.78,-1085.85 403,-1045.73 403,-983 403,-983 403,-983 403,-650.5 403,-586.5 349.32,-533.67 302.65,-499.82"/>
<polygon fill="none" stroke="#63b8ff" points="302.62,-499.81 295.42,-499.62 292.82,-492.89 300.02,-493.08 302.62,-499.81"/>
</a>
</g>
<text text-anchor="middle" x="425.5" y="-790" font-family="Helvetica,sans-Serif" font-size="10.00" fill="grey"> &#45;prenom</text>
</g>
<!-- Node4 -->
<g id="Node000004" class="node">
<title>Node4</title>
<g id="a_Node000004"><a xlink:title=" ">
<polygon fill="white" stroke="transparent" points="304,-1237 206,-1237 206,-1177 304,-1177 304,-1237"/>
<text text-anchor="start" x="211" y="-1225" font-family="Helvetica,sans-Serif" font-size="10.00">std::basic_string&lt;</text>
<text text-anchor="start" x="236.5" y="-1214" font-family="Helvetica,sans-Serif" font-size="10.00"> Char &gt;</text>
<text text-anchor="start" x="253" y="-1199" font-family="Helvetica,sans-Serif" font-size="10.00"> </text>
<text text-anchor="start" x="253" y="-1184" font-family="Helvetica,sans-Serif" font-size="10.00"> </text>
<polygon fill="#666666" stroke="#666666" points="206,-1209 206,-1209 304,-1209 304,-1209 206,-1209"/>
<polygon fill="#666666" stroke="#666666" points="206,-1194 206,-1194 304,-1194 304,-1194 206,-1194"/>
<polygon fill="none" stroke="#666666" points="206,-1177 206,-1237 304,-1237 304,-1177 206,-1177"/>
</a>
</g>
</g>
<!-- Node4&#45;&gt;Node3 -->
<g id="edge3_Node000003_Node000004" class="edge">
<title>Node4&#45;&gt;Node3</title>
<g id="a_edge3_Node000003_Node000004"><a xlink:title=" ">
<path fill="none" stroke="#63b8ff" d="M255,-1166.41C255,-1157.47 255,-1148.25 255,-1140.21"/>
<polygon fill="none" stroke="#63b8ff" points="251.5,-1166.69 255,-1176.69 258.5,-1166.69 251.5,-1166.69"/>
</a>
</g>
</g>
<!-- Node5&#45;&gt;Node1 -->
<g id="edge4_Node000001_Node000005" class="edge">
<title>Node5&#45;&gt;Node1</title>
<g id="a_edge4_Node000001_Node000005"><a xlink:title=" ">
<path fill="none" stroke="#63b8ff" d="M177.48,-360.15C154.84,-322.03 128.92,-278.39 106.4,-240.46"/>
<polygon fill="none" stroke="#63b8ff" points="106.26,-240.24 99.76,-237.12 100.14,-229.92 106.64,-233.04 106.26,-240.24"/>
</a>
</g>
<text text-anchor="middle" x="170" y="-310" font-family="Helvetica,sans-Serif" font-size="10.00" fill="grey"> &#45;proprio</text>
</g>
<!-- Node6 -->
<g id="Node000006" class="node">
<title>Node6</title>
<g id="a_Node000006"><a xlink:title=" ">
<polygon fill="white" stroke="transparent" points="355,-676 221,-676 221,-627 355,-627 355,-676"/>
<text text-anchor="start" x="226" y="-663.5" font-family="Helvetica,sans-Serif" font-size="10.00">std::vector&lt; CarteTrain &gt;</text>
<text text-anchor="start" x="286" y="-648.5" font-family="Helvetica,sans-Serif" font-size="10.00"> </text>
<text text-anchor="start" x="286" y="-633.5" font-family="Helvetica,sans-Serif" font-size="10.00"> </text>
<polygon fill="#666666" stroke="#666666" points="221,-658.5 221,-658.5 355,-658.5 355,-658.5 221,-658.5"/>
<polygon fill="#666666" stroke="#666666" points="221,-643.5 221,-643.5 355,-643.5 355,-643.5 221,-643.5"/>
<polygon fill="none" stroke="#666666" points="221,-627 221,-676 355,-676 355,-627 221,-627"/>
</a>
</g>
</g>
<!-- Node6&#45;&gt;Node5 -->
<g id="edge6_Node000005_Node000006" class="edge">
<title>Node6&#45;&gt;Node5</title>
<g id="a_edge6_Node000005_Node000006"><a xlink:title=" ">
<path fill="none" stroke="#63b8ff" d="M281.39,-626.63C278.71,-616.94 275.39,-604.93 271.76,-591.82"/>
<polygon fill="none" stroke="#63b8ff" points="271.7,-591.62 266.25,-586.91 268.5,-580.06 273.96,-584.77 271.7,-591.62"/>
</a>
</g>
<text text-anchor="middle" x="291" y="-601" font-family="Helvetica,sans-Serif" font-size="10.00" fill="grey"> &#45;main</text>
</g>
<!-- Node7 -->
<g id="Node000007" class="node">
<title>Node7</title>
<g id="a_Node000007"><a xlink:href="classCarteTrain.html" target="_top" xlink:title="Représente une carte train identifiée par sa couleur.">
<polygon fill="white" stroke="transparent" points="366.5,-832 279.5,-832 279.5,-753 366.5,-753 366.5,-832"/>
<text text-anchor="start" x="298.5" y="-819.5" font-family="Helvetica,sans-Serif" font-size="10.00">CarteTrain</text>
<text text-anchor="start" x="286.5" y="-804.5" font-family="Helvetica,sans-Serif" font-size="10.00">&#45;</text>
<text text-anchor="start" x="297" y="-804.5" font-family="Helvetica,sans-Serif" font-size="10.00">couleur</text>
<text text-anchor="start" x="284" y="-789.5" font-family="Helvetica,sans-Serif" font-size="10.00">+</text>
<text text-anchor="start" x="297" y="-789.5" font-family="Helvetica,sans-Serif" font-size="10.00">CarteTrain()</text>
<text text-anchor="start" x="284" y="-774.5" font-family="Helvetica,sans-Serif" font-size="10.00">+</text>
<text text-anchor="start" x="297" y="-774.5" font-family="Helvetica,sans-Serif" font-size="10.00">getCouleur()</text>
<text text-anchor="start" x="284" y="-759.5" font-family="Helvetica,sans-Serif" font-size="10.00">+</text>
<text text-anchor="start" x="297" y="-759.5" font-family="Helvetica,sans-Serif" font-size="10.00">operator==()</text>
<polygon fill="#666666" stroke="#666666" points="280,-814.5 280,-814.5 367,-814.5 367,-814.5 280,-814.5"/>
<polygon fill="#666666" stroke="#666666" points="280,-799.5 280,-799.5 295,-799.5 295,-799.5 280,-799.5"/>
<polygon fill="#666666" stroke="#666666" points="295,-799.5 295,-799.5 367,-799.5 367,-799.5 295,-799.5"/>
<polygon fill="none" stroke="#666666" points="279.5,-753 279.5,-832 366.5,-832 366.5,-753 279.5,-753"/>
</a>
</g>
</g>
<!-- Node7&#45;&gt;Node6 -->
<g id="edge7_Node000006_Node000007" class="edge">
<title>Node7&#45;&gt;Node6</title>
<g id="a_edge7_Node000006_Node000007"><a xlink:title=" ">
<path fill="none" stroke="#63b8ff" d="M316.39,-752.76C312.97,-734.74 308.39,-713.13 303,-694 302.4,-691.88 301.75,-689.71 301.06,-687.54"/>
<polygon fill="none" stroke="#63b8ff" points="301.01,-687.38 295.3,-682.98 297.16,-676.01 302.88,-680.41 301.01,-687.38"/>
</a>
</g>
<text text-anchor="middle" x="334" y="-697" font-family="Helvetica,sans-Serif" font-size="10.00" fill="grey"> +elements</text>
</g>
<!-- Node8 -->
<g id="Node000008" class="node">
<title>Node8</title>
<g id="a_Node000008"><a xlink:title=" ">
<polygon fill="white" stroke="transparent" points="260.5,-817 169.5,-817 169.5,-768 260.5,-768 260.5,-817"/>
<text text-anchor="start" x="175" y="-804.5" font-family="Helvetica,sans-Serif" font-size="10.00">std::vector&lt; T &gt;</text>
<text text-anchor="start" x="213.5" y="-789.5" font-family="Helvetica,sans-Serif" font-size="10.00"> </text>
<text text-anchor="start" x="213.5" y="-774.5" font-family="Helvetica,sans-Serif" font-size="10.00"> </text>
<polygon fill="#666666" stroke="#666666" points="170,-799.5 170,-799.5 261,-799.5 261,-799.5 170,-799.5"/>
<polygon fill="#666666" stroke="#666666" points="170,-784.5 170,-784.5 261,-784.5 261,-784.5 170,-784.5"/>
<polygon fill="none" stroke="#666666" points="169.5,-768 169.5,-817 260.5,-817 260.5,-768 169.5,-768"/>
</a>
</g>
</g>
<!-- Node8&#45;&gt;Node6 -->
<g id="edge8_Node000006_Node000008" class="edge">
<title>Node8&#45;&gt;Node6</title>
<g id="a_edge8_Node000006_Node000008"><a xlink:title=" ">
<path fill="none" stroke="orange" d="M210.62,-757.5C209.73,-737.64 211.63,-712.87 223,-694 227.15,-687.12 232.92,-681.18 239.33,-676.13"/>
<polygon fill="orange" stroke="orange" points="207.14,-757.93 211.33,-767.66 214.12,-757.44 207.14,-757.93"/>
</a>
</g>
<text text-anchor="middle" x="261" y="-697" font-family="Helvetica,sans-Serif" font-size="10.00" fill="grey"> &lt; CarteTrain &gt;</text>
</g>
<!-- Node10 -->
<g id="Node000010" class="node">
<title>Node10</title>
<g id="a_Node000010"><a xlink:title=" ">
<polygon fill="white" stroke="transparent" points="203,-676 89,-676 89,-627 203,-627 203,-676"/>
<text text-anchor="start" x="94" y="-663.5" font-family="Helvetica,sans-Serif" font-size="10.00">std::vector&lt; Ticket &gt;</text>
<text text-anchor="start" x="144" y="-648.5" font-family="Helvetica,sans-Serif" font-size="10.00"> </text>
<text text-anchor="start" x="144" y="-633.5" font-family="Helvetica,sans-Serif" font-size="10.00"> </text>
<polygon fill="#666666" stroke="#666666" points="89,-658.5 89,-658.5 203,-658.5 203,-658.5 89,-658.5"/>
<polygon fill="#666666" stroke="#666666" points="89,-643.5 89,-643.5 203,-643.5 203,-643.5 89,-643.5"/>
<polygon fill="none" stroke="#666666" points="89,-627 89,-676 203,-676 203,-627 89,-627"/>
</a>
</g>
</g>
<!-- Node8&#45;&gt;Node10 -->
<g id="edge13_Node000010_Node000008" class="edge">
<title>Node8&#45;&gt;Node10</title>
<g id="a_edge13_Node000010_Node000008"><a xlink:title=" ">
<path fill="none" stroke="orange" d="M187.8,-759.96C171.63,-740.48 153.44,-716.99 149,-705 145.64,-695.92 144.55,-685.36 144.42,-676.1"/>
<polygon fill="orange" stroke="orange" points="185.21,-762.33 194.32,-767.74 190.58,-757.83 185.21,-762.33"/>
</a>
</g>
<text text-anchor="middle" x="176.5" y="-697" font-family="Helvetica,sans-Serif" font-size="10.00" fill="grey"> &lt; Ticket &gt;</text>
</g>
<!-- Node9 -->
<g id="Node000009" class="node">
<title>Node9</title>
<g id="a_Node000009"><a xlink:title=" ">
<polygon fill="white" stroke="transparent" points="223.5,-1006.5 206.5,-1006.5 206.5,-957.5 223.5,-957.5 223.5,-1006.5"/>
<text text-anchor="start" x="212" y="-994" font-family="Helvetica,sans-Serif" font-size="10.00">T</text>
<text text-anchor="start" x="213.5" y="-979" font-family="Helvetica,sans-Serif" font-size="10.00"> </text>
<text text-anchor="start" x="213.5" y="-964" font-family="Helvetica,sans-Serif" font-size="10.00"> </text>
<polygon fill="#666666" stroke="#666666" points="207,-989 207,-989 224,-989 224,-989 207,-989"/>
<polygon fill="#666666" stroke="#666666" points="207,-974 207,-974 224,-974 224,-974 207,-974"/>
<polygon fill="none" stroke="#666666" points="206.5,-957.5 206.5,-1006.5 223.5,-1006.5 223.5,-957.5 206.5,-957.5"/>
</a>
</g>
</g>
<!-- Node9&#45;&gt;Node8 -->
<g id="edge9_Node000008_Node000009" class="edge">
<title>Node9&#45;&gt;Node8</title>
<g id="a_edge9_Node000008_Node000009"><a xlink:title=" ">
<path fill="none" stroke="#63b8ff" d="M215,-957.25C215,-924.99 215,-867.03 215,-829.43"/>
<polygon fill="none" stroke="#63b8ff" points="215,-829.05 211,-823.05 215,-817.05 219,-823.05 215,-829.05"/>
</a>
</g>
<text text-anchor="middle" x="244" y="-888.5" font-family="Helvetica,sans-Serif" font-size="10.00" fill="grey"> +elements</text>
</g>
<!-- Node10&#45;&gt;Node5 -->
<g id="edge10_Node000005_Node000010" class="edge">
<title>Node10&#45;&gt;Node5</title>
<g id="a_edge10_Node000005_Node000010"><a xlink:title=" ">
<path fill="none" stroke="#63b8ff" d="M157.09,-626.63C161.69,-616.74 167.4,-604.44 173.64,-591.03"/>
<polygon fill="none" stroke="#63b8ff" points="173.68,-590.94 172.58,-583.81 178.74,-580.06 179.84,-587.18 173.68,-590.94"/>
</a>
</g>
<text text-anchor="middle" x="187" y="-601" font-family="Helvetica,sans-Serif" font-size="10.00" fill="grey"> &#45;ticket</text>
</g>
<!-- Node11&#45;&gt;Node10 -->
<g id="edge11_Node000010_Node000011" class="edge">
<title>Node11&#45;&gt;Node10</title>
<g id="a_edge11_Node000010_Node000011"><a xlink:title=" ">
<path fill="none" stroke="#63b8ff" d="M63.23,-722.96C61.56,-712.98 62.57,-703.03 68,-694 71,-689 74.83,-684.58 79.18,-680.66"/>
<polygon fill="none" stroke="#63b8ff" points="79.21,-680.63 81.52,-673.8 88.72,-673.31 86.4,-680.14 79.21,-680.63"/>
</a>
</g>
<text text-anchor="middle" x="97" y="-697" font-family="Helvetica,sans-Serif" font-size="10.00" fill="grey"> +elements</text>
</g>
</g>
</svg>
