<?xml version="1.0" encoding="UTF-8" standalone="no"?>
<!DOCTYPE svg PUBLIC "-//W3C//DTD SVG 1.1//EN"
 "http://www.w3.org/Graphics/SVG/1.1/DTD/svg11.dtd">
<!-- Generated by graphviz version 2.43.0 (0)
 -->
<!-- Title: Joueur::validerTicket Pages: 1 -->
<svg width="301pt" height="101pt"
 viewBox="0.00 0.00 301.00 101.00" xmlns="http://www.w3.org/2000/svg" xmlns:xlink="http://www.w3.org/1999/xlink">
<g id="graph0" class="graph" transform="scale(1 1) rotate(0) translate(4 97)">
<title>Joueur::validerTicket</title>
<!-- Node1 -->
<g id="Node000001" class="node">
<title>Node1</title>
<g id="a_Node000001"><a xlink:title="Valide un ticket si son objectif est atteint.">
<polygon fill="#999999" stroke="#666666" points="116,-56 0,-56 0,-37 116,-37 116,-56"/>
<text text-anchor="middle" x="58" y="-44" font-family="Helvetica,sans-Serif" font-size="10.00">Joueur::validerTicket</text>
</a>
</g>
</g>
<!-- Node2 -->
<g id="Node000002" class="node">
<title>Node2</title>
<g id="a_Node000002"><a xlink:href="classTicket.html#a650a77c0085e54714006ce0b80d1423b" target="_top" xlink:title="Indique si le ticket est encore valide.">
<polygon fill="white" stroke="#666666" points="271,-93 174,-93 174,-74 271,-74 271,-93"/>
<text text-anchor="middle" x="222.5" y="-81" font-family="Helvetica,sans-Serif" font-size="10.00">Ticket::estValide</text>
</a>
</g>
</g>
<!-- Node1&#45;&gt;Node2 -->
<g id="edge1_Node000001_Node000002" class="edge">
<title>Node1&#45;&gt;Node2</title>
<g id="a_edge1_Node000001_Node000002"><a xlink:title=" ">
<path fill="none" stroke="#63b8ff" d="M100.85,-56.03C121.81,-60.8 147.38,-66.62 169.58,-71.68"/>
<polygon fill="#63b8ff" stroke="#63b8ff" points="168.98,-75.13 179.51,-73.94 170.54,-68.31 168.98,-75.13"/>
</a>
</g>
</g>
<!-- Node3 -->
<g id="Node000003" class="node">
<title>Node3</title>
<g id="a_Node000003"><a xlink:href="classJoueur.html#aadd87efcea0d7e32335ec0ef0d041587" target="_top" xlink:title="Retourne le nombre de tickets validés.">
<polygon fill="white" stroke="#666666" points="286.5,-56 158.5,-56 158.5,-37 286.5,-37 286.5,-56"/>
<text text-anchor="middle" x="222.5" y="-44" font-family="Helvetica,sans-Serif" font-size="10.00">Joueur::getTicketValide</text>
</a>
</g>
</g>
<!-- Node1&#45;&gt;Node3 -->
<g id="edge2_Node000001_Node000003" class="edge">
<title>Node1&#45;&gt;Node3</title>
<g id="a_edge2_Node000001_Node000003"><a xlink:title=" ">
<path fill="none" stroke="#63b8ff" d="M116.29,-46.5C126.61,-46.5 137.49,-46.5 148.19,-46.5"/>
<polygon fill="#63b8ff" stroke="#63b8ff" points="148.37,-50 158.37,-46.5 148.37,-43 148.37,-50"/>
</a>
</g>
</g>
<!-- Node4 -->
<g id="Node000004" class="node">
<title>Node4</title>
<g id="a_Node000004"><a xlink:href="classJoueur.html#ad208eeeb7c847301bfab4d577ab7ded4" target="_top" xlink:title="Modifie le nombre de tickets validés.">
<polygon fill="white" stroke="#666666" points="293,-19 152,-19 152,0 293,0 293,-19"/>
<text text-anchor="middle" x="222.5" y="-7" font-family="Helvetica,sans-Serif" font-size="10.00">Joueur::setNbTicketValide</text>
</a>
</g>
</g>
<!-- Node1&#45;&gt;Node4 -->
<g id="edge3_Node000001_Node000004" class="edge">
<title>Node1&#45;&gt;Node4</title>
<g id="a_edge3_Node000001_Node000004"><a xlink:title=" ">
<path fill="none" stroke="#63b8ff" d="M100.85,-36.97C121.81,-32.2 147.38,-26.38 169.58,-21.32"/>
<polygon fill="#63b8ff" stroke="#63b8ff" points="170.54,-24.69 179.51,-19.06 168.98,-17.87 170.54,-24.69"/>
</a>
</g>
</g>
</g>
</svg>
