<?xml version="1.0" encoding="UTF-8" standalone="no"?>
<!DOCTYPE svg PUBLIC "-//W3C//DTD SVG 1.1//EN"
 "http://www.w3.org/Graphics/SVG/1.1/DTD/svg11.dtd">
<!-- Generated by graphviz version 2.43.0 (0)
 -->
<!-- Title: Affichage::mettreAJour Pages: 1 -->
<svg width="491pt" height="82pt"
 viewBox="0.00 0.00 491.00 82.00" xmlns="http://www.w3.org/2000/svg" xmlns:xlink="http://www.w3.org/1999/xlink">
<g id="graph0" class="graph" transform="scale(1 1) rotate(0) translate(4 78)">
<title>Affichage::mettreAJour</title>
<!-- Node1 -->
<g id="Node000001" class="node">
<title>Node1</title>
<g id="a_Node000001"><a xlink:title="Redessine l&#39;intégralité de la scène pour refléter l&#39;état courant du jeu.">
<polygon fill="#999999" stroke="#666666" points="127,-37 0,-37 0,-18 127,-18 127,-37"/>
<text text-anchor="middle" x="63.5" y="-25" font-family="Helvetica,sans-Serif" font-size="10.00">Affichage::mettreAJour</text>
</a>
</g>
</g>
<!-- Node2 -->
<g id="Node000002" class="node">
<title>Node2</title>
<g id="a_Node000002"><a xlink:href="classAffichage.html#a099d5b63d7b73ef42081aa015959b7d5" target="_top" xlink:title="Dessine l&#39;intégralité du plateau (villes + routes).">
<polygon fill="white" stroke="#666666" points="309,-56 163,-56 163,-37 309,-37 309,-56"/>
<text text-anchor="middle" x="236" y="-44" font-family="Helvetica,sans-Serif" font-size="10.00">Affichage::dessinerPlateau</text>
</a>
</g>
</g>
<!-- Node1&#45;&gt;Node2 -->
<g id="edge1_Node000001_Node000002" class="edge">
<title>Node1&#45;&gt;Node2</title>
<g id="a_edge1_Node000001_Node000002"><a xlink:title=" ">
<path fill="none" stroke="#63b8ff" d="M127.02,-34.47C135.42,-35.4 144.14,-36.38 152.82,-37.34"/>
<polygon fill="#63b8ff" stroke="#63b8ff" points="152.64,-40.84 162.96,-38.47 153.41,-33.89 152.64,-40.84"/>
</a>
</g>
</g>
<!-- Node5 -->
<g id="Node000005" class="node">
<title>Node5</title>
<g id="a_Node000005"><a xlink:href="classPlateau.html#a1d12853204c743e3ce12bb7ed617b96e" target="_top" xlink:title="Retourne la liste des routes du plateau.">
<polygon fill="white" stroke="#666666" points="288,-19 184,-19 184,0 288,0 288,-19"/>
<text text-anchor="middle" x="236" y="-7" font-family="Helvetica,sans-Serif" font-size="10.00">Plateau::getRoute</text>
</a>
</g>
</g>
<!-- Node1&#45;&gt;Node5 -->
<g id="edge4_Node000001_Node000005" class="edge">
<title>Node1&#45;&gt;Node5</title>
<g id="a_edge4_Node000001_Node000005"><a xlink:title=" ">
<path fill="none" stroke="#63b8ff" d="M127.02,-20.9C142.23,-19.29 158.49,-17.58 173.64,-15.98"/>
<polygon fill="#63b8ff" stroke="#63b8ff" points="174.36,-19.42 183.94,-14.89 173.62,-12.46 174.36,-19.42"/>
</a>
</g>
</g>
<!-- Node3 -->
<g id="Node000003" class="node">
<title>Node3</title>
<g id="a_Node000003"><a xlink:href="classAffichage.html#aef32b46ea8533260f1a6c9ca0b34d9a7" target="_top" xlink:title="Dessine une route entre deux points, avec support des routes doubles.">
<polygon fill="white" stroke="#666666" points="483,-74 345,-74 345,-55 483,-55 483,-74"/>
<text text-anchor="middle" x="414" y="-62" font-family="Helvetica,sans-Serif" font-size="10.00">Affichage::dessinerRoute</text>
</a>
</g>
</g>
<!-- Node2&#45;&gt;Node3 -->
<g id="edge2_Node000002_Node000003" class="edge">
<title>Node2&#45;&gt;Node3</title>
<g id="a_edge2_Node000002_Node000003"><a xlink:title=" ">
<path fill="none" stroke="#63b8ff" d="M309.09,-53.87C317.62,-54.75 326.36,-55.64 334.96,-56.52"/>
<polygon fill="#63b8ff" stroke="#63b8ff" points="334.68,-60.01 344.99,-57.54 335.4,-53.04 334.68,-60.01"/>
</a>
</g>
</g>
<!-- Node4 -->
<g id="Node000004" class="node">
<title>Node4</title>
<g id="a_Node000004"><a xlink:href="classAffichage.html#aefd220a7781092371db8958d5e384168" target="_top" xlink:title="Dessine une ville sous forme de cercle étiqueté.">
<polygon fill="white" stroke="#666666" points="479.5,-37 348.5,-37 348.5,-18 479.5,-18 479.5,-37"/>
<text text-anchor="middle" x="414" y="-25" font-family="Helvetica,sans-Serif" font-size="10.00">Affichage::dessinerVille</text>
</a>
</g>
</g>
<!-- Node2&#45;&gt;Node4 -->
<g id="edge3_Node000002_Node000004" class="edge">
<title>Node2&#45;&gt;Node4</title>
<g id="a_edge3_Node000002_Node000004"><a xlink:title=" ">
<path fill="none" stroke="#63b8ff" d="M309.09,-38.72C318.75,-37.68 328.66,-36.6 338.36,-35.56"/>
<polygon fill="#63b8ff" stroke="#63b8ff" points="338.79,-39.03 348.36,-34.48 338.04,-32.07 338.79,-39.03"/>
</a>
</g>
</g>
</g>
</svg>
