<?xml version="1.0" encoding="UTF-8" standalone="no"?>
<!DOCTYPE svg PUBLIC "-//W3C//DTD SVG 1.1//EN"
 "http://www.w3.org/Graphics/SVG/1.1/DTD/svg11.dtd">
<!-- Generated by graphviz version 2.43.0 (0)
 -->
<!-- Title: Affichage Pages: 1 -->
<svg width="669pt" height="1430pt"
 viewBox="0.00 0.00 668.50 1430.00" xmlns="http://www.w3.org/2000/svg" xmlns:xlink="http://www.w3.org/1999/xlink">
<g id="graph0" class="graph" transform="scale(1 1) rotate(0) translate(4 1426)">
<title>Affichage</title>
<!-- Node1 -->
<g id="Node000001" class="node">
<title>Node1</title>
<g id="a_Node000001"><a xlink:title="Fenêtre principale de l&#39;application – affichage du plateau de jeu.">
<polygon fill="#999999" stroke="transparent" points="372.5,-154 256.5,-154 256.5,0 372.5,0 372.5,-154"/>
<text text-anchor="start" x="291.5" y="-142" font-family="Helvetica,sans-Serif" font-size="10.00">Affichage</text>
<text text-anchor="start" x="263" y="-127" font-family="Helvetica,sans-Serif" font-size="10.00">&#45;</text>
<text text-anchor="start" x="273.5" y="-127" font-family="Helvetica,sans-Serif" font-size="10.00">scene</text>
<text text-anchor="start" x="263" y="-112" font-family="Helvetica,sans-Serif" font-size="10.00">&#45;</text>
<text text-anchor="start" x="273.5" y="-112" font-family="Helvetica,sans-Serif" font-size="10.00">vue</text>
<text text-anchor="start" x="260.5" y="-97" font-family="Helvetica,sans-Serif" font-size="10.00">+</text>
<text text-anchor="start" x="273.5" y="-97" font-family="Helvetica,sans-Serif" font-size="10.00">Affichage()</text>
<text text-anchor="start" x="260.5" y="-82" font-family="Helvetica,sans-Serif" font-size="10.00">+</text>
<text text-anchor="start" x="273.5" y="-82" font-family="Helvetica,sans-Serif" font-size="10.00">mettreAJour()</text>
<text text-anchor="start" x="260.5" y="-67" font-family="Helvetica,sans-Serif" font-size="10.00">#</text>
<text text-anchor="start" x="273.5" y="-67" font-family="Helvetica,sans-Serif" font-size="10.00">mousePressEvent()</text>
<text text-anchor="start" x="263" y="-52" font-family="Helvetica,sans-Serif" font-size="10.00">&#45;</text>
<text text-anchor="start" x="273.5" y="-52" font-family="Helvetica,sans-Serif" font-size="10.00">dessinerJoueurs()</text>
<text text-anchor="start" x="263" y="-37" font-family="Helvetica,sans-Serif" font-size="10.00">&#45;</text>
<text text-anchor="start" x="273.5" y="-37" font-family="Helvetica,sans-Serif" font-size="10.00">dessinerPlateau()</text>
<text text-anchor="start" x="263" y="-22" font-family="Helvetica,sans-Serif" font-size="10.00">&#45;</text>
<text text-anchor="start" x="273.5" y="-22" font-family="Helvetica,sans-Serif" font-size="10.00">dessinerRoute()</text>
<text text-anchor="start" x="263" y="-7" font-family="Helvetica,sans-Serif" font-size="10.00">&#45;</text>
<text text-anchor="start" x="273.5" y="-7" font-family="Helvetica,sans-Serif" font-size="10.00">dessinerVille()</text>
<polygon fill="#666666" stroke="#666666" points="256.5,-137 256.5,-137 372.5,-137 372.5,-137 256.5,-137"/>
<polygon fill="#666666" stroke="#666666" points="256.5,-107 256.5,-107 271.5,-107 271.5,-107 256.5,-107"/>
<polygon fill="#666666" stroke="#666666" points="271.5,-107 271.5,-107 372.5,-107 372.5,-107 271.5,-107"/>
<polygon fill="none" stroke="#666666" points="256.5,0 256.5,-154 372.5,-154 372.5,0 256.5,0"/>
</a>
</g>
</g>
<!-- Node2 -->
<g id="Node000002" class="node">
<title>Node2</title>
<g id="a_Node000002"><a xlink:title=" ">
<polygon fill="white" stroke="transparent" points="339,-325 258,-325 258,-276 339,-276 339,-325"/>
<text text-anchor="start" x="263.5" y="-312.5" font-family="Helvetica,sans-Serif" font-size="10.00">QMainWindow</text>
<text text-anchor="start" x="297" y="-297.5" font-family="Helvetica,sans-Serif" font-size="10.00"> </text>
<text text-anchor="start" x="297" y="-282.5" font-family="Helvetica,sans-Serif" font-size="10.00"> </text>
<polygon fill="#666666" stroke="#666666" points="258.5,-307.5 258.5,-307.5 339.5,-307.5 339.5,-307.5 258.5,-307.5"/>
<polygon fill="#666666" stroke="#666666" points="258.5,-292.5 258.5,-292.5 339.5,-292.5 339.5,-292.5 258.5,-292.5"/>
<polygon fill="none" stroke="#666666" points="258,-276 258,-325 339,-325 339,-276 258,-276"/>
</a>
</g>
</g>
<!-- Node2&#45;&gt;Node1 -->
<g id="edge1_Node000001_Node000002" class="edge">
<title>Node2&#45;&gt;Node1</title>
<g id="a_edge1_Node000001_Node000002"><a xlink:title=" ">
<path fill="none" stroke="#63b8ff" d="M300.95,-265.62C303.08,-236.15 306.24,-192.35 308.98,-154.48"/>
<polygon fill="none" stroke="#63b8ff" points="297.44,-265.57 300.21,-275.8 304.42,-266.07 297.44,-265.57"/>
</a>
</g>
</g>
<!-- Node3 -->
<g id="Node000003" class="node">
<title>Node3</title>
<g id="a_Node000003"><a xlink:href="classPlateau.html" target="_top" xlink:title="Déclaration anticipée pour éviter les inclusions circulaires.">
<polygon fill="white" stroke="transparent" points="498,-400 357,-400 357,-201 498,-201 498,-400"/>
<text text-anchor="start" x="409.5" y="-387.5" font-family="Helvetica,sans-Serif" font-size="10.00">Plateau</text>
<text text-anchor="start" x="426" y="-372.5" font-family="Helvetica,sans-Serif" font-size="10.00"> </text>
<text text-anchor="start" x="361.5" y="-357.5" font-family="Helvetica,sans-Serif" font-size="10.00">+</text>
<text text-anchor="start" x="374.5" y="-357.5" font-family="Helvetica,sans-Serif" font-size="10.00">afficher()</text>
<text text-anchor="start" x="361.5" y="-342.5" font-family="Helvetica,sans-Serif" font-size="10.00">+</text>
<text text-anchor="start" x="374.5" y="-342.5" font-family="Helvetica,sans-Serif" font-size="10.00">ajouterDefausseCartes()</text>
<text text-anchor="start" x="361.5" y="-327.5" font-family="Helvetica,sans-Serif" font-size="10.00">+</text>
<text text-anchor="start" x="374.5" y="-327.5" font-family="Helvetica,sans-Serif" font-size="10.00">ajouterDefausseTicket()</text>
<text text-anchor="start" x="361.5" y="-312.5" font-family="Helvetica,sans-Serif" font-size="10.00">+</text>
<text text-anchor="start" x="374.5" y="-312.5" font-family="Helvetica,sans-Serif" font-size="10.00">chargerMapCsv()</text>
<text text-anchor="start" x="361.5" y="-297.5" font-family="Helvetica,sans-Serif" font-size="10.00">+</text>
<text text-anchor="start" x="374.5" y="-297.5" font-family="Helvetica,sans-Serif" font-size="10.00">chargerTicketCsv()</text>
<text text-anchor="start" x="361.5" y="-282.5" font-family="Helvetica,sans-Serif" font-size="10.00">+</text>
<text text-anchor="start" x="374.5" y="-282.5" font-family="Helvetica,sans-Serif" font-size="10.00">getDefausseCartes()</text>
<text text-anchor="start" x="361.5" y="-267.5" font-family="Helvetica,sans-Serif" font-size="10.00">+</text>
<text text-anchor="start" x="374.5" y="-267.5" font-family="Helvetica,sans-Serif" font-size="10.00">getDefausseTicket()</text>
<text text-anchor="start" x="361.5" y="-252.5" font-family="Helvetica,sans-Serif" font-size="10.00">+</text>
<text text-anchor="start" x="374.5" y="-252.5" font-family="Helvetica,sans-Serif" font-size="10.00">getPioche()</text>
<text text-anchor="start" x="361.5" y="-237.5" font-family="Helvetica,sans-Serif" font-size="10.00">+</text>
<text text-anchor="start" x="374.5" y="-237.5" font-family="Helvetica,sans-Serif" font-size="10.00">getRoute()</text>
<text text-anchor="start" x="361.5" y="-222.5" font-family="Helvetica,sans-Serif" font-size="10.00">+</text>
<text text-anchor="start" x="374.5" y="-222.5" font-family="Helvetica,sans-Serif" font-size="10.00">getTickets()</text>
<text text-anchor="start" x="374.5" y="-207.5" font-family="Helvetica,sans-Serif" font-size="10.00">et 8 de plus...</text>
<polygon fill="#666666" stroke="#666666" points="357.5,-382.5 357.5,-382.5 498.5,-382.5 498.5,-382.5 357.5,-382.5"/>
<polygon fill="#666666" stroke="#666666" points="357.5,-367.5 357.5,-367.5 498.5,-367.5 498.5,-367.5 357.5,-367.5"/>
<polygon fill="none" stroke="#666666" points="357,-201 357,-400 498,-400 498,-201 357,-201"/>
</a>
</g>
</g>
<!-- Node3&#45;&gt;Node1 -->
<g id="edge2_Node000001_Node000003" class="edge">
<title>Node3&#45;&gt;Node1</title>
<g id="a_edge2_Node000001_Node000003"><a xlink:title=" ">
<path fill="none" stroke="#63b8ff" d="M377.11,-200.73C371.09,-188.93 364.98,-176.95 359.05,-165.32"/>
<polygon fill="none" stroke="#63b8ff" points="358.88,-164.99 352.59,-161.47 353.43,-154.3 359.72,-157.83 358.88,-164.99"/>
</a>
</g>
<text text-anchor="middle" x="389.5" y="-175" font-family="Helvetica,sans-Serif" font-size="10.00" fill="grey"> &#45;plateau</text>
</g>
<!-- Node4 -->
<g id="Node000004" class="node">
<title>Node4</title>
<g id="a_Node000004"><a xlink:title=" ">
<polygon fill="white" stroke="transparent" points="107,-712 0,-712 0,-663 107,-663 107,-712"/>
<text text-anchor="start" x="5.5" y="-699.5" font-family="Helvetica,sans-Serif" font-size="10.00">std::vector&lt; Ville &gt;</text>
<text text-anchor="start" x="52" y="-684.5" font-family="Helvetica,sans-Serif" font-size="10.00"> </text>
<text text-anchor="start" x="52" y="-669.5" font-family="Helvetica,sans-Serif" font-size="10.00"> </text>
<polygon fill="#666666" stroke="#666666" points="0.5,-694.5 0.5,-694.5 107.5,-694.5 107.5,-694.5 0.5,-694.5"/>
<polygon fill="#666666" stroke="#666666" points="0.5,-679.5 0.5,-679.5 107.5,-679.5 107.5,-679.5 0.5,-679.5"/>
<polygon fill="none" stroke="#666666" points="0,-663 0,-712 107,-712 107,-663 0,-663"/>
</a>
</g>
</g>
<!-- Node4&#45;&gt;Node3 -->
<g id="edge3_Node000003_Node000004" class="edge">
<title>Node4&#45;&gt;Node3</title>
<g id="a_edge3_Node000003_Node000004"><a xlink:title=" ">
<path fill="none" stroke="#63b8ff" d="M58.2,-662.8C66.18,-627.34 85.18,-559.76 121.5,-514 154.07,-472.96 171.95,-471.05 218.5,-447 269.53,-420.63 294.76,-433.64 346.72,-399.75"/>
<polygon fill="none" stroke="#63b8ff" points="346.86,-399.66 349.54,-392.96 356.75,-392.86 354.07,-399.55 346.86,-399.66"/>
</a>
</g>
<text text-anchor="middle" x="232.5" y="-469" font-family="Helvetica,sans-Serif" font-size="10.00" fill="grey"> &#45;ville</text>
</g>
<!-- Node5 -->
<g id="Node000005" class="node">
<title>Node5</title>
<g id="a_Node000005"><a xlink:href="classVille.html" target="_top" xlink:title="Représente une ville sur le plateau de jeu.">
<polygon fill="white" stroke="transparent" points="299,-1074 204,-1074 204,-950 299,-950 299,-1074"/>
<text text-anchor="start" x="241" y="-1062" font-family="Helvetica,sans-Serif" font-size="10.00">Ville</text>
<text text-anchor="start" x="211" y="-1047" font-family="Helvetica,sans-Serif" font-size="10.00">&#45;</text>
<text text-anchor="start" x="221.5" y="-1047" font-family="Helvetica,sans-Serif" font-size="10.00">coteEst</text>
<text text-anchor="start" x="211" y="-1032" font-family="Helvetica,sans-Serif" font-size="10.00">&#45;</text>
<text text-anchor="start" x="221.5" y="-1032" font-family="Helvetica,sans-Serif" font-size="10.00">coteOuest</text>
<text text-anchor="start" x="208.5" y="-1017" font-family="Helvetica,sans-Serif" font-size="10.00">+</text>
<text text-anchor="start" x="221.5" y="-1017" font-family="Helvetica,sans-Serif" font-size="10.00">estCoteEst()</text>
<text text-anchor="start" x="208.5" y="-1002" font-family="Helvetica,sans-Serif" font-size="10.00">+</text>
<text text-anchor="start" x="221.5" y="-1002" font-family="Helvetica,sans-Serif" font-size="10.00">estCoteOuest()</text>
<text text-anchor="start" x="208.5" y="-987" font-family="Helvetica,sans-Serif" font-size="10.00">+</text>
<text text-anchor="start" x="221.5" y="-987" font-family="Helvetica,sans-Serif" font-size="10.00">getNom()</text>
<text text-anchor="start" x="208.5" y="-972" font-family="Helvetica,sans-Serif" font-size="10.00">+</text>
<text text-anchor="start" x="221.5" y="-972" font-family="Helvetica,sans-Serif" font-size="10.00">Ville()</text>
<text text-anchor="start" x="208.5" y="-957" font-family="Helvetica,sans-Serif" font-size="10.00">+</text>
<text text-anchor="start" x="221.5" y="-957" font-family="Helvetica,sans-Serif" font-size="10.00">Ville()</text>
<polygon fill="#666666" stroke="#666666" points="204.5,-1057 204.5,-1057 299.5,-1057 299.5,-1057 204.5,-1057"/>
<polygon fill="#666666" stroke="#666666" points="204.5,-1027 204.5,-1027 219.5,-1027 219.5,-1027 204.5,-1027"/>
<polygon fill="#666666" stroke="#666666" points="219.5,-1027 219.5,-1027 299.5,-1027 299.5,-1027 219.5,-1027"/>
<polygon fill="none" stroke="#666666" points="204,-950 204,-1074 299,-1074 299,-950 204,-950"/>
</a>
</g>
</g>
<!-- Node5&#45;&gt;Node4 -->
<g id="edge4_Node000004_Node000005" class="edge">
<title>Node5&#45;&gt;Node4</title>
<g id="a_edge4_Node000004_Node000005"><a xlink:title=" ">
<path fill="none" stroke="#63b8ff" d="M222,-949.91C212.14,-930.49 200.79,-909.1 189.5,-890 153.44,-828.96 106.14,-761.26 77.88,-721.93"/>
<polygon fill="none" stroke="#63b8ff" points="77.81,-721.82 71.05,-719.29 70.79,-712.09 77.54,-714.61 77.81,-721.82"/>
</a>
</g>
<text text-anchor="middle" x="205.5" y="-858.5" font-family="Helvetica,sans-Serif" font-size="10.00" fill="grey"> +elements</text>
</g>
<!-- Node11 -->
<g id="Node000011" class="node">
<title>Node11</title>
<g id="a_Node000011"><a xlink:href="classRoute.html" target="_top" xlink:title="Déclaration anticipée pour éviter les inclusions circulaires.">
<polygon fill="white" stroke="transparent" points="362.5,-832 262.5,-832 262.5,-543 362.5,-543 362.5,-832"/>
<text text-anchor="start" x="298" y="-819.5" font-family="Helvetica,sans-Serif" font-size="10.00">Route</text>
<text text-anchor="start" x="269" y="-804.5" font-family="Helvetica,sans-Serif" font-size="10.00">&#45;</text>
<text text-anchor="start" x="279.5" y="-804.5" font-family="Helvetica,sans-Serif" font-size="10.00">couleurRoute</text>
<text text-anchor="start" x="269" y="-789.5" font-family="Helvetica,sans-Serif" font-size="10.00">&#45;</text>
<text text-anchor="start" x="279.5" y="-789.5" font-family="Helvetica,sans-Serif" font-size="10.00">couleurRoute2</text>
<text text-anchor="start" x="269" y="-774.5" font-family="Helvetica,sans-Serif" font-size="10.00">&#45;</text>
<text text-anchor="start" x="279.5" y="-774.5" font-family="Helvetica,sans-Serif" font-size="10.00">estRouteDouble</text>
<text text-anchor="start" x="269" y="-759.5" font-family="Helvetica,sans-Serif" font-size="10.00">&#45;</text>
<text text-anchor="start" x="279.5" y="-759.5" font-family="Helvetica,sans-Serif" font-size="10.00">longueur</text>
<text text-anchor="start" x="266.5" y="-744.5" font-family="Helvetica,sans-Serif" font-size="10.00">+</text>
<text text-anchor="start" x="279.5" y="-744.5" font-family="Helvetica,sans-Serif" font-size="10.00">estDispo()</text>
<text text-anchor="start" x="266.5" y="-729.5" font-family="Helvetica,sans-Serif" font-size="10.00">+</text>
<text text-anchor="start" x="279.5" y="-729.5" font-family="Helvetica,sans-Serif" font-size="10.00">getCouleur()</text>
<text text-anchor="start" x="266.5" y="-714.5" font-family="Helvetica,sans-Serif" font-size="10.00">+</text>
<text text-anchor="start" x="279.5" y="-714.5" font-family="Helvetica,sans-Serif" font-size="10.00">getCouleur2()</text>
<text text-anchor="start" x="266.5" y="-699.5" font-family="Helvetica,sans-Serif" font-size="10.00">+</text>
<text text-anchor="start" x="279.5" y="-699.5" font-family="Helvetica,sans-Serif" font-size="10.00">getEstDouble()</text>
<text text-anchor="start" x="266.5" y="-684.5" font-family="Helvetica,sans-Serif" font-size="10.00">+</text>
<text text-anchor="start" x="279.5" y="-684.5" font-family="Helvetica,sans-Serif" font-size="10.00">getLongueur()</text>
<text text-anchor="start" x="266.5" y="-669.5" font-family="Helvetica,sans-Serif" font-size="10.00">+</text>
<text text-anchor="start" x="279.5" y="-669.5" font-family="Helvetica,sans-Serif" font-size="10.00">getProprio()</text>
<text text-anchor="start" x="266.5" y="-654.5" font-family="Helvetica,sans-Serif" font-size="10.00">+</text>
<text text-anchor="start" x="279.5" y="-654.5" font-family="Helvetica,sans-Serif" font-size="10.00">getVilleA()</text>
<text text-anchor="start" x="266.5" y="-639.5" font-family="Helvetica,sans-Serif" font-size="10.00">+</text>
<text text-anchor="start" x="279.5" y="-639.5" font-family="Helvetica,sans-Serif" font-size="10.00">getVilleB()</text>
<text text-anchor="start" x="266.5" y="-624.5" font-family="Helvetica,sans-Serif" font-size="10.00">+</text>
<text text-anchor="start" x="279.5" y="-624.5" font-family="Helvetica,sans-Serif" font-size="10.00">Route()</text>
<text text-anchor="start" x="266.5" y="-609.5" font-family="Helvetica,sans-Serif" font-size="10.00">+</text>
<text text-anchor="start" x="279.5" y="-609.5" font-family="Helvetica,sans-Serif" font-size="10.00">Route()</text>
<text text-anchor="start" x="266.5" y="-594.5" font-family="Helvetica,sans-Serif" font-size="10.00">+</text>
<text text-anchor="start" x="279.5" y="-594.5" font-family="Helvetica,sans-Serif" font-size="10.00">setCouleur2()</text>
<text text-anchor="start" x="266.5" y="-579.5" font-family="Helvetica,sans-Serif" font-size="10.00">+</text>
<text text-anchor="start" x="279.5" y="-579.5" font-family="Helvetica,sans-Serif" font-size="10.00">setProprio()</text>
<text text-anchor="start" x="266.5" y="-564.5" font-family="Helvetica,sans-Serif" font-size="10.00">+</text>
<text text-anchor="start" x="279.5" y="-564.5" font-family="Helvetica,sans-Serif" font-size="10.00">setVilleA()</text>
<text text-anchor="start" x="266.5" y="-549.5" font-family="Helvetica,sans-Serif" font-size="10.00">+</text>
<text text-anchor="start" x="279.5" y="-549.5" font-family="Helvetica,sans-Serif" font-size="10.00">setVilleB()</text>
<polygon fill="#666666" stroke="#666666" points="262.5,-814.5 262.5,-814.5 362.5,-814.5 362.5,-814.5 262.5,-814.5"/>
<polygon fill="#666666" stroke="#666666" points="262.5,-754.5 262.5,-754.5 277.5,-754.5 277.5,-754.5 262.5,-754.5"/>
<polygon fill="#666666" stroke="#666666" points="277.5,-754.5 277.5,-754.5 362.5,-754.5 362.5,-754.5 277.5,-754.5"/>
<polygon fill="none" stroke="#666666" points="262.5,-543 262.5,-832 362.5,-832 362.5,-543 262.5,-543"/>
</a>
</g>
</g>
<!-- Node5&#45;&gt;Node11 -->
<g id="edge10_Node000011_Node000005" class="edge">
<title>Node5&#45;&gt;Node11</title>
<g id="a_edge10_Node000011_Node000005"><a xlink:title=" ">
<path fill="none" stroke="#63b8ff" d="M263.05,-949.96C268.75,-919.81 275.92,-881.91 283.01,-844.39"/>
<polygon fill="none" stroke="#63b8ff" points="283.08,-844.03 280.27,-837.39 285.31,-832.24 288.13,-838.88 283.08,-844.03"/>
</a>
</g>
<text text-anchor="middle" x="297.5" y="-864" font-family="Helvetica,sans-Serif" font-size="10.00" fill="grey"> &#45;villeA</text>
<text text-anchor="middle" x="297.5" y="-853" font-family="Helvetica,sans-Serif" font-size="10.00" fill="grey">&#45;villeB</text>
</g>
<!-- Node6 -->
<g id="Node000006" class="node">
<title>Node6</title>
<g id="a_Node000006"><a xlink:title=" ">
<polygon fill="#fff0f0" stroke="transparent" points="283,-1230 224,-1230 224,-1181 283,-1181 283,-1230"/>
<text text-anchor="start" x="229.5" y="-1217.5" font-family="Helvetica,sans-Serif" font-size="10.00">std::string</text>
<text text-anchor="start" x="252" y="-1202.5" font-family="Helvetica,sans-Serif" font-size="10.00"> </text>
<text text-anchor="start" x="252" y="-1187.5" font-family="Helvetica,sans-Serif" font-size="10.00"> </text>
<polygon fill="red" stroke="red" points="224.5,-1212.5 224.5,-1212.5 283.5,-1212.5 283.5,-1212.5 224.5,-1212.5"/>
<polygon fill="red" stroke="red" points="224.5,-1197.5 224.5,-1197.5 283.5,-1197.5 283.5,-1197.5 224.5,-1197.5"/>
<polygon fill="none" stroke="red" points="224,-1181 224,-1230 283,-1230 283,-1181 224,-1181"/>
</a>
</g>
</g>
<!-- Node6&#45;&gt;Node5 -->
<g id="edge5_Node000005_Node000006" class="edge">
<title>Node6&#45;&gt;Node5</title>
<g id="a_edge5_Node000005_Node000006"><a xlink:title=" ">
<path fill="none" stroke="#63b8ff" d="M253.25,-1180.63C253,-1157.06 252.62,-1119.78 252.27,-1086.36"/>
<polygon fill="none" stroke="#63b8ff" points="252.27,-1086.26 248.2,-1080.3 252.14,-1074.26 256.2,-1080.22 252.27,-1086.26"/>
</a>
</g>
<text text-anchor="middle" x="268" y="-1155" font-family="Helvetica,sans-Serif" font-size="10.00" fill="grey"> &#45;nom</text>
</g>
<!-- Node12 -->
<g id="Node000012" class="node">
<title>Node12</title>
<g id="a_Node000012"><a xlink:href="classJoueur.html" target="_top" xlink:title="Déclaration anticipée pour éviter les inclusions circulaires.">
<polygon fill="white" stroke="transparent" points="432,-1134 317,-1134 317,-890 432,-890 432,-1134"/>
<text text-anchor="start" x="359.5" y="-1122" font-family="Helvetica,sans-Serif" font-size="10.00">Joueur</text>
<text text-anchor="start" x="324" y="-1107" font-family="Helvetica,sans-Serif" font-size="10.00">&#45;</text>
<text text-anchor="start" x="334.5" y="-1107" font-family="Helvetica,sans-Serif" font-size="10.00">couleurWagon</text>
<text text-anchor="start" x="324" y="-1092" font-family="Helvetica,sans-Serif" font-size="10.00">&#45;</text>
<text text-anchor="start" x="334.5" y="-1092" font-family="Helvetica,sans-Serif" font-size="10.00">grdTraversee</text>
<text text-anchor="start" x="324" y="-1077" font-family="Helvetica,sans-Serif" font-size="10.00">&#45;</text>
<text text-anchor="start" x="334.5" y="-1077" font-family="Helvetica,sans-Serif" font-size="10.00">nbTicketValide</text>
<text text-anchor="start" x="324" y="-1062" font-family="Helvetica,sans-Serif" font-size="10.00">&#45;</text>
<text text-anchor="start" x="334.5" y="-1062" font-family="Helvetica,sans-Serif" font-size="10.00">nbWagon</text>
<text text-anchor="start" x="321.5" y="-1047" font-family="Helvetica,sans-Serif" font-size="10.00">+</text>
<text text-anchor="start" x="334.5" y="-1047" font-family="Helvetica,sans-Serif" font-size="10.00">afficherMain()</text>
<text text-anchor="start" x="321.5" y="-1032" font-family="Helvetica,sans-Serif" font-size="10.00">+</text>
<text text-anchor="start" x="334.5" y="-1032" font-family="Helvetica,sans-Serif" font-size="10.00">afficherMain()</text>
<text text-anchor="start" x="321.5" y="-1017" font-family="Helvetica,sans-Serif" font-size="10.00">+</text>
<text text-anchor="start" x="334.5" y="-1017" font-family="Helvetica,sans-Serif" font-size="10.00">defausserCarte()</text>
<text text-anchor="start" x="321.5" y="-1002" font-family="Helvetica,sans-Serif" font-size="10.00">+</text>
<text text-anchor="start" x="334.5" y="-1002" font-family="Helvetica,sans-Serif" font-size="10.00">defausserTicket()</text>
<text text-anchor="start" x="321.5" y="-987" font-family="Helvetica,sans-Serif" font-size="10.00">+</text>
<text text-anchor="start" x="334.5" y="-987" font-family="Helvetica,sans-Serif" font-size="10.00">getCouleurWagon()</text>
<text text-anchor="start" x="321.5" y="-972" font-family="Helvetica,sans-Serif" font-size="10.00">+</text>
<text text-anchor="start" x="334.5" y="-972" font-family="Helvetica,sans-Serif" font-size="10.00">getMain()</text>
<text text-anchor="start" x="321.5" y="-957" font-family="Helvetica,sans-Serif" font-size="10.00">+</text>
<text text-anchor="start" x="334.5" y="-957" font-family="Helvetica,sans-Serif" font-size="10.00">getNbWagon()</text>
<text text-anchor="start" x="321.5" y="-942" font-family="Helvetica,sans-Serif" font-size="10.00">+</text>
<text text-anchor="start" x="334.5" y="-942" font-family="Helvetica,sans-Serif" font-size="10.00">getPrenom()</text>
<text text-anchor="start" x="321.5" y="-927" font-family="Helvetica,sans-Serif" font-size="10.00">+</text>
<text text-anchor="start" x="334.5" y="-927" font-family="Helvetica,sans-Serif" font-size="10.00">getTicket()</text>
<text text-anchor="start" x="321.5" y="-912" font-family="Helvetica,sans-Serif" font-size="10.00">+</text>
<text text-anchor="start" x="334.5" y="-912" font-family="Helvetica,sans-Serif" font-size="10.00">getTicketValide()</text>
<text text-anchor="start" x="334.5" y="-897" font-family="Helvetica,sans-Serif" font-size="10.00">et 11 de plus...</text>
<polygon fill="#666666" stroke="#666666" points="317.5,-1117 317.5,-1117 432.5,-1117 432.5,-1117 317.5,-1117"/>
<polygon fill="#666666" stroke="#666666" points="317.5,-1057 317.5,-1057 332.5,-1057 332.5,-1057 317.5,-1057"/>
<polygon fill="#666666" stroke="#666666" points="332.5,-1057 332.5,-1057 432.5,-1057 432.5,-1057 332.5,-1057"/>
<polygon fill="none" stroke="#666666" points="317,-890 317,-1134 432,-1134 432,-890 317,-890"/>
</a>
</g>
</g>
<!-- Node6&#45;&gt;Node12 -->
<g id="edge12_Node000012_Node000006" class="edge">
<title>Node6&#45;&gt;Node12</title>
<g id="a_edge12_Node000012_Node000006"><a xlink:title=" ">
<path fill="none" stroke="#63b8ff" d="M272.9,-1181C283.61,-1167.59 296.86,-1150.25 307.5,-1134 308.49,-1132.49 309.47,-1130.97 310.46,-1129.44"/>
<polygon fill="none" stroke="#63b8ff" points="310.55,-1129.29 310.35,-1122.08 316.93,-1119.13 317.13,-1126.34 310.55,-1129.29"/>
</a>
</g>
<text text-anchor="middle" x="318" y="-1155" font-family="Helvetica,sans-Serif" font-size="10.00" fill="grey"> &#45;prenom</text>
</g>
<!-- Node8 -->
<g id="Node000008" class="node">
<title>Node8</title>
<g id="a_Node000008"><a xlink:title=" ">
<polygon fill="white" stroke="transparent" points="244,-1326 153,-1326 153,-1277 244,-1277 244,-1326"/>
<text text-anchor="start" x="158.5" y="-1313.5" font-family="Helvetica,sans-Serif" font-size="10.00">std::vector&lt; T &gt;</text>
<text text-anchor="start" x="197" y="-1298.5" font-family="Helvetica,sans-Serif" font-size="10.00"> </text>
<text text-anchor="start" x="197" y="-1283.5" font-family="Helvetica,sans-Serif" font-size="10.00"> </text>
<polygon fill="#666666" stroke="#666666" points="153.5,-1308.5 153.5,-1308.5 244.5,-1308.5 244.5,-1308.5 153.5,-1308.5"/>
<polygon fill="#666666" stroke="#666666" points="153.5,-1293.5 153.5,-1293.5 244.5,-1293.5 244.5,-1293.5 153.5,-1293.5"/>
<polygon fill="none" stroke="#666666" points="153,-1277 153,-1326 244,-1326 244,-1277 153,-1277"/>
</a>
</g>
</g>
<!-- Node8&#45;&gt;Node4 -->
<g id="edge6_Node000004_Node000008" class="edge">
<title>Node8&#45;&gt;Node4</title>
<g id="a_edge6_Node000004_Node000008"><a xlink:title=" ">
<path fill="none" stroke="orange" d="M143.88,-1279.07C133.99,-1273.54 124.34,-1266.88 116.5,-1259 82.85,-1225.19 80.19,-1209.25 68.5,-1163 25.98,-994.8 43.24,-782.39 50.72,-712.2"/>
<polygon fill="orange" stroke="orange" points="142.5,-1282.3 152.98,-1283.83 145.74,-1276.1 142.5,-1282.3"/>
</a>
</g>
<text text-anchor="middle" x="92.5" y="-1155" font-family="Helvetica,sans-Serif" font-size="10.00" fill="grey"> &lt; Ville &gt;</text>
</g>
<!-- Node10 -->
<g id="Node000010" class="node">
<title>Node10</title>
<g id="a_Node000010"><a xlink:title=" ">
<polygon fill="white" stroke="transparent" points="369,-496 256,-496 256,-447 369,-447 369,-496"/>
<text text-anchor="start" x="261.5" y="-483.5" font-family="Helvetica,sans-Serif" font-size="10.00">std::vector&lt; Route &gt;</text>
<text text-anchor="start" x="311" y="-468.5" font-family="Helvetica,sans-Serif" font-size="10.00"> </text>
<text text-anchor="start" x="311" y="-453.5" font-family="Helvetica,sans-Serif" font-size="10.00"> </text>
<polygon fill="#666666" stroke="#666666" points="256.5,-478.5 256.5,-478.5 369.5,-478.5 369.5,-478.5 256.5,-478.5"/>
<polygon fill="#666666" stroke="#666666" points="256.5,-463.5 256.5,-463.5 369.5,-463.5 369.5,-463.5 256.5,-463.5"/>
<polygon fill="none" stroke="#666666" points="256,-447 256,-496 369,-496 369,-447 256,-447"/>
</a>
</g>
</g>
<!-- Node8&#45;&gt;Node10 -->
<g id="edge17_Node000010_Node000008" class="edge">
<title>Node8&#45;&gt;Node10</title>
<g id="a_edge17_Node000010_Node000008"><a xlink:title=" ">
<path fill="none" stroke="orange" d="M183.14,-1267.77C168.59,-1234.83 147.78,-1182.14 139.5,-1134 121.12,-1027.12 122.36,-997.08 139.5,-890 165.16,-729.71 174.66,-684.9 253.5,-543 262.96,-525.98 276.8,-509.17 288.7,-496.24"/>
<polygon fill="orange" stroke="orange" points="179.96,-1269.24 187.25,-1276.93 186.35,-1266.37 179.96,-1269.24"/>
</a>
</g>
<text text-anchor="middle" x="167" y="-1009.5" font-family="Helvetica,sans-Serif" font-size="10.00" fill="grey"> &lt; Route &gt;</text>
</g>
<!-- Node13 -->
<g id="Node000013" class="node">
<title>Node13</title>
<g id="a_Node000013"><a xlink:title=" ">
<polygon fill="#fff0f0" stroke="transparent" points="437.5,-1230 303.5,-1230 303.5,-1181 437.5,-1181 437.5,-1230"/>
<text text-anchor="start" x="308.5" y="-1217.5" font-family="Helvetica,sans-Serif" font-size="10.00">std::vector&lt; CarteTrain &gt;</text>
<text text-anchor="start" x="368.5" y="-1202.5" font-family="Helvetica,sans-Serif" font-size="10.00"> </text>
<text text-anchor="start" x="368.5" y="-1187.5" font-family="Helvetica,sans-Serif" font-size="10.00"> </text>
<polygon fill="red" stroke="red" points="303.5,-1212.5 303.5,-1212.5 437.5,-1212.5 437.5,-1212.5 303.5,-1212.5"/>
<polygon fill="red" stroke="red" points="303.5,-1197.5 303.5,-1197.5 437.5,-1197.5 437.5,-1197.5 303.5,-1197.5"/>
<polygon fill="none" stroke="red" points="303.5,-1181 303.5,-1230 437.5,-1230 437.5,-1181 303.5,-1181"/>
</a>
</g>
</g>
<!-- Node8&#45;&gt;Node13 -->
<g id="edge14_Node000013_Node000008" class="edge">
<title>Node8&#45;&gt;Node13</title>
<g id="a_edge14_Node000013_Node000008"><a xlink:title=" ">
<path fill="none" stroke="orange" d="M250.73,-1271.96C275.26,-1258.55 304.15,-1242.76 327.41,-1230.05"/>
<polygon fill="orange" stroke="orange" points="249,-1268.91 241.9,-1276.78 252.36,-1275.06 249,-1268.91"/>
</a>
</g>
<text text-anchor="middle" x="328.5" y="-1251" font-family="Helvetica,sans-Serif" font-size="10.00" fill="grey"> &lt; CarteTrain &gt;</text>
</g>
<!-- Node15 -->
<g id="Node000015" class="node">
<title>Node15</title>
<g id="a_Node000015"><a xlink:title=" ">
<polygon fill="#fff0f0" stroke="transparent" points="569.5,-1230 455.5,-1230 455.5,-1181 569.5,-1181 569.5,-1230"/>
<text text-anchor="start" x="460.5" y="-1217.5" font-family="Helvetica,sans-Serif" font-size="10.00">std::vector&lt; Ticket &gt;</text>
<text text-anchor="start" x="510.5" y="-1202.5" font-family="Helvetica,sans-Serif" font-size="10.00"> </text>
<text text-anchor="start" x="510.5" y="-1187.5" font-family="Helvetica,sans-Serif" font-size="10.00"> </text>
<polygon fill="red" stroke="red" points="455.5,-1212.5 455.5,-1212.5 569.5,-1212.5 569.5,-1212.5 455.5,-1212.5"/>
<polygon fill="red" stroke="red" points="455.5,-1197.5 455.5,-1197.5 569.5,-1197.5 569.5,-1197.5 455.5,-1197.5"/>
<polygon fill="none" stroke="red" points="455.5,-1181 455.5,-1230 569.5,-1230 569.5,-1181 455.5,-1181"/>
</a>
</g>
</g>
<!-- Node8&#45;&gt;Node15 -->
<g id="edge16_Node000015_Node000008" class="edge">
<title>Node8&#45;&gt;Node15</title>
<g id="a_edge16_Node000015_Node000008"><a xlink:title=" ">
<path fill="none" stroke="orange" d="M254.33,-1288.77C288.2,-1281.23 332.15,-1270.67 370.5,-1259 398.79,-1250.39 429.64,-1239.21 455.33,-1229.38"/>
<polygon fill="orange" stroke="orange" points="253.17,-1285.44 244.16,-1291.02 254.68,-1292.28 253.17,-1285.44"/>
</a>
</g>
<text text-anchor="middle" x="429" y="-1251" font-family="Helvetica,sans-Serif" font-size="10.00" fill="grey"> &lt; Ticket &gt;</text>
</g>
<!-- Node9 -->
<g id="Node000009" class="node">
<title>Node9</title>
<g id="a_Node000009"><a xlink:title=" ">
<polygon fill="white" stroke="transparent" points="207,-1422 190,-1422 190,-1373 207,-1373 207,-1422"/>
<text text-anchor="start" x="195.5" y="-1409.5" font-family="Helvetica,sans-Serif" font-size="10.00">T</text>
<text text-anchor="start" x="197" y="-1394.5" font-family="Helvetica,sans-Serif" font-size="10.00"> </text>
<text text-anchor="start" x="197" y="-1379.5" font-family="Helvetica,sans-Serif" font-size="10.00"> </text>
<polygon fill="#666666" stroke="#666666" points="190.5,-1404.5 190.5,-1404.5 207.5,-1404.5 207.5,-1404.5 190.5,-1404.5"/>
<polygon fill="#666666" stroke="#666666" points="190.5,-1389.5 190.5,-1389.5 207.5,-1389.5 207.5,-1389.5 190.5,-1389.5"/>
<polygon fill="none" stroke="#666666" points="190,-1373 190,-1422 207,-1422 207,-1373 190,-1373"/>
</a>
</g>
</g>
<!-- Node9&#45;&gt;Node8 -->
<g id="edge7_Node000008_Node000009" class="edge">
<title>Node9&#45;&gt;Node8</title>
<g id="a_edge7_Node000008_Node000009"><a xlink:title=" ">
<path fill="none" stroke="#63b8ff" d="M198.5,-1372.78C198.5,-1362.32 198.5,-1349.79 198.5,-1338.23"/>
<polygon fill="none" stroke="#63b8ff" points="198.5,-1338.21 194.5,-1332.21 198.5,-1326.21 202.5,-1332.21 198.5,-1338.21"/>
</a>
</g>
<text text-anchor="middle" x="227.5" y="-1347" font-family="Helvetica,sans-Serif" font-size="10.00" fill="grey"> +elements</text>
</g>
<!-- Node10&#45;&gt;Node3 -->
<g id="edge8_Node000003_Node000010" class="edge">
<title>Node10&#45;&gt;Node3</title>
<g id="a_edge8_Node000003_Node000010"><a xlink:title=" ">
<path fill="none" stroke="#63b8ff" d="M328.73,-446.64C335.66,-436.47 344.27,-423.81 353.5,-410.24"/>
<polygon fill="none" stroke="#63b8ff" points="353.57,-410.14 353.64,-402.93 360.32,-400.22 360.25,-407.43 353.57,-410.14"/>
</a>
</g>
<text text-anchor="middle" x="363" y="-421" font-family="Helvetica,sans-Serif" font-size="10.00" fill="grey"> &#45;route</text>
</g>
<!-- Node11&#45;&gt;Node10 -->
<g id="edge9_Node000010_Node000011" class="edge">
<title>Node11&#45;&gt;Node10</title>
<g id="a_edge9_Node000010_Node000011"><a xlink:title=" ">
<path fill="none" stroke="#63b8ff" d="M312.5,-542.87C312.5,-530.28 312.5,-518.46 312.5,-508.23"/>
<polygon fill="none" stroke="#63b8ff" points="312.5,-508.19 308.5,-502.19 312.5,-496.19 316.5,-502.19 312.5,-508.19"/>
</a>
</g>
<text text-anchor="middle" x="341.5" y="-517" font-family="Helvetica,sans-Serif" font-size="10.00" fill="grey"> +elements</text>
</g>
<!-- Node12&#45;&gt;Node11 -->
<g id="edge11_Node000011_Node000012" class="edge">
<title>Node12&#45;&gt;Node11</title>
<g id="a_edge11_Node000011_Node000012"><a xlink:title=" ">
<path fill="none" stroke="#63b8ff" d="M351.24,-890C348.35,-874.97 345.36,-859.45 342.39,-843.99"/>
<polygon fill="none" stroke="#63b8ff" points="342.39,-843.98 337.33,-838.84 340.13,-832.2 345.19,-837.33 342.39,-843.98"/>
</a>
</g>
<text text-anchor="middle" x="368.5" y="-858.5" font-family="Helvetica,sans-Serif" font-size="10.00" fill="grey"> &#45;proprio</text>
</g>
<!-- Node13&#45;&gt;Node3 -->
<g id="edge18_Node000003_Node000013" class="edge">
<title>Node13&#45;&gt;Node3</title>
<g id="a_edge18_Node000003_Node000013"><a xlink:title=" ">
<path fill="none" stroke="#63b8ff" d="M402.39,-1180.72C416.63,-1168.38 432.25,-1152.1 441.5,-1134 466.27,-1085.52 460.5,-1067.44 460.5,-1013 460.5,-1013 460.5,-1013 460.5,-470.5 460.5,-451.44 458.45,-431.39 455.38,-412.02"/>
<polygon fill="none" stroke="#63b8ff" points="455.36,-411.9 450.4,-406.65 453.34,-400.07 458.29,-405.31 455.36,-411.9"/>
</a>
</g>
<text text-anchor="middle" x="502" y="-690.5" font-family="Helvetica,sans-Serif" font-size="10.00" fill="grey"> &#45;defausseCartes</text>
<text text-anchor="middle" x="502" y="-679.5" font-family="Helvetica,sans-Serif" font-size="10.00" fill="grey">&#45;pioche</text>
</g>
<!-- Node13&#45;&gt;Node12 -->
<g id="edge13_Node000012_Node000013" class="edge">
<title>Node13&#45;&gt;Node12</title>
<g id="a_edge13_Node000012_Node000013"><a xlink:title=" ">
<path fill="none" stroke="#63b8ff" d="M371,-1180.63C371.2,-1171.04 371.45,-1159.17 371.72,-1146.22"/>
<polygon fill="none" stroke="#63b8ff" points="371.72,-1146.05 367.85,-1139.97 371.97,-1134.06 375.85,-1140.14 371.72,-1146.05"/>
</a>
</g>
<text text-anchor="middle" x="387.5" y="-1155" font-family="Helvetica,sans-Serif" font-size="10.00" fill="grey"> &#45;main</text>
</g>
<!-- Node15&#45;&gt;Node3 -->
<g id="edge19_Node000003_Node000015" class="edge">
<title>Node15&#45;&gt;Node3</title>
<g id="a_edge19_Node000003_Node000015"><a xlink:title=" ">
<path fill="none" stroke="#63b8ff" d="M526.55,-1180.94C546.19,-1145.7 579.5,-1076.58 579.5,-1013 579.5,-1013 579.5,-1013 579.5,-470.5 579.5,-421.96 544.41,-381.05 507.94,-351.64"/>
<polygon fill="none" stroke="#63b8ff" points="507.63,-351.4 500.44,-350.88 498.16,-344.03 505.35,-344.56 507.63,-351.4"/>
</a>
</g>
<text text-anchor="middle" x="620" y="-690.5" font-family="Helvetica,sans-Serif" font-size="10.00" fill="grey"> &#45;defausseTicket</text>
<text text-anchor="middle" x="620" y="-679.5" font-family="Helvetica,sans-Serif" font-size="10.00" fill="grey">&#45;tickets</text>
</g>
<!-- Node15&#45;&gt;Node12 -->
<g id="edge15_Node000012_Node000015" class="edge">
<title>Node15&#45;&gt;Node12</title>
<g id="a_edge15_Node000012_Node000015"><a xlink:title=" ">
<path fill="none" stroke="#63b8ff" d="M495.3,-1180.63C481.08,-1160.9 459.95,-1131.57 439.31,-1102.94"/>
<polygon fill="none" stroke="#63b8ff" points="439.06,-1102.59 432.31,-1100.06 432.05,-1092.86 438.8,-1095.39 439.06,-1102.59"/>
</a>
</g>
<text text-anchor="middle" x="495.5" y="-1155" font-family="Helvetica,sans-Serif" font-size="10.00" fill="grey"> &#45;ticket</text>
</g>
</g>
</svg>
