<?xml version="1.0" encoding="UTF-8" standalone="no"?>
<!DOCTYPE svg PUBLIC "-//W3C//DTD SVG 1.1//EN"
 "http://www.w3.org/Graphics/SVG/1.1/DTD/svg11.dtd">
<!-- Generated by graphviz version 2.43.0 (0)
 -->
<!-- Title: Joueur Pages: 1 -->
<!--zoomable 909 -->

<svg id="main" version="1.1" xmlns="http://www.w3.org/2000/svg" xmlns:xlink="http://www.w3.org/1999/xlink" xml:space="preserve" onload="init(evt)">
<style type="text/css"><![CDATA[
.node, .edge {opacity: 0.7;}
.node.selected, .edge.selected {opacity: 1;}
.edge:hover path { stroke: red; }
.edge:hover polygon { stroke: red; fill: red; }
]]></style>

<defs>
  <circle id="rim" cx="0" cy="0" r="7"/>
  <circle id="rim2" cx="0" cy="0" r="3.5"/>
  <g id="zoomPlus">
    <use xlink:href="#rim" fill="#404040"><set attributeName="fill" to="#808080" begin="zoomplus.mouseover" end="zoomplus.mouseout"/></use>
    <path d="M-4,0h8M0,-4v8" fill="none" stroke="white" stroke-width="1.5" pointer-events="none"/>
  </g>
  <g id="zoomMin">
    <use xlink:href="#rim" fill="#404040"><set attributeName="fill" to="#808080" begin="zoomminus.mouseover" end="zoomminus.mouseout"/></use>
    <path d="M-4,0h8" fill="none" stroke="white" stroke-width="1.5" pointer-events="none"/>
  </g>
  <g id="arrowUp" transform="translate(30 24)">
    <use xlink:href="#rim"/>
    <path pointer-events="none" fill="none" stroke="white" stroke-width="1.5" d="M0,-3.0v7 M-2.5,-0.5L0,-3.0L2.5,-0.5"/>
  </g>
  <g id="arrowRight" transform="rotate(90) translate(36 -43)">
    <use xlink:href="#rim"/>
    <path pointer-events="none" fill="none" stroke="white" stroke-width="1.5" d="M0,-3.0v7 M-2.5,-0.5L0,-3.0L2.5,-0.5"/>
  </g>
  <g id="arrowDown" transform="rotate(180) translate(-30 -48)">
    <use xlink:href="#rim"/>
    <path pointer-events="none" fill="none" stroke="white" stroke-width="1.5" d="M0,-3.0v7 M-2.5,-0.5L0,-3.0L2.5,-0.5"/>
  </g>
  <g id="arrowLeft" transform="rotate(270) translate(-36 17)">
    <use xlink:href="#rim"/>
    <path pointer-events="none" fill="none" stroke="white" stroke-width="1.5" d="M0,-3.0v7 M-2.5,-0.5L0,-3.0L2.5,-0.5"/>
  </g>
  <g id="resetDef">
    <use xlink:href="#rim2" fill="#404040"><set attributeName="fill" to="#808080" begin="reset.mouseover" end="reset.mouseout"/></use>
  </g>
</defs>
<script type="application/ecmascript">
var viewWidth = 431;
var viewHeight = 909;
var sectionId = 'dynsection-0';
</script>
<script type="application/ecmascript" xlink:href="svg.min.js"/>
<svg id="graph" class="graph">
<g id="viewport">
<title>Joueur</title>
<!-- Node1 -->
<g id="Node000001" class="node">
<title>Node1</title>
<g id="a_Node000001"><a xlink:title="Déclaration anticipée pour éviter les inclusions circulaires.">
<polygon fill="#999999" stroke="transparent" points="339,-244 224,-244 224,0 339,0 339,-244"/>
<text text-anchor="start" x="266.5" y="-232" font-family="Helvetica,sans-Serif" font-size="10.00">Joueur</text>
<text text-anchor="start" x="231" y="-217" font-family="Helvetica,sans-Serif" font-size="10.00">&#45;</text>
<text text-anchor="start" x="241.5" y="-217" font-family="Helvetica,sans-Serif" font-size="10.00">couleurWagon</text>
<text text-anchor="start" x="231" y="-202" font-family="Helvetica,sans-Serif" font-size="10.00">&#45;</text>
<text text-anchor="start" x="241.5" y="-202" font-family="Helvetica,sans-Serif" font-size="10.00">grdTraversee</text>
<text text-anchor="start" x="231" y="-187" font-family="Helvetica,sans-Serif" font-size="10.00">&#45;</text>
<text text-anchor="start" x="241.5" y="-187" font-family="Helvetica,sans-Serif" font-size="10.00">nbTicketValide</text>
<text text-anchor="start" x="231" y="-172" font-family="Helvetica,sans-Serif" font-size="10.00">&#45;</text>
<text text-anchor="start" x="241.5" y="-172" font-family="Helvetica,sans-Serif" font-size="10.00">nbWagon</text>
<text text-anchor="start" x="228.5" y="-157" font-family="Helvetica,sans-Serif" font-size="10.00">+</text>
<text text-anchor="start" x="241.5" y="-157" font-family="Helvetica,sans-Serif" font-size="10.00">afficherMain()</text>
<text text-anchor="start" x="228.5" y="-142" font-family="Helvetica,sans-Serif" font-size="10.00">+</text>
<text text-anchor="start" x="241.5" y="-142" font-family="Helvetica,sans-Serif" font-size="10.00">afficherMain()</text>
<text text-anchor="start" x="228.5" y="-127" font-family="Helvetica,sans-Serif" font-size="10.00">+</text>
<text text-anchor="start" x="241.5" y="-127" font-family="Helvetica,sans-Serif" font-size="10.00">defausserCarte()</text>
<text text-anchor="start" x="228.5" y="-112" font-family="Helvetica,sans-Serif" font-size="10.00">+</text>
<text text-anchor="start" x="241.5" y="-112" font-family="Helvetica,sans-Serif" font-size="10.00">defausserTicket()</text>
<text text-anchor="start" x="228.5" y="-97" font-family="Helvetica,sans-Serif" font-size="10.00">+</text>
<text text-anchor="start" x="241.5" y="-97" font-family="Helvetica,sans-Serif" font-size="10.00">getCouleurWagon()</text>
<text text-anchor="start" x="228.5" y="-82" font-family="Helvetica,sans-Serif" font-size="10.00">+</text>
<text text-anchor="start" x="241.5" y="-82" font-family="Helvetica,sans-Serif" font-size="10.00">getMain()</text>
<text text-anchor="start" x="228.5" y="-67" font-family="Helvetica,sans-Serif" font-size="10.00">+</text>
<text text-anchor="start" x="241.5" y="-67" font-family="Helvetica,sans-Serif" font-size="10.00">getNbWagon()</text>
<text text-anchor="start" x="228.5" y="-52" font-family="Helvetica,sans-Serif" font-size="10.00">+</text>
<text text-anchor="start" x="241.5" y="-52" font-family="Helvetica,sans-Serif" font-size="10.00">getPrenom()</text>
<text text-anchor="start" x="228.5" y="-37" font-family="Helvetica,sans-Serif" font-size="10.00">+</text>
<text text-anchor="start" x="241.5" y="-37" font-family="Helvetica,sans-Serif" font-size="10.00">getTicket()</text>
<text text-anchor="start" x="228.5" y="-22" font-family="Helvetica,sans-Serif" font-size="10.00">+</text>
<text text-anchor="start" x="241.5" y="-22" font-family="Helvetica,sans-Serif" font-size="10.00">getTicketValide()</text>
<text text-anchor="start" x="241.5" y="-7" font-family="Helvetica,sans-Serif" font-size="10.00">et 11 de plus...</text>
<polygon fill="#666666" stroke="#666666" points="224.5,-227 224.5,-227 339.5,-227 339.5,-227 224.5,-227"/>
<polygon fill="#666666" stroke="#666666" points="224.5,-167 224.5,-167 239.5,-167 239.5,-167 224.5,-167"/>
<polygon fill="#666666" stroke="#666666" points="239.5,-167 239.5,-167 339.5,-167 339.5,-167 239.5,-167"/>
<polygon fill="none" stroke="#666666" points="224,0 224,-244 339,-244 339,0 224,0"/>
</a>
</g>
</g>
<!-- Node2 -->
<g id="Node000002" class="node">
<title>Node2</title>
<g id="a_Node000002"><a xlink:title=" ">
<polygon fill="white" stroke="transparent" points="367,-804 308,-804 308,-755 367,-755 367,-804"/>
<text text-anchor="start" x="313.5" y="-791.5" font-family="Helvetica,sans-Serif" font-size="10.00">std::string</text>
<text text-anchor="start" x="336" y="-776.5" font-family="Helvetica,sans-Serif" font-size="10.00"> </text>
<text text-anchor="start" x="336" y="-761.5" font-family="Helvetica,sans-Serif" font-size="10.00"> </text>
<polygon fill="#666666" stroke="#666666" points="308.5,-786.5 308.5,-786.5 367.5,-786.5 367.5,-786.5 308.5,-786.5"/>
<polygon fill="#666666" stroke="#666666" points="308.5,-771.5 308.5,-771.5 367.5,-771.5 367.5,-771.5 308.5,-771.5"/>
<polygon fill="none" stroke="#666666" points="308,-755 308,-804 367,-804 367,-755 308,-755"/>
</a>
</g>
</g>
<!-- Node2&#45;&gt;Node1 -->
<g id="edge1_Node000001_Node000002" class="edge">
<title>Node2&#45;&gt;Node1</title>
<g id="a_edge1_Node000001_Node000002"><a xlink:title=" ">
<path fill="none" stroke="#63b8ff" d="M350.81,-754.83C353.64,-749.11 356.41,-742.94 358.5,-737 372.07,-698.43 377.5,-687.88 377.5,-647 377.5,-647 377.5,-647 377.5,-314.5 377.5,-277.41 362.93,-240.16 345.15,-208.5"/>
<polygon fill="none" stroke="#63b8ff" points="345.06,-208.35 338.58,-205.18 339.01,-197.98 345.49,-201.15 345.06,-208.35"/>
</a>
</g>
<text text-anchor="middle" x="400" y="-454" font-family="Helvetica,sans-Serif" font-size="10.00" fill="grey"> &#45;prenom</text>
</g>
<!-- Node10 -->
<g id="Node000010" class="node">
<title>Node10</title>
<g id="a_Node000010"><a xlink:href="classVille.html" target="_top" xlink:title="Représente une ville sur le plateau de jeu.">
<polygon fill="white" stroke="transparent" points="348,-708 253,-708 253,-584 348,-584 348,-708"/>
<text text-anchor="start" x="290" y="-696" font-family="Helvetica,sans-Serif" font-size="10.00">Ville</text>
<text text-anchor="start" x="260" y="-681" font-family="Helvetica,sans-Serif" font-size="10.00">&#45;</text>
<text text-anchor="start" x="270.5" y="-681" font-family="Helvetica,sans-Serif" font-size="10.00">coteEst</text>
<text text-anchor="start" x="260" y="-666" font-family="Helvetica,sans-Serif" font-size="10.00">&#45;</text>
<text text-anchor="start" x="270.5" y="-666" font-family="Helvetica,sans-Serif" font-size="10.00">coteOuest</text>
<text text-anchor="start" x="257.5" y="-651" font-family="Helvetica,sans-Serif" font-size="10.00">+</text>
<text text-anchor="start" x="270.5" y="-651" font-family="Helvetica,sans-Serif" font-size="10.00">estCoteEst()</text>
<text text-anchor="start" x="257.5" y="-636" font-family="Helvetica,sans-Serif" font-size="10.00">+</text>
<text text-anchor="start" x="270.5" y="-636" font-family="Helvetica,sans-Serif" font-size="10.00">estCoteOuest()</text>
<text text-anchor="start" x="257.5" y="-621" font-family="Helvetica,sans-Serif" font-size="10.00">+</text>
<text text-anchor="start" x="270.5" y="-621" font-family="Helvetica,sans-Serif" font-size="10.00">getNom()</text>
<text text-anchor="start" x="257.5" y="-606" font-family="Helvetica,sans-Serif" font-size="10.00">+</text>
<text text-anchor="start" x="270.5" y="-606" font-family="Helvetica,sans-Serif" font-size="10.00">Ville()</text>
<text text-anchor="start" x="257.5" y="-591" font-family="Helvetica,sans-Serif" font-size="10.00">+</text>
<text text-anchor="start" x="270.5" y="-591" font-family="Helvetica,sans-Serif" font-size="10.00">Ville()</text>
<polygon fill="#666666" stroke="#666666" points="253.5,-691 253.5,-691 348.5,-691 348.5,-691 253.5,-691"/>
<polygon fill="#666666" stroke="#666666" points="253.5,-661 253.5,-661 268.5,-661 268.5,-661 253.5,-661"/>
<polygon fill="#666666" stroke="#666666" points="268.5,-661 268.5,-661 348.5,-661 348.5,-661 268.5,-661"/>
<polygon fill="none" stroke="#666666" points="253,-584 253,-708 348,-708 348,-584 253,-584"/>
</a>
</g>
</g>
<!-- Node2&#45;&gt;Node10 -->
<g id="edge10_Node000010_Node000002" class="edge">
<title>Node2&#45;&gt;Node10</title>
<g id="a_edge10_Node000010_Node000002"><a xlink:title=" ">
<path fill="none" stroke="#63b8ff" d="M330.89,-754.99C328.05,-744.92 324.57,-732.56 321,-719.85"/>
<polygon fill="none" stroke="#63b8ff" points="320.95,-719.67 315.47,-714.98 317.7,-708.12 323.17,-712.81 320.95,-719.67"/>
</a>
</g>
<text text-anchor="middle" x="340" y="-729" font-family="Helvetica,sans-Serif" font-size="10.00" fill="grey"> &#45;nom</text>
</g>
<!-- Node3 -->
<g id="Node000003" class="node">
<title>Node3</title>
<g id="a_Node000003"><a xlink:title=" ">
<polygon fill="white" stroke="transparent" points="386.5,-901 288.5,-901 288.5,-841 386.5,-841 386.5,-901"/>
<text text-anchor="start" x="293.5" y="-889" font-family="Helvetica,sans-Serif" font-size="10.00">std::basic_string&lt;</text>
<text text-anchor="start" x="319" y="-878" font-family="Helvetica,sans-Serif" font-size="10.00"> Char &gt;</text>
<text text-anchor="start" x="335.5" y="-863" font-family="Helvetica,sans-Serif" font-size="10.00"> </text>
<text text-anchor="start" x="335.5" y="-848" font-family="Helvetica,sans-Serif" font-size="10.00"> </text>
<polygon fill="#666666" stroke="#666666" points="288.5,-873 288.5,-873 386.5,-873 386.5,-873 288.5,-873"/>
<polygon fill="#666666" stroke="#666666" points="288.5,-858 288.5,-858 386.5,-858 386.5,-858 288.5,-858"/>
<polygon fill="none" stroke="#666666" points="288.5,-841 288.5,-901 386.5,-901 386.5,-841 288.5,-841"/>
</a>
</g>
</g>
<!-- Node3&#45;&gt;Node2 -->
<g id="edge2_Node000002_Node000003" class="edge">
<title>Node3&#45;&gt;Node2</title>
<g id="a_edge2_Node000002_Node000003"><a xlink:title=" ">
<path fill="none" stroke="#63b8ff" d="M337.5,-830.41C337.5,-821.47 337.5,-812.25 337.5,-804.21"/>
<polygon fill="none" stroke="#63b8ff" points="334,-830.69 337.5,-840.69 341,-830.69 334,-830.69"/>
</a>
</g>
</g>
<!-- Node4 -->
<g id="Node000004" class="node">
<title>Node4</title>
<g id="a_Node000004"><a xlink:title=" ">
<polygon fill="white" stroke="transparent" points="191.5,-340 57.5,-340 57.5,-291 191.5,-291 191.5,-340"/>
<text text-anchor="start" x="62.5" y="-327.5" font-family="Helvetica,sans-Serif" font-size="10.00">std::vector&lt; CarteTrain &gt;</text>
<text text-anchor="start" x="122.5" y="-312.5" font-family="Helvetica,sans-Serif" font-size="10.00"> </text>
<text text-anchor="start" x="122.5" y="-297.5" font-family="Helvetica,sans-Serif" font-size="10.00"> </text>
<polygon fill="#666666" stroke="#666666" points="57.5,-322.5 57.5,-322.5 191.5,-322.5 191.5,-322.5 57.5,-322.5"/>
<polygon fill="#666666" stroke="#666666" points="57.5,-307.5 57.5,-307.5 191.5,-307.5 191.5,-307.5 57.5,-307.5"/>
<polygon fill="none" stroke="#666666" points="57.5,-291 57.5,-340 191.5,-340 191.5,-291 57.5,-291"/>
</a>
</g>
</g>
<!-- Node4&#45;&gt;Node1 -->
<g id="edge3_Node000001_Node000004" class="edge">
<title>Node4&#45;&gt;Node1</title>
<g id="a_edge3_Node000001_Node000004"><a xlink:title=" ">
<path fill="none" stroke="#63b8ff" d="M144.07,-290.63C162.17,-268.55 190.13,-234.44 216.12,-202.75"/>
<polygon fill="none" stroke="#63b8ff" points="216.14,-202.72 216.85,-195.55 223.75,-193.44 223.04,-200.62 216.14,-202.72"/>
</a>
</g>
<text text-anchor="middle" x="183.5" y="-265" font-family="Helvetica,sans-Serif" font-size="10.00" fill="grey"> &#45;main</text>
</g>
<!-- Node5 -->
<g id="Node000005" class="node">
<title>Node5</title>
<g id="a_Node000005"><a xlink:href="classCarteTrain.html" target="_top" xlink:title="Représente une carte train identifiée par sa couleur.">
<polygon fill="white" stroke="transparent" points="87,-496 0,-496 0,-417 87,-417 87,-496"/>
<text text-anchor="start" x="19" y="-483.5" font-family="Helvetica,sans-Serif" font-size="10.00">CarteTrain</text>
<text text-anchor="start" x="7" y="-468.5" font-family="Helvetica,sans-Serif" font-size="10.00">&#45;</text>
<text text-anchor="start" x="17.5" y="-468.5" font-family="Helvetica,sans-Serif" font-size="10.00">couleur</text>
<text text-anchor="start" x="4.5" y="-453.5" font-family="Helvetica,sans-Serif" font-size="10.00">+</text>
<text text-anchor="start" x="17.5" y="-453.5" font-family="Helvetica,sans-Serif" font-size="10.00">CarteTrain()</text>
<text text-anchor="start" x="4.5" y="-438.5" font-family="Helvetica,sans-Serif" font-size="10.00">+</text>
<text text-anchor="start" x="17.5" y="-438.5" font-family="Helvetica,sans-Serif" font-size="10.00">getCouleur()</text>
<text text-anchor="start" x="4.5" y="-423.5" font-family="Helvetica,sans-Serif" font-size="10.00">+</text>
<text text-anchor="start" x="17.5" y="-423.5" font-family="Helvetica,sans-Serif" font-size="10.00">operator==()</text>
<polygon fill="#666666" stroke="#666666" points="0.5,-478.5 0.5,-478.5 87.5,-478.5 87.5,-478.5 0.5,-478.5"/>
<polygon fill="#666666" stroke="#666666" points="0.5,-463.5 0.5,-463.5 15.5,-463.5 15.5,-463.5 0.5,-463.5"/>
<polygon fill="#666666" stroke="#666666" points="15.5,-463.5 15.5,-463.5 87.5,-463.5 87.5,-463.5 15.5,-463.5"/>
<polygon fill="none" stroke="#666666" points="0,-417 0,-496 87,-496 87,-417 0,-417"/>
</a>
</g>
</g>
<!-- Node5&#45;&gt;Node4 -->
<g id="edge4_Node000004_Node000005" class="edge">
<title>Node5&#45;&gt;Node4</title>
<g id="a_edge4_Node000004_Node000005"><a xlink:title=" ">
<path fill="none" stroke="#63b8ff" d="M44.19,-416.78C46.15,-397.73 51.04,-375.23 62.5,-358 64.83,-354.5 67.57,-351.21 70.57,-348.15"/>
<polygon fill="none" stroke="#63b8ff" points="70.65,-348.08 72.48,-341.1 79.62,-340.11 77.79,-347.09 70.65,-348.08"/>
</a>
</g>
<text text-anchor="middle" x="91.5" y="-361" font-family="Helvetica,sans-Serif" font-size="10.00" fill="grey"> +elements</text>
</g>
<!-- Node6 -->
<g id="Node000006" class="node">
<title>Node6</title>
<g id="a_Node000006"><a xlink:title=" ">
<polygon fill="white" stroke="transparent" points="218,-481 127,-481 127,-432 218,-432 218,-481"/>
<text text-anchor="start" x="132.5" y="-468.5" font-family="Helvetica,sans-Serif" font-size="10.00">std::vector&lt; T &gt;</text>
<text text-anchor="start" x="171" y="-453.5" font-family="Helvetica,sans-Serif" font-size="10.00"> </text>
<text text-anchor="start" x="171" y="-438.5" font-family="Helvetica,sans-Serif" font-size="10.00"> </text>
<polygon fill="#666666" stroke="#666666" points="127.5,-463.5 127.5,-463.5 218.5,-463.5 218.5,-463.5 127.5,-463.5"/>
<polygon fill="#666666" stroke="#666666" points="127.5,-448.5 127.5,-448.5 218.5,-448.5 218.5,-448.5 127.5,-448.5"/>
<polygon fill="none" stroke="#666666" points="127,-432 127,-481 218,-481 218,-432 127,-432"/>
</a>
</g>
</g>
<!-- Node6&#45;&gt;Node4 -->
<g id="edge5_Node000004_Node000006" class="edge">
<title>Node6&#45;&gt;Node4</title>
<g id="a_edge5_Node000004_Node000006"><a xlink:title=" ">
<path fill="none" stroke="orange" d="M150.09,-423.12C140.58,-407.51 130.54,-388.06 125.5,-369 123.05,-359.75 122.45,-349.25 122.58,-340.09"/>
<polygon fill="orange" stroke="orange" points="147.3,-425.25 155.59,-431.84 153.22,-421.52 147.3,-425.25"/>
</a>
</g>
<text text-anchor="middle" x="163.5" y="-361" font-family="Helvetica,sans-Serif" font-size="10.00" fill="grey"> &lt; CarteTrain &gt;</text>
</g>
<!-- Node8 -->
<g id="Node000008" class="node">
<title>Node8</title>
<g id="a_Node000008"><a xlink:title=" ">
<polygon fill="white" stroke="transparent" points="338.5,-340 224.5,-340 224.5,-291 338.5,-291 338.5,-340"/>
<text text-anchor="start" x="229.5" y="-327.5" font-family="Helvetica,sans-Serif" font-size="10.00">std::vector&lt; Ticket &gt;</text>
<text text-anchor="start" x="279.5" y="-312.5" font-family="Helvetica,sans-Serif" font-size="10.00"> </text>
<text text-anchor="start" x="279.5" y="-297.5" font-family="Helvetica,sans-Serif" font-size="10.00"> </text>
<polygon fill="#666666" stroke="#666666" points="224.5,-322.5 224.5,-322.5 338.5,-322.5 338.5,-322.5 224.5,-322.5"/>
<polygon fill="#666666" stroke="#666666" points="224.5,-307.5 224.5,-307.5 338.5,-307.5 338.5,-307.5 224.5,-307.5"/>
<polygon fill="none" stroke="#666666" points="224.5,-291 224.5,-340 338.5,-340 338.5,-291 224.5,-291"/>
</a>
</g>
</g>
<!-- Node6&#45;&gt;Node8 -->
<g id="edge11_Node000008_Node000006" class="edge">
<title>Node6&#45;&gt;Node8</title>
<g id="a_edge11_Node000008_Node000006"><a xlink:title=" ">
<path fill="none" stroke="orange" d="M186.86,-422.71C196.57,-402.73 210.68,-377.39 227.5,-358 233.08,-351.57 239.79,-345.47 246.56,-340.03"/>
<polygon fill="orange" stroke="orange" points="183.69,-421.22 182.58,-431.76 190.02,-424.21 183.69,-421.22"/>
</a>
</g>
<text text-anchor="middle" x="255" y="-361" font-family="Helvetica,sans-Serif" font-size="10.00" fill="grey"> &lt; Ticket &gt;</text>
</g>
<!-- Node7 -->
<g id="Node000007" class="node">
<title>Node7</title>
<g id="a_Node000007"><a xlink:title=" ">
<polygon fill="white" stroke="transparent" points="181,-670.5 164,-670.5 164,-621.5 181,-621.5 181,-670.5"/>
<text text-anchor="start" x="169.5" y="-658" font-family="Helvetica,sans-Serif" font-size="10.00">T</text>
<text text-anchor="start" x="171" y="-643" font-family="Helvetica,sans-Serif" font-size="10.00"> </text>
<text text-anchor="start" x="171" y="-628" font-family="Helvetica,sans-Serif" font-size="10.00"> </text>
<polygon fill="#666666" stroke="#666666" points="164.5,-653 164.5,-653 181.5,-653 181.5,-653 164.5,-653"/>
<polygon fill="#666666" stroke="#666666" points="164.5,-638 164.5,-638 181.5,-638 181.5,-638 164.5,-638"/>
<polygon fill="none" stroke="#666666" points="164,-621.5 164,-670.5 181,-670.5 181,-621.5 164,-621.5"/>
</a>
</g>
</g>
<!-- Node7&#45;&gt;Node6 -->
<g id="edge6_Node000006_Node000007" class="edge">
<title>Node7&#45;&gt;Node6</title>
<g id="a_edge6_Node000006_Node000007"><a xlink:title=" ">
<path fill="none" stroke="#63b8ff" d="M172.5,-621.25C172.5,-588.99 172.5,-531.03 172.5,-493.43"/>
<polygon fill="none" stroke="#63b8ff" points="172.5,-493.05 168.5,-487.05 172.5,-481.05 176.5,-487.05 172.5,-493.05"/>
</a>
</g>
<text text-anchor="middle" x="201.5" y="-552.5" font-family="Helvetica,sans-Serif" font-size="10.00" fill="grey"> +elements</text>
</g>
<!-- Node8&#45;&gt;Node1 -->
<g id="edge7_Node000001_Node000008" class="edge">
<title>Node8&#45;&gt;Node1</title>
<g id="a_edge7_Node000001_Node000008"><a xlink:title=" ">
<path fill="none" stroke="#63b8ff" d="M281.5,-290.63C281.5,-281.04 281.5,-269.17 281.5,-256.22"/>
<polygon fill="none" stroke="#63b8ff" points="281.5,-256.06 277.5,-250.06 281.5,-244.06 285.5,-250.06 281.5,-256.06"/>
</a>
</g>
<text text-anchor="middle" x="298.5" y="-265" font-family="Helvetica,sans-Serif" font-size="10.00" fill="grey"> &#45;ticket</text>
</g>
<!-- Node9 -->
<g id="Node000009" class="node">
<title>Node9</title>
<g id="a_Node000009"><a xlink:href="classTicket.html" target="_top" xlink:title="Représente un ticket destination entre deux villes.">
<polygon fill="white" stroke="transparent" points="341,-526 254,-526 254,-387 341,-387 341,-526"/>
<text text-anchor="start" x="283" y="-513.5" font-family="Helvetica,sans-Serif" font-size="10.00">Ticket</text>
<text text-anchor="start" x="261" y="-498.5" font-family="Helvetica,sans-Serif" font-size="10.00">&#45;</text>
<text text-anchor="start" x="271.5" y="-498.5" font-family="Helvetica,sans-Serif" font-size="10.00">id</text>
<text text-anchor="start" x="261" y="-483.5" font-family="Helvetica,sans-Serif" font-size="10.00">&#45;</text>
<text text-anchor="start" x="271.5" y="-483.5" font-family="Helvetica,sans-Serif" font-size="10.00">valide</text>
<text text-anchor="start" x="258.5" y="-468.5" font-family="Helvetica,sans-Serif" font-size="10.00">+</text>
<text text-anchor="start" x="271.5" y="-468.5" font-family="Helvetica,sans-Serif" font-size="10.00">estValide()</text>
<text text-anchor="start" x="258.5" y="-453.5" font-family="Helvetica,sans-Serif" font-size="10.00">+</text>
<text text-anchor="start" x="271.5" y="-453.5" font-family="Helvetica,sans-Serif" font-size="10.00">getId()</text>
<text text-anchor="start" x="258.5" y="-438.5" font-family="Helvetica,sans-Serif" font-size="10.00">+</text>
<text text-anchor="start" x="271.5" y="-438.5" font-family="Helvetica,sans-Serif" font-size="10.00">getVilleA()</text>
<text text-anchor="start" x="258.5" y="-423.5" font-family="Helvetica,sans-Serif" font-size="10.00">+</text>
<text text-anchor="start" x="271.5" y="-423.5" font-family="Helvetica,sans-Serif" font-size="10.00">getVilleB()</text>
<text text-anchor="start" x="258.5" y="-408.5" font-family="Helvetica,sans-Serif" font-size="10.00">+</text>
<text text-anchor="start" x="271.5" y="-408.5" font-family="Helvetica,sans-Serif" font-size="10.00">operator==()</text>
<text text-anchor="start" x="258.5" y="-393.5" font-family="Helvetica,sans-Serif" font-size="10.00">+</text>
<text text-anchor="start" x="271.5" y="-393.5" font-family="Helvetica,sans-Serif" font-size="10.00">Ticket()</text>
<polygon fill="#666666" stroke="#666666" points="254.5,-508.5 254.5,-508.5 341.5,-508.5 341.5,-508.5 254.5,-508.5"/>
<polygon fill="#666666" stroke="#666666" points="254.5,-478.5 254.5,-478.5 269.5,-478.5 269.5,-478.5 254.5,-478.5"/>
<polygon fill="#666666" stroke="#666666" points="269.5,-478.5 269.5,-478.5 341.5,-478.5 341.5,-478.5 269.5,-478.5"/>
<polygon fill="none" stroke="#666666" points="254,-387 254,-526 341,-526 341,-387 254,-387"/>
</a>
</g>
</g>
<!-- Node9&#45;&gt;Node8 -->
<g id="edge8_Node000008_Node000009" class="edge">
<title>Node9&#45;&gt;Node8</title>
<g id="a_edge8_Node000008_Node000009"><a xlink:title=" ">
<path fill="none" stroke="#63b8ff" d="M289.59,-386.81C288.22,-374.85 286.84,-362.86 285.62,-352.25"/>
<polygon fill="none" stroke="#63b8ff" points="285.59,-352.01 280.93,-346.51 284.22,-340.09 288.88,-345.59 285.59,-352.01"/>
</a>
</g>
<text text-anchor="middle" x="315.5" y="-361" font-family="Helvetica,sans-Serif" font-size="10.00" fill="grey"> +elements</text>
</g>
<!-- Node10&#45;&gt;Node9 -->
<g id="edge9_Node000009_Node000010" class="edge">
<title>Node10&#45;&gt;Node9</title>
<g id="a_edge9_Node000009_Node000010"><a xlink:title=" ">
<path fill="none" stroke="#63b8ff" d="M299.52,-583.86C299.29,-569.28 299.04,-553.48 298.79,-538.17"/>
<polygon fill="none" stroke="#63b8ff" points="298.79,-538.02 294.69,-532.08 298.6,-526.02 302.69,-531.95 298.79,-538.02"/>
</a>
</g>
<text text-anchor="middle" x="315.5" y="-558" font-family="Helvetica,sans-Serif" font-size="10.00" fill="grey"> &#45;villeA</text>
<text text-anchor="middle" x="315.5" y="-547" font-family="Helvetica,sans-Serif" font-size="10.00" fill="grey">&#45;villeB</text>
</g>
</g>
</svg>

<g id="navigator" transform="translate(0 0)" fill="#404254">
  <rect fill="#f2f5e9" fill-opacity="0.5" stroke="#606060" stroke-width=".5" x="0" y="0" width="60" height="60"/>
  <use id="zoomplus" xlink:href="#zoomPlus" x="17" y="9" onmousedown="handleZoom(evt,'in')"/>
  <use id="zoomminus" xlink:href="#zoomMin" x="42" y="9" onmousedown="handleZoom(evt,'out')"/>
  <use id="reset" xlink:href="#resetDef" x="30" y="36" onmousedown="handleReset()"/>
   <use id="arrowup" xlink:href="#arrowUp" x="0" y="0" onmousedown="handlePan(0,-1)"/>
  <use id="arrowright" xlink:href="#arrowRight" x="0" y="0" onmousedown="handlePan(1,0)"/>
  <use id="arrowdown" xlink:href="#arrowDown" x="0" y="0" onmousedown="handlePan(0,1)"/>
  <use id="arrowleft" xlink:href="#arrowLeft" x="0" y="0" onmousedown="handlePan(-1,0)"/>
</g>
<svg viewBox="0 0 15 15" width="100%" height="30px" preserveAspectRatio="xMaxYMin meet">
 <g id="arrow_out" transform="scale(0.3 0.3)">
  <a xlink:href="classJoueur__coll__graph_org.svg" target="_base">
   <rect id="button" ry="5" rx="5" y="6" x="6" height="38" width="38"
        fill="#f2f5e9" fill-opacity="0.5" stroke="#606060" stroke-width="1.0"/>
   <path id="arrow"
     d="M 11.500037,31.436501 C 11.940474,20.09759 22.043105,11.32322 32.158766,21.979434 L 37.068811,17.246167 C 37.068811,17.246167 37.088388,32 37.088388,32 L 22.160133,31.978069 C 22.160133,31.978069 26.997745,27.140456 26.997745,27.140456 C 18.528582,18.264221 13.291696,25.230495 11.500037,31.436501 z"
     style="fill:#404040;"/>
  </a>
 </g>
</svg>

<style type='text/css'>
<![CDATA[
[data-mouse-over-selected='false'] { opacity: 0.7; }
[data-mouse-over-selected='true']  { opacity: 1.0; }
]]>
</style>
<script type="application/ecmascript"><![CDATA[
document.addEventListener('DOMContentLoaded', (event) => {
  highlightEdges();
  highlightAdjacentNodes();
});
]]></script>
</svg>
