<?xml version="1.0" encoding="UTF-8" standalone="no"?>
<!DOCTYPE svg PUBLIC "-//W3C//DTD SVG 1.1//EN"
 "http://www.w3.org/Graphics/SVG/1.1/DTD/svg11.dtd">
<!-- Generated by graphviz version 2.43.0 (0)
 -->
<!-- Title: CouleurCarte.h Pages: 1 -->
<!--zoomable 357 -->

<svg id="main" version="1.1" xmlns="http://www.w3.org/2000/svg" xmlns:xlink="http://www.w3.org/1999/xlink" xml:space="preserve" onload="init(evt)">
<style type="text/css"><![CDATA[
.node, .edge {opacity: 0.7;}
.node.selected, .edge.selected {opacity: 1;}
.edge:hover path { stroke: red; }
.edge:hover polygon { stroke: red; fill: red; }
]]></style>

<defs>
  <circle id="rim" cx="0" cy="0" r="7"/>
  <circle id="rim2" cx="0" cy="0" r="3.5"/>
  <g id="zoomPlus">
    <use xlink:href="#rim" fill="#404040"><set attributeName="fill" to="#808080" begin="zoomplus.mouseover" end="zoomplus.mouseout"/></use>
    <path d="M-4,0h8M0,-4v8" fill="none" stroke="white" stroke-width="1.5" pointer-events="none"/>
  </g>
  <g id="zoomMin">
    <use xlink:href="#rim" fill="#404040"><set attributeName="fill" to="#808080" begin="zoomminus.mouseover" end="zoomminus.mouseout"/></use>
    <path d="M-4,0h8" fill="none" stroke="white" stroke-width="1.5" pointer-events="none"/>
  </g>
  <g id="arrowUp" transform="translate(30 24)">
    <use xlink:href="#rim"/>
    <path pointer-events="none" fill="none" stroke="white" stroke-width="1.5" d="M0,-3.0v7 M-2.5,-0.5L0,-3.0L2.5,-0.5"/>
  </g>
  <g id="arrowRight" transform="rotate(90) translate(36 -43)">
    <use xlink:href="#rim"/>
    <path pointer-events="none" fill="none" stroke="white" stroke-width="1.5" d="M0,-3.0v7 M-2.5,-0.5L0,-3.0L2.5,-0.5"/>
  </g>
  <g id="arrowDown" transform="rotate(180) translate(-30 -48)">
    <use xlink:href="#rim"/>
    <path pointer-events="none" fill="none" stroke="white" stroke-width="1.5" d="M0,-3.0v7 M-2.5,-0.5L0,-3.0L2.5,-0.5"/>
  </g>
  <g id="arrowLeft" transform="rotate(270) translate(-36 17)">
    <use xlink:href="#rim"/>
    <path pointer-events="none" fill="none" stroke="white" stroke-width="1.5" d="M0,-3.0v7 M-2.5,-0.5L0,-3.0L2.5,-0.5"/>
  </g>
  <g id="resetDef">
    <use xlink:href="#rim2" fill="#404040"><set attributeName="fill" to="#808080" begin="reset.mouseover" end="reset.mouseout"/></use>
  </g>
</defs>
<script type="application/ecmascript">
var viewWidth = 505;
var viewHeight = 357;
var sectionId = 'dynsection-1';
</script>
<script type="application/ecmascript" xlink:href="svg.min.js"/>
<svg id="graph" class="graph">
<g id="viewport">
<title>CouleurCarte.h</title>
<!-- Node1 -->
<g id="Node000001" class="node">
<title>Node1</title>
<g id="a_Node000001"><a xlink:title="Définition des couleurs de cartes train et utilitaire de conversion.">
<polygon fill="#999999" stroke="#666666" points="446.5,-349 357.5,-349 357.5,-330 446.5,-330 446.5,-349"/>
<text text-anchor="middle" x="402" y="-337" font-family="Helvetica,sans-Serif" font-size="10.00">CouleurCarte.h</text>
</a>
</g>
</g>
<!-- Node2 -->
<g id="Node000002" class="node">
<title>Node2</title>
<g id="a_Node000002"><a xlink:href="CarteTrain_8h.html" target="_top" xlink:title="Description de la classe CarteTrain.">
<polygon fill="white" stroke="#666666" points="354.5,-294 279.5,-294 279.5,-275 354.5,-275 354.5,-294"/>
<text text-anchor="middle" x="317" y="-282" font-family="Helvetica,sans-Serif" font-size="10.00">CarteTrain.h</text>
</a>
</g>
</g>
<!-- Node1&#45;&gt;Node2 -->
<g id="edge1_Node000001_Node000002" class="edge">
<title>Node1&#45;&gt;Node2</title>
<g id="a_edge1_Node000001_Node000002"><a xlink:title=" ">
<path fill="none" stroke="#63b8ff" d="M379.43,-324.42C364,-314.81 344.05,-302.37 330.91,-294.17"/>
<polygon fill="#63b8ff" stroke="#63b8ff" points="378.01,-327.66 388.34,-329.98 381.71,-321.72 378.01,-327.66"/>
</a>
</g>
</g>
<!-- Node7 -->
<g id="Node000007" class="node">
<title>Node7</title>
<g id="a_Node000007"><a xlink:href="main_8cpp.html" target="_top" xlink:title="Point d&#39;entrée du jeu Les Aventuriers du Rail.">
<polygon fill="white" stroke="#666666" points="345,-19 283,-19 283,0 345,0 345,-19"/>
<text text-anchor="middle" x="314" y="-7" font-family="Helvetica,sans-Serif" font-size="10.00">main.cpp</text>
</a>
</g>
</g>
<!-- Node1&#45;&gt;Node7 -->
<g id="edge26_Node000001_Node000007" class="edge">
<title>Node1&#45;&gt;Node7</title>
<g id="a_edge26_Node000001_Node000007"><a xlink:title=" ">
<path fill="none" stroke="#63b8ff" d="M426.69,-324.67C454.84,-306.86 497,-273.09 497,-230.5 497,-230.5 497,-230.5 497,-118.5 497,-48.78 397.25,-23.14 345.04,-14.49"/>
<polygon fill="#63b8ff" stroke="#63b8ff" points="424.84,-321.69 418.12,-329.88 428.48,-327.68 424.84,-321.69"/>
</a>
</g>
</g>
<!-- Node8 -->
<g id="Node000008" class="node">
<title>Node8</title>
<g id="a_Node000008"><a xlink:href="Joueur_8cpp.html" target="_top" xlink:title=" ">
<polygon fill="white" stroke="#666666" points="416.5,-74 349.5,-74 349.5,-55 416.5,-55 416.5,-74"/>
<text text-anchor="middle" x="383" y="-62" font-family="Helvetica,sans-Serif" font-size="10.00">Joueur.cpp</text>
</a>
</g>
</g>
<!-- Node1&#45;&gt;Node8 -->
<g id="edge24_Node000001_Node000008" class="edge">
<title>Node1&#45;&gt;Node8</title>
<g id="a_edge24_Node000001_Node000008"><a xlink:title=" ">
<path fill="none" stroke="#63b8ff" d="M400.68,-319.51C396.92,-265.44 386.24,-112.11 383.6,-74.11"/>
<polygon fill="#63b8ff" stroke="#63b8ff" points="397.2,-319.99 401.39,-329.73 404.19,-319.51 397.2,-319.99"/>
</a>
</g>
</g>
<!-- Node11 -->
<g id="Node000011" class="node">
<title>Node11</title>
<g id="a_Node000011"><a xlink:href="Route_8h.html" target="_top" xlink:title="Déclaration de la classe Route.">
<polygon fill="white" stroke="#666666" points="223,-184 169,-184 169,-165 223,-165 223,-184"/>
<text text-anchor="middle" x="196" y="-172" font-family="Helvetica,sans-Serif" font-size="10.00">Route.h</text>
</a>
</g>
</g>
<!-- Node1&#45;&gt;Node11 -->
<g id="edge25_Node000001_Node000011" class="edge">
<title>Node1&#45;&gt;Node11</title>
<g id="a_edge25_Node000001_Node000011"><a xlink:title=" ">
<path fill="none" stroke="#63b8ff" d="M347.2,-334.89C286.37,-327.57 191.11,-305.49 148,-239 134.69,-218.47 162.73,-195.98 181.31,-184.05"/>
<polygon fill="#63b8ff" stroke="#63b8ff" points="347.07,-338.4 357.39,-336.02 347.84,-331.44 347.07,-338.4"/>
</a>
</g>
</g>
<!-- Node3 -->
<g id="Node000003" class="node">
<title>Node3</title>
<g id="a_Node000003"><a xlink:href="CarteTrain_8cpp.html" target="_top" xlink:title=" ">
<polygon fill="white" stroke="#666666" points="243,-239 157,-239 157,-220 243,-220 243,-239"/>
<text text-anchor="middle" x="200" y="-227" font-family="Helvetica,sans-Serif" font-size="10.00">CarteTrain.cpp</text>
</a>
</g>
</g>
<!-- Node2&#45;&gt;Node3 -->
<g id="edge2_Node000002_Node000003" class="edge">
<title>Node2&#45;&gt;Node3</title>
<g id="a_edge2_Node000002_Node000003"><a xlink:title=" ">
<path fill="none" stroke="#63b8ff" d="M288.89,-270.77C267.31,-260.99 238.09,-247.75 219.14,-239.17"/>
<polygon fill="#63b8ff" stroke="#63b8ff" points="287.65,-274.05 298.2,-274.98 290.54,-267.67 287.65,-274.05"/>
</a>
</g>
</g>
<!-- Node4 -->
<g id="Node000004" class="node">
<title>Node4</title>
<g id="a_Node000004"><a xlink:href="Joueur_8h.html" target="_top" xlink:title="Déclaration de la classe Joueur.">
<polygon fill="white" stroke="#666666" points="317,-239 261,-239 261,-220 317,-220 317,-239"/>
<text text-anchor="middle" x="289" y="-227" font-family="Helvetica,sans-Serif" font-size="10.00">Joueur.h</text>
</a>
</g>
</g>
<!-- Node2&#45;&gt;Node4 -->
<g id="edge3_Node000002_Node000004" class="edge">
<title>Node2&#45;&gt;Node4</title>
<g id="a_edge3_Node000002_Node000004"><a xlink:title=" ">
<path fill="none" stroke="#63b8ff" d="M307.66,-265.82C302.91,-256.82 297.34,-246.29 293.54,-239.09"/>
<polygon fill="#63b8ff" stroke="#63b8ff" points="304.61,-267.54 312.38,-274.75 310.8,-264.27 304.61,-267.54"/>
</a>
</g>
</g>
<!-- Node2&#45;&gt;Node7 -->
<g id="edge23_Node000002_Node000007" class="edge">
<title>Node2&#45;&gt;Node7</title>
<g id="a_edge23_Node000002_Node000007"><a xlink:title=" ">
<path fill="none" stroke="#63b8ff" d="M335.25,-267.91C377.79,-229.68 476.21,-128.98 426,-55 408.02,-28.51 371.53,-17.79 345.07,-13.45"/>
<polygon fill="#63b8ff" stroke="#63b8ff" points="332.74,-265.46 327.55,-274.7 337.36,-270.72 332.74,-265.46"/>
</a>
</g>
</g>
<!-- Node9 -->
<g id="Node000009" class="node">
<title>Node9</title>
<g id="a_Node000009"><a xlink:href="Plateau_8cpp.html" target="_top" xlink:title=" ">
<polygon fill="white" stroke="#666666" points="74,-74 0,-74 0,-55 74,-55 74,-74"/>
<text text-anchor="middle" x="37" y="-62" font-family="Helvetica,sans-Serif" font-size="10.00">Plateau.cpp</text>
</a>
</g>
</g>
<!-- Node2&#45;&gt;Node9 -->
<g id="edge21_Node000002_Node000009" class="edge">
<title>Node2&#45;&gt;Node9</title>
<g id="a_edge21_Node000002_Node000009"><a xlink:title=" ">
<path fill="none" stroke="#63b8ff" d="M268.99,-279.3C233.15,-274.26 184.3,-263.2 148,-239 84.03,-196.35 49.22,-102.96 39.71,-74.14"/>
<polygon fill="#63b8ff" stroke="#63b8ff" points="268.83,-282.81 279.2,-280.62 269.73,-275.86 268.83,-282.81"/>
</a>
</g>
</g>
<!-- Node12 -->
<g id="Node000012" class="node">
<title>Node12</title>
<g id="a_Node000012"><a xlink:href="Plateau_8h.html" target="_top" xlink:title="Déclaration de la classe Plateau.">
<polygon fill="white" stroke="#666666" points="210,-129 148,-129 148,-110 210,-110 210,-129"/>
<text text-anchor="middle" x="179" y="-117" font-family="Helvetica,sans-Serif" font-size="10.00">Plateau.h</text>
</a>
</g>
</g>
<!-- Node2&#45;&gt;Node12 -->
<g id="edge22_Node000002_Node000012" class="edge">
<title>Node2&#45;&gt;Node12</title>
<g id="a_edge22_Node000002_Node000012"><a xlink:title=" ">
<path fill="none" stroke="#63b8ff" d="M325.17,-265.26C329.83,-251.98 333.41,-233.97 326,-220 300.29,-171.55 239.26,-142.37 204.46,-129.09"/>
<polygon fill="#63b8ff" stroke="#63b8ff" points="321.85,-264.13 321.39,-274.71 328.35,-266.73 321.85,-264.13"/>
</a>
</g>
</g>
<!-- Node5 -->
<g id="Node000005" class="node">
<title>Node5</title>
<g id="a_Node000005"><a xlink:href="Affichage_8h.html" target="_top" xlink:title=" ">
<polygon fill="white" stroke="#666666" points="163.5,-74 92.5,-74 92.5,-55 163.5,-55 163.5,-74"/>
<text text-anchor="middle" x="128" y="-62" font-family="Helvetica,sans-Serif" font-size="10.00">Affichage.h</text>
</a>
</g>
</g>
<!-- Node4&#45;&gt;Node5 -->
<g id="edge4_Node000004_Node000005" class="edge">
<title>Node4&#45;&gt;Node5</title>
<g id="a_edge4_Node000004_Node000005"><a xlink:title=" ">
<path fill="none" stroke="#63b8ff" d="M251.04,-219.22C217.94,-210.46 173.23,-196.8 160,-184 128.61,-153.62 126.97,-95.91 127.57,-74.12"/>
<polygon fill="#63b8ff" stroke="#63b8ff" points="250.33,-222.65 260.89,-221.77 252.08,-215.88 250.33,-222.65"/>
</a>
</g>
</g>
<!-- Node4&#45;&gt;Node7 -->
<g id="edge20_Node000004_Node000007" class="edge">
<title>Node4&#45;&gt;Node7</title>
<g id="a_edge20_Node000004_Node000007"><a xlink:title=" ">
<path fill="none" stroke="#63b8ff" d="M291.14,-209.85C296.3,-164.82 309.29,-51.53 313,-19.22"/>
<polygon fill="#63b8ff" stroke="#63b8ff" points="287.64,-209.62 289.98,-219.95 294.6,-210.42 287.64,-209.62"/>
</a>
</g>
</g>
<!-- Node4&#45;&gt;Node8 -->
<g id="edge7_Node000004_Node000008" class="edge">
<title>Node4&#45;&gt;Node8</title>
<g id="a_edge7_Node000004_Node000008"><a xlink:title=" ">
<path fill="none" stroke="#63b8ff" d="M301.81,-211.87C307.91,-203.67 315.13,-193.52 321,-184 345.5,-144.28 369.75,-93.88 379.04,-74.06"/>
<polygon fill="#63b8ff" stroke="#63b8ff" points="298.99,-209.8 295.75,-219.89 304.58,-214.02 298.99,-209.8"/>
</a>
</g>
</g>
<!-- Node4&#45;&gt;Node9 -->
<g id="edge8_Node000004_Node000009" class="edge">
<title>Node4&#45;&gt;Node9</title>
<g id="a_edge8_Node000004_Node000009"><a xlink:title=" ">
<path fill="none" stroke="#63b8ff" d="M250.67,-219.43C213.47,-210.17 160.06,-195.57 142,-184 94.56,-153.6 55.76,-95.9 42.19,-74.12"/>
<polygon fill="#63b8ff" stroke="#63b8ff" points="250.15,-222.9 260.69,-221.89 251.82,-216.1 250.15,-222.9"/>
</a>
</g>
</g>
<!-- Node10 -->
<g id="Node000010" class="node">
<title>Node10</title>
<g id="a_Node000010"><a xlink:href="Route_8cpp.html" target="_top" xlink:title=" ">
<polygon fill="white" stroke="#666666" points="285.5,-74 220.5,-74 220.5,-55 285.5,-55 285.5,-74"/>
<text text-anchor="middle" x="253" y="-62" font-family="Helvetica,sans-Serif" font-size="10.00">Route.cpp</text>
</a>
</g>
</g>
<!-- Node4&#45;&gt;Node10 -->
<g id="edge9_Node000004_Node000010" class="edge">
<title>Node4&#45;&gt;Node10</title>
<g id="a_edge9_Node000004_Node000010"><a xlink:title=" ">
<path fill="none" stroke="#63b8ff" d="M284.88,-209.83C277.11,-174.67 260.6,-99.9 254.95,-74.31"/>
<polygon fill="#63b8ff" stroke="#63b8ff" points="281.49,-210.73 287.06,-219.74 288.33,-209.22 281.49,-210.73"/>
</a>
</g>
</g>
<!-- Node4&#45;&gt;Node11 -->
<g id="edge10_Node000004_Node000011" class="edge">
<title>Node4&#45;&gt;Node11</title>
<g id="a_edge10_Node000004_Node000011"><a xlink:title=" ">
<path fill="none" stroke="#63b8ff" d="M260.04,-215.37C241.63,-205.63 219.09,-192.64 206.07,-184.17"/>
<polygon fill="#63b8ff" stroke="#63b8ff" points="258.45,-218.49 268.94,-219.98 261.68,-212.28 258.45,-218.49"/>
</a>
</g>
</g>
<!-- Node6 -->
<g id="Node000006" class="node">
<title>Node6</title>
<g id="a_Node000006"><a xlink:href="Affichage_8cpp.html" target="_top" xlink:title=" ">
<polygon fill="white" stroke="#666666" points="169.5,-19 86.5,-19 86.5,0 169.5,0 169.5,-19"/>
<text text-anchor="middle" x="128" y="-7" font-family="Helvetica,sans-Serif" font-size="10.00">Affichage.cpp</text>
</a>
</g>
</g>
<!-- Node5&#45;&gt;Node6 -->
<g id="edge5_Node000005_Node000006" class="edge">
<title>Node5&#45;&gt;Node6</title>
<g id="a_edge5_Node000005_Node000006"><a xlink:title=" ">
<path fill="none" stroke="#63b8ff" d="M128,-44.66C128,-35.93 128,-25.99 128,-19.09"/>
<polygon fill="#63b8ff" stroke="#63b8ff" points="124.5,-44.75 128,-54.75 131.5,-44.75 124.5,-44.75"/>
</a>
</g>
</g>
<!-- Node5&#45;&gt;Node7 -->
<g id="edge6_Node000005_Node000007" class="edge">
<title>Node5&#45;&gt;Node7</title>
<g id="a_edge6_Node000005_Node000007"><a xlink:title=" ">
<path fill="none" stroke="#63b8ff" d="M167.71,-52.18C202.5,-42.27 252.29,-28.08 283.88,-19.08"/>
<polygon fill="#63b8ff" stroke="#63b8ff" points="166.54,-48.88 157.88,-54.98 168.46,-55.61 166.54,-48.88"/>
</a>
</g>
</g>
<!-- Node11&#45;&gt;Node4 -->
<g id="edge11_Node000011_Node000004" class="edge">
<title>Node11&#45;&gt;Node4</title>
<g id="a_edge11_Node000011_Node000004"><a xlink:title=" ">
<path fill="none" stroke="#63b8ff" d="M225.3,-188.81C243.76,-198.59 266.27,-211.57 279.17,-219.98"/>
<polygon fill="#63b8ff" stroke="#63b8ff" points="226.85,-185.67 216.36,-184.17 223.63,-191.88 226.85,-185.67"/>
</a>
</g>
</g>
<!-- Node11&#45;&gt;Node9 -->
<g id="edge12_Node000011_Node000009" class="edge">
<title>Node11&#45;&gt;Node9</title>
<g id="a_edge12_Node000011_Node000009"><a xlink:title=" ">
<path fill="none" stroke="#63b8ff" d="M174.66,-159.01C141.12,-136.22 77.07,-92.72 49.8,-74.2"/>
<polygon fill="#63b8ff" stroke="#63b8ff" points="173.02,-162.12 183.26,-164.84 176.95,-156.33 173.02,-162.12"/>
</a>
</g>
</g>
<!-- Node11&#45;&gt;Node10 -->
<g id="edge19_Node000011_Node000010" class="edge">
<title>Node11&#45;&gt;Node10</title>
<g id="a_edge19_Node000011_Node000010"><a xlink:title=" ">
<path fill="none" stroke="#63b8ff" d="M205.36,-155.76C217.75,-132.28 239.11,-91.81 248.43,-74.16"/>
<polygon fill="#63b8ff" stroke="#63b8ff" points="202.24,-154.18 200.66,-164.66 208.43,-157.45 202.24,-154.18"/>
</a>
</g>
</g>
<!-- Node11&#45;&gt;Node12 -->
<g id="edge13_Node000011_Node000012" class="edge">
<title>Node11&#45;&gt;Node12</title>
<g id="a_edge13_Node000011_Node000012"><a xlink:title=" ">
<path fill="none" stroke="#63b8ff" d="M190.05,-154.95C187.23,-146.15 183.99,-136.06 181.75,-129.09"/>
<polygon fill="#63b8ff" stroke="#63b8ff" points="186.81,-156.29 193.19,-164.75 193.47,-154.16 186.81,-156.29"/>
</a>
</g>
</g>
<!-- Node12&#45;&gt;Node5 -->
<g id="edge14_Node000012_Node000005" class="edge">
<title>Node12&#45;&gt;Node5</title>
<g id="a_edge14_Node000012_Node000005"><a xlink:title=" ">
<path fill="none" stroke="#63b8ff" d="M163.62,-102.52C154.63,-93.18 143.64,-81.75 136.26,-74.09"/>
<polygon fill="#63b8ff" stroke="#63b8ff" points="161.12,-104.97 170.58,-109.75 166.17,-100.12 161.12,-104.97"/>
</a>
</g>
</g>
<!-- Node12&#45;&gt;Node7 -->
<g id="edge18_Node000012_Node000007" class="edge">
<title>Node12&#45;&gt;Node7</title>
<g id="a_edge18_Node000012_Node000007"><a xlink:title=" ">
<path fill="none" stroke="#63b8ff" d="M184.32,-100.43C189.25,-86.44 197.83,-67.42 211,-55 231.13,-36.03 260.62,-24.41 282.89,-17.83"/>
<polygon fill="#63b8ff" stroke="#63b8ff" points="180.99,-99.36 181.25,-109.95 187.65,-101.51 180.99,-99.36"/>
</a>
</g>
</g>
<!-- Node12&#45;&gt;Node8 -->
<g id="edge15_Node000012_Node000008" class="edge">
<title>Node12&#45;&gt;Node8</title>
<g id="a_edge15_Node000012_Node000008"><a xlink:title=" ">
<path fill="none" stroke="#63b8ff" d="M220.24,-107.79C258.55,-97.83 314.84,-83.21 350.18,-74.03"/>
<polygon fill="#63b8ff" stroke="#63b8ff" points="219.23,-104.43 210.43,-110.33 220.99,-111.21 219.23,-104.43"/>
</a>
</g>
</g>
<!-- Node12&#45;&gt;Node9 -->
<g id="edge16_Node000012_Node000009" class="edge">
<title>Node12&#45;&gt;Node9</title>
<g id="a_edge16_Node000012_Node000009"><a xlink:title=" ">
<path fill="none" stroke="#63b8ff" d="M146.64,-106.42C120.29,-96.59 83.74,-82.95 60.23,-74.17"/>
<polygon fill="#63b8ff" stroke="#63b8ff" points="145.59,-109.77 156.19,-109.98 148.04,-103.21 145.59,-109.77"/>
</a>
</g>
</g>
<!-- Node12&#45;&gt;Node10 -->
<g id="edge17_Node000012_Node000010" class="edge">
<title>Node12&#45;&gt;Node10</title>
<g id="a_edge17_Node000012_Node000010"><a xlink:title=" ">
<path fill="none" stroke="#63b8ff" d="M199.03,-104.15C212.41,-94.57 229.56,-82.29 240.89,-74.17"/>
<polygon fill="#63b8ff" stroke="#63b8ff" points="196.98,-101.32 190.89,-109.98 201.06,-107.01 196.98,-101.32"/>
</a>
</g>
</g>
</g>
</svg>

<g id="navigator" transform="translate(0 0)" fill="#404254">
  <rect fill="#f2f5e9" fill-opacity="0.5" stroke="#606060" stroke-width=".5" x="0" y="0" width="60" height="60"/>
  <use id="zoomplus" xlink:href="#zoomPlus" x="17" y="9" onmousedown="handleZoom(evt,'in')"/>
  <use id="zoomminus" xlink:href="#zoomMin" x="42" y="9" onmousedown="handleZoom(evt,'out')"/>
  <use id="reset" xlink:href="#resetDef" x="30" y="36" onmousedown="handleReset()"/>
   <use id="arrowup" xlink:href="#arrowUp" x="0" y="0" onmousedown="handlePan(0,-1)"/>
  <use id="arrowright" xlink:href="#arrowRight" x="0" y="0" onmousedown="handlePan(1,0)"/>
  <use id="arrowdown" xlink:href="#arrowDown" x="0" y="0" onmousedown="handlePan(0,1)"/>
  <use id="arrowleft" xlink:href="#arrowLeft" x="0" y="0" onmousedown="handlePan(-1,0)"/>
</g>
<svg viewBox="0 0 15 15" width="100%" height="30px" preserveAspectRatio="xMaxYMin meet">
 <g id="arrow_out" transform="scale(0.3 0.3)">
  <a xlink:href="CouleurCarte_8h__dep__incl_org.svg" target="_base">
   <rect id="button" ry="5" rx="5" y="6" x="6" height="38" width="38"
        fill="#f2f5e9" fill-opacity="0.5" stroke="#606060" stroke-width="1.0"/>
   <path id="arrow"
     d="M 11.500037,31.436501 C 11.940474,20.09759 22.043105,11.32322 32.158766,21.979434 L 37.068811,17.246167 C 37.068811,17.246167 37.088388,32 37.088388,32 L 22.160133,31.978069 C 22.160133,31.978069 26.997745,27.140456 26.997745,27.140456 C 18.528582,18.264221 13.291696,25.230495 11.500037,31.436501 z"
     style="fill:#404040;"/>
  </a>
 </g>
</svg>

<style type='text/css'>
<![CDATA[
[data-mouse-over-selected='false'] { opacity: 0.7; }
[data-mouse-over-selected='true']  { opacity: 1.0; }
]]>
</style>
<script type="application/ecmascript"><![CDATA[
document.addEventListener('DOMContentLoaded', (event) => {
  highlightEdges();
  highlightAdjacentNodes();
});
]]></script>
</svg>
