<?xml version="1.0" encoding="UTF-8" standalone="no"?>
<!DOCTYPE svg PUBLIC "-//W3C//DTD SVG 1.1//EN"
 "http://www.w3.org/Graphics/SVG/1.1/DTD/svg11.dtd">
<!-- Generated by graphviz version 2.43.0 (0)
 -->
<!-- Title: CouleurWagon.h Pages: 1 -->
<svg width="445pt" height="302pt"
 viewBox="0.00 0.00 445.14 302.00" xmlns="http://www.w3.org/2000/svg" xmlns:xlink="http://www.w3.org/1999/xlink">
<g id="graph0" class="graph" transform="scale(1 1) rotate(0) translate(4 298)">
<title>CouleurWagon.h</title>
<!-- Node1 -->
<g id="Node000001" class="node">
<title>Node1</title>
<g id="a_Node000001"><a xlink:title="Définition des couleurs de wagons des joueurs.">
<polygon fill="#999999" stroke="#666666" points="358.5,-294 262.5,-294 262.5,-275 358.5,-275 358.5,-294"/>
<text text-anchor="middle" x="310.5" y="-282" font-family="Helvetica,sans-Serif" font-size="10.00">CouleurWagon.h</text>
</a>
</g>
</g>
<!-- Node2 -->
<g id="Node000002" class="node">
<title>Node2</title>
<g id="a_Node000002"><a xlink:href="Joueur_8cpp.html" target="_top" xlink:title=" ">
<polygon fill="white" stroke="#666666" points="67,-74 0,-74 0,-55 67,-55 67,-74"/>
<text text-anchor="middle" x="33.5" y="-62" font-family="Helvetica,sans-Serif" font-size="10.00">Joueur.cpp</text>
</a>
</g>
</g>
<!-- Node1&#45;&gt;Node2 -->
<g id="edge1_Node000001_Node000002" class="edge">
<title>Node1&#45;&gt;Node2</title>
<g id="a_edge1_Node000001_Node000002"><a xlink:title=" ">
<path fill="none" stroke="#63b8ff" d="M276.27,-271.34C234.19,-255.37 161.79,-224.54 108.5,-184 82.44,-164.18 76.84,-156.77 59.5,-129 48.14,-110.81 39.9,-86.81 36.01,-74.16"/>
<polygon fill="#63b8ff" stroke="#63b8ff" points="275.19,-274.67 285.79,-274.89 277.64,-268.11 275.19,-274.67"/>
</a>
</g>
</g>
<!-- Node3 -->
<g id="Node000003" class="node">
<title>Node3</title>
<g id="a_Node000003"><a xlink:href="Joueur_8h.html" target="_top" xlink:title="Déclaration de la classe Joueur.">
<polygon fill="white" stroke="#666666" points="310.5,-239 254.5,-239 254.5,-220 310.5,-220 310.5,-239"/>
<text text-anchor="middle" x="282.5" y="-227" font-family="Helvetica,sans-Serif" font-size="10.00">Joueur.h</text>
</a>
</g>
</g>
<!-- Node1&#45;&gt;Node3 -->
<g id="edge2_Node000001_Node000003" class="edge">
<title>Node1&#45;&gt;Node3</title>
<g id="a_edge2_Node000001_Node000003"><a xlink:title=" ">
<path fill="none" stroke="#63b8ff" d="M301.16,-265.82C296.41,-256.82 290.84,-246.29 287.04,-239.09"/>
<polygon fill="#63b8ff" stroke="#63b8ff" points="298.11,-267.54 305.88,-274.75 304.3,-264.27 298.11,-267.54"/>
</a>
</g>
</g>
<!-- Node6 -->
<g id="Node000006" class="node">
<title>Node6</title>
<g id="a_Node000006"><a xlink:href="main_8cpp.html" target="_top" xlink:title="Point d&#39;entrée du jeu Les Aventuriers du Rail.">
<polygon fill="white" stroke="#666666" points="247.5,-19 185.5,-19 185.5,0 247.5,0 247.5,-19"/>
<text text-anchor="middle" x="216.5" y="-7" font-family="Helvetica,sans-Serif" font-size="10.00">main.cpp</text>
</a>
</g>
</g>
<!-- Node1&#45;&gt;Node6 -->
<g id="edge21_Node000001_Node000006" class="edge">
<title>Node1&#45;&gt;Node6</title>
<g id="a_edge21_Node000001_Node000006"><a xlink:title=" ">
<path fill="none" stroke="#63b8ff" d="M345.24,-271.01C382.54,-255.11 436.5,-223.77 436.5,-175.5 436.5,-175.5 436.5,-175.5 436.5,-118.5 436.5,-89.04 439.08,-75.06 417.5,-55 393.09,-32.31 297.57,-19.06 247.5,-13.54"/>
<polygon fill="#63b8ff" stroke="#63b8ff" points="343.63,-267.89 335.7,-274.91 346.28,-274.37 343.63,-267.89"/>
</a>
</g>
</g>
<!-- Node9 -->
<g id="Node000009" class="node">
<title>Node9</title>
<g id="a_Node000009"><a xlink:href="Route_8h.html" target="_top" xlink:title="Déclaration de la classe Route.">
<polygon fill="white" stroke="#666666" points="365.5,-184 311.5,-184 311.5,-165 365.5,-165 365.5,-184"/>
<text text-anchor="middle" x="338.5" y="-172" font-family="Helvetica,sans-Serif" font-size="10.00">Route.h</text>
</a>
</g>
</g>
<!-- Node1&#45;&gt;Node9 -->
<g id="edge20_Node000001_Node000009" class="edge">
<title>Node1&#45;&gt;Node9</title>
<g id="a_edge20_Node000001_Node000009"><a xlink:title=" ">
<path fill="none" stroke="#63b8ff" d="M315.35,-264.8C321.47,-241.2 331.74,-201.58 336.26,-184.16"/>
<polygon fill="#63b8ff" stroke="#63b8ff" points="311.91,-264.1 312.79,-274.66 318.69,-265.86 311.91,-264.1"/>
</a>
</g>
</g>
<!-- Node3&#45;&gt;Node2 -->
<g id="edge6_Node000003_Node000002" class="edge">
<title>Node3&#45;&gt;Node2</title>
<g id="a_edge6_Node000003_Node000002"><a xlink:title=" ">
<path fill="none" stroke="#63b8ff" d="M244.18,-223C212.95,-217.15 168.73,-205.63 135.5,-184 88.86,-153.64 51.51,-95.92 38.48,-74.12"/>
<polygon fill="#63b8ff" stroke="#63b8ff" points="243.79,-226.48 254.24,-224.77 245,-219.59 243.79,-226.48"/>
</a>
</g>
</g>
<!-- Node4 -->
<g id="Node000004" class="node">
<title>Node4</title>
<g id="a_Node000004"><a xlink:href="Affichage_8h.html" target="_top" xlink:title=" ">
<polygon fill="white" stroke="#666666" points="156,-74 85,-74 85,-55 156,-55 156,-74"/>
<text text-anchor="middle" x="120.5" y="-62" font-family="Helvetica,sans-Serif" font-size="10.00">Affichage.h</text>
</a>
</g>
</g>
<!-- Node3&#45;&gt;Node4 -->
<g id="edge3_Node000003_Node000004" class="edge">
<title>Node3&#45;&gt;Node4</title>
<g id="a_edge3_Node000003_Node000004"><a xlink:title=" ">
<path fill="none" stroke="#63b8ff" d="M244.38,-225.2C215.02,-220.64 175.51,-209.79 151.5,-184 121.94,-152.25 119.81,-95.85 120.16,-74.25"/>
<polygon fill="#63b8ff" stroke="#63b8ff" points="243.92,-228.67 254.3,-226.56 244.87,-221.73 243.92,-228.67"/>
</a>
</g>
</g>
<!-- Node3&#45;&gt;Node6 -->
<g id="edge19_Node000003_Node000006" class="edge">
<title>Node3&#45;&gt;Node6</title>
<g id="a_edge19_Node000003_Node000006"><a xlink:title=" ">
<path fill="none" stroke="#63b8ff" d="M260.26,-214.01C236.36,-196.96 199.74,-166.2 184.5,-129 168.26,-89.37 197.25,-38.92 210.45,-19.07"/>
<polygon fill="#63b8ff" stroke="#63b8ff" points="258.51,-217.05 268.73,-219.86 262.49,-211.29 258.51,-217.05"/>
</a>
</g>
</g>
<!-- Node7 -->
<g id="Node000007" class="node">
<title>Node7</title>
<g id="a_Node000007"><a xlink:href="Plateau_8cpp.html" target="_top" xlink:title=" ">
<polygon fill="white" stroke="#666666" points="408.5,-74 334.5,-74 334.5,-55 408.5,-55 408.5,-74"/>
<text text-anchor="middle" x="371.5" y="-62" font-family="Helvetica,sans-Serif" font-size="10.00">Plateau.cpp</text>
</a>
</g>
</g>
<!-- Node3&#45;&gt;Node7 -->
<g id="edge7_Node000003_Node000007" class="edge">
<title>Node3&#45;&gt;Node7</title>
<g id="a_edge7_Node000003_Node000007"><a xlink:title=" ">
<path fill="none" stroke="#63b8ff" d="M320.51,-220.34C340.24,-213.97 362.65,-202.9 374.5,-184 396.7,-148.61 381.8,-94.83 374.69,-74.08"/>
<polygon fill="#63b8ff" stroke="#63b8ff" points="319.41,-217.02 310.8,-223.18 321.38,-223.73 319.41,-217.02"/>
</a>
</g>
</g>
<!-- Node8 -->
<g id="Node000008" class="node">
<title>Node8</title>
<g id="a_Node000008"><a xlink:href="Route_8cpp.html" target="_top" xlink:title=" ">
<polygon fill="white" stroke="#666666" points="316,-74 251,-74 251,-55 316,-55 316,-74"/>
<text text-anchor="middle" x="283.5" y="-62" font-family="Helvetica,sans-Serif" font-size="10.00">Route.cpp</text>
</a>
</g>
</g>
<!-- Node3&#45;&gt;Node8 -->
<g id="edge8_Node000003_Node000008" class="edge">
<title>Node3&#45;&gt;Node8</title>
<g id="a_edge8_Node000003_Node000008"><a xlink:title=" ">
<path fill="none" stroke="#63b8ff" d="M282.62,-209.37C282.83,-174.03 283.29,-99.79 283.45,-74.31"/>
<polygon fill="#63b8ff" stroke="#63b8ff" points="279.12,-209.72 282.55,-219.74 286.12,-209.76 279.12,-209.72"/>
</a>
</g>
</g>
<!-- Node3&#45;&gt;Node9 -->
<g id="edge9_Node000003_Node000009" class="edge">
<title>Node3&#45;&gt;Node9</title>
<g id="a_edge9_Node000003_Node000009"><a xlink:title=" ">
<path fill="none" stroke="#63b8ff" d="M293.4,-212.24C302.32,-202.95 314.62,-191.68 324.29,-184.09"/>
<polygon fill="#63b8ff" stroke="#63b8ff" points="290.71,-209.99 286.58,-219.75 295.9,-214.7 290.71,-209.99"/>
</a>
</g>
</g>
<!-- Node5 -->
<g id="Node000005" class="node">
<title>Node5</title>
<g id="a_Node000005"><a xlink:href="Affichage_8cpp.html" target="_top" xlink:title=" ">
<polygon fill="white" stroke="#666666" points="162,-19 79,-19 79,0 162,0 162,-19"/>
<text text-anchor="middle" x="120.5" y="-7" font-family="Helvetica,sans-Serif" font-size="10.00">Affichage.cpp</text>
</a>
</g>
</g>
<!-- Node4&#45;&gt;Node5 -->
<g id="edge4_Node000004_Node000005" class="edge">
<title>Node4&#45;&gt;Node5</title>
<g id="a_edge4_Node000004_Node000005"><a xlink:title=" ">
<path fill="none" stroke="#63b8ff" d="M120.5,-44.66C120.5,-35.93 120.5,-25.99 120.5,-19.09"/>
<polygon fill="#63b8ff" stroke="#63b8ff" points="117,-44.75 120.5,-54.75 124,-44.75 117,-44.75"/>
</a>
</g>
</g>
<!-- Node4&#45;&gt;Node6 -->
<g id="edge5_Node000004_Node000006" class="edge">
<title>Node4&#45;&gt;Node6</title>
<g id="a_edge5_Node000004_Node000006"><a xlink:title=" ">
<path fill="none" stroke="#63b8ff" d="M145.02,-49.97C162.56,-40.28 185.67,-27.52 200.8,-19.17"/>
<polygon fill="#63b8ff" stroke="#63b8ff" points="142.99,-47.09 135.92,-54.98 146.37,-53.22 142.99,-47.09"/>
</a>
</g>
</g>
<!-- Node9&#45;&gt;Node3 -->
<g id="edge10_Node000009_Node000003" class="edge">
<title>Node9&#45;&gt;Node3</title>
<g id="a_edge10_Node000009_Node000003"><a xlink:title=" ">
<path fill="none" stroke="#63b8ff" d="M327.65,-191.71C318.7,-201.04 306.32,-212.38 296.61,-219.98"/>
<polygon fill="#63b8ff" stroke="#63b8ff" points="330.36,-193.93 334.49,-184.17 325.18,-189.23 330.36,-193.93"/>
</a>
</g>
</g>
<!-- Node9&#45;&gt;Node7 -->
<g id="edge11_Node000009_Node000007" class="edge">
<title>Node9&#45;&gt;Node7</title>
<g id="a_edge11_Node000009_Node000007"><a xlink:title=" ">
<path fill="none" stroke="#63b8ff" d="M344.21,-154.8C351.42,-131.2 363.53,-91.58 368.85,-74.16"/>
<polygon fill="#63b8ff" stroke="#63b8ff" points="340.78,-154.08 341.2,-164.66 347.47,-156.12 340.78,-154.08"/>
</a>
</g>
</g>
<!-- Node9&#45;&gt;Node8 -->
<g id="edge18_Node000009_Node000008" class="edge">
<title>Node9&#45;&gt;Node8</title>
<g id="a_edge18_Node000009_Node000008"><a xlink:title=" ">
<path fill="none" stroke="#63b8ff" d="M329.3,-155.44C317.33,-131.92 296.86,-91.73 287.91,-74.16"/>
<polygon fill="#63b8ff" stroke="#63b8ff" points="326.34,-157.34 334,-164.66 332.58,-154.16 326.34,-157.34"/>
</a>
</g>
</g>
<!-- Node10 -->
<g id="Node000010" class="node">
<title>Node10</title>
<g id="a_Node000010"><a xlink:href="Plateau_8h.html" target="_top" xlink:title="Déclaration de la classe Plateau.">
<polygon fill="white" stroke="#666666" points="255.5,-129 193.5,-129 193.5,-110 255.5,-110 255.5,-129"/>
<text text-anchor="middle" x="224.5" y="-117" font-family="Helvetica,sans-Serif" font-size="10.00">Plateau.h</text>
</a>
</g>
</g>
<!-- Node9&#45;&gt;Node10 -->
<g id="edge12_Node000009_Node000010" class="edge">
<title>Node9&#45;&gt;Node10</title>
<g id="a_edge12_Node000009_Node000010"><a xlink:title=" ">
<path fill="none" stroke="#63b8ff" d="M311.11,-160.77C290.08,-150.99 261.61,-137.75 243.15,-129.17"/>
<polygon fill="#63b8ff" stroke="#63b8ff" points="309.64,-163.94 320.18,-164.98 312.59,-157.6 309.64,-163.94"/>
</a>
</g>
</g>
<!-- Node10&#45;&gt;Node2 -->
<g id="edge14_Node000010_Node000002" class="edge">
<title>Node10&#45;&gt;Node2</title>
<g id="a_edge14_Node000010_Node000002"><a xlink:title=" ">
<path fill="none" stroke="#63b8ff" d="M183.72,-107.18C148,-97.27 96.87,-83.08 64.43,-74.08"/>
<polygon fill="#63b8ff" stroke="#63b8ff" points="183.24,-110.68 193.81,-109.98 185.11,-103.94 183.24,-110.68"/>
</a>
</g>
</g>
<!-- Node10&#45;&gt;Node4 -->
<g id="edge13_Node000010_Node000004" class="edge">
<title>Node10&#45;&gt;Node4</title>
<g id="a_edge13_Node000010_Node000004"><a xlink:title=" ">
<path fill="none" stroke="#63b8ff" d="M198.73,-105.37C179.63,-95.63 154.13,-82.64 137.51,-74.17"/>
<polygon fill="#63b8ff" stroke="#63b8ff" points="197.29,-108.56 207.79,-109.98 200.47,-102.33 197.29,-108.56"/>
</a>
</g>
</g>
<!-- Node10&#45;&gt;Node6 -->
<g id="edge17_Node000010_Node000006" class="edge">
<title>Node10&#45;&gt;Node6</title>
<g id="a_edge17_Node000010_Node000006"><a xlink:title=" ">
<path fill="none" stroke="#63b8ff" d="M223.09,-99.48C221.34,-75.84 218.43,-36.5 217.14,-19.16"/>
<polygon fill="#63b8ff" stroke="#63b8ff" points="219.62,-99.95 223.85,-109.66 226.6,-99.43 219.62,-99.95"/>
</a>
</g>
</g>
<!-- Node10&#45;&gt;Node7 -->
<g id="edge15_Node000010_Node000007" class="edge">
<title>Node10&#45;&gt;Node7</title>
<g id="a_edge15_Node000010_Node000007"><a xlink:title=" ">
<path fill="none" stroke="#63b8ff" d="M257.64,-106.55C284.94,-96.71 323,-82.98 347.45,-74.17"/>
<polygon fill="#63b8ff" stroke="#63b8ff" points="256.34,-103.3 248.12,-109.98 258.71,-109.89 256.34,-103.3"/>
</a>
</g>
</g>
<!-- Node10&#45;&gt;Node8 -->
<g id="edge16_Node000010_Node000008" class="edge">
<title>Node10&#45;&gt;Node8</title>
<g id="a_edge16_Node000010_Node000008"><a xlink:title=" ">
<path fill="none" stroke="#63b8ff" d="M241.7,-103.04C252.17,-93.64 265.15,-81.98 273.85,-74.17"/>
<polygon fill="#63b8ff" stroke="#63b8ff" points="239.08,-100.7 233.98,-109.98 243.76,-105.91 239.08,-100.7"/>
</a>
</g>
</g>
</g>
</svg>
