<?xml version="1.0" encoding="UTF-8" standalone="no"?>
<!DOCTYPE svg PUBLIC "-//W3C//DTD SVG 1.1//EN"
 "http://www.w3.org/Graphics/SVG/1.1/DTD/svg11.dtd">
<!-- Generated by graphviz version 2.43.0 (0)
 -->
<!-- Title: Joueur.h Pages: 1 -->
<svg width="436pt" height="247pt"
 viewBox="0.00 0.00 436.00 247.00" xmlns="http://www.w3.org/2000/svg" xmlns:xlink="http://www.w3.org/1999/xlink">
<g id="graph0" class="graph" transform="scale(1 1) rotate(0) translate(4 243)">
<title>Joueur.h</title>
<!-- Node1 -->
<g id="Node000001" class="node">
<title>Node1</title>
<g id="a_Node000001"><a xlink:title="Déclaration de la classe Joueur.">
<polygon fill="#999999" stroke="#666666" points="317.5,-239 261.5,-239 261.5,-220 317.5,-220 317.5,-239"/>
<text text-anchor="middle" x="289.5" y="-227" font-family="Helvetica,sans-Serif" font-size="10.00">Joueur.h</text>
</a>
</g>
</g>
<!-- Node2 -->
<g id="Node000002" class="node">
<title>Node2</title>
<g id="a_Node000002"><a xlink:href="Affichage_8h.html" target="_top" xlink:title=" ">
<polygon fill="white" stroke="#666666" points="90,-74 19,-74 19,-55 90,-55 90,-74"/>
<text text-anchor="middle" x="54.5" y="-62" font-family="Helvetica,sans-Serif" font-size="10.00">Affichage.h</text>
</a>
</g>
</g>
<!-- Node1&#45;&gt;Node2 -->
<g id="edge1_Node000001_Node000002" class="edge">
<title>Node1&#45;&gt;Node2</title>
<g id="a_edge1_Node000001_Node000002"><a xlink:title=" ">
<path fill="none" stroke="#63b8ff" d="M251.15,-228.98C210.27,-227.48 145.86,-219.1 104.5,-184 69.6,-154.38 58.53,-96.21 55.51,-74.21"/>
<polygon fill="#63b8ff" stroke="#63b8ff" points="251.18,-232.48 261.26,-229.23 251.35,-225.48 251.18,-232.48"/>
</a>
</g>
</g>
<!-- Node4 -->
<g id="Node000004" class="node">
<title>Node4</title>
<g id="a_Node000004"><a xlink:href="main_8cpp.html" target="_top" xlink:title="Point d&#39;entrée du jeu Les Aventuriers du Rail.">
<polygon fill="white" stroke="#666666" points="163.5,-19 101.5,-19 101.5,0 163.5,0 163.5,-19"/>
<text text-anchor="middle" x="132.5" y="-7" font-family="Helvetica,sans-Serif" font-size="10.00">main.cpp</text>
</a>
</g>
</g>
<!-- Node1&#45;&gt;Node4 -->
<g id="edge17_Node000001_Node000004" class="edge">
<title>Node1&#45;&gt;Node4</title>
<g id="a_edge17_Node000001_Node000004"><a xlink:title=" ">
<path fill="none" stroke="#63b8ff" d="M260.46,-215.31C245.38,-207.57 227.29,-196.8 213.5,-184 169.94,-143.58 157.41,-129.99 137.5,-74 130.83,-55.24 131.07,-31.47 131.8,-19.01"/>
<polygon fill="#63b8ff" stroke="#63b8ff" points="259.33,-218.66 269.85,-219.95 262.43,-212.39 259.33,-218.66"/>
</a>
</g>
</g>
<!-- Node5 -->
<g id="Node000005" class="node">
<title>Node5</title>
<g id="a_Node000005"><a xlink:href="Joueur_8cpp.html" target="_top" xlink:title=" ">
<polygon fill="white" stroke="#666666" points="214,-74 147,-74 147,-55 214,-55 214,-74"/>
<text text-anchor="middle" x="180.5" y="-62" font-family="Helvetica,sans-Serif" font-size="10.00">Joueur.cpp</text>
</a>
</g>
</g>
<!-- Node1&#45;&gt;Node5 -->
<g id="edge4_Node000001_Node000005" class="edge">
<title>Node1&#45;&gt;Node5</title>
<g id="a_edge4_Node000001_Node000005"><a xlink:title=" ">
<path fill="none" stroke="#63b8ff" d="M268.48,-213.85C245.3,-196.46 208.88,-165.23 190.5,-129 181.41,-111.09 180.16,-86.97 180.22,-74.23"/>
<polygon fill="#63b8ff" stroke="#63b8ff" points="266.5,-216.74 276.64,-219.82 270.63,-211.09 266.5,-216.74"/>
</a>
</g>
</g>
<!-- Node6 -->
<g id="Node000006" class="node">
<title>Node6</title>
<g id="a_Node000006"><a xlink:href="Plateau_8cpp.html" target="_top" xlink:title=" ">
<polygon fill="white" stroke="#666666" points="344.5,-74 270.5,-74 270.5,-55 344.5,-55 344.5,-74"/>
<text text-anchor="middle" x="307.5" y="-62" font-family="Helvetica,sans-Serif" font-size="10.00">Plateau.cpp</text>
</a>
</g>
</g>
<!-- Node1&#45;&gt;Node6 -->
<g id="edge5_Node000001_Node000006" class="edge">
<title>Node1&#45;&gt;Node6</title>
<g id="a_edge5_Node000001_Node000006"><a xlink:title=" ">
<path fill="none" stroke="#63b8ff" d="M291.61,-209.37C295.52,-174.03 303.71,-99.79 306.53,-74.31"/>
<polygon fill="#63b8ff" stroke="#63b8ff" points="288.09,-209.41 290.47,-219.74 295.04,-210.18 288.09,-209.41"/>
</a>
</g>
</g>
<!-- Node7 -->
<g id="Node000007" class="node">
<title>Node7</title>
<g id="a_Node000007"><a xlink:href="Route_8cpp.html" target="_top" xlink:title=" ">
<polygon fill="white" stroke="#666666" points="428,-74 363,-74 363,-55 428,-55 428,-74"/>
<text text-anchor="middle" x="395.5" y="-62" font-family="Helvetica,sans-Serif" font-size="10.00">Route.cpp</text>
</a>
</g>
</g>
<!-- Node1&#45;&gt;Node7 -->
<g id="edge6_Node000001_Node000007" class="edge">
<title>Node1&#45;&gt;Node7</title>
<g id="a_edge6_Node000001_Node000007"><a xlink:title=" ">
<path fill="none" stroke="#63b8ff" d="M327.25,-219.27C346.25,-212.64 367.87,-201.66 380.5,-184 404.99,-149.76 400.07,-95.31 396.99,-74.23"/>
<polygon fill="#63b8ff" stroke="#63b8ff" points="326.08,-215.97 317.62,-222.35 328.21,-222.64 326.08,-215.97"/>
</a>
</g>
</g>
<!-- Node8 -->
<g id="Node000008" class="node">
<title>Node8</title>
<g id="a_Node000008"><a xlink:href="Route_8h.html" target="_top" xlink:title="Déclaration de la classe Route.">
<polygon fill="white" stroke="#666666" points="371.5,-184 317.5,-184 317.5,-165 371.5,-165 371.5,-184"/>
<text text-anchor="middle" x="344.5" y="-172" font-family="Helvetica,sans-Serif" font-size="10.00">Route.h</text>
</a>
</g>
</g>
<!-- Node1&#45;&gt;Node8 -->
<g id="edge7_Node000001_Node000008" class="edge">
<title>Node1&#45;&gt;Node8</title>
<g id="a_edge7_Node000001_Node000008"><a xlink:title=" ">
<path fill="none" stroke="#63b8ff" d="M300.09,-212.24C308.84,-202.95 320.92,-191.68 330.46,-184.09"/>
<polygon fill="#63b8ff" stroke="#63b8ff" points="297.45,-209.95 293.42,-219.75 302.68,-214.6 297.45,-209.95"/>
</a>
</g>
</g>
<!-- Node3 -->
<g id="Node000003" class="node">
<title>Node3</title>
<g id="a_Node000003"><a xlink:href="Affichage_8cpp.html" target="_top" xlink:title=" ">
<polygon fill="white" stroke="#666666" points="83,-19 0,-19 0,0 83,0 83,-19"/>
<text text-anchor="middle" x="41.5" y="-7" font-family="Helvetica,sans-Serif" font-size="10.00">Affichage.cpp</text>
</a>
</g>
</g>
<!-- Node2&#45;&gt;Node3 -->
<g id="edge2_Node000002_Node000003" class="edge">
<title>Node2&#45;&gt;Node3</title>
<g id="a_edge2_Node000002_Node000003"><a xlink:title=" ">
<path fill="none" stroke="#63b8ff" d="M49.95,-44.95C47.79,-36.15 45.32,-26.06 43.61,-19.09"/>
<polygon fill="#63b8ff" stroke="#63b8ff" points="46.57,-45.87 52.35,-54.75 53.37,-44.2 46.57,-45.87"/>
</a>
</g>
</g>
<!-- Node2&#45;&gt;Node4 -->
<g id="edge3_Node000002_Node000004" class="edge">
<title>Node2&#45;&gt;Node4</title>
<g id="a_edge3_Node000002_Node000004"><a xlink:title=" ">
<path fill="none" stroke="#63b8ff" d="M75.62,-49.15C89.71,-39.57 107.79,-27.29 119.74,-19.17"/>
<polygon fill="#63b8ff" stroke="#63b8ff" points="73.34,-46.47 67.03,-54.98 77.27,-52.26 73.34,-46.47"/>
</a>
</g>
</g>
<!-- Node8&#45;&gt;Node1 -->
<g id="edge8_Node000008_Node000001" class="edge">
<title>Node8&#45;&gt;Node1</title>
<g id="a_edge8_Node000008_Node000001"><a xlink:title=" ">
<path fill="none" stroke="#63b8ff" d="M333.96,-191.71C325.18,-201.04 313.02,-212.38 303.45,-219.98"/>
<polygon fill="#63b8ff" stroke="#63b8ff" points="336.63,-193.97 340.65,-184.17 331.39,-189.32 336.63,-193.97"/>
</a>
</g>
</g>
<!-- Node8&#45;&gt;Node6 -->
<g id="edge9_Node000008_Node000006" class="edge">
<title>Node8&#45;&gt;Node6</title>
<g id="a_edge9_Node000008_Node000006"><a xlink:title=" ">
<path fill="none" stroke="#63b8ff" d="M338.2,-155.12C330.13,-131.56 316.46,-91.66 310.47,-74.16"/>
<polygon fill="#63b8ff" stroke="#63b8ff" points="334.92,-156.34 341.47,-164.66 341.54,-154.07 334.92,-156.34"/>
</a>
</g>
</g>
<!-- Node8&#45;&gt;Node7 -->
<g id="edge16_Node000008_Node000007" class="edge">
<title>Node8&#45;&gt;Node7</title>
<g id="a_edge16_Node000008_Node000007"><a xlink:title=" ">
<path fill="none" stroke="#63b8ff" d="M353.03,-155.44C364.13,-131.92 383.11,-91.73 391.41,-74.16"/>
<polygon fill="#63b8ff" stroke="#63b8ff" points="349.78,-154.12 348.67,-164.66 356.11,-157.11 349.78,-154.12"/>
</a>
</g>
</g>
<!-- Node9 -->
<g id="Node000009" class="node">
<title>Node9</title>
<g id="a_Node000009"><a xlink:href="Plateau_8h.html" target="_top" xlink:title="Déclaration de la classe Plateau.">
<polygon fill="white" stroke="#666666" points="261.5,-129 199.5,-129 199.5,-110 261.5,-110 261.5,-129"/>
<text text-anchor="middle" x="230.5" y="-117" font-family="Helvetica,sans-Serif" font-size="10.00">Plateau.h</text>
</a>
</g>
</g>
<!-- Node8&#45;&gt;Node9 -->
<g id="edge10_Node000008_Node000009" class="edge">
<title>Node8&#45;&gt;Node9</title>
<g id="a_edge10_Node000008_Node000009"><a xlink:title=" ">
<path fill="none" stroke="#63b8ff" d="M317.11,-160.77C296.08,-150.99 267.61,-137.75 249.15,-129.17"/>
<polygon fill="#63b8ff" stroke="#63b8ff" points="315.64,-163.94 326.18,-164.98 318.59,-157.6 315.64,-163.94"/>
</a>
</g>
</g>
<!-- Node9&#45;&gt;Node2 -->
<g id="edge11_Node000009_Node000002" class="edge">
<title>Node9&#45;&gt;Node2</title>
<g id="a_edge11_Node000009_Node000002"><a xlink:title=" ">
<path fill="none" stroke="#63b8ff" d="M192.5,-107.06C159.6,-97.15 112.76,-83.04 83,-74.08"/>
<polygon fill="#63b8ff" stroke="#63b8ff" points="191.64,-110.45 202.22,-109.98 193.66,-103.75 191.64,-110.45"/>
</a>
</g>
</g>
<!-- Node9&#45;&gt;Node4 -->
<g id="edge15_Node000009_Node000004" class="edge">
<title>Node9&#45;&gt;Node4</title>
<g id="a_edge15_Node000009_Node000004"><a xlink:title=" ">
<path fill="none" stroke="#63b8ff" d="M232.59,-99.64C233.11,-86.04 231.66,-67.87 222.5,-55 208.65,-35.54 183.85,-24.17 163.79,-17.79"/>
<polygon fill="#63b8ff" stroke="#63b8ff" points="229.09,-99.54 231.82,-109.78 236.07,-100.08 229.09,-99.54"/>
</a>
</g>
</g>
<!-- Node9&#45;&gt;Node5 -->
<g id="edge12_Node000009_Node000005" class="edge">
<title>Node9&#45;&gt;Node5</title>
<g id="a_edge12_Node000009_Node000005"><a xlink:title=" ">
<path fill="none" stroke="#63b8ff" d="M215.16,-102.24C206.4,-92.95 195.76,-81.68 188.6,-74.09"/>
<polygon fill="#63b8ff" stroke="#63b8ff" points="212.84,-104.88 222.24,-109.75 217.93,-100.07 212.84,-104.88"/>
</a>
</g>
</g>
<!-- Node9&#45;&gt;Node6 -->
<g id="edge13_Node000009_Node000006" class="edge">
<title>Node9&#45;&gt;Node6</title>
<g id="a_edge13_Node000009_Node000006"><a xlink:title=" ">
<path fill="none" stroke="#63b8ff" d="M251.35,-104.15C265.26,-94.57 283.11,-82.29 294.9,-74.17"/>
<polygon fill="#63b8ff" stroke="#63b8ff" points="249.12,-101.43 242.87,-109.98 253.09,-107.2 249.12,-101.43"/>
</a>
</g>
</g>
<!-- Node9&#45;&gt;Node7 -->
<g id="edge14_Node000009_Node000007" class="edge">
<title>Node9&#45;&gt;Node7</title>
<g id="a_edge14_Node000009_Node000007"><a xlink:title=" ">
<path fill="none" stroke="#63b8ff" d="M266.93,-106.8C297.72,-96.91 341.12,-82.97 368.78,-74.08"/>
<polygon fill="#63b8ff" stroke="#63b8ff" points="265.46,-103.59 257.01,-109.98 267.6,-110.26 265.46,-103.59"/>
</a>
</g>
</g>
</g>
</svg>
