<?xml version="1.0" encoding="UTF-8" standalone="no"?>
<!DOCTYPE svg PUBLIC "-//W3C//DTD SVG 1.1//EN"
 "http://www.w3.org/Graphics/SVG/1.1/DTD/svg11.dtd">
<!-- Generated by graphviz version 2.43.0 (0)
 -->
<!-- Title: Joueur.h Pages: 1 -->
<svg width="498pt" height="192pt"
 viewBox="0.00 0.00 498.07 192.00" xmlns="http://www.w3.org/2000/svg" xmlns:xlink="http://www.w3.org/1999/xlink">
<g id="graph0" class="graph" transform="scale(1 1) rotate(0) translate(4 188)">
<title>Joueur.h</title>
<!-- Node1 -->
<g id="Node000001" class="node">
<title>Node1</title>
<g id="a_Node000001"><a xlink:title="Déclaration de la classe Joueur.">
<polygon fill="#999999" stroke="#666666" points="285.07,-184 229.07,-184 229.07,-165 285.07,-165 285.07,-184"/>
<text text-anchor="middle" x="257.07" y="-172" font-family="Helvetica,sans-Serif" font-size="10.00">Joueur.h</text>
</a>
</g>
</g>
<!-- Node2 -->
<g id="Node000002" class="node">
<title>Node2</title>
<g id="a_Node000002"><a xlink:title=" ">
<polygon fill="#e0e0e0" stroke="#999999" points="150.07,-19 106.07,-19 106.07,0 150.07,0 150.07,-19"/>
<text text-anchor="middle" x="128.07" y="-7" font-family="Helvetica,sans-Serif" font-size="10.00">string</text>
</a>
</g>
</g>
<!-- Node1&#45;&gt;Node2 -->
<g id="edge1_Node000001_Node000002" class="edge">
<title>Node1&#45;&gt;Node2</title>
<g id="a_edge1_Node000001_Node000002"><a xlink:title=" ">
<path fill="none" stroke="#63b8ff" d="M229.06,-174.06C185.36,-173.63 99.89,-167.42 41.07,-129 15.98,-112.61 11.16,-102.55 2.07,-74 -11.13,-32.58 54.52,-18.07 96.04,-13.07"/>
<polygon fill="#63b8ff" stroke="#63b8ff" points="96.45,-16.54 106.01,-11.99 95.7,-9.58 96.45,-16.54"/>
</a>
</g>
</g>
<!-- Node3 -->
<g id="Node000003" class="node">
<title>Node3</title>
<g id="a_Node000003"><a xlink:title=" ">
<polygon fill="#e0e0e0" stroke="#999999" points="433.57,-129 386.57,-129 386.57,-110 433.57,-110 433.57,-129"/>
<text text-anchor="middle" x="410.07" y="-117" font-family="Helvetica,sans-Serif" font-size="10.00">vector</text>
</a>
</g>
</g>
<!-- Node1&#45;&gt;Node3 -->
<g id="edge2_Node000001_Node000003" class="edge">
<title>Node1&#45;&gt;Node3</title>
<g id="a_edge2_Node000001_Node000003"><a xlink:title=" ">
<path fill="none" stroke="#63b8ff" d="M281.65,-164.98C307.49,-156.03 348.3,-141.9 376.96,-131.97"/>
<polygon fill="#63b8ff" stroke="#63b8ff" points="378.25,-135.23 386.55,-128.65 375.96,-128.61 378.25,-135.23"/>
</a>
</g>
</g>
<!-- Node4 -->
<g id="Node000004" class="node">
<title>Node4</title>
<g id="a_Node000004"><a xlink:title=" ">
<polygon fill="#e0e0e0" stroke="#999999" points="490.07,-129 452.07,-129 452.07,-110 490.07,-110 490.07,-129"/>
<text text-anchor="middle" x="471.07" y="-117" font-family="Helvetica,sans-Serif" font-size="10.00">map</text>
</a>
</g>
</g>
<!-- Node1&#45;&gt;Node4 -->
<g id="edge3_Node000001_Node000004" class="edge">
<title>Node1&#45;&gt;Node4</title>
<g id="a_edge3_Node000001_Node000004"><a xlink:title=" ">
<path fill="none" stroke="#63b8ff" d="M285.24,-167.31C319.94,-159.57 380.87,-145.59 442.02,-129.16"/>
<polygon fill="#63b8ff" stroke="#63b8ff" points="443.09,-132.5 451.83,-126.5 441.26,-125.74 443.09,-132.5"/>
</a>
</g>
</g>
<!-- Node5 -->
<g id="Node000005" class="node">
<title>Node5</title>
<g id="a_Node000005"><a xlink:href="CouleurWagon_8h.html" target="_top" xlink:title="Définition des couleurs de wagons des joueurs.">
<polygon fill="white" stroke="#666666" points="362.07,-74 266.07,-74 266.07,-55 362.07,-55 362.07,-74"/>
<text text-anchor="middle" x="314.07" y="-62" font-family="Helvetica,sans-Serif" font-size="10.00">CouleurWagon.h</text>
</a>
</g>
</g>
<!-- Node1&#45;&gt;Node5 -->
<g id="edge4_Node000001_Node000005" class="edge">
<title>Node1&#45;&gt;Node5</title>
<g id="a_edge4_Node000001_Node000005"><a xlink:title=" ">
<path fill="none" stroke="#63b8ff" d="M261.73,-164.66C271.13,-146.85 292.5,-106.37 304.83,-83.01"/>
<polygon fill="#63b8ff" stroke="#63b8ff" points="307.92,-84.64 309.5,-74.16 301.73,-81.37 307.92,-84.64"/>
</a>
</g>
</g>
<!-- Node6 -->
<g id="Node000006" class="node">
<title>Node6</title>
<g id="a_Node000006"><a xlink:href="Ticket_8h.html" target="_top" xlink:title="Déclaration de la classe Ticket.">
<polygon fill="white" stroke="#666666" points="368.57,-129 313.57,-129 313.57,-110 368.57,-110 368.57,-129"/>
<text text-anchor="middle" x="341.07" y="-117" font-family="Helvetica,sans-Serif" font-size="10.00">Ticket.h</text>
</a>
</g>
</g>
<!-- Node1&#45;&gt;Node6 -->
<g id="edge5_Node000001_Node000006" class="edge">
<title>Node1&#45;&gt;Node6</title>
<g id="a_edge5_Node000001_Node000006"><a xlink:title=" ">
<path fill="none" stroke="#63b8ff" d="M270.56,-164.98C283.47,-156.84 303.17,-144.41 318.47,-134.76"/>
<polygon fill="#63b8ff" stroke="#63b8ff" points="320.74,-137.47 327.33,-129.17 317,-131.55 320.74,-137.47"/>
</a>
</g>
</g>
<!-- Node8 -->
<g id="Node000008" class="node">
<title>Node8</title>
<g id="a_Node000008"><a xlink:href="CarteTrain_8h.html" target="_top" xlink:title="Description de la classe CarteTrain.">
<polygon fill="white" stroke="#666666" points="124.57,-129 49.57,-129 49.57,-110 124.57,-110 124.57,-129"/>
<text text-anchor="middle" x="87.07" y="-117" font-family="Helvetica,sans-Serif" font-size="10.00">CarteTrain.h</text>
</a>
</g>
</g>
<!-- Node1&#45;&gt;Node8 -->
<g id="edge9_Node000001_Node000008" class="edge">
<title>Node1&#45;&gt;Node8</title>
<g id="a_edge9_Node000001_Node000008"><a xlink:title=" ">
<path fill="none" stroke="#63b8ff" d="M229.75,-164.98C201.21,-156.09 156.24,-142.07 124.42,-132.15"/>
<polygon fill="#63b8ff" stroke="#63b8ff" points="125.18,-128.72 114.59,-129.08 123.1,-135.4 125.18,-128.72"/>
</a>
</g>
</g>
<!-- Node10 -->
<g id="Node000010" class="node">
<title>Node10</title>
<g id="a_Node000010"><a xlink:href="Route_8h.html" target="_top" xlink:title="Déclaration de la classe Route.">
<polygon fill="white" stroke="#666666" points="257.07,-129 203.07,-129 203.07,-110 257.07,-110 257.07,-129"/>
<text text-anchor="middle" x="230.07" y="-117" font-family="Helvetica,sans-Serif" font-size="10.00">Route.h</text>
</a>
</g>
</g>
<!-- Node1&#45;&gt;Node10 -->
<g id="edge12_Node000001_Node000010" class="edge">
<title>Node1&#45;&gt;Node10</title>
<g id="a_edge12_Node000001_Node000010"><a xlink:title=" ">
<path fill="none" stroke="#63b8ff" d="M247.44,-164.75C242.3,-157.65 236.66,-147.4 232.83,-138.56"/>
<polygon fill="#63b8ff" stroke="#63b8ff" points="236.08,-137.24 229.31,-129.09 229.51,-139.68 236.08,-137.24"/>
</a>
</g>
</g>
<!-- Node6&#45;&gt;Node2 -->
<g id="edge8_Node000006_Node000002" class="edge">
<title>Node6&#45;&gt;Node2</title>
<g id="a_edge8_Node000006_Node000002"><a xlink:title=" ">
<path fill="none" stroke="#63b8ff" d="M368.86,-111.89C404.85,-102.08 460.36,-81.88 437.07,-55 401.54,-13.99 232.57,-9.91 160.62,-10.08"/>
<polygon fill="#63b8ff" stroke="#63b8ff" points="160.32,-6.58 150.34,-10.13 160.36,-13.58 160.32,-6.58"/>
</a>
</g>
</g>
<!-- Node7 -->
<g id="Node000007" class="node">
<title>Node7</title>
<g id="a_Node000007"><a xlink:href="Ville_8h.html" target="_top" xlink:title="Déclaration de la classe Ville.">
<polygon fill="white" stroke="#666666" points="427.57,-74 380.57,-74 380.57,-55 427.57,-55 427.57,-74"/>
<text text-anchor="middle" x="404.07" y="-62" font-family="Helvetica,sans-Serif" font-size="10.00">Ville.h</text>
</a>
</g>
</g>
<!-- Node6&#45;&gt;Node7 -->
<g id="edge6_Node000006_Node000007" class="edge">
<title>Node6&#45;&gt;Node7</title>
<g id="a_edge6_Node000006_Node000007"><a xlink:title=" ">
<path fill="none" stroke="#63b8ff" d="M351.19,-109.98C360.5,-102.15 374.54,-90.34 385.81,-80.86"/>
<polygon fill="#63b8ff" stroke="#63b8ff" points="388.36,-83.29 393.76,-74.17 383.86,-77.93 388.36,-83.29"/>
</a>
</g>
</g>
<!-- Node7&#45;&gt;Node2 -->
<g id="edge7_Node000007_Node000002" class="edge">
<title>Node7&#45;&gt;Node2</title>
<g id="a_edge7_Node000007_Node000002"><a xlink:title=" ">
<path fill="none" stroke="#63b8ff" d="M380.32,-57.17C377.22,-56.4 374.07,-55.66 371.07,-55 296.07,-38.5 207.11,-23.31 160.4,-15.67"/>
<polygon fill="#63b8ff" stroke="#63b8ff" points="160.72,-12.18 150.29,-14.03 159.59,-19.09 160.72,-12.18"/>
</a>
</g>
</g>
<!-- Node9 -->
<g id="Node000009" class="node">
<title>Node9</title>
<g id="a_Node000009"><a xlink:href="CouleurCarte_8h.html" target="_top" xlink:title="Définition des couleurs de cartes train et utilitaire de conversion.">
<polygon fill="white" stroke="#666666" points="99.57,-74 10.57,-74 10.57,-55 99.57,-55 99.57,-74"/>
<text text-anchor="middle" x="55.07" y="-62" font-family="Helvetica,sans-Serif" font-size="10.00">CouleurCarte.h</text>
</a>
</g>
</g>
<!-- Node8&#45;&gt;Node9 -->
<g id="edge10_Node000008_Node000009" class="edge">
<title>Node8&#45;&gt;Node9</title>
<g id="a_edge10_Node000008_Node000009"><a xlink:title=" ">
<path fill="none" stroke="#63b8ff" d="M81.78,-109.75C77.36,-102.42 70.9,-91.73 65.45,-82.7"/>
<polygon fill="#63b8ff" stroke="#63b8ff" points="68.42,-80.84 60.25,-74.09 62.43,-84.46 68.42,-80.84"/>
</a>
</g>
</g>
<!-- Node9&#45;&gt;Node2 -->
<g id="edge11_Node000009_Node000002" class="edge">
<title>Node9&#45;&gt;Node2</title>
<g id="a_edge11_Node000009_Node000002"><a xlink:title=" ">
<path fill="none" stroke="#63b8ff" d="M66.8,-54.98C77.8,-47 94.49,-34.88 107.67,-25.31"/>
<polygon fill="#63b8ff" stroke="#63b8ff" points="110.09,-27.88 116.12,-19.17 105.98,-22.21 110.09,-27.88"/>
</a>
</g>
</g>
<!-- Node10&#45;&gt;Node1 -->
<g id="edge14_Node000010_Node000001" class="edge">
<title>Node10&#45;&gt;Node1</title>
<g id="a_edge14_Node000010_Node000001"><a xlink:title=" ">
<path fill="none" stroke="#63b8ff" d="M239.57,-129.09C244.71,-136.14 250.36,-146.37 254.22,-155.24"/>
<polygon fill="#63b8ff" stroke="#63b8ff" points="250.99,-156.61 257.77,-164.75 257.55,-154.16 250.99,-156.61"/>
</a>
</g>
</g>
<!-- Node10&#45;&gt;Node2 -->
<g id="edge13_Node000010_Node000002" class="edge">
<title>Node10&#45;&gt;Node2</title>
<g id="a_edge13_Node000010_Node000002"><a xlink:title=" ">
<path fill="none" stroke="#63b8ff" d="M202.91,-110.14C184.67,-103.21 161.44,-91.6 147.07,-74 136.72,-61.33 132,-43.14 129.86,-29.48"/>
<polygon fill="#63b8ff" stroke="#63b8ff" points="133.3,-28.78 128.59,-19.28 126.35,-29.64 133.3,-28.78"/>
</a>
</g>
</g>
<!-- Node10&#45;&gt;Node5 -->
<g id="edge18_Node000010_Node000005" class="edge">
<title>Node10&#45;&gt;Node5</title>
<g id="a_edge18_Node000010_Node000005"><a xlink:title=" ">
<path fill="none" stroke="#63b8ff" d="M243.56,-109.98C256.47,-101.84 276.17,-89.41 291.47,-79.76"/>
<polygon fill="#63b8ff" stroke="#63b8ff" points="293.74,-82.47 300.33,-74.17 290,-76.55 293.74,-82.47"/>
</a>
</g>
</g>
<!-- Node10&#45;&gt;Node7 -->
<g id="edge15_Node000010_Node000007" class="edge">
<title>Node10&#45;&gt;Node7</title>
<g id="a_edge15_Node000010_Node000007"><a xlink:title=" ">
<path fill="none" stroke="#63b8ff" d="M257.25,-110.22C287.92,-100.88 337.79,-85.69 370.77,-75.64"/>
<polygon fill="#63b8ff" stroke="#63b8ff" points="371.87,-78.96 380.42,-72.7 369.83,-72.27 371.87,-78.96"/>
</a>
</g>
</g>
<!-- Node10&#45;&gt;Node9 -->
<g id="edge16_Node000010_Node000009" class="edge">
<title>Node10&#45;&gt;Node9</title>
<g id="a_edge16_Node000010_Node000009"><a xlink:title=" ">
<path fill="none" stroke="#63b8ff" d="M202.72,-110.22C173.28,-101.3 126.21,-87.05 93.15,-77.03"/>
<polygon fill="#63b8ff" stroke="#63b8ff" points="93.96,-73.62 83.38,-74.07 91.93,-80.32 93.96,-73.62"/>
</a>
</g>
</g>
<!-- Node11 -->
<g id="Node000011" class="node">
<title>Node11</title>
<g id="a_Node000011"><a xlink:href="CouleurRoute_8h.html" target="_top" xlink:title="Définition des couleurs de routes du plateau.">
<polygon fill="white" stroke="#666666" points="248.07,-74 156.07,-74 156.07,-55 248.07,-55 248.07,-74"/>
<text text-anchor="middle" x="202.07" y="-62" font-family="Helvetica,sans-Serif" font-size="10.00">CouleurRoute.h</text>
</a>
</g>
</g>
<!-- Node10&#45;&gt;Node11 -->
<g id="edge17_Node000010_Node000011" class="edge">
<title>Node10&#45;&gt;Node11</title>
<g id="a_edge17_Node000010_Node000011"><a xlink:title=" ">
<path fill="none" stroke="#63b8ff" d="M225.44,-109.75C221.61,-102.49 216.04,-91.95 211.3,-82.98"/>
<polygon fill="#63b8ff" stroke="#63b8ff" points="214.37,-81.3 206.6,-74.09 208.18,-84.57 214.37,-81.3"/>
</a>
</g>
</g>
</g>
</svg>
