<?xml version="1.0" encoding="UTF-8" standalone="no"?>
<!DOCTYPE svg PUBLIC "-//W3C//DTD SVG 1.1//EN"
 "http://www.w3.org/Graphics/SVG/1.1/DTD/svg11.dtd">
<!-- Generated by graphviz version 2.43.0 (0)
 -->
<!-- Title: Joueur.cpp Pages: 1 -->
<svg width="609pt" height="247pt"
 viewBox="0.00 0.00 609.06 247.00" xmlns="http://www.w3.org/2000/svg" xmlns:xlink="http://www.w3.org/1999/xlink">
<g id="graph0" class="graph" transform="scale(1 1) rotate(0) translate(4 243)">
<title>Joueur.cpp</title>
<!-- Node1 -->
<g id="Node000001" class="node">
<title>Node1</title>
<g id="a_Node000001"><a xlink:title=" ">
<polygon fill="#999999" stroke="#666666" points="434.56,-239 367.56,-239 367.56,-220 434.56,-220 434.56,-239"/>
<text text-anchor="middle" x="401.06" y="-227" font-family="Helvetica,sans-Serif" font-size="10.00">Joueur.cpp</text>
</a>
</g>
</g>
<!-- Node2 -->
<g id="Node000002" class="node">
<title>Node2</title>
<g id="a_Node000002"><a xlink:title=" ">
<polygon fill="#e0e0e0" stroke="#999999" points="391.06,-19 347.06,-19 347.06,0 391.06,0 391.06,-19"/>
<text text-anchor="middle" x="369.06" y="-7" font-family="Helvetica,sans-Serif" font-size="10.00">string</text>
</a>
</g>
</g>
<!-- Node1&#45;&gt;Node2 -->
<g id="edge1_Node000001_Node000002" class="edge">
<title>Node1&#45;&gt;Node2</title>
<g id="a_edge1_Node000001_Node000002"><a xlink:title=" ">
<path fill="none" stroke="#63b8ff" d="M416.38,-219.9C445.66,-202.21 505.61,-159.21 493.06,-110 486.18,-83.02 483.3,-74.12 463.06,-55 445.43,-38.35 420.43,-26.92 400.64,-19.82"/>
<polygon fill="#63b8ff" stroke="#63b8ff" points="401.71,-16.49 391.11,-16.59 399.46,-23.12 401.71,-16.49"/>
</a>
</g>
</g>
<!-- Node3 -->
<g id="Node000003" class="node">
<title>Node3</title>
<g id="a_Node000003"><a xlink:title=" ">
<polygon fill="#e0e0e0" stroke="#999999" points="601.06,-184 541.06,-184 541.06,-165 601.06,-165 601.06,-184"/>
<text text-anchor="middle" x="571.06" y="-172" font-family="Helvetica,sans-Serif" font-size="10.00">iostream</text>
</a>
</g>
</g>
<!-- Node1&#45;&gt;Node3 -->
<g id="edge2_Node000001_Node000003" class="edge">
<title>Node1&#45;&gt;Node3</title>
<g id="a_edge2_Node000001_Node000003"><a xlink:title=" ">
<path fill="none" stroke="#63b8ff" d="M428.37,-219.98C456.92,-211.09 501.89,-197.07 533.7,-187.15"/>
<polygon fill="#63b8ff" stroke="#63b8ff" points="535.03,-190.4 543.53,-184.08 532.94,-183.72 535.03,-190.4"/>
</a>
</g>
</g>
<!-- Node4 -->
<g id="Node000004" class="node">
<title>Node4</title>
<g id="a_Node000004"><a xlink:href="Joueur_8h.html" target="_top" xlink:title="Déclaration de la classe Joueur.">
<polygon fill="white" stroke="#666666" points="177.06,-184 121.06,-184 121.06,-165 177.06,-165 177.06,-184"/>
<text text-anchor="middle" x="149.06" y="-172" font-family="Helvetica,sans-Serif" font-size="10.00">Joueur.h</text>
</a>
</g>
</g>
<!-- Node1&#45;&gt;Node4 -->
<g id="edge3_Node000001_Node000004" class="edge">
<title>Node1&#45;&gt;Node4</title>
<g id="a_edge3_Node000001_Node000004"><a xlink:title=" ">
<path fill="none" stroke="#63b8ff" d="M367.34,-221.41C320.51,-211.56 236.04,-193.79 187.04,-183.49"/>
<polygon fill="#63b8ff" stroke="#63b8ff" points="187.66,-180.04 177.15,-181.41 186.22,-186.89 187.66,-180.04"/>
</a>
</g>
</g>
<!-- Node7 -->
<g id="Node000007" class="node">
<title>Node7</title>
<g id="a_Node000007"><a xlink:href="CouleurWagon_8h.html" target="_top" xlink:title="Définition des couleurs de wagons des joueurs.">
<polygon fill="white" stroke="#666666" points="115.06,-74 19.06,-74 19.06,-55 115.06,-55 115.06,-74"/>
<text text-anchor="middle" x="67.06" y="-62" font-family="Helvetica,sans-Serif" font-size="10.00">CouleurWagon.h</text>
</a>
</g>
</g>
<!-- Node1&#45;&gt;Node7 -->
<g id="edge22_Node000001_Node000007" class="edge">
<title>Node1&#45;&gt;Node7</title>
<g id="a_edge22_Node000001_Node000007"><a xlink:title=" ">
<path fill="none" stroke="#63b8ff" d="M367.26,-229.27C311.45,-229.26 197.68,-223.81 112.06,-184 78.36,-168.33 64.44,-162.84 49.06,-129 42.26,-114.04 48.73,-95.91 55.74,-82.86"/>
<polygon fill="#63b8ff" stroke="#63b8ff" points="58.9,-84.39 60.99,-74 52.88,-80.82 58.9,-84.39"/>
</a>
</g>
</g>
<!-- Node8 -->
<g id="Node000008" class="node">
<title>Node8</title>
<g id="a_Node000008"><a xlink:href="Ticket_8h.html" target="_top" xlink:title="Déclaration de la classe Ticket.">
<polygon fill="white" stroke="#666666" points="484.56,-129 429.56,-129 429.56,-110 484.56,-110 484.56,-129"/>
<text text-anchor="middle" x="457.06" y="-117" font-family="Helvetica,sans-Serif" font-size="10.00">Ticket.h</text>
</a>
</g>
</g>
<!-- Node1&#45;&gt;Node8 -->
<g id="edge24_Node000001_Node000008" class="edge">
<title>Node1&#45;&gt;Node8</title>
<g id="a_edge24_Node000001_Node000008"><a xlink:title=" ">
<path fill="none" stroke="#63b8ff" d="M405.64,-219.66C414.84,-201.93 435.68,-161.73 447.82,-138.32"/>
<polygon fill="#63b8ff" stroke="#63b8ff" points="451.08,-139.65 452.57,-129.16 444.86,-136.42 451.08,-139.65"/>
</a>
</g>
</g>
<!-- Node11 -->
<g id="Node000011" class="node">
<title>Node11</title>
<g id="a_Node000011"><a xlink:href="CouleurCarte_8h.html" target="_top" xlink:title="Définition des couleurs de cartes train et utilitaire de conversion.">
<polygon fill="white" stroke="#666666" points="370.56,-74 281.56,-74 281.56,-55 370.56,-55 370.56,-74"/>
<text text-anchor="middle" x="326.06" y="-62" font-family="Helvetica,sans-Serif" font-size="10.00">CouleurCarte.h</text>
</a>
</g>
</g>
<!-- Node1&#45;&gt;Node11 -->
<g id="edge23_Node000001_Node000011" class="edge">
<title>Node1&#45;&gt;Node11</title>
<g id="a_edge23_Node000001_Node000011"><a xlink:title=" ">
<path fill="none" stroke="#63b8ff" d="M397.03,-219.74C385.23,-194.09 350.58,-118.78 334.47,-83.78"/>
<polygon fill="#63b8ff" stroke="#63b8ff" points="337.47,-81.93 330.11,-74.31 331.11,-84.85 337.47,-81.93"/>
</a>
</g>
</g>
<!-- Node14 -->
<g id="Node000014" class="node">
<title>Node14</title>
<g id="a_Node000014"><a xlink:href="Plateau_8h.html" target="_top" xlink:title="Déclaration de la classe Plateau.">
<polygon fill="white" stroke="#666666" points="357.06,-184 295.06,-184 295.06,-165 357.06,-165 357.06,-184"/>
<text text-anchor="middle" x="326.06" y="-172" font-family="Helvetica,sans-Serif" font-size="10.00">Plateau.h</text>
</a>
</g>
</g>
<!-- Node1&#45;&gt;Node14 -->
<g id="edge25_Node000001_Node000014" class="edge">
<title>Node1&#45;&gt;Node14</title>
<g id="a_edge25_Node000001_Node000014"><a xlink:title=" ">
<path fill="none" stroke="#63b8ff" d="M389.01,-219.98C377.6,-211.92 360.23,-199.65 346.63,-190.03"/>
<polygon fill="#63b8ff" stroke="#63b8ff" points="348.52,-187.08 338.33,-184.17 344.48,-192.8 348.52,-187.08"/>
</a>
</g>
</g>
<!-- Node4&#45;&gt;Node2 -->
<g id="edge4_Node000004_Node000002" class="edge">
<title>Node4&#45;&gt;Node2</title>
<g id="a_edge4_Node000004_Node000002"><a xlink:title=" ">
<path fill="none" stroke="#63b8ff" d="M123.72,-164.98C73.31,-146.75 -31.31,-101.81 10.06,-55 31.57,-30.66 252.81,-16.6 336.88,-12.1"/>
<polygon fill="#63b8ff" stroke="#63b8ff" points="337.09,-15.59 346.89,-11.57 336.72,-8.6 337.09,-15.59"/>
</a>
</g>
</g>
<!-- Node5 -->
<g id="Node000005" class="node">
<title>Node5</title>
<g id="a_Node000005"><a xlink:title=" ">
<polygon fill="#e0e0e0" stroke="#999999" points="334.56,-129 287.56,-129 287.56,-110 334.56,-110 334.56,-129"/>
<text text-anchor="middle" x="311.06" y="-117" font-family="Helvetica,sans-Serif" font-size="10.00">vector</text>
</a>
</g>
</g>
<!-- Node4&#45;&gt;Node5 -->
<g id="edge5_Node000004_Node000005" class="edge">
<title>Node4&#45;&gt;Node5</title>
<g id="a_edge5_Node000004_Node000005"><a xlink:title=" ">
<path fill="none" stroke="#63b8ff" d="M175.09,-164.98C202.97,-155.86 247.31,-141.36 277.73,-131.4"/>
<polygon fill="#63b8ff" stroke="#63b8ff" points="279.05,-134.65 287.47,-128.22 276.88,-128 279.05,-134.65"/>
</a>
</g>
</g>
<!-- Node6 -->
<g id="Node000006" class="node">
<title>Node6</title>
<g id="a_Node000006"><a xlink:title=" ">
<polygon fill="#e0e0e0" stroke="#999999" points="104.06,-129 66.06,-129 66.06,-110 104.06,-110 104.06,-129"/>
<text text-anchor="middle" x="85.06" y="-117" font-family="Helvetica,sans-Serif" font-size="10.00">map</text>
</a>
</g>
</g>
<!-- Node4&#45;&gt;Node6 -->
<g id="edge6_Node000004_Node000006" class="edge">
<title>Node4&#45;&gt;Node6</title>
<g id="a_edge6_Node000004_Node000006"><a xlink:title=" ">
<path fill="none" stroke="#63b8ff" d="M138.78,-164.98C129.22,-157.07 114.78,-145.11 103.28,-135.58"/>
<polygon fill="#63b8ff" stroke="#63b8ff" points="105.47,-132.85 95.53,-129.17 101,-138.24 105.47,-132.85"/>
</a>
</g>
</g>
<!-- Node4&#45;&gt;Node7 -->
<g id="edge7_Node000004_Node000007" class="edge">
<title>Node4&#45;&gt;Node7</title>
<g id="a_edge7_Node000004_Node000007"><a xlink:title=" ">
<path fill="none" stroke="#63b8ff" d="M120.76,-168.18C99.2,-162.49 70.92,-151.1 57.06,-129 48.46,-115.29 52.82,-96.73 58.21,-83.22"/>
<polygon fill="#63b8ff" stroke="#63b8ff" points="61.43,-84.59 62.33,-74.04 55.04,-81.72 61.43,-84.59"/>
</a>
</g>
</g>
<!-- Node4&#45;&gt;Node8 -->
<g id="edge8_Node000004_Node000008" class="edge">
<title>Node4&#45;&gt;Node8</title>
<g id="a_edge8_Node000004_Node000008"><a xlink:title=" ">
<path fill="none" stroke="#63b8ff" d="M177.21,-168.66C232.8,-159.09 356.7,-137.77 419.31,-127"/>
<polygon fill="#63b8ff" stroke="#63b8ff" points="420.27,-130.38 429.53,-125.24 419.08,-123.48 420.27,-130.38"/>
</a>
</g>
</g>
<!-- Node10 -->
<g id="Node000010" class="node">
<title>Node10</title>
<g id="a_Node000010"><a xlink:href="CarteTrain_8h.html" target="_top" xlink:title="Description de la classe CarteTrain.">
<polygon fill="white" stroke="#666666" points="269.56,-129 194.56,-129 194.56,-110 269.56,-110 269.56,-129"/>
<text text-anchor="middle" x="232.06" y="-117" font-family="Helvetica,sans-Serif" font-size="10.00">CarteTrain.h</text>
</a>
</g>
</g>
<!-- Node4&#45;&gt;Node10 -->
<g id="edge12_Node000004_Node000010" class="edge">
<title>Node4&#45;&gt;Node10</title>
<g id="a_edge12_Node000004_Node000010"><a xlink:title=" ">
<path fill="none" stroke="#63b8ff" d="M162.4,-164.98C175.15,-156.84 194.61,-144.41 209.73,-134.76"/>
<polygon fill="#63b8ff" stroke="#63b8ff" points="211.94,-137.5 218.48,-129.17 208.17,-131.6 211.94,-137.5"/>
</a>
</g>
</g>
<!-- Node12 -->
<g id="Node000012" class="node">
<title>Node12</title>
<g id="a_Node000012"><a xlink:href="Route_8h.html" target="_top" xlink:title="Déclaration de la classe Route.">
<polygon fill="white" stroke="#666666" points="176.06,-129 122.06,-129 122.06,-110 176.06,-110 176.06,-129"/>
<text text-anchor="middle" x="149.06" y="-117" font-family="Helvetica,sans-Serif" font-size="10.00">Route.h</text>
</a>
</g>
</g>
<!-- Node4&#45;&gt;Node12 -->
<g id="edge15_Node000004_Node000012" class="edge">
<title>Node4&#45;&gt;Node12</title>
<g id="a_edge15_Node000004_Node000012"><a xlink:title=" ">
<path fill="none" stroke="#63b8ff" d="M143.89,-164.75C142.4,-157.8 141.96,-147.85 142.58,-139.13"/>
<polygon fill="#63b8ff" stroke="#63b8ff" points="146.07,-139.47 143.93,-129.09 139.13,-138.53 146.07,-139.47"/>
</a>
</g>
</g>
<!-- Node8&#45;&gt;Node2 -->
<g id="edge11_Node000008_Node000002" class="edge">
<title>Node8&#45;&gt;Node2</title>
<g id="a_edge11_Node000008_Node000002"><a xlink:title=" ">
<path fill="none" stroke="#63b8ff" d="M457.41,-109.83C457.5,-96.74 455.94,-71.69 444.06,-55 433.37,-39.98 415.89,-29.19 400.49,-21.99"/>
<polygon fill="#63b8ff" stroke="#63b8ff" points="401.82,-18.75 391.25,-17.97 399.03,-25.17 401.82,-18.75"/>
</a>
</g>
</g>
<!-- Node9 -->
<g id="Node000009" class="node">
<title>Node9</title>
<g id="a_Node000009"><a xlink:href="Ville_8h.html" target="_top" xlink:title="Déclaration de la classe Ville.">
<polygon fill="white" stroke="#666666" points="435.56,-74 388.56,-74 388.56,-55 435.56,-55 435.56,-74"/>
<text text-anchor="middle" x="412.06" y="-62" font-family="Helvetica,sans-Serif" font-size="10.00">Ville.h</text>
</a>
</g>
</g>
<!-- Node8&#45;&gt;Node9 -->
<g id="edge9_Node000008_Node000009" class="edge">
<title>Node8&#45;&gt;Node9</title>
<g id="a_edge9_Node000008_Node000009"><a xlink:title=" ">
<path fill="none" stroke="#63b8ff" d="M449.63,-109.75C443.21,-102.18 433.76,-91.05 425.94,-81.84"/>
<polygon fill="#63b8ff" stroke="#63b8ff" points="428.49,-79.45 419.35,-74.09 423.16,-83.98 428.49,-79.45"/>
</a>
</g>
</g>
<!-- Node9&#45;&gt;Node2 -->
<g id="edge10_Node000009_Node000002" class="edge">
<title>Node9&#45;&gt;Node2</title>
<g id="a_edge10_Node000009_Node000002"><a xlink:title=" ">
<path fill="none" stroke="#63b8ff" d="M404.96,-54.75C398.89,-47.26 389.98,-36.28 382.55,-27.13"/>
<polygon fill="#63b8ff" stroke="#63b8ff" points="385.05,-24.65 376.03,-19.09 379.61,-29.06 385.05,-24.65"/>
</a>
</g>
</g>
<!-- Node10&#45;&gt;Node11 -->
<g id="edge13_Node000010_Node000011" class="edge">
<title>Node10&#45;&gt;Node11</title>
<g id="a_edge13_Node000010_Node000011"><a xlink:title=" ">
<path fill="none" stroke="#63b8ff" d="M247.16,-109.98C261.88,-101.69 284.49,-88.94 301.74,-79.22"/>
<polygon fill="#63b8ff" stroke="#63b8ff" points="303.69,-82.13 310.68,-74.17 300.25,-76.03 303.69,-82.13"/>
</a>
</g>
</g>
<!-- Node11&#45;&gt;Node2 -->
<g id="edge14_Node000011_Node000002" class="edge">
<title>Node11&#45;&gt;Node2</title>
<g id="a_edge14_Node000011_Node000002"><a xlink:title=" ">
<path fill="none" stroke="#63b8ff" d="M333.16,-54.75C339.24,-47.26 348.15,-36.28 355.57,-27.13"/>
<polygon fill="#63b8ff" stroke="#63b8ff" points="358.51,-29.06 362.09,-19.09 353.07,-24.65 358.51,-29.06"/>
</a>
</g>
</g>
<!-- Node12&#45;&gt;Node2 -->
<g id="edge16_Node000012_Node000002" class="edge">
<title>Node12&#45;&gt;Node2</title>
<g id="a_edge16_Node000012_Node000002"><a xlink:title=" ">
<path fill="none" stroke="#63b8ff" d="M148.11,-109.75C147.15,-96.08 147.49,-69.71 162.06,-55 186.2,-30.63 285.17,-18.14 337.03,-13.16"/>
<polygon fill="#63b8ff" stroke="#63b8ff" points="337.4,-16.64 347.03,-12.24 336.75,-9.67 337.4,-16.64"/>
</a>
</g>
</g>
<!-- Node12&#45;&gt;Node4 -->
<g id="edge17_Node000012_Node000004" class="edge">
<title>Node12&#45;&gt;Node4</title>
<g id="a_edge17_Node000012_Node000004"><a xlink:title=" ">
<path fill="none" stroke="#63b8ff" d="M154.19,-129.09C155.7,-135.99 156.16,-145.93 155.55,-154.66"/>
<polygon fill="#63b8ff" stroke="#63b8ff" points="152.06,-154.38 154.23,-164.75 159,-155.29 152.06,-154.38"/>
</a>
</g>
</g>
<!-- Node12&#45;&gt;Node7 -->
<g id="edge21_Node000012_Node000007" class="edge">
<title>Node12&#45;&gt;Node7</title>
<g id="a_edge21_Node000012_Node000007"><a xlink:title=" ">
<path fill="none" stroke="#63b8ff" d="M135.89,-109.98C123.29,-101.84 104.06,-89.41 89.12,-79.76"/>
<polygon fill="#63b8ff" stroke="#63b8ff" points="90.77,-76.66 80.48,-74.17 86.97,-82.54 90.77,-76.66"/>
</a>
</g>
</g>
<!-- Node12&#45;&gt;Node9 -->
<g id="edge18_Node000012_Node000009" class="edge">
<title>Node12&#45;&gt;Node9</title>
<g id="a_edge18_Node000012_Node000009"><a xlink:title=" ">
<path fill="none" stroke="#63b8ff" d="M176.16,-111.95C179.16,-111.27 182.17,-110.61 185.06,-110 267.77,-92.57 291.72,-92.9 378.31,-74.03"/>
<polygon fill="#63b8ff" stroke="#63b8ff" points="379.3,-77.39 388.31,-71.82 377.8,-70.56 379.3,-77.39"/>
</a>
</g>
</g>
<!-- Node12&#45;&gt;Node11 -->
<g id="edge19_Node000012_Node000011" class="edge">
<title>Node12&#45;&gt;Node11</title>
<g id="a_edge19_Node000012_Node000011"><a xlink:title=" ">
<path fill="none" stroke="#63b8ff" d="M176.33,-110.33C206.12,-101.41 254.07,-87.06 287.66,-77"/>
<polygon fill="#63b8ff" stroke="#63b8ff" points="289.01,-80.25 297.59,-74.03 287,-73.54 289.01,-80.25"/>
</a>
</g>
</g>
<!-- Node13 -->
<g id="Node000013" class="node">
<title>Node13</title>
<g id="a_Node000013"><a xlink:href="CouleurRoute_8h.html" target="_top" xlink:title="Définition des couleurs de routes du plateau.">
<polygon fill="white" stroke="#666666" points="263.06,-74 171.06,-74 171.06,-55 263.06,-55 263.06,-74"/>
<text text-anchor="middle" x="217.06" y="-62" font-family="Helvetica,sans-Serif" font-size="10.00">CouleurRoute.h</text>
</a>
</g>
</g>
<!-- Node12&#45;&gt;Node13 -->
<g id="edge20_Node000012_Node000013" class="edge">
<title>Node12&#45;&gt;Node13</title>
<g id="a_edge20_Node000012_Node000013"><a xlink:title=" ">
<path fill="none" stroke="#63b8ff" d="M159.99,-109.98C170.14,-102.07 185.48,-90.11 197.71,-80.58"/>
<polygon fill="#63b8ff" stroke="#63b8ff" points="200.2,-83.08 205.94,-74.17 195.9,-77.56 200.2,-83.08"/>
</a>
</g>
</g>
<!-- Node14&#45;&gt;Node5 -->
<g id="edge26_Node000014_Node000005" class="edge">
<title>Node14&#45;&gt;Node5</title>
<g id="a_edge26_Node000014_Node000005"><a xlink:title=" ">
<path fill="none" stroke="#63b8ff" d="M323.58,-164.75C321.6,-157.72 318.74,-147.62 316.25,-138.84"/>
<polygon fill="#63b8ff" stroke="#63b8ff" points="319.58,-137.76 313.49,-129.09 312.85,-139.66 319.58,-137.76"/>
</a>
</g>
</g>
<!-- Node14&#45;&gt;Node8 -->
<g id="edge30_Node000014_Node000008" class="edge">
<title>Node14&#45;&gt;Node8</title>
<g id="a_edge30_Node000014_Node000008"><a xlink:title=" ">
<path fill="none" stroke="#63b8ff" d="M347.11,-164.98C368.47,-156.34 401.77,-142.87 426.13,-133.02"/>
<polygon fill="#63b8ff" stroke="#63b8ff" points="427.67,-136.17 435.63,-129.17 425.05,-129.68 427.67,-136.17"/>
</a>
</g>
</g>
<!-- Node14&#45;&gt;Node9 -->
<g id="edge27_Node000014_Node000009" class="edge">
<title>Node14&#45;&gt;Node9</title>
<g id="a_edge27_Node000014_Node000009"><a xlink:title=" ">
<path fill="none" stroke="#63b8ff" d="M333.1,-164.66C347.47,-146.61 380.39,-105.28 398.86,-82.08"/>
<polygon fill="#63b8ff" stroke="#63b8ff" points="401.68,-84.16 405.17,-74.16 396.2,-79.8 401.68,-84.16"/>
</a>
</g>
</g>
<!-- Node14&#45;&gt;Node10 -->
<g id="edge29_Node000014_Node000010" class="edge">
<title>Node14&#45;&gt;Node10</title>
<g id="a_edge29_Node000014_Node000010"><a xlink:title=" ">
<path fill="none" stroke="#63b8ff" d="M310.96,-164.98C296.25,-156.69 273.64,-143.94 256.39,-134.22"/>
<polygon fill="#63b8ff" stroke="#63b8ff" points="257.87,-131.03 247.44,-129.17 254.43,-137.13 257.87,-131.03"/>
</a>
</g>
</g>
<!-- Node14&#45;&gt;Node12 -->
<g id="edge28_Node000014_Node000012" class="edge">
<title>Node14&#45;&gt;Node12</title>
<g id="a_edge28_Node000014_Node000012"><a xlink:title=" ">
<path fill="none" stroke="#63b8ff" d="M297.62,-164.98C267.34,-155.92 219.28,-141.53 186.06,-131.58"/>
<polygon fill="#63b8ff" stroke="#63b8ff" points="186.85,-128.16 176.27,-128.65 184.84,-134.87 186.85,-128.16"/>
</a>
</g>
</g>
</g>
</svg>
