<?xml version="1.0" encoding="UTF-8" standalone="no"?>
<!DOCTYPE svg PUBLIC "-//W3C//DTD SVG 1.1//EN"
 "http://www.w3.org/Graphics/SVG/1.1/DTD/svg11.dtd">
<!-- Generated by graphviz version 2.43.0 (0)
 -->
<!-- Title: main.cpp Pages: 1 -->
<!--zoomable 302 -->

<svg id="main" version="1.1" xmlns="http://www.w3.org/2000/svg" xmlns:xlink="http://www.w3.org/1999/xlink" xml:space="preserve" onload="init(evt)">
<style type="text/css"><![CDATA[
.node, .edge {opacity: 0.7;}
.node.selected, .edge.selected {opacity: 1;}
.edge:hover path { stroke: red; }
.edge:hover polygon { stroke: red; fill: red; }
]]></style>

<defs>
  <circle id="rim" cx="0" cy="0" r="7"/>
  <circle id="rim2" cx="0" cy="0" r="3.5"/>
  <g id="zoomPlus">
    <use xlink:href="#rim" fill="#404040"><set attributeName="fill" to="#808080" begin="zoomplus.mouseover" end="zoomplus.mouseout"/></use>
    <path d="M-4,0h8M0,-4v8" fill="none" stroke="white" stroke-width="1.5" pointer-events="none"/>
  </g>
  <g id="zoomMin">
    <use xlink:href="#rim" fill="#404040"><set attributeName="fill" to="#808080" begin="zoomminus.mouseover" end="zoomminus.mouseout"/></use>
    <path d="M-4,0h8" fill="none" stroke="white" stroke-width="1.5" pointer-events="none"/>
  </g>
  <g id="arrowUp" transform="translate(30 24)">
    <use xlink:href="#rim"/>
    <path pointer-events="none" fill="none" stroke="white" stroke-width="1.5" d="M0,-3.0v7 M-2.5,-0.5L0,-3.0L2.5,-0.5"/>
  </g>
  <g id="arrowRight" transform="rotate(90) translate(36 -43)">
    <use xlink:href="#rim"/>
    <path pointer-events="none" fill="none" stroke="white" stroke-width="1.5" d="M0,-3.0v7 M-2.5,-0.5L0,-3.0L2.5,-0.5"/>
  </g>
  <g id="arrowDown" transform="rotate(180) translate(-30 -48)">
    <use xlink:href="#rim"/>
    <path pointer-events="none" fill="none" stroke="white" stroke-width="1.5" d="M0,-3.0v7 M-2.5,-0.5L0,-3.0L2.5,-0.5"/>
  </g>
  <g id="arrowLeft" transform="rotate(270) translate(-36 17)">
    <use xlink:href="#rim"/>
    <path pointer-events="none" fill="none" stroke="white" stroke-width="1.5" d="M0,-3.0v7 M-2.5,-0.5L0,-3.0L2.5,-0.5"/>
  </g>
  <g id="resetDef">
    <use xlink:href="#rim2" fill="#404040"><set attributeName="fill" to="#808080" begin="reset.mouseover" end="reset.mouseout"/></use>
  </g>
</defs>
<script type="application/ecmascript">
var viewWidth = 1294;
var viewHeight = 302;
var sectionId = 'dynsection-0';
</script>
<script type="application/ecmascript" xlink:href="svg.min.js"/>
<svg id="graph" class="graph">
<g id="viewport">
<title>main.cpp</title>
<!-- Node1 -->
<g id="Node000001" class="node">
<title>Node1</title>
<g id="a_Node000001"><a xlink:title="Point d&#39;entrée du jeu Les Aventuriers du Rail.">
<polygon fill="#999999" stroke="#666666" points="561.5,-294 499.5,-294 499.5,-275 561.5,-275 561.5,-294"/>
<text text-anchor="middle" x="530.5" y="-282" font-family="Helvetica,sans-Serif" font-size="10.00">main.cpp</text>
</a>
</g>
</g>
<!-- Node2 -->
<g id="Node000002" class="node">
<title>Node2</title>
<g id="a_Node000002"><a xlink:title=" ">
<polygon fill="#e0e0e0" stroke="#999999" points="79,-239 0,-239 0,-220 79,-220 79,-239"/>
<text text-anchor="middle" x="39.5" y="-227" font-family="Helvetica,sans-Serif" font-size="10.00">QApplication</text>
</a>
</g>
</g>
<!-- Node1&#45;&gt;Node2 -->
<g id="edge1_Node000001_Node000002" class="edge">
<title>Node1&#45;&gt;Node2</title>
<g id="a_edge1_Node000001_Node000002"><a xlink:title=" ">
<path fill="none" stroke="#63b8ff" d="M499.25,-281.17C428.21,-275.71 248.95,-260.95 89.03,-239.12"/>
<polygon fill="#63b8ff" stroke="#63b8ff" points="89.4,-235.64 79.02,-237.74 88.44,-242.57 89.4,-235.64"/>
</a>
</g>
</g>
<!-- Node3 -->
<g id="Node000003" class="node">
<title>Node3</title>
<g id="a_Node000003"><a xlink:title=" ">
<polygon fill="#e0e0e0" stroke="#999999" points="156.5,-239 96.5,-239 96.5,-220 156.5,-220 156.5,-239"/>
<text text-anchor="middle" x="126.5" y="-227" font-family="Helvetica,sans-Serif" font-size="10.00">iostream</text>
</a>
</g>
</g>
<!-- Node1&#45;&gt;Node3 -->
<g id="edge2_Node000001_Node000003" class="edge">
<title>Node1&#45;&gt;Node3</title>
<g id="a_edge2_Node000001_Node000003"><a xlink:title=" ">
<path fill="none" stroke="#63b8ff" d="M499.1,-280.34C436.44,-273.88 291.48,-258.14 170.5,-239 169.25,-238.8 167.97,-238.59 166.69,-238.38"/>
<polygon fill="#63b8ff" stroke="#63b8ff" points="167.21,-234.92 156.75,-236.62 165.99,-241.81 167.21,-234.92"/>
</a>
</g>
</g>
<!-- Node4 -->
<g id="Node000004" class="node">
<title>Node4</title>
<g id="a_Node000004"><a xlink:title=" ">
<polygon fill="#e0e0e0" stroke="#999999" points="423.5,-19 379.5,-19 379.5,0 423.5,0 423.5,-19"/>
<text text-anchor="middle" x="401.5" y="-7" font-family="Helvetica,sans-Serif" font-size="10.00">string</text>
</a>
</g>
</g>
<!-- Node1&#45;&gt;Node4 -->
<g id="edge3_Node000001_Node000004" class="edge">
<title>Node1&#45;&gt;Node4</title>
<g id="a_edge3_Node000001_Node000004"><a xlink:title=" ">
<path fill="none" stroke="#63b8ff" d="M499.49,-280.53C414.56,-271.56 184.5,-241.18 184.5,-175.5 184.5,-175.5 184.5,-175.5 184.5,-118.5 184.5,-36.92 308.94,-16.96 369.35,-12.08"/>
<polygon fill="#63b8ff" stroke="#63b8ff" points="369.77,-15.56 379.5,-11.35 369.27,-8.58 369.77,-15.56"/>
</a>
</g>
</g>
<!-- Node5 -->
<g id="Node000005" class="node">
<title>Node5</title>
<g id="a_Node000005"><a xlink:title=" ">
<polygon fill="#e0e0e0" stroke="#999999" points="503,-129 456,-129 456,-110 503,-110 503,-129"/>
<text text-anchor="middle" x="479.5" y="-117" font-family="Helvetica,sans-Serif" font-size="10.00">vector</text>
</a>
</g>
</g>
<!-- Node1&#45;&gt;Node5 -->
<g id="edge4_Node000001_Node000005" class="edge">
<title>Node1&#45;&gt;Node5</title>
<g id="a_edge4_Node000001_Node000005"><a xlink:title=" ">
<path fill="none" stroke="#63b8ff" d="M527.81,-274.97C524.99,-266.01 520.42,-251.52 516.5,-239 505.37,-203.49 492.42,-161.98 485.17,-138.71"/>
<polygon fill="#63b8ff" stroke="#63b8ff" points="488.5,-137.63 482.19,-129.13 481.82,-139.71 488.5,-137.63"/>
</a>
</g>
</g>
<!-- Node6 -->
<g id="Node000006" class="node">
<title>Node6</title>
<g id="a_Node000006"><a xlink:title=" ">
<polygon fill="#e0e0e0" stroke="#999999" points="917,-239 868,-239 868,-220 917,-220 917,-239"/>
<text text-anchor="middle" x="892.5" y="-227" font-family="Helvetica,sans-Serif" font-size="10.00">cstdlib</text>
</a>
</g>
</g>
<!-- Node1&#45;&gt;Node6 -->
<g id="edge5_Node000001_Node000006" class="edge">
<title>Node1&#45;&gt;Node6</title>
<g id="a_edge5_Node000001_Node000006"><a xlink:title=" ">
<path fill="none" stroke="#63b8ff" d="M561.81,-280.01C619.64,-273.37 747.05,-257.9 853.5,-239 854.95,-238.74 856.43,-238.47 857.92,-238.18"/>
<polygon fill="#63b8ff" stroke="#63b8ff" points="858.69,-241.6 867.8,-236.19 857.3,-234.74 858.69,-241.6"/>
</a>
</g>
</g>
<!-- Node7 -->
<g id="Node000007" class="node">
<title>Node7</title>
<g id="a_Node000007"><a xlink:title=" ">
<polygon fill="#e0e0e0" stroke="#999999" points="979.5,-239 935.5,-239 935.5,-220 979.5,-220 979.5,-239"/>
<text text-anchor="middle" x="957.5" y="-227" font-family="Helvetica,sans-Serif" font-size="10.00">ctime</text>
</a>
</g>
</g>
<!-- Node1&#45;&gt;Node7 -->
<g id="edge6_Node000001_Node000007" class="edge">
<title>Node1&#45;&gt;Node7</title>
<g id="a_edge6_Node000001_Node000007"><a xlink:title=" ">
<path fill="none" stroke="#63b8ff" d="M561.55,-281.66C627.08,-277.43 784.37,-265.42 925.14,-238.98"/>
<polygon fill="#63b8ff" stroke="#63b8ff" points="926.08,-242.36 935.25,-237.05 924.77,-235.48 926.08,-242.36"/>
</a>
</g>
</g>
<!-- Node8 -->
<g id="Node000008" class="node">
<title>Node8</title>
<g id="a_Node000008"><a xlink:title=" ">
<polygon fill="#e0e0e0" stroke="#999999" points="1053,-239 998,-239 998,-220 1053,-220 1053,-239"/>
<text text-anchor="middle" x="1025.5" y="-227" font-family="Helvetica,sans-Serif" font-size="10.00">fstream</text>
</a>
</g>
</g>
<!-- Node1&#45;&gt;Node8 -->
<g id="edge7_Node000001_Node000008" class="edge">
<title>Node1&#45;&gt;Node8</title>
<g id="a_edge7_Node000001_Node000008"><a xlink:title=" ">
<path fill="none" stroke="#63b8ff" d="M561.5,-281.87C634.22,-277.76 821.52,-265.45 987.79,-238.9"/>
<polygon fill="#63b8ff" stroke="#63b8ff" points="988.38,-242.34 997.7,-237.29 987.26,-235.43 988.38,-242.34"/>
</a>
</g>
</g>
<!-- Node9 -->
<g id="Node000009" class="node">
<title>Node9</title>
<g id="a_Node000009"><a xlink:title=" ">
<polygon fill="#e0e0e0" stroke="#999999" points="1127.5,-239 1071.5,-239 1071.5,-220 1127.5,-220 1127.5,-239"/>
<text text-anchor="middle" x="1099.5" y="-227" font-family="Helvetica,sans-Serif" font-size="10.00">sstream</text>
</a>
</g>
</g>
<!-- Node1&#45;&gt;Node9 -->
<g id="edge8_Node000001_Node000009" class="edge">
<title>Node1&#45;&gt;Node9</title>
<g id="a_edge8_Node000001_Node000009"><a xlink:title=" ">
<path fill="none" stroke="#63b8ff" d="M561.57,-282.45C642.36,-279.38 865.81,-268.81 1061.14,-238.99"/>
<polygon fill="#63b8ff" stroke="#63b8ff" points="1061.95,-242.4 1071.3,-237.41 1060.88,-235.49 1061.95,-242.4"/>
</a>
</g>
</g>
<!-- Node10 -->
<g id="Node000010" class="node">
<title>Node10</title>
<g id="a_Node000010"><a xlink:title=" ">
<polygon fill="#e0e0e0" stroke="#999999" points="745.5,-129 707.5,-129 707.5,-110 745.5,-110 745.5,-129"/>
<text text-anchor="middle" x="726.5" y="-117" font-family="Helvetica,sans-Serif" font-size="10.00">map</text>
</a>
</g>
</g>
<!-- Node1&#45;&gt;Node10 -->
<g id="edge9_Node000001_Node000010" class="edge">
<title>Node1&#45;&gt;Node10</title>
<g id="a_edge9_Node000001_Node000010"><a xlink:title=" ">
<path fill="none" stroke="#63b8ff" d="M561.67,-281.79C615.54,-278.17 729.1,-267.56 820.5,-239 838.9,-233.25 840.91,-225.13 859.5,-220 950.23,-194.97 1217.84,-253.32 1281.5,-184 1287.21,-177.78 1287.23,-171.21 1281.5,-165 1245.61,-126.12 865.1,-121.19 755.74,-120.58"/>
<polygon fill="#63b8ff" stroke="#63b8ff" points="755.76,-117.08 745.74,-120.54 755.72,-124.08 755.76,-117.08"/>
</a>
</g>
</g>
<!-- Node11 -->
<g id="Node000011" class="node">
<title>Node11</title>
<g id="a_Node000011"><a xlink:href="CouleurWagon_8h.html" target="_top" xlink:title="Définition des couleurs de wagons des joueurs.">
<polygon fill="white" stroke="#666666" points="765.5,-74 669.5,-74 669.5,-55 765.5,-55 765.5,-74"/>
<text text-anchor="middle" x="717.5" y="-62" font-family="Helvetica,sans-Serif" font-size="10.00">CouleurWagon.h</text>
</a>
</g>
</g>
<!-- Node1&#45;&gt;Node11 -->
<g id="edge10_Node000001_Node000011" class="edge">
<title>Node1&#45;&gt;Node11</title>
<g id="a_edge10_Node000001_Node000011"><a xlink:title=" ">
<path fill="none" stroke="#63b8ff" d="M539.37,-274.68C564.17,-250.16 634.22,-181.81 661.5,-165 699.23,-141.75 729.45,-165.56 754.5,-129 765.39,-113.1 750.55,-93.86 736.55,-80.76"/>
<polygon fill="#63b8ff" stroke="#63b8ff" points="738.86,-78.12 729.03,-74.17 734.25,-83.39 738.86,-78.12"/>
</a>
</g>
</g>
<!-- Node12 -->
<g id="Node000012" class="node">
<title>Node12</title>
<g id="a_Node000012"><a xlink:href="Joueur_8h.html" target="_top" xlink:title="Déclaration de la classe Joueur.">
<polygon fill="white" stroke="#666666" points="614.5,-184 558.5,-184 558.5,-165 614.5,-165 614.5,-184"/>
<text text-anchor="middle" x="586.5" y="-172" font-family="Helvetica,sans-Serif" font-size="10.00">Joueur.h</text>
</a>
</g>
</g>
<!-- Node1&#45;&gt;Node12 -->
<g id="edge11_Node000001_Node000012" class="edge">
<title>Node1&#45;&gt;Node12</title>
<g id="a_edge11_Node000001_Node000012"><a xlink:title=" ">
<path fill="none" stroke="#63b8ff" d="M535.08,-274.66C544.28,-256.93 565.12,-216.73 577.26,-193.32"/>
<polygon fill="#63b8ff" stroke="#63b8ff" points="580.51,-194.65 582.01,-184.16 574.3,-191.42 580.51,-194.65"/>
</a>
</g>
</g>
<!-- Node13 -->
<g id="Node000013" class="node">
<title>Node13</title>
<g id="a_Node000013"><a xlink:href="Ticket_8h.html" target="_top" xlink:title="Déclaration de la classe Ticket.">
<polygon fill="white" stroke="#666666" points="399,-129 344,-129 344,-110 399,-110 399,-129"/>
<text text-anchor="middle" x="371.5" y="-117" font-family="Helvetica,sans-Serif" font-size="10.00">Ticket.h</text>
</a>
</g>
</g>
<!-- Node1&#45;&gt;Node13 -->
<g id="edge47_Node000001_Node000013" class="edge">
<title>Node1&#45;&gt;Node13</title>
<g id="a_edge47_Node000001_Node000013"><a xlink:title=" ">
<path fill="none" stroke="#63b8ff" d="M511.42,-274.85C481.67,-260.37 424.42,-228.38 393.5,-184 384.12,-170.54 378.41,-152.7 375.16,-139.36"/>
<polygon fill="#63b8ff" stroke="#63b8ff" points="378.54,-138.43 372.99,-129.41 371.7,-139.93 378.54,-138.43"/>
</a>
</g>
</g>
<!-- Node14 -->
<g id="Node000014" class="node">
<title>Node14</title>
<g id="a_Node000014"><a xlink:href="Ville_8h.html" target="_top" xlink:title="Déclaration de la classe Ville.">
<polygon fill="white" stroke="#666666" points="451,-74 404,-74 404,-55 451,-55 451,-74"/>
<text text-anchor="middle" x="427.5" y="-62" font-family="Helvetica,sans-Serif" font-size="10.00">Ville.h</text>
</a>
</g>
</g>
<!-- Node1&#45;&gt;Node14 -->
<g id="edge48_Node000001_Node000014" class="edge">
<title>Node1&#45;&gt;Node14</title>
<g id="a_edge48_Node000001_Node000014"><a xlink:title=" ">
<path fill="none" stroke="#63b8ff" d="M532.14,-274.98C536.83,-248.05 547.75,-163.4 511.5,-110 499.69,-92.6 478.83,-81.5 460.85,-74.74"/>
<polygon fill="#63b8ff" stroke="#63b8ff" points="461.83,-71.37 451.24,-71.41 459.55,-77.99 461.83,-71.37"/>
</a>
</g>
</g>
<!-- Node15 -->
<g id="Node000015" class="node">
<title>Node15</title>
<g id="a_Node000015"><a xlink:href="CarteTrain_8h.html" target="_top" xlink:title="Description de la classe CarteTrain.">
<polygon fill="white" stroke="#666666" points="326,-129 251,-129 251,-110 326,-110 326,-129"/>
<text text-anchor="middle" x="288.5" y="-117" font-family="Helvetica,sans-Serif" font-size="10.00">CarteTrain.h</text>
</a>
</g>
</g>
<!-- Node1&#45;&gt;Node15 -->
<g id="edge45_Node000001_Node000015" class="edge">
<title>Node1&#45;&gt;Node15</title>
<g id="a_edge45_Node000001_Node000015"><a xlink:title=" ">
<path fill="none" stroke="#63b8ff" d="M503.38,-274.99C481.02,-267.33 448.94,-254.85 423.5,-239 374.99,-208.77 326.74,-161.09 303.25,-136.44"/>
<polygon fill="#63b8ff" stroke="#63b8ff" points="305.67,-133.9 296.26,-129.02 300.57,-138.7 305.67,-133.9"/>
</a>
</g>
</g>
<!-- Node16 -->
<g id="Node000016" class="node">
<title>Node16</title>
<g id="a_Node000016"><a xlink:href="CouleurCarte_8h.html" target="_top" xlink:title="Définition des couleurs de cartes train et utilitaire de conversion.">
<polygon fill="white" stroke="#666666" points="339,-74 250,-74 250,-55 339,-55 339,-74"/>
<text text-anchor="middle" x="294.5" y="-62" font-family="Helvetica,sans-Serif" font-size="10.00">CouleurCarte.h</text>
</a>
</g>
</g>
<!-- Node1&#45;&gt;Node16 -->
<g id="edge46_Node000001_Node000016" class="edge">
<title>Node1&#45;&gt;Node16</title>
<g id="a_edge46_Node000001_Node000016"><a xlink:title=" ">
<path fill="none" stroke="#63b8ff" d="M499.19,-278.46C435.48,-266.27 292.5,-228.48 241.5,-129 231.7,-109.89 251.43,-91.44 269.54,-79.4"/>
<polygon fill="#63b8ff" stroke="#63b8ff" points="271.53,-82.29 278.16,-74.03 267.82,-76.35 271.53,-82.29"/>
</a>
</g>
</g>
<!-- Node19 -->
<g id="Node000019" class="node">
<title>Node19</title>
<g id="a_Node000019"><a xlink:href="Plateau_8h.html" target="_top" xlink:title="Déclaration de la classe Plateau.">
<polygon fill="white" stroke="#666666" points="464.5,-184 402.5,-184 402.5,-165 464.5,-165 464.5,-184"/>
<text text-anchor="middle" x="433.5" y="-172" font-family="Helvetica,sans-Serif" font-size="10.00">Plateau.h</text>
</a>
</g>
</g>
<!-- Node1&#45;&gt;Node19 -->
<g id="edge30_Node000001_Node000019" class="edge">
<title>Node1&#45;&gt;Node19</title>
<g id="a_edge30_Node000001_Node000019"><a xlink:title=" ">
<path fill="none" stroke="#63b8ff" d="M518.62,-274.7C507.57,-266.22 491,-252.69 478.5,-239 465.31,-224.54 452.64,-206.12 444.12,-192.84"/>
<polygon fill="#63b8ff" stroke="#63b8ff" points="446.99,-190.83 438.71,-184.22 441.06,-194.55 446.99,-190.83"/>
</a>
</g>
</g>
<!-- Node20 -->
<g id="Node000020" class="node">
<title>Node20</title>
<g id="a_Node000020"><a xlink:href="Affichage_8h.html" target="_top" xlink:title=" ">
<polygon fill="white" stroke="#666666" points="811,-239 740,-239 740,-220 811,-220 811,-239"/>
<text text-anchor="middle" x="775.5" y="-227" font-family="Helvetica,sans-Serif" font-size="10.00">Affichage.h</text>
</a>
</g>
</g>
<!-- Node1&#45;&gt;Node20 -->
<g id="edge36_Node000001_Node000020" class="edge">
<title>Node1&#45;&gt;Node20</title>
<g id="a_edge36_Node000001_Node000020"><a xlink:title=" ">
<path fill="none" stroke="#63b8ff" d="M561.53,-276.79C604.08,-267.58 680.85,-250.97 729.94,-240.36"/>
<polygon fill="#63b8ff" stroke="#63b8ff" points="730.94,-243.72 739.97,-238.19 729.46,-236.88 730.94,-243.72"/>
</a>
</g>
</g>
<!-- Node12&#45;&gt;Node4 -->
<g id="edge12_Node000012_Node000004" class="edge">
<title>Node12&#45;&gt;Node4</title>
<g id="a_edge12_Node000012_Node000004"><a xlink:title=" ">
<path fill="none" stroke="#63b8ff" d="M596.66,-164.81C605.4,-156.6 617.4,-143.43 622.5,-129 633.47,-97.99 643.33,-80.45 622.5,-55 598.97,-26.27 488.89,-15.68 433.5,-12.12"/>
<polygon fill="#63b8ff" stroke="#63b8ff" points="433.7,-8.63 423.51,-11.52 433.28,-15.62 433.7,-8.63"/>
</a>
</g>
</g>
<!-- Node12&#45;&gt;Node5 -->
<g id="edge13_Node000012_Node000005" class="edge">
<title>Node12&#45;&gt;Node5</title>
<g id="a_edge13_Node000012_Node000005"><a xlink:title=" ">
<path fill="none" stroke="#63b8ff" d="M569.31,-164.98C552.25,-156.54 525.87,-143.47 506.1,-133.68"/>
<polygon fill="#63b8ff" stroke="#63b8ff" points="507.52,-130.47 497,-129.17 504.41,-136.75 507.52,-130.47"/>
</a>
</g>
</g>
<!-- Node12&#45;&gt;Node10 -->
<g id="edge14_Node000012_Node000010" class="edge">
<title>Node12&#45;&gt;Node10</title>
<g id="a_edge14_Node000012_Node000010"><a xlink:title=" ">
<path fill="none" stroke="#63b8ff" d="M608.99,-164.98C633.12,-155.85 671.5,-141.32 697.79,-131.37"/>
<polygon fill="#63b8ff" stroke="#63b8ff" points="699.1,-134.61 707.22,-127.8 696.63,-128.07 699.1,-134.61"/>
</a>
</g>
</g>
<!-- Node12&#45;&gt;Node11 -->
<g id="edge15_Node000012_Node000011" class="edge">
<title>Node12&#45;&gt;Node11</title>
<g id="a_edge15_Node000012_Node000011"><a xlink:title=" ">
<path fill="none" stroke="#63b8ff" d="M601.98,-164.88C616.42,-156.52 638.28,-143.07 655.5,-129 673.29,-114.47 691.38,-95.33 703.39,-81.88"/>
<polygon fill="#63b8ff" stroke="#63b8ff" points="706.06,-84.15 710.03,-74.33 700.8,-79.53 706.06,-84.15"/>
</a>
</g>
</g>
<!-- Node12&#45;&gt;Node13 -->
<g id="edge16_Node000012_Node000013" class="edge">
<title>Node12&#45;&gt;Node13</title>
<g id="a_edge16_Node000012_Node000013"><a xlink:title=" ">
<path fill="none" stroke="#63b8ff" d="M558.39,-166.57C520.14,-157.14 451.59,-140.24 408.99,-129.74"/>
<polygon fill="#63b8ff" stroke="#63b8ff" points="409.82,-126.34 399.27,-127.35 408.15,-133.14 409.82,-126.34"/>
</a>
</g>
</g>
<!-- Node12&#45;&gt;Node15 -->
<g id="edge20_Node000012_Node000015" class="edge">
<title>Node12&#45;&gt;Node15</title>
<g id="a_edge20_Node000012_Node000015"><a xlink:title=" ">
<path fill="none" stroke="#63b8ff" d="M558.14,-168.57C513.21,-160.74 422.65,-144.89 336.13,-129.28"/>
<polygon fill="#63b8ff" stroke="#63b8ff" points="336.61,-125.82 326.15,-127.48 335.37,-132.7 336.61,-125.82"/>
</a>
</g>
</g>
<!-- Node17 -->
<g id="Node000017" class="node">
<title>Node17</title>
<g id="a_Node000017"><a xlink:href="Route_8h.html" target="_top" xlink:title="Déclaration de la classe Route.">
<polygon fill="white" stroke="#666666" points="613.5,-129 559.5,-129 559.5,-110 613.5,-110 613.5,-129"/>
<text text-anchor="middle" x="586.5" y="-117" font-family="Helvetica,sans-Serif" font-size="10.00">Route.h</text>
</a>
</g>
</g>
<!-- Node12&#45;&gt;Node17 -->
<g id="edge23_Node000012_Node000017" class="edge">
<title>Node12&#45;&gt;Node17</title>
<g id="a_edge23_Node000012_Node000017"><a xlink:title=" ">
<path fill="none" stroke="#63b8ff" d="M581.33,-164.75C579.84,-157.8 579.4,-147.85 580.02,-139.13"/>
<polygon fill="#63b8ff" stroke="#63b8ff" points="583.51,-139.47 581.37,-129.09 576.57,-138.53 583.51,-139.47"/>
</a>
</g>
</g>
<!-- Node13&#45;&gt;Node4 -->
<g id="edge19_Node000013_Node000004" class="edge">
<title>Node13&#45;&gt;Node4</title>
<g id="a_edge19_Node000013_Node000004"><a xlink:title=" ">
<path fill="none" stroke="#63b8ff" d="M373.96,-109.66C378.84,-92.09 389.85,-52.45 396.37,-28.95"/>
<polygon fill="#63b8ff" stroke="#63b8ff" points="399.79,-29.73 399.09,-19.16 393.05,-27.86 399.79,-29.73"/>
</a>
</g>
</g>
<!-- Node13&#45;&gt;Node14 -->
<g id="edge17_Node000013_Node000014" class="edge">
<title>Node13&#45;&gt;Node14</title>
<g id="a_edge17_Node000013_Node000014"><a xlink:title=" ">
<path fill="none" stroke="#63b8ff" d="M380.5,-109.98C388.69,-102.23 401.01,-90.58 410.97,-81.14"/>
<polygon fill="#63b8ff" stroke="#63b8ff" points="413.48,-83.59 418.34,-74.17 408.67,-78.5 413.48,-83.59"/>
</a>
</g>
</g>
<!-- Node14&#45;&gt;Node4 -->
<g id="edge18_Node000014_Node000004" class="edge">
<title>Node14&#45;&gt;Node4</title>
<g id="a_edge18_Node000014_Node000004"><a xlink:title=" ">
<path fill="none" stroke="#63b8ff" d="M423.21,-54.75C419.69,-47.57 414.59,-37.18 410.22,-28.27"/>
<polygon fill="#63b8ff" stroke="#63b8ff" points="413.26,-26.53 405.71,-19.09 406.98,-29.61 413.26,-26.53"/>
</a>
</g>
</g>
<!-- Node15&#45;&gt;Node16 -->
<g id="edge21_Node000015_Node000016" class="edge">
<title>Node15&#45;&gt;Node16</title>
<g id="a_edge21_Node000015_Node000016"><a xlink:title=" ">
<path fill="none" stroke="#63b8ff" d="M289.49,-109.75C290.28,-102.8 291.4,-92.85 292.39,-84.13"/>
<polygon fill="#63b8ff" stroke="#63b8ff" points="295.88,-84.42 293.53,-74.09 288.92,-83.63 295.88,-84.42"/>
</a>
</g>
</g>
<!-- Node16&#45;&gt;Node4 -->
<g id="edge22_Node000016_Node000004" class="edge">
<title>Node16&#45;&gt;Node4</title>
<g id="a_edge22_Node000016_Node000004"><a xlink:title=" ">
<path fill="none" stroke="#63b8ff" d="M311.69,-54.98C328.75,-46.54 355.13,-33.47 374.9,-23.68"/>
<polygon fill="#63b8ff" stroke="#63b8ff" points="376.59,-26.75 384,-19.17 373.48,-20.47 376.59,-26.75"/>
</a>
</g>
</g>
<!-- Node17&#45;&gt;Node4 -->
<g id="edge24_Node000017_Node000004" class="edge">
<title>Node17&#45;&gt;Node4</title>
<g id="a_edge24_Node000017_Node000004"><a xlink:title=" ">
<path fill="none" stroke="#63b8ff" d="M571.67,-109.84C539.66,-91.16 463.85,-46.9 425.13,-24.3"/>
<polygon fill="#63b8ff" stroke="#63b8ff" points="426.54,-21.07 416.14,-19.05 423.01,-27.11 426.54,-21.07"/>
</a>
</g>
</g>
<!-- Node17&#45;&gt;Node11 -->
<g id="edge29_Node000017_Node000011" class="edge">
<title>Node17&#45;&gt;Node11</title>
<g id="a_edge29_Node000017_Node000011"><a xlink:title=" ">
<path fill="none" stroke="#63b8ff" d="M607.55,-109.98C628.91,-101.34 662.2,-87.87 686.56,-78.02"/>
<polygon fill="#63b8ff" stroke="#63b8ff" points="688.11,-81.17 696.07,-74.17 685.49,-74.68 688.11,-81.17"/>
</a>
</g>
</g>
<!-- Node17&#45;&gt;Node12 -->
<g id="edge25_Node000017_Node000012" class="edge">
<title>Node17&#45;&gt;Node12</title>
<g id="a_edge25_Node000017_Node000012"><a xlink:title=" ">
<path fill="none" stroke="#63b8ff" d="M591.63,-129.09C593.14,-135.99 593.59,-145.93 592.99,-154.66"/>
<polygon fill="#63b8ff" stroke="#63b8ff" points="589.5,-154.38 591.67,-164.75 596.44,-155.29 589.5,-154.38"/>
</a>
</g>
</g>
<!-- Node17&#45;&gt;Node14 -->
<g id="edge26_Node000017_Node000014" class="edge">
<title>Node17&#45;&gt;Node14</title>
<g id="a_edge26_Node000017_Node000014"><a xlink:title=" ">
<path fill="none" stroke="#63b8ff" d="M560.95,-109.98C533.74,-100.91 490.57,-86.52 460.73,-76.58"/>
<polygon fill="#63b8ff" stroke="#63b8ff" points="461.76,-73.23 451.17,-73.39 459.55,-79.87 461.76,-73.23"/>
</a>
</g>
</g>
<!-- Node17&#45;&gt;Node16 -->
<g id="edge27_Node000017_Node000016" class="edge">
<title>Node17&#45;&gt;Node16</title>
<g id="a_edge27_Node000017_Node000016"><a xlink:title=" ">
<path fill="none" stroke="#63b8ff" d="M559.29,-113.56C511.55,-104.9 411.83,-86.8 349.31,-75.45"/>
<polygon fill="#63b8ff" stroke="#63b8ff" points="349.69,-71.96 339.23,-73.62 348.44,-78.85 349.69,-71.96"/>
</a>
</g>
</g>
<!-- Node18 -->
<g id="Node000018" class="node">
<title>Node18</title>
<g id="a_Node000018"><a xlink:href="CouleurRoute_8h.html" target="_top" xlink:title="Définition des couleurs de routes du plateau.">
<polygon fill="white" stroke="#666666" points="613.5,-74 521.5,-74 521.5,-55 613.5,-55 613.5,-74"/>
<text text-anchor="middle" x="567.5" y="-62" font-family="Helvetica,sans-Serif" font-size="10.00">CouleurRoute.h</text>
</a>
</g>
</g>
<!-- Node17&#45;&gt;Node18 -->
<g id="edge28_Node000017_Node000018" class="edge">
<title>Node17&#45;&gt;Node18</title>
<g id="a_edge28_Node000017_Node000018"><a xlink:title=" ">
<path fill="none" stroke="#63b8ff" d="M583.36,-109.75C580.82,-102.65 577.14,-92.4 573.97,-83.56"/>
<polygon fill="#63b8ff" stroke="#63b8ff" points="577.25,-82.32 570.58,-74.09 570.66,-84.68 577.25,-82.32"/>
</a>
</g>
</g>
<!-- Node19&#45;&gt;Node5 -->
<g id="edge31_Node000019_Node000005" class="edge">
<title>Node19&#45;&gt;Node5</title>
<g id="a_edge31_Node000019_Node000005"><a xlink:title=" ">
<path fill="none" stroke="#63b8ff" d="M441.1,-164.75C447.66,-157.18 457.32,-146.05 465.31,-136.84"/>
<polygon fill="#63b8ff" stroke="#63b8ff" points="468.13,-138.94 472.05,-129.09 462.85,-134.35 468.13,-138.94"/>
</a>
</g>
</g>
<!-- Node19&#45;&gt;Node13 -->
<g id="edge35_Node000019_Node000013" class="edge">
<title>Node19&#45;&gt;Node13</title>
<g id="a_edge35_Node000019_Node000013"><a xlink:title=" ">
<path fill="none" stroke="#63b8ff" d="M423.54,-164.98C414.37,-157.15 400.56,-145.34 389.47,-135.86"/>
<polygon fill="#63b8ff" stroke="#63b8ff" points="391.52,-133.01 381.64,-129.17 386.97,-138.33 391.52,-133.01"/>
</a>
</g>
</g>
<!-- Node19&#45;&gt;Node14 -->
<g id="edge32_Node000019_Node000014" class="edge">
<title>Node19&#45;&gt;Node14</title>
<g id="a_edge32_Node000019_Node000014"><a xlink:title=" ">
<path fill="none" stroke="#63b8ff" d="M433.01,-164.66C432.04,-147.17 429.85,-107.8 428.54,-84.27"/>
<polygon fill="#63b8ff" stroke="#63b8ff" points="432.03,-83.95 427.98,-74.16 425.04,-84.34 432.03,-83.95"/>
</a>
</g>
</g>
<!-- Node19&#45;&gt;Node15 -->
<g id="edge34_Node000019_Node000015" class="edge">
<title>Node19&#45;&gt;Node15</title>
<g id="a_edge34_Node000019_Node000015"><a xlink:title=" ">
<path fill="none" stroke="#63b8ff" d="M410.2,-164.98C386.25,-156.23 348.72,-142.51 321.67,-132.62"/>
<polygon fill="#63b8ff" stroke="#63b8ff" points="322.81,-129.32 312.22,-129.17 320.41,-135.89 322.81,-129.32"/>
</a>
</g>
</g>
<!-- Node19&#45;&gt;Node17 -->
<g id="edge33_Node000019_Node000017" class="edge">
<title>Node19&#45;&gt;Node17</title>
<g id="a_edge33_Node000019_Node000017"><a xlink:title=" ">
<path fill="none" stroke="#63b8ff" d="M458.08,-164.98C483.55,-156.16 523.54,-142.31 552.13,-132.41"/>
<polygon fill="#63b8ff" stroke="#63b8ff" points="553.42,-135.66 561.73,-129.08 551.13,-129.05 553.42,-135.66"/>
</a>
</g>
</g>
<!-- Node20&#45;&gt;Node12 -->
<g id="edge44_Node000020_Node000012" class="edge">
<title>Node20&#45;&gt;Node12</title>
<g id="a_edge44_Node000020_Node000012"><a xlink:title=" ">
<path fill="none" stroke="#63b8ff" d="M745.13,-219.98C712.37,-210.8 660.13,-196.15 624.62,-186.19"/>
<polygon fill="#63b8ff" stroke="#63b8ff" points="625.2,-182.72 614.63,-183.39 623.31,-189.46 625.2,-182.72"/>
</a>
</g>
</g>
<!-- Node20&#45;&gt;Node19 -->
<g id="edge43_Node000020_Node000019" class="edge">
<title>Node20&#45;&gt;Node19</title>
<g id="a_edge43_Node000020_Node000019"><a xlink:title=" ">
<path fill="none" stroke="#63b8ff" d="M739.87,-222.98C676.05,-213.09 542.59,-192.41 474.85,-181.91"/>
<polygon fill="#63b8ff" stroke="#63b8ff" points="474.98,-178.39 464.56,-180.31 473.91,-185.3 474.98,-178.39"/>
</a>
</g>
</g>
<!-- Node21 -->
<g id="Node000021" class="node">
<title>Node21</title>
<g id="a_Node000021"><a xlink:title=" ">
<polygon fill="#e0e0e0" stroke="#999999" points="1158,-184 1071,-184 1071,-165 1158,-165 1158,-184"/>
<text text-anchor="middle" x="1114.5" y="-172" font-family="Helvetica,sans-Serif" font-size="10.00">QMainWindow</text>
</a>
</g>
</g>
<!-- Node20&#45;&gt;Node21 -->
<g id="edge37_Node000020_Node000021" class="edge">
<title>Node20&#45;&gt;Node21</title>
<g id="a_edge37_Node000020_Node000021"><a xlink:title=" ">
<path fill="none" stroke="#63b8ff" d="M811.27,-222.34C816.05,-221.54 820.89,-220.74 825.5,-220 927.5,-203.58 955.58,-200.76 1060.73,-184.26"/>
<polygon fill="#63b8ff" stroke="#63b8ff" points="1061.48,-187.69 1070.81,-182.68 1060.39,-180.77 1061.48,-187.69"/>
</a>
</g>
</g>
<!-- Node22 -->
<g id="Node000022" class="node">
<title>Node22</title>
<g id="a_Node000022"><a xlink:title=" ">
<polygon fill="#e0e0e0" stroke="#999999" points="1272.5,-184 1176.5,-184 1176.5,-165 1272.5,-165 1272.5,-184"/>
<text text-anchor="middle" x="1224.5" y="-172" font-family="Helvetica,sans-Serif" font-size="10.00">QGraphicsScene</text>
</a>
</g>
</g>
<!-- Node20&#45;&gt;Node22 -->
<g id="edge38_Node000020_Node000022" class="edge">
<title>Node20&#45;&gt;Node22</title>
<g id="a_edge38_Node000020_Node000022"><a xlink:title=" ">
<path fill="none" stroke="#63b8ff" d="M811.24,-222.14C816.02,-221.37 820.88,-220.64 825.5,-220 973.66,-199.63 1014.15,-203.11 1166.14,-184.12"/>
<polygon fill="#63b8ff" stroke="#63b8ff" points="1166.84,-187.56 1176.32,-182.83 1165.96,-180.61 1166.84,-187.56"/>
</a>
</g>
</g>
<!-- Node23 -->
<g id="Node000023" class="node">
<title>Node23</title>
<g id="a_Node000023"><a xlink:title=" ">
<polygon fill="#e0e0e0" stroke="#999999" points="762,-184 671,-184 671,-165 762,-165 762,-184"/>
<text text-anchor="middle" x="716.5" y="-172" font-family="Helvetica,sans-Serif" font-size="10.00">QGraphicsView</text>
</a>
</g>
</g>
<!-- Node20&#45;&gt;Node23 -->
<g id="edge39_Node000020_Node000023" class="edge">
<title>Node20&#45;&gt;Node23</title>
<g id="a_edge39_Node000020_Node000023"><a xlink:title=" ">
<path fill="none" stroke="#63b8ff" d="M766.02,-219.98C757.3,-212.15 744.16,-200.34 733.6,-190.86"/>
<polygon fill="#63b8ff" stroke="#63b8ff" points="735.93,-188.25 726.15,-184.17 731.25,-193.46 735.93,-188.25"/>
</a>
</g>
</g>
<!-- Node24 -->
<g id="Node000024" class="node">
<title>Node24</title>
<g id="a_Node000024"><a xlink:title=" ">
<polygon fill="#e0e0e0" stroke="#999999" points="891,-184 780,-184 780,-165 891,-165 891,-184"/>
<text text-anchor="middle" x="835.5" y="-172" font-family="Helvetica,sans-Serif" font-size="10.00">QGraphicsRectItem</text>
</a>
</g>
</g>
<!-- Node20&#45;&gt;Node24 -->
<g id="edge40_Node000020_Node000024" class="edge">
<title>Node20&#45;&gt;Node24</title>
<g id="a_edge40_Node000020_Node000024"><a xlink:title=" ">
<path fill="none" stroke="#63b8ff" d="M785.14,-219.98C794.01,-212.15 807.37,-200.34 818.11,-190.86"/>
<polygon fill="#63b8ff" stroke="#63b8ff" points="820.51,-193.41 825.68,-184.17 815.87,-188.17 820.51,-193.41"/>
</a>
</g>
</g>
<!-- Node25 -->
<g id="Node000025" class="node">
<title>Node25</title>
<g id="a_Node000025"><a xlink:title=" ">
<polygon fill="#e0e0e0" stroke="#999999" points="982,-184 909,-184 909,-165 982,-165 982,-184"/>
<text text-anchor="middle" x="945.5" y="-172" font-family="Helvetica,sans-Serif" font-size="10.00">QTransform</text>
</a>
</g>
</g>
<!-- Node20&#45;&gt;Node25 -->
<g id="edge41_Node000020_Node000025" class="edge">
<title>Node20&#45;&gt;Node25</title>
<g id="a_edge41_Node000020_Node000025"><a xlink:title=" ">
<path fill="none" stroke="#63b8ff" d="M802.81,-219.98C831.35,-211.09 876.33,-197.07 908.14,-187.15"/>
<polygon fill="#63b8ff" stroke="#63b8ff" points="909.47,-190.4 917.97,-184.08 907.38,-183.72 909.47,-190.4"/>
</a>
</g>
</g>
<!-- Node26 -->
<g id="Node000026" class="node">
<title>Node26</title>
<g id="a_Node000026"><a xlink:title=" ">
<polygon fill="#e0e0e0" stroke="#999999" points="1053,-184 1000,-184 1000,-165 1053,-165 1053,-184"/>
<text text-anchor="middle" x="1026.5" y="-172" font-family="Helvetica,sans-Serif" font-size="10.00">QtMath</text>
</a>
</g>
</g>
<!-- Node20&#45;&gt;Node26 -->
<g id="edge42_Node000020_Node000026" class="edge">
<title>Node20&#45;&gt;Node26</title>
<g id="a_edge42_Node000020_Node000026"><a xlink:title=" ">
<path fill="none" stroke="#63b8ff" d="M811.13,-221.56C852.01,-213.51 921.29,-199.59 989.69,-184.35"/>
<polygon fill="#63b8ff" stroke="#63b8ff" points="990.78,-187.69 999.77,-182.09 989.25,-180.86 990.78,-187.69"/>
</a>
</g>
</g>
</g>
</svg>

<g id="navigator" transform="translate(0 0)" fill="#404254">
  <rect fill="#f2f5e9" fill-opacity="0.5" stroke="#606060" stroke-width=".5" x="0" y="0" width="60" height="60"/>
  <use id="zoomplus" xlink:href="#zoomPlus" x="17" y="9" onmousedown="handleZoom(evt,'in')"/>
  <use id="zoomminus" xlink:href="#zoomMin" x="42" y="9" onmousedown="handleZoom(evt,'out')"/>
  <use id="reset" xlink:href="#resetDef" x="30" y="36" onmousedown="handleReset()"/>
   <use id="arrowup" xlink:href="#arrowUp" x="0" y="0" onmousedown="handlePan(0,-1)"/>
  <use id="arrowright" xlink:href="#arrowRight" x="0" y="0" onmousedown="handlePan(1,0)"/>
  <use id="arrowdown" xlink:href="#arrowDown" x="0" y="0" onmousedown="handlePan(0,1)"/>
  <use id="arrowleft" xlink:href="#arrowLeft" x="0" y="0" onmousedown="handlePan(-1,0)"/>
</g>
<svg viewBox="0 0 15 15" width="100%" height="30px" preserveAspectRatio="xMaxYMin meet">
 <g id="arrow_out" transform="scale(0.3 0.3)">
  <a xlink:href="main_8cpp__incl_org.svg" target="_base">
   <rect id="button" ry="5" rx="5" y="6" x="6" height="38" width="38"
        fill="#f2f5e9" fill-opacity="0.5" stroke="#606060" stroke-width="1.0"/>
   <path id="arrow"
     d="M 11.500037,31.436501 C 11.940474,20.09759 22.043105,11.32322 32.158766,21.979434 L 37.068811,17.246167 C 37.068811,17.246167 37.088388,32 37.088388,32 L 22.160133,31.978069 C 22.160133,31.978069 26.997745,27.140456 26.997745,27.140456 C 18.528582,18.264221 13.291696,25.230495 11.500037,31.436501 z"
     style="fill:#404040;"/>
  </a>
 </g>
</svg>

<style type='text/css'>
<![CDATA[
[data-mouse-over-selected='false'] { opacity: 0.7; }
[data-mouse-over-selected='true']  { opacity: 1.0; }
]]>
</style>
<script type="application/ecmascript"><![CDATA[
document.addEventListener('DOMContentLoaded', (event) => {
  highlightEdges();
  highlightAdjacentNodes();
});
]]></script>
</svg>
