<?xml version="1.0" encoding="UTF-8" standalone="no"?>
<!DOCTYPE svg PUBLIC "-//W3C//DTD SVG 1.1//EN"
 "http://www.w3.org/Graphics/SVG/1.1/DTD/svg11.dtd">
<!-- Generated by graphviz version 2.43.0 (0)
 -->
<!-- Title: main Pages: 1 -->
<!--zoomable 827 -->

<svg id="main" version="1.1" xmlns="http://www.w3.org/2000/svg" xmlns:xlink="http://www.w3.org/1999/xlink" xml:space="preserve" onload="init(evt)">
<style type="text/css"><![CDATA[
.node, .edge {opacity: 0.7;}
.node.selected, .edge.selected {opacity: 1;}
.edge:hover path { stroke: red; }
.edge:hover polygon { stroke: red; fill: red; }
]]></style>

<defs>
  <circle id="rim" cx="0" cy="0" r="7"/>
  <circle id="rim2" cx="0" cy="0" r="3.5"/>
  <g id="zoomPlus">
    <use xlink:href="#rim" fill="#404040"><set attributeName="fill" to="#808080" begin="zoomplus.mouseover" end="zoomplus.mouseout"/></use>
    <path d="M-4,0h8M0,-4v8" fill="none" stroke="white" stroke-width="1.5" pointer-events="none"/>
  </g>
  <g id="zoomMin">
    <use xlink:href="#rim" fill="#404040"><set attributeName="fill" to="#808080" begin="zoomminus.mouseover" end="zoomminus.mouseout"/></use>
    <path d="M-4,0h8" fill="none" stroke="white" stroke-width="1.5" pointer-events="none"/>
  </g>
  <g id="arrowUp" transform="translate(30 24)">
    <use xlink:href="#rim"/>
    <path pointer-events="none" fill="none" stroke="white" stroke-width="1.5" d="M0,-3.0v7 M-2.5,-0.5L0,-3.0L2.5,-0.5"/>
  </g>
  <g id="arrowRight" transform="rotate(90) translate(36 -43)">
    <use xlink:href="#rim"/>
    <path pointer-events="none" fill="none" stroke="white" stroke-width="1.5" d="M0,-3.0v7 M-2.5,-0.5L0,-3.0L2.5,-0.5"/>
  </g>
  <g id="arrowDown" transform="rotate(180) translate(-30 -48)">
    <use xlink:href="#rim"/>
    <path pointer-events="none" fill="none" stroke="white" stroke-width="1.5" d="M0,-3.0v7 M-2.5,-0.5L0,-3.0L2.5,-0.5"/>
  </g>
  <g id="arrowLeft" transform="rotate(270) translate(-36 17)">
    <use xlink:href="#rim"/>
    <path pointer-events="none" fill="none" stroke="white" stroke-width="1.5" d="M0,-3.0v7 M-2.5,-0.5L0,-3.0L2.5,-0.5"/>
  </g>
  <g id="resetDef">
    <use xlink:href="#rim2" fill="#404040"><set attributeName="fill" to="#808080" begin="reset.mouseover" end="reset.mouseout"/></use>
  </g>
</defs>
<script type="application/ecmascript">
var viewWidth = 602;
var viewHeight = 827;
var sectionId = 'dynsection-1';
</script>
<script type="application/ecmascript" xlink:href="svg.min.js"/>
<svg id="graph" class="graph">
<g id="viewport">
<title>main</title>
<!-- Node1 -->
<g id="Node000001" class="node">
<title>Node1</title>
<g id="a_Node000001"><a xlink:title="Point d&#39;entrée principal de l&#39;application.">
<polygon fill="#999999" stroke="#666666" points="41,-409 0,-409 0,-390 41,-390 41,-409"/>
<text text-anchor="middle" x="20.5" y="-397" font-family="Helvetica,sans-Serif" font-size="10.00">main</text>
</a>
</g>
</g>
<!-- Node2 -->
<g id="Node000002" class="node">
<title>Node2</title>
<g id="a_Node000002"><a xlink:href="classJoueur.html#a94a7d8d74bc37662218183b404d9aaf6" target="_top" xlink:title="Affiche dans la console toutes les cartes train de la main.">
<polygon fill="white" stroke="#666666" points="213.5,-775 99.5,-775 99.5,-756 213.5,-756 213.5,-775"/>
<text text-anchor="middle" x="156.5" y="-763" font-family="Helvetica,sans-Serif" font-size="10.00">Joueur::afficherMain</text>
</a>
</g>
</g>
<!-- Node1&#45;&gt;Node2 -->
<g id="edge1_Node000001_Node000002" class="edge">
<title>Node1&#45;&gt;Node2</title>
<g id="a_edge1_Node000001_Node000002"><a xlink:title=" ">
<path fill="none" stroke="#63b8ff" d="M21.65,-409.21C22.65,-460.08 29.8,-695.42 77,-746.5 80.65,-750.45 84.98,-753.65 89.69,-756.22"/>
<polygon fill="#63b8ff" stroke="#63b8ff" points="88.59,-759.57 99.15,-760.45 91.44,-753.17 88.59,-759.57"/>
</a>
</g>
</g>
<!-- Node3 -->
<g id="Node000003" class="node">
<title>Node3</title>
<g id="a_Node000003"><a xlink:href="group__Cartes.html#gac1f3ab23fccaf6a815aa1096e2196198" target="_top" xlink:title="Convertit une CouleurCarte en chaîne de caractères lisible.">
<polygon fill="white" stroke="#666666" points="392,-794 300,-794 300,-775 392,-775 392,-794"/>
<text text-anchor="middle" x="346" y="-782" font-family="Helvetica,sans-Serif" font-size="10.00">couleurToString</text>
</a>
</g>
</g>
<!-- Node1&#45;&gt;Node3 -->
<g id="edge8_Node000001_Node000003" class="edge">
<title>Node1&#45;&gt;Node3</title>
<g id="a_edge8_Node000001_Node000003"><a xlink:title=" ">
<path fill="none" stroke="#63b8ff" d="M21.28,-409.03C20.28,-463.4 18.3,-733.65 77,-784.5 142.36,-841.11 254.06,-815.53 310.37,-797.26"/>
<polygon fill="#63b8ff" stroke="#63b8ff" points="311.53,-800.56 319.9,-794.06 309.3,-793.92 311.53,-800.56"/>
</a>
</g>
</g>
<!-- Node4 -->
<g id="Node000004" class="node">
<title>Node4</title>
<g id="a_Node000004"><a xlink:href="classPlateau.html#a420617f6997ed3710902f6e8546a9294" target="_top" xlink:title="Ajoute une carte train à la défausse de cartes.">
<polygon fill="white" stroke="#666666" points="226.5,-737.5 86.5,-737.5 86.5,-707.5 226.5,-707.5 226.5,-737.5"/>
<text text-anchor="start" x="94.5" y="-725.5" font-family="Helvetica,sans-Serif" font-size="10.00">Plateau::ajouterDefausse</text>
<text text-anchor="middle" x="156.5" y="-714.5" font-family="Helvetica,sans-Serif" font-size="10.00">Cartes</text>
</a>
</g>
</g>
<!-- Node1&#45;&gt;Node4 -->
<g id="edge3_Node000001_Node000004" class="edge">
<title>Node1&#45;&gt;Node4</title>
<g id="a_edge3_Node000001_Node000004"><a xlink:title=" ">
<path fill="none" stroke="#63b8ff" d="M21.97,-409.02C24.43,-455.04 37.27,-654 77,-698.5 77.76,-699.35 78.55,-700.17 79.36,-700.96"/>
<polygon fill="#63b8ff" stroke="#63b8ff" points="77.35,-703.84 87.35,-707.34 81.72,-698.37 77.35,-703.84"/>
</a>
</g>
</g>
<!-- Node5 -->
<g id="Node000005" class="node">
<title>Node5</title>
<g id="a_Node000005"><a xlink:href="classPlateau.html#a2dcc9eb89dfda47913dfd880d8593ebe" target="_top" xlink:title="Charge les routes depuis le fichier route.csv.">
<polygon fill="white" stroke="#666666" points="224,-689 89,-689 89,-670 224,-670 224,-689"/>
<text text-anchor="middle" x="156.5" y="-677" font-family="Helvetica,sans-Serif" font-size="10.00">Plateau::chargerMapCsv</text>
</a>
</g>
</g>
<!-- Node1&#45;&gt;Node5 -->
<g id="edge4_Node000001_Node000005" class="edge">
<title>Node1&#45;&gt;Node5</title>
<g id="a_edge4_Node000001_Node000005"><a xlink:title=" ">
<path fill="none" stroke="#63b8ff" d="M22.17,-409.02C25.38,-451.62 40.49,-624.37 77,-661.5 78.07,-662.59 79.2,-663.62 80.37,-664.59"/>
<polygon fill="#63b8ff" stroke="#63b8ff" points="78.43,-667.51 88.67,-670.22 82.35,-661.71 78.43,-667.51"/>
</a>
</g>
</g>
<!-- Node9 -->
<g id="Node000009" class="node">
<title>Node9</title>
<g id="a_Node000009"><a xlink:href="classJoueur.html#a3e8bed38dfccd47a6c1d1898b29134d2" target="_top" xlink:title="Retire la première occurrence d&#39;une carte de la main.">
<polygon fill="white" stroke="#666666" points="220.5,-652 92.5,-652 92.5,-633 220.5,-633 220.5,-652"/>
<text text-anchor="middle" x="156.5" y="-640" font-family="Helvetica,sans-Serif" font-size="10.00">Joueur::defausserCarte</text>
</a>
</g>
</g>
<!-- Node1&#45;&gt;Node9 -->
<g id="edge9_Node000001_Node000009" class="edge">
<title>Node1&#45;&gt;Node9</title>
<g id="a_edge9_Node000001_Node000009"><a xlink:title=" ">
<path fill="none" stroke="#63b8ff" d="M22.55,-409.22C26.97,-448.29 45.31,-593.32 77,-624.5 78.92,-626.39 80.99,-628.09 83.19,-629.63"/>
<polygon fill="#63b8ff" stroke="#63b8ff" points="81.77,-632.85 92.18,-634.79 85.25,-626.78 81.77,-632.85"/>
</a>
</g>
</g>
<!-- Node10 -->
<g id="Node000010" class="node">
<title>Node10</title>
<g id="a_Node000010"><a xlink:href="classJoueur.html#a7170d1939d6c1adcc4db6ecab42acd01" target="_top" xlink:title="Défausse un ticket vers la défausse du plateau.">
<polygon fill="white" stroke="#666666" points="222,-615 91,-615 91,-596 222,-596 222,-615"/>
<text text-anchor="middle" x="156.5" y="-603" font-family="Helvetica,sans-Serif" font-size="10.00">Joueur::defausserTicket</text>
</a>
</g>
</g>
<!-- Node1&#45;&gt;Node10 -->
<g id="edge10_Node000001_Node000010" class="edge">
<title>Node1&#45;&gt;Node10</title>
<g id="a_edge10_Node000001_Node000010"><a xlink:title=" ">
<path fill="none" stroke="#63b8ff" d="M21.2,-409.43C20.84,-440.67 24.19,-537.85 77,-587.5 78.53,-588.94 80.15,-590.27 81.84,-591.5"/>
<polygon fill="#63b8ff" stroke="#63b8ff" points="80.47,-594.76 90.85,-596.86 84.05,-588.74 80.47,-594.76"/>
</a>
</g>
</g>
<!-- Node12 -->
<g id="Node000012" class="node">
<title>Node12</title>
<g id="a_Node000012"><a xlink:href="classPlateau.html#a6fe48eb03009e27ff2796316bed4fd7a" target="_top" xlink:title="Retourne la défausse de tickets.">
<polygon fill="white" stroke="#666666" points="231.5,-578 81.5,-578 81.5,-559 231.5,-559 231.5,-578"/>
<text text-anchor="middle" x="156.5" y="-566" font-family="Helvetica,sans-Serif" font-size="10.00">Plateau::getDefausseTicket</text>
</a>
</g>
</g>
<!-- Node1&#45;&gt;Node12 -->
<g id="edge12_Node000001_Node000012" class="edge">
<title>Node1&#45;&gt;Node12</title>
<g id="a_edge12_Node000001_Node000012"><a xlink:title=" ">
<path fill="none" stroke="#63b8ff" d="M22.02,-409.39C24.01,-436.42 33.4,-512.11 77,-550.5 78.18,-551.54 79.41,-552.52 80.68,-553.45"/>
<polygon fill="#63b8ff" stroke="#63b8ff" points="79.22,-556.66 89.59,-558.84 82.84,-550.67 79.22,-556.66"/>
</a>
</g>
</g>
<!-- Node13 -->
<g id="Node000013" class="node">
<title>Node13</title>
<g id="a_Node000013"><a xlink:href="classJoueur.html#a1497e58300515e47eae5a5a10ea6a29a" target="_top" xlink:title="Retourne la main du joueur (cartes train en sa possession).">
<polygon fill="white" stroke="#666666" points="203,-541 110,-541 110,-522 203,-522 203,-541"/>
<text text-anchor="middle" x="156.5" y="-529" font-family="Helvetica,sans-Serif" font-size="10.00">Joueur::getMain</text>
</a>
</g>
</g>
<!-- Node1&#45;&gt;Node13 -->
<g id="edge13_Node000001_Node000013" class="edge">
<title>Node1&#45;&gt;Node13</title>
<g id="a_edge13_Node000001_Node000013"><a xlink:title=" ">
<path fill="none" stroke="#63b8ff" d="M23.29,-409.21C27.9,-431.39 42.36,-485.97 77,-513.5 83.69,-518.82 91.65,-522.62 99.91,-525.33"/>
<polygon fill="#63b8ff" stroke="#63b8ff" points="99.1,-528.74 109.67,-528.03 100.97,-521.99 99.1,-528.74"/>
</a>
</g>
</g>
<!-- Node14 -->
<g id="Node000014" class="node">
<title>Node14</title>
<g id="a_Node000014"><a xlink:href="classJoueur.html#abfbc3b89322fd9af44f0d070e29ea5fa" target="_top" xlink:title="Retourne le nombre de wagons restants.">
<polygon fill="white" stroke="#666666" points="214.5,-504 98.5,-504 98.5,-485 214.5,-485 214.5,-504"/>
<text text-anchor="middle" x="156.5" y="-492" font-family="Helvetica,sans-Serif" font-size="10.00">Joueur::getNbWagon</text>
</a>
</g>
</g>
<!-- Node1&#45;&gt;Node14 -->
<g id="edge14_Node000001_Node000014" class="edge">
<title>Node1&#45;&gt;Node14</title>
<g id="a_edge14_Node000001_Node000014"><a xlink:title=" ">
<path fill="none" stroke="#63b8ff" d="M26.57,-409.32C34.98,-424.65 53.27,-454.2 77,-470.5 83.44,-474.93 90.73,-478.56 98.2,-481.53"/>
<polygon fill="#63b8ff" stroke="#63b8ff" points="97.12,-484.86 107.71,-484.96 99.49,-478.28 97.12,-484.86"/>
</a>
</g>
</g>
<!-- Node15 -->
<g id="Node000015" class="node">
<title>Node15</title>
<g id="a_Node000015"><a xlink:href="classPlateau.html#a6afd8b5a1b762cdfbbcfbc4f7b6a9e55" target="_top" xlink:title="Retourne la pioche de cartes train.">
<polygon fill="white" stroke="#666666" points="399.5,-466 292.5,-466 292.5,-447 399.5,-447 399.5,-466"/>
<text text-anchor="middle" x="346" y="-454" font-family="Helvetica,sans-Serif" font-size="10.00">Plateau::getPioche</text>
</a>
</g>
</g>
<!-- Node1&#45;&gt;Node15 -->
<g id="edge15_Node000001_Node000015" class="edge">
<title>Node1&#45;&gt;Node15</title>
<g id="a_edge15_Node000001_Node000015"><a xlink:title=" ">
<path fill="none" stroke="#63b8ff" d="M32.01,-409.27C42.52,-418.37 59.58,-431.42 77,-437.5 144.27,-460.96 226.67,-463.19 282.2,-461.17"/>
<polygon fill="#63b8ff" stroke="#63b8ff" points="282.41,-464.67 292.25,-460.75 282.11,-457.67 282.41,-464.67"/>
</a>
</g>
</g>
<!-- Node16 -->
<g id="Node000016" class="node">
<title>Node16</title>
<g id="a_Node000016"><a xlink:href="classJoueur.html#a9152b111dcb3e4a522a80ac851888f61" target="_top" xlink:title="Retourne le prénom du joueur.">
<polygon fill="white" stroke="#666666" points="210,-391 103,-391 103,-372 210,-372 210,-391"/>
<text text-anchor="middle" x="156.5" y="-379" font-family="Helvetica,sans-Serif" font-size="10.00">Joueur::getPrenom</text>
</a>
</g>
</g>
<!-- Node1&#45;&gt;Node16 -->
<g id="edge16_Node000001_Node000016" class="edge">
<title>Node1&#45;&gt;Node16</title>
<g id="a_edge16_Node000001_Node000016"><a xlink:title=" ">
<path fill="none" stroke="#63b8ff" d="M41.27,-396.84C55.03,-395 74.2,-392.42 92.91,-389.91"/>
<polygon fill="#63b8ff" stroke="#63b8ff" points="93.48,-393.36 102.92,-388.56 92.54,-386.43 93.48,-393.36"/>
</a>
</g>
</g>
<!-- Node17 -->
<g id="Node000017" class="node">
<title>Node17</title>
<g id="a_Node000017"><a xlink:href="classPlateau.html#a1d12853204c743e3ce12bb7ed617b96e" target="_top" xlink:title="Retourne la liste des routes du plateau.">
<polygon fill="white" stroke="#666666" points="398,-353 294,-353 294,-334 398,-334 398,-353"/>
<text text-anchor="middle" x="346" y="-341" font-family="Helvetica,sans-Serif" font-size="10.00">Plateau::getRoute</text>
</a>
</g>
</g>
<!-- Node1&#45;&gt;Node17 -->
<g id="edge17_Node000001_Node000017" class="edge">
<title>Node1&#45;&gt;Node17</title>
<g id="a_edge17_Node000001_Node000017"><a xlink:title=" ">
<path fill="none" stroke="#63b8ff" d="M32.52,-389.93C43.13,-381.34 60.02,-369.22 77,-363.5 145.16,-340.54 228.41,-337.98 283.86,-339.57"/>
<polygon fill="#63b8ff" stroke="#63b8ff" points="283.77,-343.07 293.88,-339.92 284.01,-336.08 283.77,-343.07"/>
</a>
</g>
</g>
<!-- Node18 -->
<g id="Node000018" class="node">
<title>Node18</title>
<g id="a_Node000018"><a xlink:href="classJoueur.html#a8a61d1fa395455dd8a4a29ffbcbe6057" target="_top" xlink:title="Retourne les tickets destination du joueur.">
<polygon fill="white" stroke="#666666" points="205.5,-278 107.5,-278 107.5,-259 205.5,-259 205.5,-278"/>
<text text-anchor="middle" x="156.5" y="-266" font-family="Helvetica,sans-Serif" font-size="10.00">Joueur::getTicket</text>
</a>
</g>
</g>
<!-- Node1&#45;&gt;Node18 -->
<g id="edge18_Node000001_Node000018" class="edge">
<title>Node1&#45;&gt;Node18</title>
<g id="a_edge18_Node000001_Node000018"><a xlink:title=" ">
<path fill="none" stroke="#63b8ff" d="M23.37,-389.98C28.14,-368.24 42.92,-314.73 77,-287.5 83.09,-282.64 90.23,-278.99 97.68,-276.26"/>
<polygon fill="#63b8ff" stroke="#63b8ff" points="98.73,-279.6 107.22,-273.27 96.64,-272.92 98.73,-279.6"/>
</a>
</g>
</g>
<!-- Node19 -->
<g id="Node000019" class="node">
<title>Node19</title>
<g id="a_Node000019"><a xlink:href="classJoueur.html#aadd87efcea0d7e32335ec0ef0d041587" target="_top" xlink:title="Retourne le nombre de tickets validés.">
<polygon fill="white" stroke="#666666" points="220.5,-241 92.5,-241 92.5,-222 220.5,-222 220.5,-241"/>
<text text-anchor="middle" x="156.5" y="-229" font-family="Helvetica,sans-Serif" font-size="10.00">Joueur::getTicketValide</text>
</a>
</g>
</g>
<!-- Node1&#45;&gt;Node19 -->
<g id="edge19_Node000001_Node000019" class="edge">
<title>Node1&#45;&gt;Node19</title>
<g id="a_edge19_Node000001_Node000019"><a xlink:title=" ">
<path fill="none" stroke="#63b8ff" d="M22.09,-389.77C24.26,-363.16 34.06,-288.61 77,-250.5 78.97,-248.75 81.08,-247.15 83.29,-245.7"/>
<polygon fill="#63b8ff" stroke="#63b8ff" points="85.19,-248.65 92.27,-240.76 81.82,-242.51 85.19,-248.65"/>
</a>
</g>
</g>
<!-- Node20 -->
<g id="Node000020" class="node">
<title>Node20</title>
<g id="a_Node000020"><a xlink:href="classAffichage.html#ae77eaf95ebb6e1323148959e062df5d9" target="_top" xlink:title="Redessine l&#39;intégralité de la scène pour refléter l&#39;état courant du jeu.">
<polygon fill="white" stroke="#666666" points="220,-315 93,-315 93,-296 220,-296 220,-315"/>
<text text-anchor="middle" x="156.5" y="-303" font-family="Helvetica,sans-Serif" font-size="10.00">Affichage::mettreAJour</text>
</a>
</g>
</g>
<!-- Node1&#45;&gt;Node20 -->
<g id="edge20_Node000001_Node000020" class="edge">
<title>Node1&#45;&gt;Node20</title>
<g id="a_edge20_Node000001_Node000020"><a xlink:title=" ">
<path fill="none" stroke="#63b8ff" d="M26.61,-389.82C35.07,-374.71 53.42,-345.58 77,-329.5 83.46,-325.1 90.75,-321.48 98.23,-318.51"/>
<polygon fill="#63b8ff" stroke="#63b8ff" points="99.51,-321.77 107.74,-315.09 97.15,-315.18 99.51,-321.77"/>
</a>
</g>
</g>
<!-- Node24 -->
<g id="Node000024" class="node">
<title>Node24</title>
<g id="a_Node000024"><a xlink:href="classJoueur.html#a80b54de4915f02378ac710c060f6c20c" target="_top" xlink:title="Pioche la carte du dessus de la pioche et l&#39;ajoute à la main.">
<polygon fill="white" stroke="#666666" points="214.5,-428 98.5,-428 98.5,-409 214.5,-409 214.5,-428"/>
<text text-anchor="middle" x="156.5" y="-416" font-family="Helvetica,sans-Serif" font-size="10.00">Joueur::piocherCarte</text>
</a>
</g>
</g>
<!-- Node1&#45;&gt;Node24 -->
<g id="edge25_Node000001_Node000024" class="edge">
<title>Node1&#45;&gt;Node24</title>
<g id="a_edge25_Node000001_Node000024"><a xlink:title=" ">
<path fill="none" stroke="#63b8ff" d="M41.27,-402.3C53.87,-404.09 71,-406.52 88.16,-408.95"/>
<polygon fill="#63b8ff" stroke="#63b8ff" points="87.84,-412.44 98.23,-410.38 88.82,-405.51 87.84,-412.44"/>
</a>
</g>
</g>
<!-- Node26 -->
<g id="Node000026" class="node">
<title>Node26</title>
<g id="a_Node000026"><a xlink:href="classJoueur.html#a7d00bfc5fbc7e0c5e0fb3d2334ae397b" target="_top" xlink:title="Ajoute un ticket destination à la main du joueur.">
<polygon fill="white" stroke="#666666" points="216,-204 97,-204 97,-185 216,-185 216,-204"/>
<text text-anchor="middle" x="156.5" y="-192" font-family="Helvetica,sans-Serif" font-size="10.00">Joueur::piocherTicket</text>
</a>
</g>
</g>
<!-- Node1&#45;&gt;Node26 -->
<g id="edge28_Node000001_Node000026" class="edge">
<title>Node1&#45;&gt;Node26</title>
<g id="a_edge28_Node000001_Node000026"><a xlink:title=" ">
<path fill="none" stroke="#63b8ff" d="M21.26,-389.7C21.09,-358.86 24.93,-262.9 77,-213.5 80.15,-210.51 83.68,-207.97 87.46,-205.81"/>
<polygon fill="#63b8ff" stroke="#63b8ff" points="89.14,-208.89 96.66,-201.43 86.13,-202.57 89.14,-208.89"/>
</a>
</g>
</g>
<!-- Node27 -->
<g id="Node000027" class="node">
<title>Node27</title>
<g id="a_Node000027"><a xlink:href="classJoueur.html#ad208eeeb7c847301bfab4d577ab7ded4" target="_top" xlink:title="Modifie le nombre de tickets validés.">
<polygon fill="white" stroke="#666666" points="227,-167 86,-167 86,-148 227,-148 227,-167"/>
<text text-anchor="middle" x="156.5" y="-155" font-family="Helvetica,sans-Serif" font-size="10.00">Joueur::setNbTicketValide</text>
</a>
</g>
</g>
<!-- Node1&#45;&gt;Node27 -->
<g id="edge29_Node000001_Node000027" class="edge">
<title>Node1&#45;&gt;Node27</title>
<g id="a_edge29_Node000001_Node000027"><a xlink:title=" ">
<path fill="none" stroke="#63b8ff" d="M22.57,-389.88C27.09,-351.19 45.73,-207.57 77,-176.5 78.45,-175.05 80,-173.71 81.62,-172.47"/>
<polygon fill="#63b8ff" stroke="#63b8ff" points="83.69,-175.3 90.27,-167 79.95,-169.38 83.69,-175.3"/>
</a>
</g>
</g>
<!-- Node28 -->
<g id="Node000028" class="node">
<title>Node28</title>
<g id="a_Node000028"><a xlink:href="classJoueur.html#a947bf232fa6e20dfe4bfadaf10eb61b1" target="_top" xlink:title="Modifie le nombre de wagons restants.">
<polygon fill="white" stroke="#666666" points="214,-130 99,-130 99,-111 214,-111 214,-130"/>
<text text-anchor="middle" x="156.5" y="-118" font-family="Helvetica,sans-Serif" font-size="10.00">Joueur::setNbWagon</text>
</a>
</g>
</g>
<!-- Node1&#45;&gt;Node28 -->
<g id="edge30_Node000001_Node000028" class="edge">
<title>Node1&#45;&gt;Node28</title>
<g id="a_edge30_Node000001_Node000028"><a xlink:title=" ">
<path fill="none" stroke="#63b8ff" d="M22.22,-389.78C25.56,-347.06 41.03,-176.46 77,-139.5 80.64,-135.76 84.87,-132.71 89.45,-130.23"/>
<polygon fill="#63b8ff" stroke="#63b8ff" points="90.94,-133.4 98.63,-126.11 88.07,-127.01 90.94,-133.4"/>
</a>
</g>
</g>
<!-- Node29 -->
<g id="Node000029" class="node">
<title>Node29</title>
<g id="a_Node000029"><a xlink:href="classPlateau.html#a8894718dc81395a6491d6cf3d82acf9e" target="_top" xlink:title="Remplace la pioche par un nouveau jeu de cartes.">
<polygon fill="white" stroke="#666666" points="210,-93 103,-93 103,-74 210,-74 210,-93"/>
<text text-anchor="middle" x="156.5" y="-81" font-family="Helvetica,sans-Serif" font-size="10.00">Plateau::setPioche</text>
</a>
</g>
</g>
<!-- Node1&#45;&gt;Node29 -->
<g id="edge31_Node000001_Node000029" class="edge">
<title>Node1&#45;&gt;Node29</title>
<g id="a_edge31_Node000001_Node000029"><a xlink:title=" ">
<path fill="none" stroke="#63b8ff" d="M21.93,-389.99C24.18,-344.05 36.21,-145.5 77,-102.5 81.56,-97.69 87.11,-94.01 93.13,-91.21"/>
<polygon fill="#63b8ff" stroke="#63b8ff" points="94.81,-94.32 102.9,-87.48 92.31,-87.78 94.81,-94.32"/>
</a>
</g>
</g>
<!-- Node30 -->
<g id="Node000030" class="node">
<title>Node30</title>
<g id="a_Node000030"><a xlink:href="classJoueur.html#a1c632f392231561d3966fd5b73d2e3fc" target="_top" xlink:title="Vérifie si un ticket destination est complété par les routes du joueur.">
<polygon fill="white" stroke="#666666" points="215,-56 98,-56 98,-37 215,-37 215,-56"/>
<text text-anchor="middle" x="156.5" y="-44" font-family="Helvetica,sans-Serif" font-size="10.00">Joueur::verifierTicket</text>
</a>
</g>
</g>
<!-- Node1&#45;&gt;Node30 -->
<g id="edge32_Node000001_Node000030" class="edge">
<title>Node1&#45;&gt;Node30</title>
<g id="a_edge32_Node000001_Node000030"><a xlink:title=" ">
<path fill="none" stroke="#63b8ff" d="M21.72,-389.82C23.03,-340.18 31.47,-114.47 77,-65.5 80.4,-61.84 84.38,-58.83 88.7,-56.37"/>
<polygon fill="#63b8ff" stroke="#63b8ff" points="90.41,-59.43 97.99,-52.02 87.45,-53.09 90.41,-59.43"/>
</a>
</g>
</g>
<!-- Node34 -->
<g id="Node000034" class="node">
<title>Node34</title>
<g id="a_Node000034"><a xlink:href="classPlateau.html#a8659e37f60965eab38b8ef9d3fce03e8" target="_top" xlink:title="Vide la défausse de tickets.">
<polygon fill="white" stroke="#666666" points="236,-19 77,-19 77,0 236,0 236,-19"/>
<text text-anchor="middle" x="156.5" y="-7" font-family="Helvetica,sans-Serif" font-size="10.00">Plateau::viderDefausseTicket</text>
</a>
</g>
</g>
<!-- Node1&#45;&gt;Node34 -->
<g id="edge36_Node000001_Node000034" class="edge">
<title>Node1&#45;&gt;Node34</title>
<g id="a_edge36_Node000001_Node000034"><a xlink:title=" ">
<path fill="none" stroke="#63b8ff" d="M21.54,-389.83C21.97,-336.98 26.67,-83.52 77,-28.5 78.2,-27.18 79.48,-25.95 80.82,-24.8"/>
<polygon fill="#63b8ff" stroke="#63b8ff" points="82.92,-27.6 89.13,-19.02 78.93,-21.86 82.92,-27.6"/>
</a>
</g>
</g>
<!-- Node2&#45;&gt;Node3 -->
<g id="edge2_Node000002_Node000003" class="edge">
<title>Node2&#45;&gt;Node3</title>
<g id="a_edge2_Node000002_Node000003"><a xlink:title=" ">
<path fill="none" stroke="#63b8ff" d="M213.5,-771.17C237.67,-773.62 265.87,-776.48 289.93,-778.92"/>
<polygon fill="#63b8ff" stroke="#63b8ff" points="289.67,-782.41 299.97,-779.94 290.37,-775.45 289.67,-782.41"/>
</a>
</g>
</g>
<!-- Node6 -->
<g id="Node000006" class="node">
<title>Node6</title>
<g id="a_Node000006"><a xlink:href="classRoute.html#a40bc5ccba806d6470eb063e0fc158044" target="_top" xlink:title="Définit la couleur de la voie parallèle.">
<polygon fill="white" stroke="#666666" points="401,-729 291,-729 291,-710 401,-710 401,-729"/>
<text text-anchor="middle" x="346" y="-717" font-family="Helvetica,sans-Serif" font-size="10.00">Route::setCouleur2</text>
</a>
</g>
</g>
<!-- Node5&#45;&gt;Node6 -->
<g id="edge5_Node000005_Node000006" class="edge">
<title>Node5&#45;&gt;Node6</title>
<g id="a_edge5_Node000005_Node000006"><a xlink:title=" ">
<path fill="none" stroke="#63b8ff" d="M202.41,-689.08C228.85,-694.72 262.48,-701.9 290.44,-707.86"/>
<polygon fill="#63b8ff" stroke="#63b8ff" points="289.95,-711.33 300.46,-710 291.41,-704.49 289.95,-711.33"/>
</a>
</g>
</g>
<!-- Node7 -->
<g id="Node000007" class="node">
<title>Node7</title>
<g id="a_Node000007"><a xlink:href="classRoute.html#a54a7fd7fe299289b6e2d77b79b738e34" target="_top" xlink:title="Définit la ville de départ de la route.">
<polygon fill="white" stroke="#666666" points="393.5,-692 298.5,-692 298.5,-673 393.5,-673 393.5,-692"/>
<text text-anchor="middle" x="346" y="-680" font-family="Helvetica,sans-Serif" font-size="10.00">Route::setVilleA</text>
</a>
</g>
</g>
<!-- Node5&#45;&gt;Node7 -->
<g id="edge6_Node000005_Node000007" class="edge">
<title>Node5&#45;&gt;Node7</title>
<g id="a_edge6_Node000005_Node000007"><a xlink:title=" ">
<path fill="none" stroke="#63b8ff" d="M224.13,-680.57C245.02,-680.9 267.87,-681.27 288.02,-681.59"/>
<polygon fill="#63b8ff" stroke="#63b8ff" points="288.24,-685.09 298.29,-681.75 288.35,-678.09 288.24,-685.09"/>
</a>
</g>
</g>
<!-- Node8 -->
<g id="Node000008" class="node">
<title>Node8</title>
<g id="a_Node000008"><a xlink:href="classRoute.html#a7a6cd8b6979a29ab92a6dbb48169b0df" target="_top" xlink:title="Définit la ville d&#39;arrivée de la route.">
<polygon fill="white" stroke="#666666" points="393.5,-655 298.5,-655 298.5,-636 393.5,-636 393.5,-655"/>
<text text-anchor="middle" x="346" y="-643" font-family="Helvetica,sans-Serif" font-size="10.00">Route::setVilleB</text>
</a>
</g>
</g>
<!-- Node5&#45;&gt;Node8 -->
<g id="edge7_Node000005_Node000008" class="edge">
<title>Node5&#45;&gt;Node8</title>
<g id="a_edge7_Node000005_Node000008"><a xlink:title=" ">
<path fill="none" stroke="#63b8ff" d="M210.23,-669.94C234.6,-665.52 263.58,-660.26 288.41,-655.76"/>
<polygon fill="#63b8ff" stroke="#63b8ff" points="289.2,-659.18 298.41,-653.95 287.95,-652.29 289.2,-659.18"/>
</a>
</g>
</g>
<!-- Node11 -->
<g id="Node000011" class="node">
<title>Node11</title>
<g id="a_Node000011"><a xlink:href="classPlateau.html#ad806d1907ed88807bea61924a7398a4c" target="_top" xlink:title="Ajoute un ticket à la défausse.">
<polygon fill="white" stroke="#666666" points="416,-617.5 276,-617.5 276,-587.5 416,-587.5 416,-617.5"/>
<text text-anchor="start" x="284" y="-605.5" font-family="Helvetica,sans-Serif" font-size="10.00">Plateau::ajouterDefausse</text>
<text text-anchor="middle" x="346" y="-594.5" font-family="Helvetica,sans-Serif" font-size="10.00">Ticket</text>
</a>
</g>
</g>
<!-- Node10&#45;&gt;Node11 -->
<g id="edge11_Node000010_Node000011" class="edge">
<title>Node10&#45;&gt;Node11</title>
<g id="a_edge11_Node000010_Node000011"><a xlink:title=" ">
<path fill="none" stroke="#63b8ff" d="M222.03,-604.47C236.14,-604.24 251.24,-604 265.85,-603.77"/>
<polygon fill="#63b8ff" stroke="#63b8ff" points="265.93,-607.27 275.87,-603.61 265.82,-600.27 265.93,-607.27"/>
</a>
</g>
</g>
<!-- Node20&#45;&gt;Node17 -->
<g id="edge24_Node000020_Node000017" class="edge">
<title>Node20&#45;&gt;Node17</title>
<g id="a_edge24_Node000020_Node000017"><a xlink:title=" ">
<path fill="none" stroke="#63b8ff" d="M204.81,-315.09C230.11,-320.22 261.45,-326.57 288.07,-331.96"/>
<polygon fill="#63b8ff" stroke="#63b8ff" points="287.53,-335.42 298.03,-333.98 288.92,-328.56 287.53,-335.42"/>
</a>
</g>
</g>
<!-- Node21 -->
<g id="Node000021" class="node">
<title>Node21</title>
<g id="a_Node000021"><a xlink:href="classAffichage.html#a099d5b63d7b73ef42081aa015959b7d5" target="_top" xlink:title="Dessine l&#39;intégralité du plateau (villes + routes).">
<polygon fill="white" stroke="#666666" points="419,-315 273,-315 273,-296 419,-296 419,-315"/>
<text text-anchor="middle" x="346" y="-303" font-family="Helvetica,sans-Serif" font-size="10.00">Affichage::dessinerPlateau</text>
</a>
</g>
</g>
<!-- Node20&#45;&gt;Node21 -->
<g id="edge21_Node000020_Node000021" class="edge">
<title>Node20&#45;&gt;Node21</title>
<g id="a_edge21_Node000020_Node000021"><a xlink:title=" ">
<path fill="none" stroke="#63b8ff" d="M220.2,-305.5C233.82,-305.5 248.42,-305.5 262.67,-305.5"/>
<polygon fill="#63b8ff" stroke="#63b8ff" points="262.97,-309 272.97,-305.5 262.97,-302 262.97,-309"/>
</a>
</g>
</g>
<!-- Node22 -->
<g id="Node000022" class="node">
<title>Node22</title>
<g id="a_Node000022"><a xlink:href="classAffichage.html#aef32b46ea8533260f1a6c9ca0b34d9a7" target="_top" xlink:title="Dessine une route entre deux points, avec support des routes doubles.">
<polygon fill="white" stroke="#666666" points="594,-333 456,-333 456,-314 594,-314 594,-333"/>
<text text-anchor="middle" x="525" y="-321" font-family="Helvetica,sans-Serif" font-size="10.00">Affichage::dessinerRoute</text>
</a>
</g>
</g>
<!-- Node21&#45;&gt;Node22 -->
<g id="edge22_Node000021_Node000022" class="edge">
<title>Node21&#45;&gt;Node22</title>
<g id="a_edge22_Node000021_Node000022"><a xlink:title=" ">
<path fill="none" stroke="#63b8ff" d="M419.25,-312.85C428.07,-313.74 437.11,-314.66 446.01,-315.57"/>
<polygon fill="#63b8ff" stroke="#63b8ff" points="445.68,-319.05 455.98,-316.58 446.38,-312.09 445.68,-319.05"/>
</a>
</g>
</g>
<!-- Node23 -->
<g id="Node000023" class="node">
<title>Node23</title>
<g id="a_Node000023"><a xlink:href="classAffichage.html#aefd220a7781092371db8958d5e384168" target="_top" xlink:title="Dessine une ville sous forme de cercle étiqueté.">
<polygon fill="white" stroke="#666666" points="590.5,-296 459.5,-296 459.5,-277 590.5,-277 590.5,-296"/>
<text text-anchor="middle" x="525" y="-284" font-family="Helvetica,sans-Serif" font-size="10.00">Affichage::dessinerVille</text>
</a>
</g>
</g>
<!-- Node21&#45;&gt;Node23 -->
<g id="edge23_Node000021_Node000023" class="edge">
<title>Node21&#45;&gt;Node23</title>
<g id="a_edge23_Node000021_Node000023"><a xlink:title=" ">
<path fill="none" stroke="#63b8ff" d="M419.25,-297.74C429.11,-296.69 439.25,-295.6 449.16,-294.53"/>
<polygon fill="#63b8ff" stroke="#63b8ff" points="449.8,-297.98 459.37,-293.44 449.06,-291.02 449.8,-297.98"/>
</a>
</g>
</g>
<!-- Node24&#45;&gt;Node15 -->
<g id="edge26_Node000024_Node000015" class="edge">
<title>Node24&#45;&gt;Node15</title>
<g id="a_edge26_Node000024_Node000015"><a xlink:title=" ">
<path fill="none" stroke="#63b8ff" d="M204.81,-428.09C230.11,-433.22 261.45,-439.57 288.07,-444.96"/>
<polygon fill="#63b8ff" stroke="#63b8ff" points="287.53,-448.42 298.03,-446.98 288.92,-441.56 287.53,-448.42"/>
</a>
</g>
</g>
<!-- Node25 -->
<g id="Node000025" class="node">
<title>Node25</title>
<g id="a_Node000025"><a xlink:href="classPlateau.html#abcefb7901e1d2e7aa98bd4c1dbd01c37" target="_top" xlink:title="Retire la carte du dessus de la pioche.">
<polygon fill="white" stroke="#666666" points="420,-428 272,-428 272,-409 420,-409 420,-428"/>
<text text-anchor="middle" x="346" y="-416" font-family="Helvetica,sans-Serif" font-size="10.00">Plateau::retirerCartePioche</text>
</a>
</g>
</g>
<!-- Node24&#45;&gt;Node25 -->
<g id="edge27_Node000024_Node000025" class="edge">
<title>Node24&#45;&gt;Node25</title>
<g id="a_edge27_Node000024_Node000025"><a xlink:title=" ">
<path fill="none" stroke="#63b8ff" d="M214.52,-418.5C229.37,-418.5 245.68,-418.5 261.58,-418.5"/>
<polygon fill="#63b8ff" stroke="#63b8ff" points="261.96,-422 271.96,-418.5 261.96,-415 261.96,-422"/>
</a>
</g>
</g>
<!-- Node31 -->
<g id="Node000031" class="node">
<title>Node31</title>
<g id="a_Node000031"><a xlink:href="classVille.html#aea19fe1610b57b39563d6e1b7e5a9d8f" target="_top" xlink:title="Retourne le nom de la ville.">
<polygon fill="white" stroke="#666666" points="387.5,-93 304.5,-93 304.5,-74 387.5,-74 387.5,-93"/>
<text text-anchor="middle" x="346" y="-81" font-family="Helvetica,sans-Serif" font-size="10.00">Ville::getNom</text>
</a>
</g>
</g>
<!-- Node30&#45;&gt;Node31 -->
<g id="edge33_Node000030_Node000031" class="edge">
<title>Node30&#45;&gt;Node31</title>
<g id="a_edge33_Node000030_Node000031"><a xlink:title=" ">
<path fill="none" stroke="#63b8ff" d="M205.79,-56.03C233.04,-61.41 267.05,-68.12 294.64,-73.56"/>
<polygon fill="#63b8ff" stroke="#63b8ff" points="294,-77 304.48,-75.51 295.35,-70.14 294,-77"/>
</a>
</g>
</g>
<!-- Node32 -->
<g id="Node000032" class="node">
<title>Node32</title>
<g id="a_Node000032"><a xlink:href="classTicket.html#ae7367fe4608274199fb32c6772cdb934" target="_top" xlink:title="Retourne la ville de départ du ticket.">
<polygon fill="white" stroke="#666666" points="394,-56 298,-56 298,-37 394,-37 394,-56"/>
<text text-anchor="middle" x="346" y="-44" font-family="Helvetica,sans-Serif" font-size="10.00">Ticket::getVilleA</text>
</a>
</g>
</g>
<!-- Node30&#45;&gt;Node32 -->
<g id="edge34_Node000030_Node000032" class="edge">
<title>Node30&#45;&gt;Node32</title>
<g id="a_edge34_Node000030_Node000032"><a xlink:title=" ">
<path fill="none" stroke="#63b8ff" d="M215.03,-46.5C238.19,-46.5 264.84,-46.5 287.95,-46.5"/>
<polygon fill="#63b8ff" stroke="#63b8ff" points="287.96,-50 297.96,-46.5 287.96,-43 287.96,-50"/>
</a>
</g>
</g>
<!-- Node33 -->
<g id="Node000033" class="node">
<title>Node33</title>
<g id="a_Node000033"><a xlink:href="classTicket.html#a4d0198e0be5d53cf4573d31d436a162a" target="_top" xlink:title="Retourne la ville d&#39;arrivée du ticket.">
<polygon fill="white" stroke="#666666" points="394,-19 298,-19 298,0 394,0 394,-19"/>
<text text-anchor="middle" x="346" y="-7" font-family="Helvetica,sans-Serif" font-size="10.00">Ticket::getVilleB</text>
</a>
</g>
</g>
<!-- Node30&#45;&gt;Node33 -->
<g id="edge35_Node000030_Node000033" class="edge">
<title>Node30&#45;&gt;Node33</title>
<g id="a_edge35_Node000030_Node000033"><a xlink:title=" ">
<path fill="none" stroke="#63b8ff" d="M205.79,-36.97C230.9,-32.02 261.75,-25.93 288.03,-20.74"/>
<polygon fill="#63b8ff" stroke="#63b8ff" points="288.72,-24.17 297.85,-18.8 287.36,-17.31 288.72,-24.17"/>
</a>
</g>
</g>
</g>
</svg>

<g id="navigator" transform="translate(0 0)" fill="#404254">
  <rect fill="#f2f5e9" fill-opacity="0.5" stroke="#606060" stroke-width=".5" x="0" y="0" width="60" height="60"/>
  <use id="zoomplus" xlink:href="#zoomPlus" x="17" y="9" onmousedown="handleZoom(evt,'in')"/>
  <use id="zoomminus" xlink:href="#zoomMin" x="42" y="9" onmousedown="handleZoom(evt,'out')"/>
  <use id="reset" xlink:href="#resetDef" x="30" y="36" onmousedown="handleReset()"/>
   <use id="arrowup" xlink:href="#arrowUp" x="0" y="0" onmousedown="handlePan(0,-1)"/>
  <use id="arrowright" xlink:href="#arrowRight" x="0" y="0" onmousedown="handlePan(1,0)"/>
  <use id="arrowdown" xlink:href="#arrowDown" x="0" y="0" onmousedown="handlePan(0,1)"/>
  <use id="arrowleft" xlink:href="#arrowLeft" x="0" y="0" onmousedown="handlePan(-1,0)"/>
</g>
<svg viewBox="0 0 15 15" width="100%" height="30px" preserveAspectRatio="xMaxYMin meet">
 <g id="arrow_out" transform="scale(0.3 0.3)">
  <a xlink:href="main_8cpp_a0ddf1224851353fc92bfbff6f499fa97_cgraph_org.svg" target="_base">
   <rect id="button" ry="5" rx="5" y="6" x="6" height="38" width="38"
        fill="#f2f5e9" fill-opacity="0.5" stroke="#606060" stroke-width="1.0"/>
   <path id="arrow"
     d="M 11.500037,31.436501 C 11.940474,20.09759 22.043105,11.32322 32.158766,21.979434 L 37.068811,17.246167 C 37.068811,17.246167 37.088388,32 37.088388,32 L 22.160133,31.978069 C 22.160133,31.978069 26.997745,27.140456 26.997745,27.140456 C 18.528582,18.264221 13.291696,25.230495 11.500037,31.436501 z"
     style="fill:#404040;"/>
  </a>
 </g>
</svg>

<style type='text/css'>
<![CDATA[
[data-mouse-over-selected='false'] { opacity: 0.7; }
[data-mouse-over-selected='true']  { opacity: 1.0; }
]]>
</style>
<script type="application/ecmascript"><![CDATA[
document.addEventListener('DOMContentLoaded', (event) => {
  highlightEdges();
  highlightAdjacentNodes();
});
]]></script>
</svg>
