<?xml version="1.0" encoding="UTF-8" standalone="no"?>
<!DOCTYPE svg PUBLIC "-//W3C//DTD SVG 1.1//EN"
 "http://www.w3.org/Graphics/SVG/1.1/DTD/svg11.dtd">
<!-- Generated by graphviz version 2.43.0 (0)
 -->
<!-- Title: Plateau.h Pages: 1 -->
<svg width="609pt" height="302pt"
 viewBox="0.00 0.00 609.21 302.00" xmlns="http://www.w3.org/2000/svg" xmlns:xlink="http://www.w3.org/1999/xlink">
<g id="graph0" class="graph" transform="scale(1 1) rotate(0) translate(4 298)">
<title>Plateau.h</title>
<!-- Node1 -->
<g id="Node000001" class="node">
<title>Node1</title>
<g id="a_Node000001"><a xlink:title="Déclaration de la classe Plateau.">
<polygon fill="#999999" stroke="#666666" points="106.71,-294 44.71,-294 44.71,-275 106.71,-275 106.71,-294"/>
<text text-anchor="middle" x="75.71" y="-282" font-family="Helvetica,sans-Serif" font-size="10.00">Plateau.h</text>
</a>
</g>
</g>
<!-- Node2 -->
<g id="Node000002" class="node">
<title>Node2</title>
<g id="a_Node000002"><a xlink:title=" ">
<polygon fill="#e0e0e0" stroke="#999999" points="68.21,-129 21.21,-129 21.21,-110 68.21,-110 68.21,-129"/>
<text text-anchor="middle" x="44.71" y="-117" font-family="Helvetica,sans-Serif" font-size="10.00">vector</text>
</a>
</g>
</g>
<!-- Node1&#45;&gt;Node2 -->
<g id="edge1_Node000001_Node000002" class="edge">
<title>Node1&#45;&gt;Node2</title>
<g id="a_edge1_Node000001_Node000002"><a xlink:title=" ">
<path fill="none" stroke="#63b8ff" d="M72.49,-274.75C69.33,-265.86 64.58,-251.64 61.71,-239 53.79,-204.17 48.84,-162.69 46.44,-139.19"/>
<polygon fill="#63b8ff" stroke="#63b8ff" points="49.92,-138.83 45.47,-129.21 42.96,-139.5 49.92,-138.83"/>
</a>
</g>
</g>
<!-- Node3 -->
<g id="Node000003" class="node">
<title>Node3</title>
<g id="a_Node000003"><a xlink:href="Ville_8h.html" target="_top" xlink:title="Déclaration de la classe Ville.">
<polygon fill="white" stroke="#666666" points="148.21,-74 101.21,-74 101.21,-55 148.21,-55 148.21,-74"/>
<text text-anchor="middle" x="124.71" y="-62" font-family="Helvetica,sans-Serif" font-size="10.00">Ville.h</text>
</a>
</g>
</g>
<!-- Node1&#45;&gt;Node3 -->
<g id="edge2_Node000001_Node000003" class="edge">
<title>Node1&#45;&gt;Node3</title>
<g id="a_edge2_Node000001_Node000003"><a xlink:title=" ">
<path fill="none" stroke="#63b8ff" d="M67.29,-274.87C42.43,-248.32 -26.6,-166.26 11.71,-110 29.31,-84.15 64.44,-73.32 90.89,-68.78"/>
<polygon fill="#63b8ff" stroke="#63b8ff" points="91.53,-72.22 100.9,-67.28 90.49,-65.3 91.53,-72.22"/>
</a>
</g>
</g>
<!-- Node5 -->
<g id="Node000005" class="node">
<title>Node5</title>
<g id="a_Node000005"><a xlink:href="Route_8h.html" target="_top" xlink:title="Déclaration de la classe Route.">
<polygon fill="white" stroke="#666666" points="320.71,-239 266.71,-239 266.71,-220 320.71,-220 320.71,-239"/>
<text text-anchor="middle" x="293.71" y="-227" font-family="Helvetica,sans-Serif" font-size="10.00">Route.h</text>
</a>
</g>
</g>
<!-- Node1&#45;&gt;Node5 -->
<g id="edge4_Node000001_Node000005" class="edge">
<title>Node1&#45;&gt;Node5</title>
<g id="a_edge4_Node000001_Node000005"><a xlink:title=" ">
<path fill="none" stroke="#63b8ff" d="M106.94,-275.91C146.53,-266.28 214.68,-249.71 256.8,-239.47"/>
<polygon fill="#63b8ff" stroke="#63b8ff" points="257.77,-242.84 266.66,-237.08 256.11,-236.04 257.77,-242.84"/>
</a>
</g>
</g>
<!-- Node9 -->
<g id="Node000009" class="node">
<title>Node9</title>
<g id="a_Node000009"><a xlink:href="Ticket_8h.html" target="_top" xlink:title="Déclaration de la classe Ticket.">
<polygon fill="white" stroke="#666666" points="180.21,-129 125.21,-129 125.21,-110 180.21,-110 180.21,-129"/>
<text text-anchor="middle" x="152.71" y="-117" font-family="Helvetica,sans-Serif" font-size="10.00">Ticket.h</text>
</a>
</g>
</g>
<!-- Node1&#45;&gt;Node9 -->
<g id="edge23_Node000001_Node000009" class="edge">
<title>Node1&#45;&gt;Node9</title>
<g id="a_edge23_Node000001_Node000009"><a xlink:title=" ">
<path fill="none" stroke="#63b8ff" d="M79.85,-274.74C91.97,-249.09 127.54,-173.78 144.08,-138.78"/>
<polygon fill="#63b8ff" stroke="#63b8ff" points="147.44,-139.84 148.55,-129.31 141.11,-136.85 147.44,-139.84"/>
</a>
</g>
</g>
<!-- Node10 -->
<g id="Node000010" class="node">
<title>Node10</title>
<g id="a_Node000010"><a xlink:href="CarteTrain_8h.html" target="_top" xlink:title="Description de la classe CarteTrain.">
<polygon fill="white" stroke="#666666" points="601.21,-129 526.21,-129 526.21,-110 601.21,-110 601.21,-129"/>
<text text-anchor="middle" x="563.71" y="-117" font-family="Helvetica,sans-Serif" font-size="10.00">CarteTrain.h</text>
</a>
</g>
</g>
<!-- Node1&#45;&gt;Node10 -->
<g id="edge22_Node000001_Node000010" class="edge">
<title>Node1&#45;&gt;Node10</title>
<g id="a_edge22_Node000001_Node000010"><a xlink:title=" ">
<path fill="none" stroke="#63b8ff" d="M106.83,-282.62C180.34,-279.23 368.33,-262.9 498.71,-184 519.28,-171.55 538.39,-151.43 550.49,-137.17"/>
<polygon fill="#63b8ff" stroke="#63b8ff" points="553.42,-139.12 557.07,-129.18 548.01,-134.67 553.42,-139.12"/>
</a>
</g>
</g>
<!-- Node4 -->
<g id="Node000004" class="node">
<title>Node4</title>
<g id="a_Node000004"><a xlink:title=" ">
<polygon fill="#e0e0e0" stroke="#999999" points="400.71,-19 356.71,-19 356.71,0 400.71,0 400.71,-19"/>
<text text-anchor="middle" x="378.71" y="-7" font-family="Helvetica,sans-Serif" font-size="10.00">string</text>
</a>
</g>
</g>
<!-- Node3&#45;&gt;Node4 -->
<g id="edge3_Node000003_Node000004" class="edge">
<title>Node3&#45;&gt;Node4</title>
<g id="a_edge3_Node000003_Node000004"><a xlink:title=" ">
<path fill="none" stroke="#63b8ff" d="M148.61,-58.51C194.47,-48.94 294.88,-27.99 346.56,-17.21"/>
<polygon fill="#63b8ff" stroke="#63b8ff" points="347.44,-20.6 356.52,-15.13 346.01,-13.75 347.44,-20.6"/>
</a>
</g>
</g>
<!-- Node5&#45;&gt;Node3 -->
<g id="edge18_Node000005_Node000003" class="edge">
<title>Node5&#45;&gt;Node3</title>
<g id="a_edge18_Node000005_Node000003"><a xlink:title=" ">
<path fill="none" stroke="#63b8ff" d="M266.69,-222.43C225.73,-211.6 149.28,-184.68 116.71,-129 108.74,-115.38 112.08,-97.33 116.63,-83.95"/>
<polygon fill="#63b8ff" stroke="#63b8ff" points="119.98,-84.99 120.34,-74.4 113.45,-82.45 119.98,-84.99"/>
</a>
</g>
</g>
<!-- Node5&#45;&gt;Node4 -->
<g id="edge5_Node000005_Node000004" class="edge">
<title>Node5&#45;&gt;Node4</title>
<g id="a_edge5_Node000005_Node000004"><a xlink:title=" ">
<path fill="none" stroke="#63b8ff" d="M303.32,-219.91C320.75,-203.8 357.63,-167.23 377.71,-129 393.32,-99.29 397.8,-88.17 392.71,-55 391.36,-46.19 388.58,-36.74 385.86,-28.82"/>
<polygon fill="#63b8ff" stroke="#63b8ff" points="389.05,-27.35 382.31,-19.18 382.48,-29.77 389.05,-27.35"/>
</a>
</g>
</g>
<!-- Node6 -->
<g id="Node000006" class="node">
<title>Node6</title>
<g id="a_Node000006"><a xlink:href="Joueur_8h.html" target="_top" xlink:title="Déclaration de la classe Joueur.">
<polygon fill="white" stroke="#666666" points="321.71,-184 265.71,-184 265.71,-165 321.71,-165 321.71,-184"/>
<text text-anchor="middle" x="293.71" y="-172" font-family="Helvetica,sans-Serif" font-size="10.00">Joueur.h</text>
</a>
</g>
</g>
<!-- Node5&#45;&gt;Node6 -->
<g id="edge6_Node000005_Node000006" class="edge">
<title>Node5&#45;&gt;Node6</title>
<g id="a_edge6_Node000005_Node000006"><a xlink:title=" ">
<path fill="none" stroke="#63b8ff" d="M288.54,-219.75C287.05,-212.8 286.61,-202.85 287.23,-194.13"/>
<polygon fill="#63b8ff" stroke="#63b8ff" points="290.72,-194.47 288.58,-184.09 283.78,-193.53 290.72,-194.47"/>
</a>
</g>
</g>
<!-- Node8 -->
<g id="Node000008" class="node">
<title>Node8</title>
<g id="a_Node000008"><a xlink:href="CouleurWagon_8h.html" target="_top" xlink:title="Définition des couleurs de wagons des joueurs.">
<polygon fill="white" stroke="#666666" points="294.71,-129 198.71,-129 198.71,-110 294.71,-110 294.71,-129"/>
<text text-anchor="middle" x="246.71" y="-117" font-family="Helvetica,sans-Serif" font-size="10.00">CouleurWagon.h</text>
</a>
</g>
</g>
<!-- Node5&#45;&gt;Node8 -->
<g id="edge21_Node000005_Node000008" class="edge">
<title>Node5&#45;&gt;Node8</title>
<g id="a_edge21_Node000005_Node000008"><a xlink:title=" ">
<path fill="none" stroke="#63b8ff" d="M284.14,-219.97C275.5,-211.68 263.17,-198.28 256.71,-184 250.3,-169.84 247.91,-152.31 247.06,-139.25"/>
<polygon fill="#63b8ff" stroke="#63b8ff" points="250.55,-138.98 246.64,-129.13 243.55,-139.26 250.55,-138.98"/>
</a>
</g>
</g>
<!-- Node11 -->
<g id="Node000011" class="node">
<title>Node11</title>
<g id="a_Node000011"><a xlink:href="CouleurCarte_8h.html" target="_top" xlink:title="Définition des couleurs de cartes train et utilitaire de conversion.">
<polygon fill="white" stroke="#666666" points="542.21,-74 453.21,-74 453.21,-55 542.21,-55 542.21,-74"/>
<text text-anchor="middle" x="497.71" y="-62" font-family="Helvetica,sans-Serif" font-size="10.00">CouleurCarte.h</text>
</a>
</g>
</g>
<!-- Node5&#45;&gt;Node11 -->
<g id="edge19_Node000005_Node000011" class="edge">
<title>Node5&#45;&gt;Node11</title>
<g id="a_edge19_Node000005_Node000011"><a xlink:title=" ">
<path fill="none" stroke="#63b8ff" d="M320.73,-225.66C366.77,-220.25 457.5,-206.91 478.71,-184 503.99,-156.7 503.24,-109.82 500.48,-83.97"/>
<polygon fill="#63b8ff" stroke="#63b8ff" points="503.95,-83.48 499.2,-74 497.01,-84.37 503.95,-83.48"/>
</a>
</g>
</g>
<!-- Node12 -->
<g id="Node000012" class="node">
<title>Node12</title>
<g id="a_Node000012"><a xlink:href="CouleurRoute_8h.html" target="_top" xlink:title="Définition des couleurs de routes du plateau.">
<polygon fill="white" stroke="#666666" points="469.71,-184 377.71,-184 377.71,-165 469.71,-165 469.71,-184"/>
<text text-anchor="middle" x="423.71" y="-172" font-family="Helvetica,sans-Serif" font-size="10.00">CouleurRoute.h</text>
</a>
</g>
</g>
<!-- Node5&#45;&gt;Node12 -->
<g id="edge20_Node000005_Node000012" class="edge">
<title>Node5&#45;&gt;Node12</title>
<g id="a_edge20_Node000005_Node000012"><a xlink:title=" ">
<path fill="none" stroke="#63b8ff" d="M314.6,-219.98C335.79,-211.34 368.84,-197.87 393.01,-188.02"/>
<polygon fill="#63b8ff" stroke="#63b8ff" points="394.5,-191.19 402.44,-184.17 391.86,-184.7 394.5,-191.19"/>
</a>
</g>
</g>
<!-- Node6&#45;&gt;Node2 -->
<g id="edge8_Node000006_Node000002" class="edge">
<title>Node6&#45;&gt;Node2</title>
<g id="a_edge8_Node000006_Node000002"><a xlink:title=" ">
<path fill="none" stroke="#63b8ff" d="M265.63,-167.52C219.44,-157.69 127.63,-138.15 78.15,-127.62"/>
<polygon fill="#63b8ff" stroke="#63b8ff" points="78.78,-124.17 68.27,-125.51 77.32,-131.02 78.78,-124.17"/>
</a>
</g>
</g>
<!-- Node6&#45;&gt;Node4 -->
<g id="edge7_Node000006_Node000004" class="edge">
<title>Node6&#45;&gt;Node4</title>
<g id="a_edge7_Node000006_Node000004"><a xlink:title=" ">
<path fill="none" stroke="#63b8ff" d="M314.72,-164.88C329.73,-157.59 349.07,-145.66 359.71,-129 379.36,-98.23 381.01,-54.05 380.1,-29.25"/>
<polygon fill="#63b8ff" stroke="#63b8ff" points="383.58,-28.84 379.53,-19.05 376.59,-29.23 383.58,-28.84"/>
</a>
</g>
</g>
<!-- Node6&#45;&gt;Node5 -->
<g id="edge17_Node000006_Node000005" class="edge">
<title>Node6&#45;&gt;Node5</title>
<g id="a_edge17_Node000006_Node000005"><a xlink:title=" ">
<path fill="none" stroke="#63b8ff" d="M298.84,-184.09C300.35,-190.99 300.8,-200.93 300.2,-209.66"/>
<polygon fill="#63b8ff" stroke="#63b8ff" points="296.71,-209.38 298.88,-219.75 303.65,-210.29 296.71,-209.38"/>
</a>
</g>
</g>
<!-- Node7 -->
<g id="Node000007" class="node">
<title>Node7</title>
<g id="a_Node000007"><a xlink:title=" ">
<polygon fill="#e0e0e0" stroke="#999999" points="350.71,-129 312.71,-129 312.71,-110 350.71,-110 350.71,-129"/>
<text text-anchor="middle" x="331.71" y="-117" font-family="Helvetica,sans-Serif" font-size="10.00">map</text>
</a>
</g>
</g>
<!-- Node6&#45;&gt;Node7 -->
<g id="edge9_Node000006_Node000007" class="edge">
<title>Node6&#45;&gt;Node7</title>
<g id="a_edge9_Node000006_Node000007"><a xlink:title=" ">
<path fill="none" stroke="#63b8ff" d="M299.98,-164.75C305.3,-157.34 313.06,-146.5 319.58,-137.41"/>
<polygon fill="#63b8ff" stroke="#63b8ff" points="322.57,-139.26 325.55,-129.09 316.88,-135.18 322.57,-139.26"/>
</a>
</g>
</g>
<!-- Node6&#45;&gt;Node8 -->
<g id="edge10_Node000006_Node000008" class="edge">
<title>Node6&#45;&gt;Node8</title>
<g id="a_edge10_Node000006_Node000008"><a xlink:title=" ">
<path fill="none" stroke="#63b8ff" d="M285.95,-164.75C279.24,-157.18 269.37,-146.05 261.2,-136.84"/>
<polygon fill="#63b8ff" stroke="#63b8ff" points="263.58,-134.25 254.33,-129.09 258.34,-138.89 263.58,-134.25"/>
</a>
</g>
</g>
<!-- Node6&#45;&gt;Node9 -->
<g id="edge11_Node000006_Node000009" class="edge">
<title>Node6&#45;&gt;Node9</title>
<g id="a_edge11_Node000006_Node000009"><a xlink:title=" ">
<path fill="none" stroke="#63b8ff" d="M271.06,-164.98C247.86,-156.27 211.59,-142.63 185.31,-132.75"/>
<polygon fill="#63b8ff" stroke="#63b8ff" points="186.37,-129.41 175.78,-129.17 183.9,-135.97 186.37,-129.41"/>
</a>
</g>
</g>
<!-- Node6&#45;&gt;Node10 -->
<g id="edge14_Node000006_Node000010" class="edge">
<title>Node6&#45;&gt;Node10</title>
<g id="a_edge14_Node000006_Node000010"><a xlink:title=" ">
<path fill="none" stroke="#63b8ff" d="M321.84,-167.98C367.87,-158.94 459.78,-140.9 516.1,-129.85"/>
<polygon fill="#63b8ff" stroke="#63b8ff" points="517.05,-133.23 526.18,-127.87 515.7,-126.36 517.05,-133.23"/>
</a>
</g>
</g>
<!-- Node9&#45;&gt;Node3 -->
<g id="edge12_Node000009_Node000003" class="edge">
<title>Node9&#45;&gt;Node3</title>
<g id="a_edge12_Node000009_Node000003"><a xlink:title=" ">
<path fill="none" stroke="#63b8ff" d="M148.09,-109.75C144.25,-102.49 138.69,-91.95 133.94,-82.98"/>
<polygon fill="#63b8ff" stroke="#63b8ff" points="137.01,-81.3 129.25,-74.09 130.82,-84.57 137.01,-81.3"/>
</a>
</g>
</g>
<!-- Node9&#45;&gt;Node4 -->
<g id="edge13_Node000009_Node000004" class="edge">
<title>Node9&#45;&gt;Node4</title>
<g id="a_edge13_Node000009_Node000004"><a xlink:title=" ">
<path fill="none" stroke="#63b8ff" d="M170.82,-109.84C210.43,-90.92 304.91,-45.77 351.62,-23.45"/>
<polygon fill="#63b8ff" stroke="#63b8ff" points="353.31,-26.52 360.82,-19.05 350.29,-20.2 353.31,-26.52"/>
</a>
</g>
</g>
<!-- Node10&#45;&gt;Node11 -->
<g id="edge15_Node000010_Node000011" class="edge">
<title>Node10&#45;&gt;Node11</title>
<g id="a_edge15_Node000010_Node000011"><a xlink:title=" ">
<path fill="none" stroke="#63b8ff" d="M553.11,-109.98C543.25,-102.07 528.36,-90.11 516.49,-80.58"/>
<polygon fill="#63b8ff" stroke="#63b8ff" points="518.5,-77.7 508.51,-74.17 514.11,-83.16 518.5,-77.7"/>
</a>
</g>
</g>
<!-- Node11&#45;&gt;Node4 -->
<g id="edge16_Node000011_Node000004" class="edge">
<title>Node11&#45;&gt;Node4</title>
<g id="a_edge16_Node000011_Node000004"><a xlink:title=" ">
<path fill="none" stroke="#63b8ff" d="M478.59,-54.98C459.36,-46.42 429.48,-33.11 407.4,-23.28"/>
<polygon fill="#63b8ff" stroke="#63b8ff" points="408.74,-20.04 398.18,-19.17 405.89,-26.44 408.74,-20.04"/>
</a>
</g>
</g>
</g>
</svg>
