<?xml version="1.0" encoding="UTF-8" standalone="no"?>
<!DOCTYPE svg PUBLIC "-//W3C//DTD SVG 1.1//EN"
 "http://www.w3.org/Graphics/SVG/1.1/DTD/svg11.dtd">
<!-- Generated by graphviz version 2.43.0 (0)
 -->
<!-- Title: Plateau.cpp Pages: 1 -->
<svg width="886pt" height="357pt"
 viewBox="0.00 0.00 885.68 357.00" xmlns="http://www.w3.org/2000/svg" xmlns:xlink="http://www.w3.org/1999/xlink">
<g id="graph0" class="graph" transform="scale(1 1) rotate(0) translate(4 353)">
<title>Plateau.cpp</title>
<!-- Node1 -->
<g id="Node000001" class="node">
<title>Node1</title>
<g id="a_Node000001"><a xlink:title=" ">
<polygon fill="#999999" stroke="#666666" points="602.68,-349 528.68,-349 528.68,-330 602.68,-330 602.68,-349"/>
<text text-anchor="middle" x="565.68" y="-337" font-family="Helvetica,sans-Serif" font-size="10.00">Plateau.cpp</text>
</a>
</g>
</g>
<!-- Node2 -->
<g id="Node000002" class="node">
<title>Node2</title>
<g id="a_Node000002"><a xlink:href="Plateau_8h.html" target="_top" xlink:title="Déclaration de la classe Plateau.">
<polygon fill="white" stroke="#666666" points="461.68,-294 399.68,-294 399.68,-275 461.68,-275 461.68,-294"/>
<text text-anchor="middle" x="430.68" y="-282" font-family="Helvetica,sans-Serif" font-size="10.00">Plateau.h</text>
</a>
</g>
</g>
<!-- Node1&#45;&gt;Node2 -->
<g id="edge1_Node000001_Node000002" class="edge">
<title>Node1&#45;&gt;Node2</title>
<g id="a_edge1_Node000001_Node000002"><a xlink:title=" ">
<path fill="none" stroke="#63b8ff" d="M543.99,-329.98C521.88,-321.3 487.36,-307.75 462.23,-297.88"/>
<polygon fill="#63b8ff" stroke="#63b8ff" points="463.35,-294.57 452.76,-294.17 460.79,-301.08 463.35,-294.57"/>
</a>
</g>
</g>
<!-- Node3 -->
<g id="Node000003" class="node">
<title>Node3</title>
<g id="a_Node000003"><a xlink:title=" ">
<polygon fill="#e0e0e0" stroke="#999999" points="565.18,-129 518.18,-129 518.18,-110 565.18,-110 565.18,-129"/>
<text text-anchor="middle" x="541.68" y="-117" font-family="Helvetica,sans-Serif" font-size="10.00">vector</text>
</a>
</g>
</g>
<!-- Node1&#45;&gt;Node3 -->
<g id="edge32_Node000001_Node000003" class="edge">
<title>Node1&#45;&gt;Node3</title>
<g id="a_edge32_Node000001_Node000003"><a xlink:title=" ">
<path fill="none" stroke="#63b8ff" d="M564.74,-329.95C561.22,-297.95 548.75,-184.68 543.76,-139.4"/>
<polygon fill="#63b8ff" stroke="#63b8ff" points="547.21,-138.78 542.64,-129.22 540.26,-139.55 547.21,-138.78"/>
</a>
</g>
</g>
<!-- Node4 -->
<g id="Node000004" class="node">
<title>Node4</title>
<g id="a_Node000004"><a xlink:href="Ville_8h.html" target="_top" xlink:title="Déclaration de la classe Ville.">
<polygon fill="white" stroke="#666666" points="471.18,-74 424.18,-74 424.18,-55 471.18,-55 471.18,-74"/>
<text text-anchor="middle" x="447.68" y="-62" font-family="Helvetica,sans-Serif" font-size="10.00">Ville.h</text>
</a>
</g>
</g>
<!-- Node1&#45;&gt;Node4 -->
<g id="edge29_Node000001_Node000004" class="edge">
<title>Node1&#45;&gt;Node4</title>
<g id="a_edge29_Node000001_Node000004"><a xlink:title=" ">
<path fill="none" stroke="#63b8ff" d="M570.96,-329.9C581.4,-312.07 603.68,-269.46 603.68,-230.5 603.68,-230.5 603.68,-230.5 603.68,-173.5 603.68,-142.47 597.6,-130.91 574.68,-110 548.82,-86.4 509.72,-75.18 481.74,-69.94"/>
<polygon fill="#63b8ff" stroke="#63b8ff" points="482.06,-66.44 471.61,-68.2 480.88,-73.34 482.06,-66.44"/>
</a>
</g>
</g>
<!-- Node5 -->
<g id="Node000005" class="node">
<title>Node5</title>
<g id="a_Node000005"><a xlink:title=" ">
<polygon fill="#e0e0e0" stroke="#999999" points="357.68,-19 313.68,-19 313.68,0 357.68,0 357.68,-19"/>
<text text-anchor="middle" x="335.68" y="-7" font-family="Helvetica,sans-Serif" font-size="10.00">string</text>
</a>
</g>
</g>
<!-- Node1&#45;&gt;Node5 -->
<g id="edge31_Node000001_Node000005" class="edge">
<title>Node1&#45;&gt;Node5</title>
<g id="a_edge31_Node000001_Node000005"><a xlink:title=" ">
<path fill="none" stroke="#63b8ff" d="M577.55,-329.88C598.93,-313.26 641.68,-274.52 641.68,-230.5 641.68,-230.5 641.68,-230.5 641.68,-118.5 641.68,-60.93 446.63,-26.44 367.98,-14.88"/>
<polygon fill="#63b8ff" stroke="#63b8ff" points="368.08,-11.36 357.69,-13.4 367.09,-18.29 368.08,-11.36"/>
</a>
</g>
</g>
<!-- Node6 -->
<g id="Node000006" class="node">
<title>Node6</title>
<g id="a_Node000006"><a xlink:href="Route_8h.html" target="_top" xlink:title="Déclaration de la classe Route.">
<polygon fill="white" stroke="#666666" points="343.68,-239 289.68,-239 289.68,-220 343.68,-220 343.68,-239"/>
<text text-anchor="middle" x="316.68" y="-227" font-family="Helvetica,sans-Serif" font-size="10.00">Route.h</text>
</a>
</g>
</g>
<!-- Node1&#45;&gt;Node6 -->
<g id="edge27_Node000001_Node000006" class="edge">
<title>Node1&#45;&gt;Node6</title>
<g id="a_edge27_Node000001_Node000006"><a xlink:title=" ">
<path fill="none" stroke="#63b8ff" d="M528.52,-338.88C484.12,-337.58 409.35,-329.66 357.68,-294 341.52,-282.84 330.24,-263.03 323.66,-248.49"/>
<polygon fill="#63b8ff" stroke="#63b8ff" points="326.79,-246.91 319.69,-239.04 320.33,-249.61 326.79,-246.91"/>
</a>
</g>
</g>
<!-- Node7 -->
<g id="Node000007" class="node">
<title>Node7</title>
<g id="a_Node000007"><a xlink:href="Joueur_8h.html" target="_top" xlink:title="Déclaration de la classe Joueur.">
<polygon fill="white" stroke="#666666" points="347.68,-184 291.68,-184 291.68,-165 347.68,-165 347.68,-184"/>
<text text-anchor="middle" x="319.68" y="-172" font-family="Helvetica,sans-Serif" font-size="10.00">Joueur.h</text>
</a>
</g>
</g>
<!-- Node1&#45;&gt;Node7 -->
<g id="edge25_Node000001_Node000007" class="edge">
<title>Node1&#45;&gt;Node7</title>
<g id="a_edge25_Node000001_Node000007"><a xlink:title=" ">
<path fill="none" stroke="#63b8ff" d="M528.64,-337.73C490.3,-335.12 430.52,-325.74 390.68,-294 361.76,-270.96 372.2,-251.4 352.68,-220 346.71,-210.4 339.27,-200.24 332.97,-192.05"/>
<polygon fill="#63b8ff" stroke="#63b8ff" points="335.62,-189.77 326.69,-184.07 330.12,-194.09 335.62,-189.77"/>
</a>
</g>
</g>
<!-- Node10 -->
<g id="Node000010" class="node">
<title>Node10</title>
<g id="a_Node000010"><a xlink:href="Ticket_8h.html" target="_top" xlink:title="Déclaration de la classe Ticket.">
<polygon fill="white" stroke="#666666" points="419.18,-129 364.18,-129 364.18,-110 419.18,-110 419.18,-129"/>
<text text-anchor="middle" x="391.68" y="-117" font-family="Helvetica,sans-Serif" font-size="10.00">Ticket.h</text>
</a>
</g>
</g>
<!-- Node1&#45;&gt;Node10 -->
<g id="edge26_Node000001_Node000010" class="edge">
<title>Node1&#45;&gt;Node10</title>
<g id="a_edge26_Node000001_Node000010"><a xlink:title=" ">
<path fill="none" stroke="#63b8ff" d="M558.86,-329.95C532.88,-297.4 439.82,-180.81 404.97,-137.16"/>
<polygon fill="#63b8ff" stroke="#63b8ff" points="407.62,-134.86 398.64,-129.22 402.15,-139.22 407.62,-134.86"/>
</a>
</g>
</g>
<!-- Node11 -->
<g id="Node000011" class="node">
<title>Node11</title>
<g id="a_Node000011"><a xlink:href="CarteTrain_8h.html" target="_top" xlink:title="Description de la classe CarteTrain.">
<polygon fill="white" stroke="#666666" points="91.18,-129 16.18,-129 16.18,-110 91.18,-110 91.18,-129"/>
<text text-anchor="middle" x="53.68" y="-117" font-family="Helvetica,sans-Serif" font-size="10.00">CarteTrain.h</text>
</a>
</g>
</g>
<!-- Node1&#45;&gt;Node11 -->
<g id="edge28_Node000001_Node000011" class="edge">
<title>Node1&#45;&gt;Node11</title>
<g id="a_edge28_Node000001_Node000011"><a xlink:title=" ">
<path fill="none" stroke="#63b8ff" d="M528.58,-333.3C482.74,-326.43 402.6,-312.93 335.68,-294 268.96,-275.12 252.54,-268.27 189.68,-239 144.4,-217.91 127.49,-218.82 91.68,-184 78.32,-171.01 67.9,-152.36 61.38,-138.63"/>
<polygon fill="#63b8ff" stroke="#63b8ff" points="64.46,-136.95 57.17,-129.26 58.08,-139.82 64.46,-136.95"/>
</a>
</g>
</g>
<!-- Node14 -->
<g id="Node000014" class="node">
<title>Node14</title>
<g id="a_Node000014"><a xlink:title=" ">
<polygon fill="#e0e0e0" stroke="#999999" points="729.68,-294 669.68,-294 669.68,-275 729.68,-275 729.68,-294"/>
<text text-anchor="middle" x="699.68" y="-282" font-family="Helvetica,sans-Serif" font-size="10.00">iostream</text>
</a>
</g>
</g>
<!-- Node1&#45;&gt;Node14 -->
<g id="edge30_Node000001_Node000014" class="edge">
<title>Node1&#45;&gt;Node14</title>
<g id="a_edge30_Node000001_Node000014"><a xlink:title=" ">
<path fill="none" stroke="#63b8ff" d="M587.21,-329.98C609.15,-321.3 643.42,-307.75 668.37,-297.88"/>
<polygon fill="#63b8ff" stroke="#63b8ff" points="669.75,-301.1 677.76,-294.17 667.17,-294.59 669.75,-301.1"/>
</a>
</g>
</g>
<!-- Node15 -->
<g id="Node000015" class="node">
<title>Node15</title>
<g id="a_Node000015"><a xlink:title=" ">
<polygon fill="#e0e0e0" stroke="#999999" points="803.18,-294 748.18,-294 748.18,-275 803.18,-275 803.18,-294"/>
<text text-anchor="middle" x="775.68" y="-282" font-family="Helvetica,sans-Serif" font-size="10.00">fstream</text>
</a>
</g>
</g>
<!-- Node1&#45;&gt;Node15 -->
<g id="edge33_Node000001_Node000015" class="edge">
<title>Node1&#45;&gt;Node15</title>
<g id="a_edge33_Node000001_Node000015"><a xlink:title=" ">
<path fill="none" stroke="#63b8ff" d="M599.42,-329.98C637.39,-320.4 698.9,-304.88 738.3,-294.93"/>
<polygon fill="#63b8ff" stroke="#63b8ff" points="739.22,-298.31 748.06,-292.47 737.5,-291.52 739.22,-298.31"/>
</a>
</g>
</g>
<!-- Node16 -->
<g id="Node000016" class="node">
<title>Node16</title>
<g id="a_Node000016"><a xlink:title=" ">
<polygon fill="#e0e0e0" stroke="#999999" points="877.68,-294 821.68,-294 821.68,-275 877.68,-275 877.68,-294"/>
<text text-anchor="middle" x="849.68" y="-282" font-family="Helvetica,sans-Serif" font-size="10.00">sstream</text>
</a>
</g>
</g>
<!-- Node1&#45;&gt;Node16 -->
<g id="edge34_Node000001_Node000016" class="edge">
<title>Node1&#45;&gt;Node16</title>
<g id="a_edge34_Node000001_Node000016"><a xlink:title=" ">
<path fill="none" stroke="#63b8ff" d="M603.03,-332.34C649.5,-324.55 731.54,-310.39 811.22,-294.22"/>
<polygon fill="#63b8ff" stroke="#63b8ff" points="812.33,-297.57 821.43,-292.14 810.93,-290.71 812.33,-297.57"/>
</a>
</g>
</g>
<!-- Node2&#45;&gt;Node3 -->
<g id="edge2_Node000002_Node000003" class="edge">
<title>Node2&#45;&gt;Node3</title>
<g id="a_edge2_Node000002_Node000003"><a xlink:title=" ">
<path fill="none" stroke="#63b8ff" d="M437.82,-274.76C445.01,-265.87 456.34,-251.66 465.68,-239 483.32,-215.09 487.6,-208.98 503.68,-184 513.54,-168.68 524.14,-150.84 531.63,-137.98"/>
<polygon fill="#63b8ff" stroke="#63b8ff" points="534.71,-139.65 536.69,-129.24 528.65,-136.14 534.71,-139.65"/>
</a>
</g>
</g>
<!-- Node2&#45;&gt;Node4 -->
<g id="edge3_Node000002_Node000004" class="edge">
<title>Node2&#45;&gt;Node4</title>
<g id="a_edge3_Node000002_Node000004"><a xlink:title=" ">
<path fill="none" stroke="#63b8ff" d="M431.85,-274.81C434.95,-251.35 443.36,-184.72 446.68,-129 447.57,-114 447.8,-96.98 447.81,-84.33"/>
<polygon fill="#63b8ff" stroke="#63b8ff" points="451.31,-84.13 447.78,-74.14 444.31,-84.15 451.31,-84.13"/>
</a>
</g>
</g>
<!-- Node2&#45;&gt;Node6 -->
<g id="edge5_Node000002_Node000006" class="edge">
<title>Node2&#45;&gt;Node6</title>
<g id="a_edge5_Node000002_Node000006"><a xlink:title=" ">
<path fill="none" stroke="#63b8ff" d="M412.36,-274.98C394.02,-266.46 365.57,-253.23 344.45,-243.41"/>
<polygon fill="#63b8ff" stroke="#63b8ff" points="345.87,-240.21 335.33,-239.17 342.92,-246.56 345.87,-240.21"/>
</a>
</g>
</g>
<!-- Node2&#45;&gt;Node10 -->
<g id="edge24_Node000002_Node000010" class="edge">
<title>Node2&#45;&gt;Node10</title>
<g id="a_edge24_Node000002_Node000010"><a xlink:title=" ">
<path fill="none" stroke="#63b8ff" d="M428.58,-274.74C422.47,-249.2 404.58,-174.43 396.16,-139.23"/>
<polygon fill="#63b8ff" stroke="#63b8ff" points="399.52,-138.22 393.79,-129.31 392.71,-139.85 399.52,-138.22"/>
</a>
</g>
</g>
<!-- Node2&#45;&gt;Node11 -->
<g id="edge23_Node000002_Node000011" class="edge">
<title>Node2&#45;&gt;Node11</title>
<g id="a_edge23_Node000002_Node000011"><a xlink:title=" ">
<path fill="none" stroke="#63b8ff" d="M399.51,-278.58C341.08,-268.3 212.61,-240.67 119.68,-184 98.99,-171.38 79.55,-151.29 67.2,-137.09"/>
<polygon fill="#63b8ff" stroke="#63b8ff" points="69.6,-134.51 60.48,-129.13 64.25,-139.03 69.6,-134.51"/>
</a>
</g>
</g>
<!-- Node4&#45;&gt;Node5 -->
<g id="edge4_Node000004_Node000005" class="edge">
<title>Node4&#45;&gt;Node5</title>
<g id="a_edge4_Node000004_Node000005"><a xlink:title=" ">
<path fill="none" stroke="#63b8ff" d="M429.69,-54.98C411.75,-46.5 383.96,-33.35 363.25,-23.54"/>
<polygon fill="#63b8ff" stroke="#63b8ff" points="364.54,-20.28 354,-19.17 361.54,-26.61 364.54,-20.28"/>
</a>
</g>
</g>
<!-- Node6&#45;&gt;Node4 -->
<g id="edge19_Node000006_Node000004" class="edge">
<title>Node6&#45;&gt;Node4</title>
<g id="a_edge19_Node000006_Node000004"><a xlink:title=" ">
<path fill="none" stroke="#63b8ff" d="M330.43,-219.82C353.81,-204.39 401.32,-169.89 427.68,-129 436.49,-115.34 441.65,-97.52 444.52,-84.24"/>
<polygon fill="#63b8ff" stroke="#63b8ff" points="447.97,-84.82 446.42,-74.34 441.1,-83.51 447.97,-84.82"/>
</a>
</g>
</g>
<!-- Node6&#45;&gt;Node5 -->
<g id="edge6_Node000006_Node000005" class="edge">
<title>Node6&#45;&gt;Node5</title>
<g id="a_edge6_Node000006_Node000005"><a xlink:title=" ">
<path fill="none" stroke="#63b8ff" d="M289.53,-229.12C205.42,-229.86 -42.32,-222.67 6.68,-110 20.98,-77.13 33.51,-70.81 65.68,-55 144.66,-16.18 250.71,-10.24 303.3,-9.92"/>
<polygon fill="#63b8ff" stroke="#63b8ff" points="303.38,-13.42 313.38,-9.93 303.38,-6.42 303.38,-13.42"/>
</a>
</g>
</g>
<!-- Node6&#45;&gt;Node7 -->
<g id="edge7_Node000006_Node000007" class="edge">
<title>Node6&#45;&gt;Node7</title>
<g id="a_edge7_Node000006_Node000007"><a xlink:title=" ">
<path fill="none" stroke="#63b8ff" d="M312.01,-219.75C310.91,-212.8 311.04,-202.85 312.15,-194.13"/>
<polygon fill="#63b8ff" stroke="#63b8ff" points="315.63,-194.57 314.06,-184.09 308.75,-193.26 315.63,-194.57"/>
</a>
</g>
</g>
<!-- Node9 -->
<g id="Node000009" class="node">
<title>Node9</title>
<g id="a_Node000009"><a xlink:href="CouleurWagon_8h.html" target="_top" xlink:title="Définition des couleurs de wagons des joueurs.">
<polygon fill="white" stroke="#666666" points="251.68,-129 155.68,-129 155.68,-110 251.68,-110 251.68,-129"/>
<text text-anchor="middle" x="203.68" y="-117" font-family="Helvetica,sans-Serif" font-size="10.00">CouleurWagon.h</text>
</a>
</g>
</g>
<!-- Node6&#45;&gt;Node9 -->
<g id="edge22_Node000006_Node000009" class="edge">
<title>Node6&#45;&gt;Node9</title>
<g id="a_edge22_Node000006_Node000009"><a xlink:title=" ">
<path fill="none" stroke="#63b8ff" d="M307.43,-219.66C288.3,-201.38 244.15,-159.18 220.07,-136.17"/>
<polygon fill="#63b8ff" stroke="#63b8ff" points="222.39,-133.54 212.74,-129.16 217.55,-138.6 222.39,-133.54"/>
</a>
</g>
</g>
<!-- Node12 -->
<g id="Node000012" class="node">
<title>Node12</title>
<g id="a_Node000012"><a xlink:href="CouleurCarte_8h.html" target="_top" xlink:title="Définition des couleurs de cartes train et utilitaire de conversion.">
<polygon fill="white" stroke="#666666" points="164.18,-74 75.18,-74 75.18,-55 164.18,-55 164.18,-74"/>
<text text-anchor="middle" x="119.68" y="-62" font-family="Helvetica,sans-Serif" font-size="10.00">CouleurCarte.h</text>
</a>
</g>
</g>
<!-- Node6&#45;&gt;Node12 -->
<g id="edge20_Node000006_Node000012" class="edge">
<title>Node6&#45;&gt;Node12</title>
<g id="a_edge20_Node000006_Node000012"><a xlink:title=" ">
<path fill="none" stroke="#63b8ff" d="M289.65,-225.62C244.12,-220.19 155.09,-206.88 134.68,-184 110.15,-156.5 112.45,-110.08 116.15,-84.26"/>
<polygon fill="#63b8ff" stroke="#63b8ff" points="119.62,-84.71 117.8,-74.27 112.71,-83.57 119.62,-84.71"/>
</a>
</g>
</g>
<!-- Node13 -->
<g id="Node000013" class="node">
<title>Node13</title>
<g id="a_Node000013"><a xlink:href="CouleurRoute_8h.html" target="_top" xlink:title="Définition des couleurs de routes du plateau.">
<polygon fill="white" stroke="#666666" points="235.68,-184 143.68,-184 143.68,-165 235.68,-165 235.68,-184"/>
<text text-anchor="middle" x="189.68" y="-172" font-family="Helvetica,sans-Serif" font-size="10.00">CouleurRoute.h</text>
</a>
</g>
</g>
<!-- Node6&#45;&gt;Node13 -->
<g id="edge21_Node000006_Node000013" class="edge">
<title>Node6&#45;&gt;Node13</title>
<g id="a_edge21_Node000006_Node000013"><a xlink:title=" ">
<path fill="none" stroke="#63b8ff" d="M296.28,-219.98C275.66,-211.38 243.57,-197.99 219.99,-188.15"/>
<polygon fill="#63b8ff" stroke="#63b8ff" points="221.03,-184.79 210.46,-184.17 218.34,-191.25 221.03,-184.79"/>
</a>
</g>
</g>
<!-- Node7&#45;&gt;Node3 -->
<g id="edge9_Node000007_Node000003" class="edge">
<title>Node7&#45;&gt;Node3</title>
<g id="a_edge9_Node000007_Node000003"><a xlink:title=" ">
<path fill="none" stroke="#63b8ff" d="M347.8,-166.79C388.73,-157.01 464.62,-138.9 508.32,-128.46"/>
<polygon fill="#63b8ff" stroke="#63b8ff" points="509.27,-131.84 518.18,-126.11 507.64,-125.03 509.27,-131.84"/>
</a>
</g>
</g>
<!-- Node7&#45;&gt;Node5 -->
<g id="edge8_Node000007_Node000005" class="edge">
<title>Node7&#45;&gt;Node5</title>
<g id="a_edge8_Node000007_Node000005"><a xlink:title=" ">
<path fill="none" stroke="#63b8ff" d="M314.1,-164.72C308.94,-156.03 301.63,-142.17 298.68,-129 296.83,-120.76 297.18,-118.31 298.68,-110 304.02,-80.33 317.64,-47.94 326.78,-28.43"/>
<polygon fill="#63b8ff" stroke="#63b8ff" points="330.02,-29.78 331.2,-19.25 323.71,-26.74 330.02,-29.78"/>
</a>
</g>
</g>
<!-- Node7&#45;&gt;Node6 -->
<g id="edge18_Node000007_Node000006" class="edge">
<title>Node7&#45;&gt;Node6</title>
<g id="a_edge18_Node000007_Node000006"><a xlink:title=" ">
<path fill="none" stroke="#63b8ff" d="M324.32,-184.09C325.44,-190.99 325.33,-200.93 324.24,-209.66"/>
<polygon fill="#63b8ff" stroke="#63b8ff" points="320.75,-209.27 322.34,-219.75 327.63,-210.57 320.75,-209.27"/>
</a>
</g>
</g>
<!-- Node8 -->
<g id="Node000008" class="node">
<title>Node8</title>
<g id="a_Node000008"><a xlink:title=" ">
<polygon fill="#e0e0e0" stroke="#999999" points="345.68,-129 307.68,-129 307.68,-110 345.68,-110 345.68,-129"/>
<text text-anchor="middle" x="326.68" y="-117" font-family="Helvetica,sans-Serif" font-size="10.00">map</text>
</a>
</g>
</g>
<!-- Node7&#45;&gt;Node8 -->
<g id="edge10_Node000007_Node000008" class="edge">
<title>Node7&#45;&gt;Node8</title>
<g id="a_edge10_Node000007_Node000008"><a xlink:title=" ">
<path fill="none" stroke="#63b8ff" d="M320.84,-164.75C321.75,-157.8 323.07,-147.85 324.22,-139.13"/>
<polygon fill="#63b8ff" stroke="#63b8ff" points="327.71,-139.46 325.55,-129.09 320.77,-138.54 327.71,-139.46"/>
</a>
</g>
</g>
<!-- Node7&#45;&gt;Node9 -->
<g id="edge11_Node000007_Node000009" class="edge">
<title>Node7&#45;&gt;Node9</title>
<g id="a_edge11_Node000007_Node000009"><a xlink:title=" ">
<path fill="none" stroke="#63b8ff" d="M301.04,-164.98C282.38,-156.46 253.43,-143.23 231.94,-133.41"/>
<polygon fill="#63b8ff" stroke="#63b8ff" points="233.21,-130.14 222.66,-129.17 230.3,-136.51 233.21,-130.14"/>
</a>
</g>
</g>
<!-- Node7&#45;&gt;Node10 -->
<g id="edge12_Node000007_Node000010" class="edge">
<title>Node7&#45;&gt;Node10</title>
<g id="a_edge12_Node000007_Node000010"><a xlink:title=" ">
<path fill="none" stroke="#63b8ff" d="M331.25,-164.98C342.1,-157 358.56,-144.88 371.56,-135.31"/>
<polygon fill="#63b8ff" stroke="#63b8ff" points="373.92,-137.92 379.9,-129.17 369.77,-132.28 373.92,-137.92"/>
</a>
</g>
</g>
<!-- Node7&#45;&gt;Node11 -->
<g id="edge15_Node000007_Node000011" class="edge">
<title>Node7&#45;&gt;Node11</title>
<g id="a_edge15_Node000007_Node000011"><a xlink:title=" ">
<path fill="none" stroke="#63b8ff" d="M291.21,-167.83C245.79,-158.78 156.43,-140.97 101.19,-129.97"/>
<polygon fill="#63b8ff" stroke="#63b8ff" points="101.79,-126.52 91.3,-128 100.42,-133.38 101.79,-126.52"/>
</a>
</g>
</g>
<!-- Node10&#45;&gt;Node4 -->
<g id="edge13_Node000010_Node000004" class="edge">
<title>Node10&#45;&gt;Node4</title>
<g id="a_edge13_Node000010_Node000004"><a xlink:title=" ">
<path fill="none" stroke="#63b8ff" d="M400.68,-109.98C408.87,-102.23 421.19,-90.58 431.15,-81.14"/>
<polygon fill="#63b8ff" stroke="#63b8ff" points="433.66,-83.59 438.52,-74.17 428.85,-78.5 433.66,-83.59"/>
</a>
</g>
</g>
<!-- Node10&#45;&gt;Node5 -->
<g id="edge14_Node000010_Node000005" class="edge">
<title>Node10&#45;&gt;Node5</title>
<g id="a_edge14_Node000010_Node000005"><a xlink:title=" ">
<path fill="none" stroke="#63b8ff" d="M387.1,-109.66C377.9,-91.93 357.06,-51.73 344.92,-28.32"/>
<polygon fill="#63b8ff" stroke="#63b8ff" points="347.88,-26.42 340.17,-19.16 341.67,-29.65 347.88,-26.42"/>
</a>
</g>
</g>
<!-- Node11&#45;&gt;Node12 -->
<g id="edge16_Node000011_Node000012" class="edge">
<title>Node11&#45;&gt;Node12</title>
<g id="a_edge16_Node000011_Node000012"><a xlink:title=" ">
<path fill="none" stroke="#63b8ff" d="M64.28,-109.98C74.14,-102.07 89.03,-90.11 100.89,-80.58"/>
<polygon fill="#63b8ff" stroke="#63b8ff" points="103.28,-83.16 108.88,-74.17 98.89,-77.7 103.28,-83.16"/>
</a>
</g>
</g>
<!-- Node12&#45;&gt;Node5 -->
<g id="edge17_Node000012_Node000005" class="edge">
<title>Node12&#45;&gt;Node5</title>
<g id="a_edge17_Node000012_Node000005"><a xlink:title=" ">
<path fill="none" stroke="#63b8ff" d="M154.38,-54.98C195.63,-44.86 263.89,-28.11 303.84,-18.31"/>
<polygon fill="#63b8ff" stroke="#63b8ff" points="304.71,-21.7 313.59,-15.92 303.05,-14.9 304.71,-21.7"/>
</a>
</g>
</g>
</g>
</svg>
