<?xml version="1.0" encoding="UTF-8" standalone="no"?>
<!DOCTYPE svg PUBLIC "-//W3C//DTD SVG 1.1//EN"
 "http://www.w3.org/Graphics/SVG/1.1/DTD/svg11.dtd">
<!-- Generated by graphviz version 2.43.0 (0)
 -->
<!-- Title: Route.cpp Pages: 1 -->
<!--zoomable 357 -->

<svg id="main" version="1.1" xmlns="http://www.w3.org/2000/svg" xmlns:xlink="http://www.w3.org/1999/xlink" xml:space="preserve" onload="init(evt)">
<style type="text/css"><![CDATA[
.node, .edge {opacity: 0.7;}
.node.selected, .edge.selected {opacity: 1;}
.edge:hover path { stroke: red; }
.edge:hover polygon { stroke: red; fill: red; }
]]></style>

<defs>
  <circle id="rim" cx="0" cy="0" r="7"/>
  <circle id="rim2" cx="0" cy="0" r="3.5"/>
  <g id="zoomPlus">
    <use xlink:href="#rim" fill="#404040"><set attributeName="fill" to="#808080" begin="zoomplus.mouseover" end="zoomplus.mouseout"/></use>
    <path d="M-4,0h8M0,-4v8" fill="none" stroke="white" stroke-width="1.5" pointer-events="none"/>
  </g>
  <g id="zoomMin">
    <use xlink:href="#rim" fill="#404040"><set attributeName="fill" to="#808080" begin="zoomminus.mouseover" end="zoomminus.mouseout"/></use>
    <path d="M-4,0h8" fill="none" stroke="white" stroke-width="1.5" pointer-events="none"/>
  </g>
  <g id="arrowUp" transform="translate(30 24)">
    <use xlink:href="#rim"/>
    <path pointer-events="none" fill="none" stroke="white" stroke-width="1.5" d="M0,-3.0v7 M-2.5,-0.5L0,-3.0L2.5,-0.5"/>
  </g>
  <g id="arrowRight" transform="rotate(90) translate(36 -43)">
    <use xlink:href="#rim"/>
    <path pointer-events="none" fill="none" stroke="white" stroke-width="1.5" d="M0,-3.0v7 M-2.5,-0.5L0,-3.0L2.5,-0.5"/>
  </g>
  <g id="arrowDown" transform="rotate(180) translate(-30 -48)">
    <use xlink:href="#rim"/>
    <path pointer-events="none" fill="none" stroke="white" stroke-width="1.5" d="M0,-3.0v7 M-2.5,-0.5L0,-3.0L2.5,-0.5"/>
  </g>
  <g id="arrowLeft" transform="rotate(270) translate(-36 17)">
    <use xlink:href="#rim"/>
    <path pointer-events="none" fill="none" stroke="white" stroke-width="1.5" d="M0,-3.0v7 M-2.5,-0.5L0,-3.0L2.5,-0.5"/>
  </g>
  <g id="resetDef">
    <use xlink:href="#rim2" fill="#404040"><set attributeName="fill" to="#808080" begin="reset.mouseover" end="reset.mouseout"/></use>
  </g>
</defs>
<script type="application/ecmascript">
var viewWidth = 526;
var viewHeight = 357;
var sectionId = 'dynsection-0';
</script>
<script type="application/ecmascript" xlink:href="svg.min.js"/>
<svg id="graph" class="graph">
<g id="viewport">
<title>Route.cpp</title>
<!-- Node1 -->
<g id="Node000001" class="node">
<title>Node1</title>
<g id="a_Node000001"><a xlink:title=" ">
<polygon fill="#999999" stroke="#666666" points="317.7,-349 252.7,-349 252.7,-330 317.7,-330 317.7,-349"/>
<text text-anchor="middle" x="285.2" y="-337" font-family="Helvetica,sans-Serif" font-size="10.00">Route.cpp</text>
</a>
</g>
</g>
<!-- Node2 -->
<g id="Node000002" class="node">
<title>Node2</title>
<g id="a_Node000002"><a xlink:href="Route_8h.html" target="_top" xlink:title="Déclaration de la classe Route.">
<polygon fill="white" stroke="#666666" points="312.2,-239 258.2,-239 258.2,-220 312.2,-220 312.2,-239"/>
<text text-anchor="middle" x="285.2" y="-227" font-family="Helvetica,sans-Serif" font-size="10.00">Route.h</text>
</a>
</g>
</g>
<!-- Node1&#45;&gt;Node2 -->
<g id="edge1_Node000001_Node000002" class="edge">
<title>Node1&#45;&gt;Node2</title>
<g id="a_edge1_Node000001_Node000002"><a xlink:title=" ">
<path fill="none" stroke="#63b8ff" d="M285.2,-329.66C285.2,-312.17 285.2,-272.8 285.2,-249.27"/>
<polygon fill="#63b8ff" stroke="#63b8ff" points="288.7,-249.16 285.2,-239.16 281.7,-249.16 288.7,-249.16"/>
</a>
</g>
</g>
<!-- Node4 -->
<g id="Node000004" class="node">
<title>Node4</title>
<g id="a_Node000004"><a xlink:href="Joueur_8h.html" target="_top" xlink:title="Déclaration de la classe Joueur.">
<polygon fill="white" stroke="#666666" points="257.2,-184 201.2,-184 201.2,-165 257.2,-165 257.2,-184"/>
<text text-anchor="middle" x="229.2" y="-172" font-family="Helvetica,sans-Serif" font-size="10.00">Joueur.h</text>
</a>
</g>
</g>
<!-- Node1&#45;&gt;Node4 -->
<g id="edge20_Node000001_Node000004" class="edge">
<title>Node1&#45;&gt;Node4</title>
<g id="a_edge20_Node000001_Node000004"><a xlink:title=" ">
<path fill="none" stroke="#63b8ff" d="M281.89,-329.76C275.4,-312.49 260.62,-272.76 249.2,-239 244.1,-223.93 238.7,-206.7 234.8,-194"/>
<polygon fill="#63b8ff" stroke="#63b8ff" points="238.06,-192.71 231.8,-184.16 231.37,-194.75 238.06,-192.71"/>
</a>
</g>
</g>
<!-- Node13 -->
<g id="Node000013" class="node">
<title>Node13</title>
<g id="a_Node000013"><a xlink:href="Plateau_8h.html" target="_top" xlink:title="Déclaration de la classe Plateau.">
<polygon fill="white" stroke="#666666" points="483.2,-294 421.2,-294 421.2,-275 483.2,-275 483.2,-294"/>
<text text-anchor="middle" x="452.2" y="-282" font-family="Helvetica,sans-Serif" font-size="10.00">Plateau.h</text>
</a>
</g>
</g>
<!-- Node1&#45;&gt;Node13 -->
<g id="edge21_Node000001_Node000013" class="edge">
<title>Node1&#45;&gt;Node13</title>
<g id="a_edge21_Node000001_Node000013"><a xlink:title=" ">
<path fill="none" stroke="#63b8ff" d="M312.03,-329.98C340.07,-321.09 384.24,-307.07 415.5,-297.15"/>
<polygon fill="#63b8ff" stroke="#63b8ff" points="416.68,-300.44 425.16,-294.08 414.56,-293.77 416.68,-300.44"/>
</a>
</g>
</g>
<!-- Node3 -->
<g id="Node000003" class="node">
<title>Node3</title>
<g id="a_Node000003"><a xlink:title=" ">
<polygon fill="#e0e0e0" stroke="#999999" points="322.2,-19 278.2,-19 278.2,0 322.2,0 322.2,-19"/>
<text text-anchor="middle" x="300.2" y="-7" font-family="Helvetica,sans-Serif" font-size="10.00">string</text>
</a>
</g>
</g>
<!-- Node2&#45;&gt;Node3 -->
<g id="edge2_Node000002_Node000003" class="edge">
<title>Node2&#45;&gt;Node3</title>
<g id="a_edge2_Node000002_Node000003"><a xlink:title=" ">
<path fill="none" stroke="#63b8ff" d="M258.04,-227.13C177.17,-222.01 -52.61,-199.45 11.2,-110 70.91,-26.28 205.83,-12.3 267.87,-10.44"/>
<polygon fill="#63b8ff" stroke="#63b8ff" points="267.95,-13.94 277.88,-10.23 267.81,-6.94 267.95,-13.94"/>
</a>
</g>
</g>
<!-- Node2&#45;&gt;Node4 -->
<g id="edge3_Node000002_Node000004" class="edge">
<title>Node2&#45;&gt;Node4</title>
<g id="a_edge3_Node000002_Node000004"><a xlink:title=" ">
<path fill="none" stroke="#63b8ff" d="M271.08,-219.98C261.37,-212.38 249,-201.04 240.04,-191.71"/>
<polygon fill="#63b8ff" stroke="#63b8ff" points="242.52,-189.23 233.21,-184.17 237.34,-193.93 242.52,-189.23"/>
</a>
</g>
</g>
<!-- Node7 -->
<g id="Node000007" class="node">
<title>Node7</title>
<g id="a_Node000007"><a xlink:href="CouleurWagon_8h.html" target="_top" xlink:title="Définition des couleurs de wagons des joueurs.">
<polygon fill="white" stroke="#666666" points="116.2,-129 20.2,-129 20.2,-110 116.2,-110 116.2,-129"/>
<text text-anchor="middle" x="68.2" y="-117" font-family="Helvetica,sans-Serif" font-size="10.00">CouleurWagon.h</text>
</a>
</g>
</g>
<!-- Node2&#45;&gt;Node7 -->
<g id="edge19_Node000002_Node000007" class="edge">
<title>Node2&#45;&gt;Node7</title>
<g id="a_edge19_Node000002_Node000007"><a xlink:title=" ">
<path fill="none" stroke="#63b8ff" d="M266.95,-219.95C248.15,-211.09 218.02,-196.79 192.2,-184 157.95,-167.04 118.73,-146.82 93.73,-133.83"/>
<polygon fill="#63b8ff" stroke="#63b8ff" points="95.06,-130.58 84.57,-129.06 91.83,-136.79 95.06,-130.58"/>
</a>
</g>
</g>
<!-- Node9 -->
<g id="Node000009" class="node">
<title>Node9</title>
<g id="a_Node000009"><a xlink:href="Ville_8h.html" target="_top" xlink:title="Déclaration de la classe Ville.">
<polygon fill="white" stroke="#666666" points="504.7,-74 457.7,-74 457.7,-55 504.7,-55 504.7,-74"/>
<text text-anchor="middle" x="481.2" y="-62" font-family="Helvetica,sans-Serif" font-size="10.00">Ville.h</text>
</a>
</g>
</g>
<!-- Node2&#45;&gt;Node9 -->
<g id="edge16_Node000002_Node000009" class="edge">
<title>Node2&#45;&gt;Node9</title>
<g id="a_edge16_Node000002_Node000009"><a xlink:title=" ">
<path fill="none" stroke="#63b8ff" d="M312.23,-225.42C359.65,-218.33 456.01,-195.94 490.2,-129 497.39,-114.92 493.83,-96.91 489.24,-83.68"/>
<polygon fill="#63b8ff" stroke="#63b8ff" points="492.44,-82.26 485.52,-74.25 485.93,-84.83 492.44,-82.26"/>
</a>
</g>
</g>
<!-- Node11 -->
<g id="Node000011" class="node">
<title>Node11</title>
<g id="a_Node000011"><a xlink:href="CouleurCarte_8h.html" target="_top" xlink:title="Définition des couleurs de cartes train et utilitaire de conversion.">
<polygon fill="white" stroke="#666666" points="344.7,-74 255.7,-74 255.7,-55 344.7,-55 344.7,-74"/>
<text text-anchor="middle" x="300.2" y="-62" font-family="Helvetica,sans-Serif" font-size="10.00">CouleurCarte.h</text>
</a>
</g>
</g>
<!-- Node2&#45;&gt;Node11 -->
<g id="edge17_Node000002_Node000011" class="edge">
<title>Node2&#45;&gt;Node11</title>
<g id="a_edge17_Node000002_Node000011"><a xlink:title=" ">
<path fill="none" stroke="#63b8ff" d="M285.64,-219.65C286.75,-206.32 290.64,-180.96 304.2,-165 327.88,-137.13 358.8,-160.01 378.2,-129 392.05,-106.85 363.07,-88.9 336.59,-77.81"/>
<polygon fill="#63b8ff" stroke="#63b8ff" points="337.61,-74.45 327.03,-74.04 335.04,-80.96 337.61,-74.45"/>
</a>
</g>
</g>
<!-- Node12 -->
<g id="Node000012" class="node">
<title>Node12</title>
<g id="a_Node000012"><a xlink:href="CouleurRoute_8h.html" target="_top" xlink:title="Définition des couleurs de routes du plateau.">
<polygon fill="white" stroke="#666666" points="405.2,-184 313.2,-184 313.2,-165 405.2,-165 405.2,-184"/>
<text text-anchor="middle" x="359.2" y="-172" font-family="Helvetica,sans-Serif" font-size="10.00">CouleurRoute.h</text>
</a>
</g>
</g>
<!-- Node2&#45;&gt;Node12 -->
<g id="edge18_Node000002_Node000012" class="edge">
<title>Node2&#45;&gt;Node12</title>
<g id="a_edge18_Node000002_Node000012"><a xlink:title=" ">
<path fill="none" stroke="#63b8ff" d="M297.09,-219.98C308.35,-211.92 325.48,-199.65 338.91,-190.03"/>
<polygon fill="#63b8ff" stroke="#63b8ff" points="341,-192.84 347.09,-184.17 336.92,-187.15 341,-192.84"/>
</a>
</g>
</g>
<!-- Node4&#45;&gt;Node2 -->
<g id="edge15_Node000004_Node000002" class="edge">
<title>Node4&#45;&gt;Node2</title>
<g id="a_edge15_Node000004_Node000002"><a xlink:title=" ">
<path fill="none" stroke="#63b8ff" d="M243.4,-184.09C253.08,-191.68 265.37,-202.95 274.3,-212.24"/>
<polygon fill="#63b8ff" stroke="#63b8ff" points="271.8,-214.7 281.12,-219.75 276.98,-209.99 271.8,-214.7"/>
</a>
</g>
</g>
<!-- Node4&#45;&gt;Node3 -->
<g id="edge4_Node000004_Node000003" class="edge">
<title>Node4&#45;&gt;Node3</title>
<g id="a_edge4_Node000004_Node000003"><a xlink:title=" ">
<path fill="none" stroke="#63b8ff" d="M225.73,-164.8C221.29,-152.49 214.7,-129.35 219.2,-110 225.36,-83.47 229.31,-76.36 246.2,-55 255.26,-43.53 267.73,-33.02 278.41,-25.09"/>
<polygon fill="#63b8ff" stroke="#63b8ff" points="280.73,-27.73 286.84,-19.07 276.66,-22.03 280.73,-27.73"/>
</a>
</g>
</g>
<!-- Node5 -->
<g id="Node000005" class="node">
<title>Node5</title>
<g id="a_Node000005"><a xlink:title=" ">
<polygon fill="#e0e0e0" stroke="#999999" points="368.7,-129 321.7,-129 321.7,-110 368.7,-110 368.7,-129"/>
<text text-anchor="middle" x="345.2" y="-117" font-family="Helvetica,sans-Serif" font-size="10.00">vector</text>
</a>
</g>
</g>
<!-- Node4&#45;&gt;Node5 -->
<g id="edge5_Node000004_Node000005" class="edge">
<title>Node4&#45;&gt;Node5</title>
<g id="a_edge5_Node000004_Node000005"><a xlink:title=" ">
<path fill="none" stroke="#63b8ff" d="M247.83,-164.98C266.5,-156.46 295.45,-143.23 316.94,-133.41"/>
<polygon fill="#63b8ff" stroke="#63b8ff" points="318.58,-136.51 326.22,-129.17 315.67,-130.14 318.58,-136.51"/>
</a>
</g>
</g>
<!-- Node6 -->
<g id="Node000006" class="node">
<title>Node6</title>
<g id="a_Node000006"><a xlink:title=" ">
<polygon fill="#e0e0e0" stroke="#999999" points="172.2,-129 134.2,-129 134.2,-110 172.2,-110 172.2,-129"/>
<text text-anchor="middle" x="153.2" y="-117" font-family="Helvetica,sans-Serif" font-size="10.00">map</text>
</a>
</g>
</g>
<!-- Node4&#45;&gt;Node6 -->
<g id="edge6_Node000004_Node000006" class="edge">
<title>Node4&#45;&gt;Node6</title>
<g id="a_edge6_Node000004_Node000006"><a xlink:title=" ">
<path fill="none" stroke="#63b8ff" d="M216.99,-164.98C205.42,-156.92 187.82,-144.65 174.04,-135.03"/>
<polygon fill="#63b8ff" stroke="#63b8ff" points="175.83,-132.02 165.63,-129.17 171.83,-137.76 175.83,-132.02"/>
</a>
</g>
</g>
<!-- Node4&#45;&gt;Node7 -->
<g id="edge7_Node000004_Node000007" class="edge">
<title>Node4&#45;&gt;Node7</title>
<g id="a_edge7_Node000004_Node000007"><a xlink:title=" ">
<path fill="none" stroke="#63b8ff" d="M203.33,-164.98C176.42,-156.13 134.08,-142.19 103.97,-132.28"/>
<polygon fill="#63b8ff" stroke="#63b8ff" points="104.86,-128.88 94.27,-129.08 102.67,-135.53 104.86,-128.88"/>
</a>
</g>
</g>
<!-- Node8 -->
<g id="Node000008" class="node">
<title>Node8</title>
<g id="a_Node000008"><a xlink:href="Ticket_8h.html" target="_top" xlink:title="Déclaration de la classe Ticket.">
<polygon fill="white" stroke="#666666" points="480.7,-129 425.7,-129 425.7,-110 480.7,-110 480.7,-129"/>
<text text-anchor="middle" x="453.2" y="-117" font-family="Helvetica,sans-Serif" font-size="10.00">Ticket.h</text>
</a>
</g>
</g>
<!-- Node4&#45;&gt;Node8 -->
<g id="edge8_Node000004_Node000008" class="edge">
<title>Node4&#45;&gt;Node8</title>
<g id="a_edge8_Node000004_Node000008"><a xlink:title=" ">
<path fill="none" stroke="#63b8ff" d="M257.57,-166.79C297.65,-157.3 370.93,-139.96 415.54,-129.41"/>
<polygon fill="#63b8ff" stroke="#63b8ff" points="416.48,-132.78 425.41,-127.07 414.87,-125.97 416.48,-132.78"/>
</a>
</g>
</g>
<!-- Node10 -->
<g id="Node000010" class="node">
<title>Node10</title>
<g id="a_Node000010"><a xlink:href="CarteTrain_8h.html" target="_top" xlink:title="Description de la classe CarteTrain.">
<polygon fill="white" stroke="#666666" points="303.7,-129 228.7,-129 228.7,-110 303.7,-110 303.7,-129"/>
<text text-anchor="middle" x="266.2" y="-117" font-family="Helvetica,sans-Serif" font-size="10.00">CarteTrain.h</text>
</a>
</g>
</g>
<!-- Node4&#45;&gt;Node10 -->
<g id="edge12_Node000004_Node000010" class="edge">
<title>Node4&#45;&gt;Node10</title>
<g id="a_edge12_Node000004_Node000010"><a xlink:title=" ">
<path fill="none" stroke="#63b8ff" d="M235.31,-164.75C240.48,-157.34 248.04,-146.5 254.39,-137.41"/>
<polygon fill="#63b8ff" stroke="#63b8ff" points="257.35,-139.29 260.2,-129.09 251.61,-135.29 257.35,-139.29"/>
</a>
</g>
</g>
<!-- Node8&#45;&gt;Node3 -->
<g id="edge11_Node000008_Node000003" class="edge">
<title>Node8&#45;&gt;Node3</title>
<g id="a_edge11_Node000008_Node000003"><a xlink:title=" ">
<path fill="none" stroke="#63b8ff" d="M440.93,-109.84C414.75,-91.36 353.12,-47.86 320.8,-25.05"/>
<polygon fill="#63b8ff" stroke="#63b8ff" points="322.71,-22.1 312.52,-19.2 318.67,-27.82 322.71,-22.1"/>
</a>
</g>
</g>
<!-- Node8&#45;&gt;Node9 -->
<g id="edge9_Node000008_Node000009" class="edge">
<title>Node8&#45;&gt;Node9</title>
<g id="a_edge9_Node000008_Node000009"><a xlink:title=" ">
<path fill="none" stroke="#63b8ff" d="M457.82,-109.75C461.65,-102.49 467.22,-91.95 471.96,-82.98"/>
<polygon fill="#63b8ff" stroke="#63b8ff" points="475.08,-84.57 476.66,-74.09 468.89,-81.3 475.08,-84.57"/>
</a>
</g>
</g>
<!-- Node9&#45;&gt;Node3 -->
<g id="edge10_Node000009_Node000003" class="edge">
<title>Node9&#45;&gt;Node3</title>
<g id="a_edge10_Node000009_Node000003"><a xlink:title=" ">
<path fill="none" stroke="#63b8ff" d="M457.53,-56.57C425.53,-47.2 368.32,-30.45 332.41,-19.93"/>
<polygon fill="#63b8ff" stroke="#63b8ff" points="333.03,-16.47 322.44,-17.01 331.06,-23.18 333.03,-16.47"/>
</a>
</g>
</g>
<!-- Node10&#45;&gt;Node11 -->
<g id="edge13_Node000010_Node000011" class="edge">
<title>Node10&#45;&gt;Node11</title>
<g id="a_edge13_Node000010_Node000011"><a xlink:title=" ">
<path fill="none" stroke="#63b8ff" d="M271.81,-109.75C276.51,-102.42 283.37,-91.73 289.17,-82.7"/>
<polygon fill="#63b8ff" stroke="#63b8ff" points="292.23,-84.4 294.69,-74.09 286.34,-80.62 292.23,-84.4"/>
</a>
</g>
</g>
<!-- Node11&#45;&gt;Node3 -->
<g id="edge14_Node000011_Node000003" class="edge">
<title>Node11&#45;&gt;Node3</title>
<g id="a_edge14_Node000011_Node000003"><a xlink:title=" ">
<path fill="none" stroke="#63b8ff" d="M300.2,-54.75C300.2,-47.8 300.2,-37.85 300.2,-29.13"/>
<polygon fill="#63b8ff" stroke="#63b8ff" points="303.7,-29.09 300.2,-19.09 296.7,-29.09 303.7,-29.09"/>
</a>
</g>
</g>
<!-- Node13&#45;&gt;Node2 -->
<g id="edge24_Node000013_Node000002" class="edge">
<title>Node13&#45;&gt;Node2</title>
<g id="a_edge24_Node000013_Node000002"><a xlink:title=" ">
<path fill="none" stroke="#63b8ff" d="M425.37,-274.98C397.33,-266.09 353.15,-252.07 321.9,-242.15"/>
<polygon fill="#63b8ff" stroke="#63b8ff" points="322.83,-238.77 312.24,-239.08 320.71,-245.44 322.83,-238.77"/>
</a>
</g>
</g>
<!-- Node13&#45;&gt;Node5 -->
<g id="edge22_Node000013_Node000005" class="edge">
<title>Node13&#45;&gt;Node5</title>
<g id="a_edge22_Node000013_Node000005"><a xlink:title=" ">
<path fill="none" stroke="#63b8ff" d="M454.68,-274.8C460.13,-253.79 470.83,-199.48 447.2,-165 431.69,-142.37 402.01,-131.15 378.64,-125.65"/>
<polygon fill="#63b8ff" stroke="#63b8ff" points="379.26,-122.21 368.75,-123.57 377.81,-129.05 379.26,-122.21"/>
</a>
</g>
</g>
<!-- Node13&#45;&gt;Node8 -->
<g id="edge26_Node000013_Node000008" class="edge">
<title>Node13&#45;&gt;Node8</title>
<g id="a_edge26_Node000013_Node000008"><a xlink:title=" ">
<path fill="none" stroke="#63b8ff" d="M461.21,-274.96C469.27,-266.66 480.49,-253.25 485.2,-239 495.51,-207.77 495.28,-196.3 485.2,-165 481.85,-154.62 475.09,-144.62 468.65,-136.74"/>
<polygon fill="#63b8ff" stroke="#63b8ff" points="471.17,-134.31 461.95,-129.1 465.91,-138.92 471.17,-134.31"/>
</a>
</g>
</g>
<!-- Node13&#45;&gt;Node9 -->
<g id="edge23_Node000013_Node000009" class="edge">
<title>Node13&#45;&gt;Node9</title>
<g id="a_edge23_Node000013_Node000009"><a xlink:title=" ">
<path fill="none" stroke="#63b8ff" d="M466.67,-274.95C478.3,-267.2 493.86,-254.6 501.2,-239 525.61,-187.08 520.72,-165.51 506.2,-110 503.65,-100.26 498.44,-90.41 493.44,-82.46"/>
<polygon fill="#63b8ff" stroke="#63b8ff" points="496.31,-80.46 487.82,-74.12 490.5,-84.37 496.31,-80.46"/>
</a>
</g>
</g>
<!-- Node13&#45;&gt;Node10 -->
<g id="edge25_Node000013_Node000010" class="edge">
<title>Node13&#45;&gt;Node10</title>
<g id="a_edge25_Node000013_Node000010"><a xlink:title=" ">
<path fill="none" stroke="#63b8ff" d="M452.04,-274.96C451.16,-253.35 445.8,-196.03 414.2,-165 399.79,-150.85 351.14,-137.95 313.51,-129.73"/>
<polygon fill="#63b8ff" stroke="#63b8ff" points="314.23,-126.3 303.72,-127.64 312.77,-133.15 314.23,-126.3"/>
</a>
</g>
</g>
</g>
</svg>

<g id="navigator" transform="translate(0 0)" fill="#404254">
  <rect fill="#f2f5e9" fill-opacity="0.5" stroke="#606060" stroke-width=".5" x="0" y="0" width="60" height="60"/>
  <use id="zoomplus" xlink:href="#zoomPlus" x="17" y="9" onmousedown="handleZoom(evt,'in')"/>
  <use id="zoomminus" xlink:href="#zoomMin" x="42" y="9" onmousedown="handleZoom(evt,'out')"/>
  <use id="reset" xlink:href="#resetDef" x="30" y="36" onmousedown="handleReset()"/>
   <use id="arrowup" xlink:href="#arrowUp" x="0" y="0" onmousedown="handlePan(0,-1)"/>
  <use id="arrowright" xlink:href="#arrowRight" x="0" y="0" onmousedown="handlePan(1,0)"/>
  <use id="arrowdown" xlink:href="#arrowDown" x="0" y="0" onmousedown="handlePan(0,1)"/>
  <use id="arrowleft" xlink:href="#arrowLeft" x="0" y="0" onmousedown="handlePan(-1,0)"/>
</g>
<svg viewBox="0 0 15 15" width="100%" height="30px" preserveAspectRatio="xMaxYMin meet">
 <g id="arrow_out" transform="scale(0.3 0.3)">
  <a xlink:href="Route_8cpp__incl_org.svg" target="_base">
   <rect id="button" ry="5" rx="5" y="6" x="6" height="38" width="38"
        fill="#f2f5e9" fill-opacity="0.5" stroke="#606060" stroke-width="1.0"/>
   <path id="arrow"
     d="M 11.500037,31.436501 C 11.940474,20.09759 22.043105,11.32322 32.158766,21.979434 L 37.068811,17.246167 C 37.068811,17.246167 37.088388,32 37.088388,32 L 22.160133,31.978069 C 22.160133,31.978069 26.997745,27.140456 26.997745,27.140456 C 18.528582,18.264221 13.291696,25.230495 11.500037,31.436501 z"
     style="fill:#404040;"/>
  </a>
 </g>
</svg>

<style type='text/css'>
<![CDATA[
[data-mouse-over-selected='false'] { opacity: 0.7; }
[data-mouse-over-selected='true']  { opacity: 1.0; }
]]>
</style>
<script type="application/ecmascript"><![CDATA[
document.addEventListener('DOMContentLoaded', (event) => {
  highlightEdges();
  highlightAdjacentNodes();
});
]]></script>
</svg>
