<?xml version="1.0" encoding="UTF-8" standalone="no"?>
<!DOCTYPE svg PUBLIC "-//W3C//DTD SVG 1.1//EN"
 "http://www.w3.org/Graphics/SVG/1.1/DTD/svg11.dtd">
<!-- Generated by graphviz version 2.43.0 (0)
 -->
<!-- Title: Route.h Pages: 1 -->
<svg width="642pt" height="247pt"
 viewBox="0.00 0.00 642.26 247.00" xmlns="http://www.w3.org/2000/svg" xmlns:xlink="http://www.w3.org/1999/xlink">
<g id="graph0" class="graph" transform="scale(1 1) rotate(0) translate(4 243)">
<title>Route.h</title>
<!-- Node1 -->
<g id="Node000001" class="node">
<title>Node1</title>
<g id="a_Node000001"><a xlink:title="Déclaration de la classe Route.">
<polygon fill="#999999" stroke="#666666" points="286.26,-239 232.26,-239 232.26,-220 286.26,-220 286.26,-239"/>
<text text-anchor="middle" x="259.26" y="-227" font-family="Helvetica,sans-Serif" font-size="10.00">Route.h</text>
</a>
</g>
</g>
<!-- Node2 -->
<g id="Node000002" class="node">
<title>Node2</title>
<g id="a_Node000002"><a xlink:title=" ">
<polygon fill="#e0e0e0" stroke="#999999" points="109.26,-19 65.26,-19 65.26,0 109.26,0 109.26,-19"/>
<text text-anchor="middle" x="87.26" y="-7" font-family="Helvetica,sans-Serif" font-size="10.00">string</text>
</a>
</g>
</g>
<!-- Node1&#45;&gt;Node2 -->
<g id="edge1_Node000001_Node000002" class="edge">
<title>Node1&#45;&gt;Node2</title>
<g id="a_edge1_Node000001_Node000002"><a xlink:title=" ">
<path fill="none" stroke="#63b8ff" d="M231.87,-222.91C174.26,-209.41 42.56,-168.88 2.26,-74 -9.2,-47 26.48,-29.02 55.09,-19.29"/>
<polygon fill="#63b8ff" stroke="#63b8ff" points="56.36,-22.56 64.83,-16.19 54.24,-15.89 56.36,-22.56"/>
</a>
</g>
</g>
<!-- Node3 -->
<g id="Node000003" class="node">
<title>Node3</title>
<g id="a_Node000003"><a xlink:href="Joueur_8h.html" target="_top" xlink:title="Déclaration de la classe Joueur.">
<polygon fill="white" stroke="#666666" points="287.26,-184 231.26,-184 231.26,-165 287.26,-165 287.26,-184"/>
<text text-anchor="middle" x="259.26" y="-172" font-family="Helvetica,sans-Serif" font-size="10.00">Joueur.h</text>
</a>
</g>
</g>
<!-- Node1&#45;&gt;Node3 -->
<g id="edge2_Node000001_Node000003" class="edge">
<title>Node1&#45;&gt;Node3</title>
<g id="a_edge2_Node000001_Node000003"><a xlink:title=" ">
<path fill="none" stroke="#63b8ff" d="M254.09,-219.75C252.6,-212.8 252.16,-202.85 252.78,-194.13"/>
<polygon fill="#63b8ff" stroke="#63b8ff" points="256.27,-194.47 254.13,-184.09 249.33,-193.53 256.27,-194.47"/>
</a>
</g>
</g>
<!-- Node6 -->
<g id="Node000006" class="node">
<title>Node6</title>
<g id="a_Node000006"><a xlink:href="CouleurWagon_8h.html" target="_top" xlink:title="Définition des couleurs de wagons des joueurs.">
<polygon fill="white" stroke="#666666" points="486.26,-129 390.26,-129 390.26,-110 486.26,-110 486.26,-129"/>
<text text-anchor="middle" x="438.26" y="-117" font-family="Helvetica,sans-Serif" font-size="10.00">CouleurWagon.h</text>
</a>
</g>
</g>
<!-- Node1&#45;&gt;Node6 -->
<g id="edge18_Node000001_Node000006" class="edge">
<title>Node1&#45;&gt;Node6</title>
<g id="a_edge18_Node000001_Node000006"><a xlink:title=" ">
<path fill="none" stroke="#63b8ff" d="M273.61,-219.84C304.5,-201.2 377.58,-157.11 415.12,-134.46"/>
<polygon fill="#63b8ff" stroke="#63b8ff" points="417.09,-137.36 423.85,-129.2 413.48,-131.37 417.09,-137.36"/>
</a>
</g>
</g>
<!-- Node8 -->
<g id="Node000008" class="node">
<title>Node8</title>
<g id="a_Node000008"><a xlink:href="Ville_8h.html" target="_top" xlink:title="Déclaration de la classe Ville.">
<polygon fill="white" stroke="#666666" points="58.76,-74 11.76,-74 11.76,-55 58.76,-55 58.76,-74"/>
<text text-anchor="middle" x="35.26" y="-62" font-family="Helvetica,sans-Serif" font-size="10.00">Ville.h</text>
</a>
</g>
</g>
<!-- Node1&#45;&gt;Node8 -->
<g id="edge15_Node000001_Node000008" class="edge">
<title>Node1&#45;&gt;Node8</title>
<g id="a_edge15_Node000001_Node000008"><a xlink:title=" ">
<path fill="none" stroke="#63b8ff" d="M236.42,-219.89C200.06,-205.36 128.14,-173.17 79.26,-129 64.69,-115.83 52.39,-96.95 44.53,-83.2"/>
<polygon fill="#63b8ff" stroke="#63b8ff" points="47.5,-81.33 39.63,-74.25 41.36,-84.7 47.5,-81.33"/>
</a>
</g>
</g>
<!-- Node10 -->
<g id="Node000010" class="node">
<title>Node10</title>
<g id="a_Node000010"><a xlink:href="CouleurCarte_8h.html" target="_top" xlink:title="Définition des couleurs de cartes train et utilitaire de conversion.">
<polygon fill="white" stroke="#666666" points="378.76,-74 289.76,-74 289.76,-55 378.76,-55 378.76,-74"/>
<text text-anchor="middle" x="334.26" y="-62" font-family="Helvetica,sans-Serif" font-size="10.00">CouleurCarte.h</text>
</a>
</g>
</g>
<!-- Node1&#45;&gt;Node10 -->
<g id="edge16_Node000001_Node000010" class="edge">
<title>Node1&#45;&gt;Node10</title>
<g id="a_edge16_Node000001_Node000010"><a xlink:title=" ">
<path fill="none" stroke="#63b8ff" d="M286.48,-226.38C337.77,-220.75 447.81,-200.5 495.26,-129 523,-87.2 446.06,-72.91 389.2,-68.03"/>
<polygon fill="#63b8ff" stroke="#63b8ff" points="389.44,-64.54 379.2,-67.25 388.89,-71.52 389.44,-64.54"/>
</a>
</g>
</g>
<!-- Node11 -->
<g id="Node000011" class="node">
<title>Node11</title>
<g id="a_Node000011"><a xlink:href="CouleurRoute_8h.html" target="_top" xlink:title="Définition des couleurs de routes du plateau.">
<polygon fill="white" stroke="#666666" points="634.26,-184 542.26,-184 542.26,-165 634.26,-165 634.26,-184"/>
<text text-anchor="middle" x="588.26" y="-172" font-family="Helvetica,sans-Serif" font-size="10.00">CouleurRoute.h</text>
</a>
</g>
</g>
<!-- Node1&#45;&gt;Node11 -->
<g id="edge17_Node000001_Node000011" class="edge">
<title>Node1&#45;&gt;Node11</title>
<g id="a_edge17_Node000001_Node000011"><a xlink:title=" ">
<path fill="none" stroke="#63b8ff" d="M286.46,-224.12C340.1,-215.48 460.46,-196.09 531.92,-184.58"/>
<polygon fill="#63b8ff" stroke="#63b8ff" points="532.78,-187.98 542.1,-182.94 531.67,-181.07 532.78,-187.98"/>
</a>
</g>
</g>
<!-- Node3&#45;&gt;Node1 -->
<g id="edge14_Node000003_Node000001" class="edge">
<title>Node3&#45;&gt;Node1</title>
<g id="a_edge14_Node000003_Node000001"><a xlink:title=" ">
<path fill="none" stroke="#63b8ff" d="M264.39,-184.09C265.9,-190.99 266.36,-200.93 265.75,-209.66"/>
<polygon fill="#63b8ff" stroke="#63b8ff" points="262.26,-209.38 264.43,-219.75 269.2,-210.29 262.26,-209.38"/>
</a>
</g>
</g>
<!-- Node3&#45;&gt;Node2 -->
<g id="edge3_Node000003_Node000002" class="edge">
<title>Node3&#45;&gt;Node2</title>
<g id="a_edge3_Node000003_Node000002"><a xlink:title=" ">
<path fill="none" stroke="#63b8ff" d="M231.16,-170.03C188.25,-164.1 109.54,-150.53 92.26,-129 69.36,-100.46 75.84,-54.44 81.95,-28.97"/>
<polygon fill="#63b8ff" stroke="#63b8ff" points="85.38,-29.69 84.54,-19.13 78.61,-27.91 85.38,-29.69"/>
</a>
</g>
</g>
<!-- Node4 -->
<g id="Node000004" class="node">
<title>Node4</title>
<g id="a_Node000004"><a xlink:title=" ">
<polygon fill="#e0e0e0" stroke="#999999" points="221.76,-129 174.76,-129 174.76,-110 221.76,-110 221.76,-129"/>
<text text-anchor="middle" x="198.26" y="-117" font-family="Helvetica,sans-Serif" font-size="10.00">vector</text>
</a>
</g>
</g>
<!-- Node3&#45;&gt;Node4 -->
<g id="edge4_Node000003_Node000004" class="edge">
<title>Node3&#45;&gt;Node4</title>
<g id="a_edge4_Node000003_Node000004"><a xlink:title=" ">
<path fill="none" stroke="#63b8ff" d="M249.46,-164.98C240.44,-157.15 226.86,-145.34 215.94,-135.86"/>
<polygon fill="#63b8ff" stroke="#63b8ff" points="218.08,-133.09 208.24,-129.17 213.49,-138.37 218.08,-133.09"/>
</a>
</g>
</g>
<!-- Node5 -->
<g id="Node000005" class="node">
<title>Node5</title>
<g id="a_Node000005"><a xlink:title=" ">
<polygon fill="#e0e0e0" stroke="#999999" points="278.26,-129 240.26,-129 240.26,-110 278.26,-110 278.26,-129"/>
<text text-anchor="middle" x="259.26" y="-117" font-family="Helvetica,sans-Serif" font-size="10.00">map</text>
</a>
</g>
</g>
<!-- Node3&#45;&gt;Node5 -->
<g id="edge5_Node000003_Node000005" class="edge">
<title>Node3&#45;&gt;Node5</title>
<g id="a_edge5_Node000003_Node000005"><a xlink:title=" ">
<path fill="none" stroke="#63b8ff" d="M259.26,-164.75C259.26,-157.8 259.26,-147.85 259.26,-139.13"/>
<polygon fill="#63b8ff" stroke="#63b8ff" points="262.76,-139.09 259.26,-129.09 255.76,-139.09 262.76,-139.09"/>
</a>
</g>
</g>
<!-- Node3&#45;&gt;Node6 -->
<g id="edge6_Node000003_Node000006" class="edge">
<title>Node3&#45;&gt;Node6</title>
<g id="a_edge6_Node000003_Node000006"><a xlink:title=" ">
<path fill="none" stroke="#63b8ff" d="M287.62,-165.1C317.82,-156.16 365.8,-141.95 399.48,-131.98"/>
<polygon fill="#63b8ff" stroke="#63b8ff" points="400.84,-135.23 409.44,-129.03 398.86,-128.52 400.84,-135.23"/>
</a>
</g>
</g>
<!-- Node7 -->
<g id="Node000007" class="node">
<title>Node7</title>
<g id="a_Node000007"><a xlink:href="Ticket_8h.html" target="_top" xlink:title="Déclaration de la classe Ticket.">
<polygon fill="white" stroke="#666666" points="156.76,-129 101.76,-129 101.76,-110 156.76,-110 156.76,-129"/>
<text text-anchor="middle" x="129.26" y="-117" font-family="Helvetica,sans-Serif" font-size="10.00">Ticket.h</text>
</a>
</g>
</g>
<!-- Node3&#45;&gt;Node7 -->
<g id="edge7_Node000003_Node000007" class="edge">
<title>Node3&#45;&gt;Node7</title>
<g id="a_edge7_Node000003_Node000007"><a xlink:title=" ">
<path fill="none" stroke="#63b8ff" d="M238.37,-164.98C217.18,-156.34 184.13,-142.87 159.96,-133.02"/>
<polygon fill="#63b8ff" stroke="#63b8ff" points="161.11,-129.7 150.53,-129.17 158.47,-136.19 161.11,-129.7"/>
</a>
</g>
</g>
<!-- Node9 -->
<g id="Node000009" class="node">
<title>Node9</title>
<g id="a_Node000009"><a xlink:href="CarteTrain_8h.html" target="_top" xlink:title="Description de la classe CarteTrain.">
<polygon fill="white" stroke="#666666" points="371.76,-129 296.76,-129 296.76,-110 371.76,-110 371.76,-129"/>
<text text-anchor="middle" x="334.26" y="-117" font-family="Helvetica,sans-Serif" font-size="10.00">CarteTrain.h</text>
</a>
</g>
</g>
<!-- Node3&#45;&gt;Node9 -->
<g id="edge11_Node000003_Node000009" class="edge">
<title>Node3&#45;&gt;Node9</title>
<g id="a_edge11_Node000003_Node000009"><a xlink:title=" ">
<path fill="none" stroke="#63b8ff" d="M271.31,-164.98C282.72,-156.92 300.09,-144.65 313.7,-135.03"/>
<polygon fill="#63b8ff" stroke="#63b8ff" points="315.85,-137.8 321.99,-129.17 311.81,-132.08 315.85,-137.8"/>
</a>
</g>
</g>
<!-- Node7&#45;&gt;Node2 -->
<g id="edge10_Node000007_Node000002" class="edge">
<title>Node7&#45;&gt;Node2</title>
<g id="a_edge10_Node000007_Node000002"><a xlink:title=" ">
<path fill="none" stroke="#63b8ff" d="M125.82,-109.66C118.96,-92.01 103.43,-52.09 94.31,-28.64"/>
<polygon fill="#63b8ff" stroke="#63b8ff" points="97.51,-27.21 90.63,-19.16 90.99,-29.75 97.51,-27.21"/>
</a>
</g>
</g>
<!-- Node7&#45;&gt;Node8 -->
<g id="edge8_Node000007_Node000008" class="edge">
<title>Node7&#45;&gt;Node8</title>
<g id="a_edge8_Node000007_Node000008"><a xlink:title=" ">
<path fill="none" stroke="#63b8ff" d="M114.16,-109.98C99.45,-101.69 76.84,-88.94 59.59,-79.22"/>
<polygon fill="#63b8ff" stroke="#63b8ff" points="61.07,-76.03 50.64,-74.17 57.63,-82.13 61.07,-76.03"/>
</a>
</g>
</g>
<!-- Node8&#45;&gt;Node2 -->
<g id="edge9_Node000008_Node000002" class="edge">
<title>Node8&#45;&gt;Node2</title>
<g id="a_edge9_Node000008_Node000002"><a xlink:title=" ">
<path fill="none" stroke="#63b8ff" d="M43.85,-54.75C51.42,-47.03 62.64,-35.6 71.78,-26.28"/>
<polygon fill="#63b8ff" stroke="#63b8ff" points="74.33,-28.68 78.83,-19.09 69.33,-23.78 74.33,-28.68"/>
</a>
</g>
</g>
<!-- Node9&#45;&gt;Node10 -->
<g id="edge12_Node000009_Node000010" class="edge">
<title>Node9&#45;&gt;Node10</title>
<g id="a_edge12_Node000009_Node000010"><a xlink:title=" ">
<path fill="none" stroke="#63b8ff" d="M334.26,-109.75C334.26,-102.8 334.26,-92.85 334.26,-84.13"/>
<polygon fill="#63b8ff" stroke="#63b8ff" points="337.76,-84.09 334.26,-74.09 330.76,-84.09 337.76,-84.09"/>
</a>
</g>
</g>
<!-- Node10&#45;&gt;Node2 -->
<g id="edge13_Node000010_Node000002" class="edge">
<title>Node10&#45;&gt;Node2</title>
<g id="a_edge13_Node000010_Node000002"><a xlink:title=" ">
<path fill="none" stroke="#63b8ff" d="M294.58,-54.98C245.87,-44.53 164.23,-27.01 119.31,-17.38"/>
<polygon fill="#63b8ff" stroke="#63b8ff" points="120.02,-13.95 109.51,-15.27 118.55,-20.79 120.02,-13.95"/>
</a>
</g>
</g>
</g>
</svg>
