<?xml version="1.0" encoding="UTF-8" standalone="no"?>
<!DOCTYPE svg PUBLIC "-//W3C//DTD SVG 1.1//EN"
 "http://www.w3.org/Graphics/SVG/1.1/DTD/svg11.dtd">
<!-- Generated by graphviz version 2.43.0 (0)
 -->
<!-- Title: Route.h Pages: 1 -->
<svg width="394pt" height="192pt"
 viewBox="0.00 0.00 394.07 192.00" xmlns="http://www.w3.org/2000/svg" xmlns:xlink="http://www.w3.org/1999/xlink">
<g id="graph0" class="graph" transform="scale(1 1) rotate(0) translate(4 188)">
<title>Route.h</title>
<!-- Node1 -->
<g id="Node000001" class="node">
<title>Node1</title>
<g id="a_Node000001"><a xlink:title="Déclaration de la classe Route.">
<polygon fill="#999999" stroke="#666666" points="170.57,-184 116.57,-184 116.57,-165 170.57,-165 170.57,-184"/>
<text text-anchor="middle" x="143.57" y="-172" font-family="Helvetica,sans-Serif" font-size="10.00">Route.h</text>
</a>
</g>
</g>
<!-- Node2 -->
<g id="Node000002" class="node">
<title>Node2</title>
<g id="a_Node000002"><a xlink:href="Joueur_8h.html" target="_top" xlink:title="Déclaration de la classe Joueur.">
<polygon fill="white" stroke="#666666" points="171.57,-129 115.57,-129 115.57,-110 171.57,-110 171.57,-129"/>
<text text-anchor="middle" x="143.57" y="-117" font-family="Helvetica,sans-Serif" font-size="10.00">Joueur.h</text>
</a>
</g>
</g>
<!-- Node1&#45;&gt;Node2 -->
<g id="edge1_Node000001_Node000002" class="edge">
<title>Node1&#45;&gt;Node2</title>
<g id="a_edge1_Node000001_Node000002"><a xlink:title=" ">
<path fill="none" stroke="#63b8ff" d="M137.07,-154.66C136.47,-145.93 136.93,-135.99 138.44,-129.09"/>
<polygon fill="#63b8ff" stroke="#63b8ff" points="133.63,-155.29 138.4,-164.75 140.57,-154.38 133.63,-155.29"/>
</a>
</g>
</g>
<!-- Node7 -->
<g id="Node000007" class="node">
<title>Node7</title>
<g id="a_Node000007"><a xlink:href="Plateau_8cpp.html" target="_top" xlink:title=" ">
<polygon fill="white" stroke="#666666" points="89.57,-74 15.57,-74 15.57,-55 89.57,-55 89.57,-74"/>
<text text-anchor="middle" x="52.57" y="-62" font-family="Helvetica,sans-Serif" font-size="10.00">Plateau.cpp</text>
</a>
</g>
</g>
<!-- Node1&#45;&gt;Node7 -->
<g id="edge10_Node000001_Node000007" class="edge">
<title>Node1&#45;&gt;Node7</title>
<g id="a_edge10_Node000001_Node000007"><a xlink:title=" ">
<path fill="none" stroke="#63b8ff" d="M129.66,-157C110.06,-133.73 75,-92.13 59.86,-74.16"/>
<polygon fill="#63b8ff" stroke="#63b8ff" points="127,-159.27 136.12,-164.66 132.35,-154.76 127,-159.27"/>
</a>
</g>
</g>
<!-- Node8 -->
<g id="Node000008" class="node">
<title>Node8</title>
<g id="a_Node000008"><a xlink:href="Route_8cpp.html" target="_top" xlink:title=" ">
<polygon fill="white" stroke="#666666" points="386.07,-74 321.07,-74 321.07,-55 386.07,-55 386.07,-74"/>
<text text-anchor="middle" x="353.57" y="-62" font-family="Helvetica,sans-Serif" font-size="10.00">Route.cpp</text>
</a>
</g>
</g>
<!-- Node1&#45;&gt;Node8 -->
<g id="edge17_Node000001_Node000008" class="edge">
<title>Node1&#45;&gt;Node8</title>
<g id="a_edge17_Node000001_Node000008"><a xlink:title=" ">
<path fill="none" stroke="#63b8ff" d="M180.39,-162.99C205.2,-155.21 238.26,-143.48 265.57,-129 296.03,-112.85 327.91,-87.34 343.61,-74.11"/>
<polygon fill="#63b8ff" stroke="#63b8ff" points="179.18,-159.7 170.65,-165.97 181.23,-166.39 179.18,-159.7"/>
</a>
</g>
</g>
<!-- Node9 -->
<g id="Node000009" class="node">
<title>Node9</title>
<g id="a_Node000009"><a xlink:href="Plateau_8h.html" target="_top" xlink:title="Déclaration de la classe Plateau.">
<polygon fill="white" stroke="#666666" points="256.57,-129 194.57,-129 194.57,-110 256.57,-110 256.57,-129"/>
<text text-anchor="middle" x="225.57" y="-117" font-family="Helvetica,sans-Serif" font-size="10.00">Plateau.h</text>
</a>
</g>
</g>
<!-- Node1&#45;&gt;Node9 -->
<g id="edge11_Node000001_Node000009" class="edge">
<title>Node1&#45;&gt;Node9</title>
<g id="a_edge11_Node000001_Node000009"><a xlink:title=" ">
<path fill="none" stroke="#63b8ff" d="M165.35,-159.42C180.23,-149.81 199.47,-137.37 212.15,-129.17"/>
<polygon fill="#63b8ff" stroke="#63b8ff" points="163.24,-156.62 156.74,-164.98 167.04,-162.5 163.24,-156.62"/>
</a>
</g>
</g>
<!-- Node2&#45;&gt;Node1 -->
<g id="edge8_Node000002_Node000001" class="edge">
<title>Node2&#45;&gt;Node1</title>
<g id="a_edge8_Node000002_Node000001"><a xlink:title=" ">
<path fill="none" stroke="#63b8ff" d="M150.05,-139.13C150.66,-147.85 150.23,-157.8 148.73,-164.75"/>
<polygon fill="#63b8ff" stroke="#63b8ff" points="153.5,-138.53 148.7,-129.09 146.56,-139.47 153.5,-138.53"/>
</a>
</g>
</g>
<!-- Node3 -->
<g id="Node000003" class="node">
<title>Node3</title>
<g id="a_Node000003"><a xlink:href="Affichage_8h.html" target="_top" xlink:title=" ">
<polygon fill="white" stroke="#666666" points="264.07,-74 193.07,-74 193.07,-55 264.07,-55 264.07,-74"/>
<text text-anchor="middle" x="228.57" y="-62" font-family="Helvetica,sans-Serif" font-size="10.00">Affichage.h</text>
</a>
</g>
</g>
<!-- Node2&#45;&gt;Node3 -->
<g id="edge2_Node000002_Node000003" class="edge">
<title>Node2&#45;&gt;Node3</title>
<g id="a_edge2_Node000002_Node000003"><a xlink:title=" ">
<path fill="none" stroke="#63b8ff" d="M166.14,-104.42C181.57,-94.81 201.52,-82.37 214.66,-74.17"/>
<polygon fill="#63b8ff" stroke="#63b8ff" points="163.86,-101.72 157.22,-109.98 167.56,-107.66 163.86,-101.72"/>
</a>
</g>
</g>
<!-- Node5 -->
<g id="Node000005" class="node">
<title>Node5</title>
<g id="a_Node000005"><a xlink:href="main_8cpp.html" target="_top" xlink:title="Point d&#39;entrée du jeu Les Aventuriers du Rail.">
<polygon fill="white" stroke="#666666" points="213.57,-19 151.57,-19 151.57,0 213.57,0 213.57,-19"/>
<text text-anchor="middle" x="182.57" y="-7" font-family="Helvetica,sans-Serif" font-size="10.00">main.cpp</text>
</a>
</g>
</g>
<!-- Node2&#45;&gt;Node5 -->
<g id="edge9_Node000002_Node000005" class="edge">
<title>Node2&#45;&gt;Node5</title>
<g id="a_edge9_Node000002_Node000005"><a xlink:title=" ">
<path fill="none" stroke="#63b8ff" d="M105.05,-114.64C55.2,-108.11 -22.08,-91.79 6.57,-55 24.19,-32.37 105.71,-19.43 151.37,-13.83"/>
<polygon fill="#63b8ff" stroke="#63b8ff" points="104.87,-118.15 115.23,-115.89 105.73,-111.2 104.87,-118.15"/>
</a>
</g>
</g>
<!-- Node6 -->
<g id="Node000006" class="node">
<title>Node6</title>
<g id="a_Node000006"><a xlink:href="Joueur_8cpp.html" target="_top" xlink:title=" ">
<polygon fill="white" stroke="#666666" points="175.07,-74 108.07,-74 108.07,-55 175.07,-55 175.07,-74"/>
<text text-anchor="middle" x="141.57" y="-62" font-family="Helvetica,sans-Serif" font-size="10.00">Joueur.cpp</text>
</a>
</g>
</g>
<!-- Node2&#45;&gt;Node6 -->
<g id="edge5_Node000002_Node000006" class="edge">
<title>Node2&#45;&gt;Node6</title>
<g id="a_edge5_Node000002_Node000006"><a xlink:title=" ">
<path fill="none" stroke="#63b8ff" d="M142.86,-99.66C142.53,-90.93 142.15,-80.99 141.89,-74.09"/>
<polygon fill="#63b8ff" stroke="#63b8ff" points="139.36,-99.89 143.24,-109.75 146.36,-99.62 139.36,-99.89"/>
</a>
</g>
</g>
<!-- Node2&#45;&gt;Node7 -->
<g id="edge6_Node000002_Node000007" class="edge">
<title>Node2&#45;&gt;Node7</title>
<g id="a_edge6_Node000002_Node000007"><a xlink:title=" ">
<path fill="none" stroke="#63b8ff" d="M119.87,-104.7C103.29,-95.04 81.66,-82.44 67.45,-74.17"/>
<polygon fill="#63b8ff" stroke="#63b8ff" points="118.54,-107.98 128.95,-109.98 122.07,-101.93 118.54,-107.98"/>
</a>
</g>
</g>
<!-- Node2&#45;&gt;Node8 -->
<g id="edge7_Node000002_Node000008" class="edge">
<title>Node2&#45;&gt;Node8</title>
<g id="a_edge7_Node000002_Node000008"><a xlink:title=" ">
<path fill="none" stroke="#63b8ff" d="M181.75,-108.86C221.55,-98.82 283.25,-83.25 320.87,-73.75"/>
<polygon fill="#63b8ff" stroke="#63b8ff" points="180.73,-105.51 171.89,-111.35 182.44,-112.3 180.73,-105.51"/>
</a>
</g>
</g>
<!-- Node4 -->
<g id="Node000004" class="node">
<title>Node4</title>
<g id="a_Node000004"><a xlink:href="Affichage_8cpp.html" target="_top" xlink:title=" ">
<polygon fill="white" stroke="#666666" points="315.07,-19 232.07,-19 232.07,0 315.07,0 315.07,-19"/>
<text text-anchor="middle" x="273.57" y="-7" font-family="Helvetica,sans-Serif" font-size="10.00">Affichage.cpp</text>
</a>
</g>
</g>
<!-- Node3&#45;&gt;Node4 -->
<g id="edge3_Node000003_Node000004" class="edge">
<title>Node3&#45;&gt;Node4</title>
<g id="a_edge3_Node000003_Node000004"><a xlink:title=" ">
<path fill="none" stroke="#63b8ff" d="M242.61,-46.96C250.45,-37.72 259.9,-26.6 266.28,-19.09"/>
<polygon fill="#63b8ff" stroke="#63b8ff" points="239.8,-44.86 236,-54.75 245.14,-49.39 239.8,-44.86"/>
</a>
</g>
</g>
<!-- Node3&#45;&gt;Node5 -->
<g id="edge4_Node000003_Node000005" class="edge">
<title>Node3&#45;&gt;Node5</title>
<g id="a_edge4_Node000003_Node000005"><a xlink:title=" ">
<path fill="none" stroke="#63b8ff" d="M214.21,-46.96C206.19,-37.72 196.54,-26.6 190.02,-19.09"/>
<polygon fill="#63b8ff" stroke="#63b8ff" points="211.77,-49.49 220.97,-54.75 217.06,-44.9 211.77,-49.49"/>
</a>
</g>
</g>
<!-- Node9&#45;&gt;Node3 -->
<g id="edge12_Node000009_Node000003" class="edge">
<title>Node9&#45;&gt;Node3</title>
<g id="a_edge12_Node000009_Node000003"><a xlink:title=" ">
<path fill="none" stroke="#63b8ff" d="M226.63,-99.66C227.13,-90.93 227.69,-80.99 228.08,-74.09"/>
<polygon fill="#63b8ff" stroke="#63b8ff" points="223.13,-99.57 226.06,-109.75 230.12,-99.96 223.13,-99.57"/>
</a>
</g>
</g>
<!-- Node9&#45;&gt;Node5 -->
<g id="edge16_Node000009_Node000005" class="edge">
<title>Node9&#45;&gt;Node5</title>
<g id="a_edge16_Node000009_Node000005"><a xlink:title=" ">
<path fill="none" stroke="#63b8ff" d="M249.13,-103.87C266.21,-91.33 284.53,-72.57 273.57,-55 260.53,-34.11 234.54,-22.76 213.66,-16.76"/>
<polygon fill="#63b8ff" stroke="#63b8ff" points="246.73,-101.27 240.47,-109.82 250.7,-107.04 246.73,-101.27"/>
</a>
</g>
</g>
<!-- Node9&#45;&gt;Node6 -->
<g id="edge13_Node000009_Node000006" class="edge">
<title>Node9&#45;&gt;Node6</title>
<g id="a_edge13_Node000009_Node000006"><a xlink:title=" ">
<path fill="none" stroke="#63b8ff" d="M203.26,-104.42C188.02,-94.81 168.3,-82.37 155.31,-74.17"/>
<polygon fill="#63b8ff" stroke="#63b8ff" points="201.75,-107.61 212.07,-109.98 205.48,-101.69 201.75,-107.61"/>
</a>
</g>
</g>
<!-- Node9&#45;&gt;Node7 -->
<g id="edge14_Node000009_Node000007" class="edge">
<title>Node9&#45;&gt;Node7</title>
<g id="a_edge14_Node000009_Node000007"><a xlink:title=" ">
<path fill="none" stroke="#63b8ff" d="M187.79,-106.93C155.48,-97.03 109.71,-83.01 80.58,-74.08"/>
<polygon fill="#63b8ff" stroke="#63b8ff" points="187.19,-110.4 197.77,-109.98 189.24,-103.71 187.19,-110.4"/>
</a>
</g>
</g>
<!-- Node9&#45;&gt;Node8 -->
<g id="edge15_Node000009_Node000008" class="edge">
<title>Node9&#45;&gt;Node8</title>
<g id="a_edge15_Node000009_Node000008"><a xlink:title=" ">
<path fill="none" stroke="#63b8ff" d="M255.69,-106.03C279.36,-96.23 311.71,-82.83 332.63,-74.17"/>
<polygon fill="#63b8ff" stroke="#63b8ff" points="254.03,-102.93 246.13,-109.98 256.71,-109.39 254.03,-102.93"/>
</a>
</g>
</g>
</g>
</svg>
