<?xml version="1.0" encoding="UTF-8" standalone="no"?>
<!DOCTYPE svg PUBLIC "-//W3C//DTD SVG 1.1//EN"
 "http://www.w3.org/Graphics/SVG/1.1/DTD/svg11.dtd">
<!-- Generated by graphviz version 2.43.0 (0)
 -->
<!-- Title: Ticket.h Pages: 1 -->
<svg width="85pt" height="137pt"
 viewBox="0.00 0.00 85.00 137.00" xmlns="http://www.w3.org/2000/svg" xmlns:xlink="http://www.w3.org/1999/xlink">
<g id="graph0" class="graph" transform="scale(1 1) rotate(0) translate(4 133)">
<title>Ticket.h</title>
<!-- Node1 -->
<g id="Node000001" class="node">
<title>Node1</title>
<g id="a_Node000001"><a xlink:title="Déclaration de la classe Ticket.">
<polygon fill="#999999" stroke="#666666" points="77,-129 22,-129 22,-110 77,-110 77,-129"/>
<text text-anchor="middle" x="49.5" y="-117" font-family="Helvetica,sans-Serif" font-size="10.00">Ticket.h</text>
</a>
</g>
</g>
<!-- Node2 -->
<g id="Node000002" class="node">
<title>Node2</title>
<g id="a_Node000002"><a xlink:href="Ville_8h.html" target="_top" xlink:title="Déclaration de la classe Ville.">
<polygon fill="white" stroke="#666666" points="47,-74 0,-74 0,-55 47,-55 47,-74"/>
<text text-anchor="middle" x="23.5" y="-62" font-family="Helvetica,sans-Serif" font-size="10.00">Ville.h</text>
</a>
</g>
</g>
<!-- Node1&#45;&gt;Node2 -->
<g id="edge1_Node000001_Node000002" class="edge">
<title>Node1&#45;&gt;Node2</title>
<g id="a_edge1_Node000001_Node000002"><a xlink:title=" ">
<path fill="none" stroke="#63b8ff" d="M45.21,-109.75C41.69,-102.57 36.59,-92.18 32.22,-83.27"/>
<polygon fill="#63b8ff" stroke="#63b8ff" points="35.26,-81.53 27.71,-74.09 28.98,-84.61 35.26,-81.53"/>
</a>
</g>
</g>
<!-- Node3 -->
<g id="Node000003" class="node">
<title>Node3</title>
<g id="a_Node000003"><a xlink:title=" ">
<polygon fill="#e0e0e0" stroke="#999999" points="71.5,-19 27.5,-19 27.5,0 71.5,0 71.5,-19"/>
<text text-anchor="middle" x="49.5" y="-7" font-family="Helvetica,sans-Serif" font-size="10.00">string</text>
</a>
</g>
</g>
<!-- Node1&#45;&gt;Node3 -->
<g id="edge3_Node000001_Node000003" class="edge">
<title>Node1&#45;&gt;Node3</title>
<g id="a_edge3_Node000001_Node000003"><a xlink:title=" ">
<path fill="none" stroke="#63b8ff" d="M51.3,-109.68C53.03,-100.74 55.52,-86.48 56.5,-74 57.68,-58.93 55.62,-41.91 53.43,-29.29"/>
<polygon fill="#63b8ff" stroke="#63b8ff" points="56.8,-28.27 51.48,-19.11 49.93,-29.59 56.8,-28.27"/>
</a>
</g>
</g>
<!-- Node2&#45;&gt;Node3 -->
<g id="edge2_Node000002_Node000003" class="edge">
<title>Node2&#45;&gt;Node3</title>
<g id="a_edge2_Node000002_Node000003"><a xlink:title=" ">
<path fill="none" stroke="#63b8ff" d="M27.79,-54.75C31.31,-47.57 36.41,-37.18 40.78,-28.27"/>
<polygon fill="#63b8ff" stroke="#63b8ff" points="44.02,-29.61 45.29,-19.09 37.74,-26.53 44.02,-29.61"/>
</a>
</g>
</g>
</g>
</svg>
