<?xml version="1.0" encoding="UTF-8" standalone="no"?>
<!DOCTYPE svg PUBLIC "-//W3C//DTD SVG 1.1//EN"
 "http://www.w3.org/Graphics/SVG/1.1/DTD/svg11.dtd">
<!-- Generated by graphviz version 2.43.0 (0)
 -->
<!-- Title: Ville.h Pages: 1 -->
<svg width="615pt" height="247pt"
 viewBox="0.00 0.00 615.00 247.00" xmlns="http://www.w3.org/2000/svg" xmlns:xlink="http://www.w3.org/1999/xlink">
<g id="graph0" class="graph" transform="scale(1 1) rotate(0) translate(4 243)">
<title>Ville.h</title>
<!-- Node1 -->
<g id="Node000001" class="node">
<title>Node1</title>
<g id="a_Node000001"><a xlink:title="Déclaration de la classe Ville.">
<polygon fill="#999999" stroke="#666666" points="425,-239 378,-239 378,-220 425,-220 425,-239"/>
<text text-anchor="middle" x="401.5" y="-227" font-family="Helvetica,sans-Serif" font-size="10.00">Ville.h</text>
</a>
</g>
</g>
<!-- Node2 -->
<g id="Node000002" class="node">
<title>Node2</title>
<g id="a_Node000002"><a xlink:href="Plateau_8cpp.html" target="_top" xlink:title=" ">
<polygon fill="white" stroke="#666666" points="409.5,-74 335.5,-74 335.5,-55 409.5,-55 409.5,-74"/>
<text text-anchor="middle" x="372.5" y="-62" font-family="Helvetica,sans-Serif" font-size="10.00">Plateau.cpp</text>
</a>
</g>
</g>
<!-- Node1&#45;&gt;Node2 -->
<g id="edge1_Node000001_Node000002" class="edge">
<title>Node1&#45;&gt;Node2</title>
<g id="a_edge1_Node000001_Node000002"><a xlink:title=" ">
<path fill="none" stroke="#63b8ff" d="M411.38,-210.78C423.29,-186.89 439.91,-143.48 424.5,-110 417.15,-94.03 400.91,-81.65 388.53,-74.05"/>
<polygon fill="#63b8ff" stroke="#63b8ff" points="408.22,-209.26 406.67,-219.74 414.42,-212.52 408.22,-209.26"/>
</a>
</g>
</g>
<!-- Node3 -->
<g id="Node000003" class="node">
<title>Node3</title>
<g id="a_Node000003"><a xlink:href="Plateau_8h.html" target="_top" xlink:title="Déclaration de la classe Plateau.">
<polygon fill="white" stroke="#666666" points="143.5,-129 81.5,-129 81.5,-110 143.5,-110 143.5,-129"/>
<text text-anchor="middle" x="112.5" y="-117" font-family="Helvetica,sans-Serif" font-size="10.00">Plateau.h</text>
</a>
</g>
</g>
<!-- Node1&#45;&gt;Node3 -->
<g id="edge2_Node000001_Node000003" class="edge">
<title>Node1&#45;&gt;Node3</title>
<g id="a_edge2_Node000001_Node000003"><a xlink:title=" ">
<path fill="none" stroke="#63b8ff" d="M367.97,-225.79C308.65,-220.47 188.19,-207.1 153.5,-184 133.18,-170.47 120.75,-143.08 115.46,-129.11"/>
<polygon fill="#63b8ff" stroke="#63b8ff" points="367.69,-229.28 377.96,-226.66 368.3,-222.31 367.69,-229.28"/>
</a>
</g>
</g>
<!-- Node6 -->
<g id="Node000006" class="node">
<title>Node6</title>
<g id="a_Node000006"><a xlink:href="main_8cpp.html" target="_top" xlink:title="Point d&#39;entrée du jeu Les Aventuriers du Rail.">
<polygon fill="white" stroke="#666666" points="265.5,-19 203.5,-19 203.5,0 265.5,0 265.5,-19"/>
<text text-anchor="middle" x="234.5" y="-7" font-family="Helvetica,sans-Serif" font-size="10.00">main.cpp</text>
</a>
</g>
</g>
<!-- Node1&#45;&gt;Node6 -->
<g id="edge29_Node000001_Node000006" class="edge">
<title>Node1&#45;&gt;Node6</title>
<g id="a_edge29_Node000001_Node000006"><a xlink:title=" ">
<path fill="none" stroke="#63b8ff" d="M418.96,-212.8C426.42,-204.96 434.36,-194.84 438.5,-184 458.97,-130.44 474.64,-98.68 437.5,-55 415.59,-29.23 316.88,-17.34 265.62,-12.82"/>
<polygon fill="#63b8ff" stroke="#63b8ff" points="416.49,-210.31 411.81,-219.82 421.4,-215.31 416.49,-210.31"/>
</a>
</g>
</g>
<!-- Node9 -->
<g id="Node000009" class="node">
<title>Node9</title>
<g id="a_Node000009"><a xlink:href="Route_8h.html" target="_top" xlink:title="Déclaration de la classe Route.">
<polygon fill="white" stroke="#666666" points="216.5,-184 162.5,-184 162.5,-165 216.5,-165 216.5,-184"/>
<text text-anchor="middle" x="189.5" y="-172" font-family="Helvetica,sans-Serif" font-size="10.00">Route.h</text>
</a>
</g>
</g>
<!-- Node1&#45;&gt;Node9 -->
<g id="edge10_Node000001_Node000009" class="edge">
<title>Node1&#45;&gt;Node9</title>
<g id="a_edge10_Node000001_Node000009"><a xlink:title=" ">
<path fill="none" stroke="#63b8ff" d="M367.86,-220.09C325.97,-209.62 255.26,-191.94 216.65,-182.29"/>
<polygon fill="#63b8ff" stroke="#63b8ff" points="367.04,-223.49 377.59,-222.52 368.74,-216.7 367.04,-223.49"/>
</a>
</g>
</g>
<!-- Node11 -->
<g id="Node000011" class="node">
<title>Node11</title>
<g id="a_Node000011"><a xlink:href="Ticket_8h.html" target="_top" xlink:title="Déclaration de la classe Ticket.">
<polygon fill="white" stroke="#666666" points="349,-184 294,-184 294,-165 349,-165 349,-184"/>
<text text-anchor="middle" x="321.5" y="-172" font-family="Helvetica,sans-Serif" font-size="10.00">Ticket.h</text>
</a>
</g>
</g>
<!-- Node1&#45;&gt;Node11 -->
<g id="edge21_Node000001_Node000011" class="edge">
<title>Node1&#45;&gt;Node11</title>
<g id="a_edge21_Node000001_Node000011"><a xlink:title=" ">
<path fill="none" stroke="#63b8ff" d="M380.25,-214.42C365.74,-204.81 346.96,-192.37 334.59,-184.17"/>
<polygon fill="#63b8ff" stroke="#63b8ff" points="378.38,-217.38 388.65,-219.98 382.24,-211.54 378.38,-217.38"/>
</a>
</g>
</g>
<!-- Node13 -->
<g id="Node000013" class="node">
<title>Node13</title>
<g id="a_Node000013"><a xlink:href="Ville_8cpp.html" target="_top" xlink:title=" ">
<polygon fill="white" stroke="#666666" points="607,-184 548,-184 548,-165 607,-165 607,-184"/>
<text text-anchor="middle" x="577.5" y="-172" font-family="Helvetica,sans-Serif" font-size="10.00">Ville.cpp</text>
</a>
</g>
</g>
<!-- Node1&#45;&gt;Node13 -->
<g id="edge28_Node000001_Node000013" class="edge">
<title>Node1&#45;&gt;Node13</title>
<g id="a_edge28_Node000001_Node000013"><a xlink:title=" ">
<path fill="none" stroke="#63b8ff" d="M434.91,-218.44C467.98,-208.48 518.04,-193.41 549.2,-184.02"/>
<polygon fill="#63b8ff" stroke="#63b8ff" points="433.8,-215.12 425.24,-221.35 435.82,-221.82 433.8,-215.12"/>
</a>
</g>
</g>
<!-- Node3&#45;&gt;Node2 -->
<g id="edge7_Node000003_Node000002" class="edge">
<title>Node3&#45;&gt;Node2</title>
<g id="a_edge7_Node000003_Node000002"><a xlink:title=" ">
<path fill="none" stroke="#63b8ff" d="M153.39,-109.83C223.47,-95.33 293.73,-81.21 335.5,-72.87"/>
<polygon fill="#63b8ff" stroke="#63b8ff" points="152.58,-106.42 143.5,-111.88 154,-113.28 152.58,-106.42"/>
</a>
</g>
</g>
<!-- Node4 -->
<g id="Node000004" class="node">
<title>Node4</title>
<g id="a_Node000004"><a xlink:href="Affichage_8h.html" target="_top" xlink:title=" ">
<polygon fill="white" stroke="#666666" points="193,-74 122,-74 122,-55 193,-55 193,-74"/>
<text text-anchor="middle" x="157.5" y="-62" font-family="Helvetica,sans-Serif" font-size="10.00">Affichage.h</text>
</a>
</g>
</g>
<!-- Node3&#45;&gt;Node4 -->
<g id="edge3_Node000003_Node000004" class="edge">
<title>Node3&#45;&gt;Node4</title>
<g id="a_edge3_Node000003_Node000004"><a xlink:title=" ">
<path fill="none" stroke="#63b8ff" d="M126.55,-101.96C134.39,-92.72 143.83,-81.6 150.21,-74.09"/>
<polygon fill="#63b8ff" stroke="#63b8ff" points="123.74,-99.86 119.93,-109.75 129.07,-104.39 123.74,-99.86"/>
</a>
</g>
</g>
<!-- Node3&#45;&gt;Node6 -->
<g id="edge9_Node000003_Node000006" class="edge">
<title>Node3&#45;&gt;Node6</title>
<g id="a_edge9_Node000003_Node000006"><a xlink:title=" ">
<path fill="none" stroke="#63b8ff" d="M107.25,-100.03C104.53,-86.37 103.42,-67.97 112.5,-55 123.16,-39.76 170.76,-25.68 203.25,-17.59"/>
<polygon fill="#63b8ff" stroke="#63b8ff" points="103.86,-100.88 109.62,-109.77 110.66,-99.23 103.86,-100.88"/>
</a>
</g>
</g>
<!-- Node7 -->
<g id="Node000007" class="node">
<title>Node7</title>
<g id="a_Node000007"><a xlink:href="Joueur_8cpp.html" target="_top" xlink:title=" ">
<polygon fill="white" stroke="#666666" points="317,-74 250,-74 250,-55 317,-55 317,-74"/>
<text text-anchor="middle" x="283.5" y="-62" font-family="Helvetica,sans-Serif" font-size="10.00">Joueur.cpp</text>
</a>
</g>
</g>
<!-- Node3&#45;&gt;Node7 -->
<g id="edge6_Node000003_Node000007" class="edge">
<title>Node3&#45;&gt;Node7</title>
<g id="a_edge6_Node000003_Node000007"><a xlink:title=" ">
<path fill="none" stroke="#63b8ff" d="M149.84,-106.93C181.78,-97.03 227.02,-83.01 255.81,-74.08"/>
<polygon fill="#63b8ff" stroke="#63b8ff" points="148.49,-103.68 139.97,-109.98 150.56,-110.37 148.49,-103.68"/>
</a>
</g>
</g>
<!-- Node8 -->
<g id="Node000008" class="node">
<title>Node8</title>
<g id="a_Node000008"><a xlink:href="Route_8cpp.html" target="_top" xlink:title=" ">
<polygon fill="white" stroke="#666666" points="65,-74 0,-74 0,-55 65,-55 65,-74"/>
<text text-anchor="middle" x="32.5" y="-62" font-family="Helvetica,sans-Serif" font-size="10.00">Route.cpp</text>
</a>
</g>
</g>
<!-- Node3&#45;&gt;Node8 -->
<g id="edge8_Node000003_Node000008" class="edge">
<title>Node3&#45;&gt;Node8</title>
<g id="a_edge8_Node000003_Node000008"><a xlink:title=" ">
<path fill="none" stroke="#63b8ff" d="M91.25,-104.42C76.74,-94.81 57.96,-82.37 45.59,-74.17"/>
<polygon fill="#63b8ff" stroke="#63b8ff" points="89.38,-107.38 99.65,-109.98 93.24,-101.54 89.38,-107.38"/>
</a>
</g>
</g>
<!-- Node5 -->
<g id="Node000005" class="node">
<title>Node5</title>
<g id="a_Node000005"><a xlink:href="Affichage_8cpp.html" target="_top" xlink:title=" ">
<polygon fill="white" stroke="#666666" points="185,-19 102,-19 102,0 185,0 185,-19"/>
<text text-anchor="middle" x="143.5" y="-7" font-family="Helvetica,sans-Serif" font-size="10.00">Affichage.cpp</text>
</a>
</g>
</g>
<!-- Node4&#45;&gt;Node5 -->
<g id="edge4_Node000004_Node000005" class="edge">
<title>Node4&#45;&gt;Node5</title>
<g id="a_edge4_Node000004_Node000005"><a xlink:title=" ">
<path fill="none" stroke="#63b8ff" d="M152.6,-44.95C150.28,-36.15 147.61,-26.06 145.77,-19.09"/>
<polygon fill="#63b8ff" stroke="#63b8ff" points="149.25,-45.97 155.19,-54.75 156.02,-44.19 149.25,-45.97"/>
</a>
</g>
</g>
<!-- Node4&#45;&gt;Node6 -->
<g id="edge5_Node000004_Node000006" class="edge">
<title>Node4&#45;&gt;Node6</title>
<g id="a_edge5_Node000004_Node000006"><a xlink:title=" ">
<path fill="none" stroke="#63b8ff" d="M178.35,-49.15C192.26,-39.57 210.11,-27.29 221.9,-19.17"/>
<polygon fill="#63b8ff" stroke="#63b8ff" points="176.12,-46.43 169.87,-54.98 180.09,-52.2 176.12,-46.43"/>
</a>
</g>
</g>
<!-- Node9&#45;&gt;Node2 -->
<g id="edge18_Node000009_Node000002" class="edge">
<title>Node9&#45;&gt;Node2</title>
<g id="a_edge18_Node000009_Node000002"><a xlink:title=" ">
<path fill="none" stroke="#63b8ff" d="M213.1,-159.57C251.54,-136.89 326.52,-92.64 358.02,-74.05"/>
<polygon fill="#63b8ff" stroke="#63b8ff" points="211,-156.75 204.17,-164.84 214.56,-162.78 211,-156.75"/>
</a>
</g>
</g>
<!-- Node9&#45;&gt;Node3 -->
<g id="edge19_Node000009_Node000003" class="edge">
<title>Node9&#45;&gt;Node3</title>
<g id="a_edge19_Node000009_Node000003"><a xlink:title=" ">
<path fill="none" stroke="#63b8ff" d="M168.65,-159.15C154.74,-149.57 136.89,-137.29 125.1,-129.17"/>
<polygon fill="#63b8ff" stroke="#63b8ff" points="166.91,-162.2 177.13,-164.98 170.88,-156.43 166.91,-162.2"/>
</a>
</g>
</g>
<!-- Node9&#45;&gt;Node8 -->
<g id="edge20_Node000009_Node000008" class="edge">
<title>Node9&#45;&gt;Node8</title>
<g id="a_edge20_Node000009_Node000008"><a xlink:title=" ">
<path fill="none" stroke="#63b8ff" d="M152.63,-165.96C127.89,-159.44 95.7,-148 72.5,-129 53.95,-113.81 41.4,-87.65 35.81,-74.14"/>
<polygon fill="#63b8ff" stroke="#63b8ff" points="151.84,-169.37 162.39,-168.38 153.52,-162.58 151.84,-169.37"/>
</a>
</g>
</g>
<!-- Node10 -->
<g id="Node000010" class="node">
<title>Node10</title>
<g id="a_Node000010"><a xlink:href="Joueur_8h.html" target="_top" xlink:title="Déclaration de la classe Joueur.">
<polygon fill="white" stroke="#666666" points="217.5,-129 161.5,-129 161.5,-110 217.5,-110 217.5,-129"/>
<text text-anchor="middle" x="189.5" y="-117" font-family="Helvetica,sans-Serif" font-size="10.00">Joueur.h</text>
</a>
</g>
</g>
<!-- Node9&#45;&gt;Node10 -->
<g id="edge11_Node000009_Node000010" class="edge">
<title>Node9&#45;&gt;Node10</title>
<g id="a_edge11_Node000009_Node000010"><a xlink:title=" ">
<path fill="none" stroke="#63b8ff" d="M183.01,-154.66C182.41,-145.93 182.86,-135.99 184.37,-129.09"/>
<polygon fill="#63b8ff" stroke="#63b8ff" points="179.56,-155.29 184.33,-164.75 186.5,-154.38 179.56,-155.29"/>
</a>
</g>
</g>
<!-- Node10&#45;&gt;Node2 -->
<g id="edge14_Node000010_Node000002" class="edge">
<title>Node10&#45;&gt;Node2</title>
<g id="a_edge14_Node000010_Node000002"><a xlink:title=" ">
<path fill="none" stroke="#63b8ff" d="M227.37,-107.53C261.72,-97.59 311.63,-83.13 343.06,-74.03"/>
<polygon fill="#63b8ff" stroke="#63b8ff" points="226.32,-104.19 217.69,-110.33 228.27,-110.91 226.32,-104.19"/>
</a>
</g>
</g>
<!-- Node10&#45;&gt;Node4 -->
<g id="edge12_Node000010_Node000004" class="edge">
<title>Node10&#45;&gt;Node4</title>
<g id="a_edge12_Node000010_Node000004"><a xlink:title=" ">
<path fill="none" stroke="#63b8ff" d="M179,-101.1C173.53,-92.04 167.08,-81.37 162.69,-74.09"/>
<polygon fill="#63b8ff" stroke="#63b8ff" points="176.05,-103 184.22,-109.75 182.04,-99.38 176.05,-103"/>
</a>
</g>
</g>
<!-- Node10&#45;&gt;Node6 -->
<g id="edge17_Node000010_Node000006" class="edge">
<title>Node10&#45;&gt;Node6</title>
<g id="a_edge17_Node000010_Node000006"><a xlink:title=" ">
<path fill="none" stroke="#63b8ff" d="M197.16,-100.12C206.97,-76.56 223.6,-36.66 230.89,-19.16"/>
<polygon fill="#63b8ff" stroke="#63b8ff" points="193.8,-99.08 193.18,-109.66 200.26,-101.78 193.8,-99.08"/>
</a>
</g>
</g>
<!-- Node10&#45;&gt;Node7 -->
<g id="edge13_Node000010_Node000007" class="edge">
<title>Node10&#45;&gt;Node7</title>
<g id="a_edge13_Node000010_Node000007"><a xlink:title=" ">
<path fill="none" stroke="#63b8ff" d="M213.5,-104.97C230.69,-95.28 253.31,-82.52 268.12,-74.17"/>
<polygon fill="#63b8ff" stroke="#63b8ff" points="211.59,-102.02 204.6,-109.98 215.03,-108.12 211.59,-102.02"/>
</a>
</g>
</g>
<!-- Node10&#45;&gt;Node8 -->
<g id="edge15_Node000010_Node000008" class="edge">
<title>Node10&#45;&gt;Node8</title>
<g id="a_edge15_Node000010_Node000008"><a xlink:title=" ">
<path fill="none" stroke="#63b8ff" d="M154.45,-106.67C125.18,-96.79 84.13,-82.93 57.92,-74.08"/>
<polygon fill="#63b8ff" stroke="#63b8ff" points="153.68,-110.1 164.28,-109.98 155.92,-103.47 153.68,-110.1"/>
</a>
</g>
</g>
<!-- Node10&#45;&gt;Node9 -->
<g id="edge16_Node000010_Node000009" class="edge">
<title>Node10&#45;&gt;Node9</title>
<g id="a_edge16_Node000010_Node000009"><a xlink:title=" ">
<path fill="none" stroke="#63b8ff" d="M195.98,-139.13C196.6,-147.85 196.16,-157.8 194.67,-164.75"/>
<polygon fill="#63b8ff" stroke="#63b8ff" points="199.43,-138.53 194.63,-129.09 192.49,-139.47 199.43,-138.53"/>
</a>
</g>
</g>
<!-- Node11&#45;&gt;Node2 -->
<g id="edge24_Node000011_Node000002" class="edge">
<title>Node11&#45;&gt;Node2</title>
<g id="a_edge24_Node000011_Node000002"><a xlink:title=" ">
<path fill="none" stroke="#63b8ff" d="M325.34,-154.89C328.43,-141.9 333.43,-124.38 340.5,-110 347.14,-96.51 357.77,-82.72 364.94,-74.14"/>
<polygon fill="#63b8ff" stroke="#63b8ff" points="321.86,-154.43 323.11,-164.95 328.69,-155.94 321.86,-154.43"/>
</a>
</g>
</g>
<!-- Node11&#45;&gt;Node3 -->
<g id="edge25_Node000011_Node000003" class="edge">
<title>Node11&#45;&gt;Node3</title>
<g id="a_edge25_Node000011_Node000003"><a xlink:title=" ">
<path fill="none" stroke="#63b8ff" d="M283.83,-163.95C243.79,-153.79 181.2,-137.92 143.78,-128.43"/>
<polygon fill="#63b8ff" stroke="#63b8ff" points="283.19,-167.4 293.75,-166.46 284.91,-160.61 283.19,-167.4"/>
</a>
</g>
</g>
<!-- Node11&#45;&gt;Node6 -->
<g id="edge27_Node000011_Node000006" class="edge">
<title>Node11&#45;&gt;Node6</title>
<g id="a_edge27_Node000011_Node000006"><a xlink:title=" ">
<path fill="none" stroke="#63b8ff" d="M359.09,-167.8C382.19,-162.15 410.05,-150.98 424.5,-129 434.03,-114.5 437.33,-76.43 418.5,-55 398.59,-32.35 312.69,-19.31 265.62,-13.74"/>
<polygon fill="#63b8ff" stroke="#63b8ff" points="358.22,-164.41 349.2,-169.97 359.72,-171.25 358.22,-164.41"/>
</a>
</g>
</g>
<!-- Node11&#45;&gt;Node7 -->
<g id="edge22_Node000011_Node000007" class="edge">
<title>Node11&#45;&gt;Node7</title>
<g id="a_edge22_Node000011_Node000007"><a xlink:title=" ">
<path fill="none" stroke="#63b8ff" d="M315.03,-155.12C306.74,-131.56 292.7,-91.66 286.55,-74.16"/>
<polygon fill="#63b8ff" stroke="#63b8ff" points="311.77,-156.39 318.39,-164.66 318.37,-154.07 311.77,-156.39"/>
</a>
</g>
</g>
<!-- Node11&#45;&gt;Node10 -->
<g id="edge23_Node000011_Node000010" class="edge">
<title>Node11&#45;&gt;Node10</title>
<g id="a_edge23_Node000011_Node000010"><a xlink:title=" ">
<path fill="none" stroke="#63b8ff" d="M290.77,-161.16C266.33,-151.35 232.76,-137.87 211.09,-129.17"/>
<polygon fill="#63b8ff" stroke="#63b8ff" points="289.71,-164.51 300.29,-164.98 292.32,-158.01 289.71,-164.51"/>
</a>
</g>
</g>
<!-- Node12 -->
<g id="Node000012" class="node">
<title>Node12</title>
<g id="a_Node000012"><a xlink:href="Ticket_8cpp.html" target="_top" xlink:title=" ">
<polygon fill="white" stroke="#666666" points="415.5,-129 349.5,-129 349.5,-110 415.5,-110 415.5,-129"/>
<text text-anchor="middle" x="382.5" y="-117" font-family="Helvetica,sans-Serif" font-size="10.00">Ticket.cpp</text>
</a>
</g>
</g>
<!-- Node11&#45;&gt;Node12 -->
<g id="edge26_Node000011_Node000012" class="edge">
<title>Node11&#45;&gt;Node12</title>
<g id="a_edge26_Node000011_Node000012"><a xlink:title=" ">
<path fill="none" stroke="#63b8ff" d="M338.97,-158.32C349.84,-148.87 363.44,-137.06 372.52,-129.17"/>
<polygon fill="#63b8ff" stroke="#63b8ff" points="336.55,-155.78 331.3,-164.98 341.15,-161.07 336.55,-155.78"/>
</a>
</g>
</g>
</g>
</svg>
